<svg width="80" height="80" viewBox="0 0 80 80" fill="none" xmlns="http://www.w3.org/2000/svg">
<path d="M80 56C80 42.7452 69.2548 32 56 32C42.7452 32 32 42.7452 32 56C32 69.2548 42.7452 80 56 80C69.2548 80 80 69.2548 80 56Z" fill="#D6DFFF"/>
<path fill-rule="evenodd" clip-rule="evenodd" d="M68.4 49.6699H48.96V47.6699H68.4V49.6699Z" fill="#0E2946"/>
<path d="M45.6 48.6699C45.6 48.1176 45.1523 47.6699 44.6 47.6699C44.0477 47.6699 43.6 48.1176 43.6 48.6699C43.6 49.2222 44.0477 49.6699 44.6 49.6699C45.1523 49.6699 45.6 49.2222 45.6 48.6699Z" fill="#0E2946" stroke="#0E2946" stroke-miterlimit="10"/>
<path d="M45.6 56C45.6 55.4477 45.1523 55 44.6 55C44.0477 55 43.6 55.4477 43.6 56C43.6 56.5523 44.0477 57 44.6 57C45.1523 57 45.6 56.5523 45.6 56Z" fill="#0E2946" stroke="#0E2946" stroke-miterlimit="10"/>
<path d="M45.6 63.3301C45.6 62.7778 45.1523 62.3301 44.6 62.3301C44.0477 62.3301 43.6 62.7778 43.6 63.3301C43.6 63.8824 44.0477 64.3301 44.6 64.3301C45.1523 64.3301 45.6 63.8824 45.6 63.3301Z" fill="#0E2946" stroke="#0E2946" stroke-miterlimit="10"/>
<path fill-rule="evenodd" clip-rule="evenodd" d="M65.96 57H48.96V55H65.96V57Z" fill="#0E2946"/>
<path fill-rule="evenodd" clip-rule="evenodd" d="M61.07 64.3301H48.96V62.3301H61.07V64.3301Z" fill="#0E2946"/>
<path fill-rule="evenodd" clip-rule="evenodd" d="M53.0113 8.58811C46.7986 6.01473 39.9623 5.34142 33.3669 6.65332C26.7716 7.96521 20.7134 11.2034 15.9584 15.9584C11.2034 20.7134 7.96521 26.7716 6.65332 33.3669C5.34142 39.9623 6.01473 46.7986 8.58811 53.0113C11.1615 59.2239 15.5194 64.534 21.1106 68.27C26.7019 72.006 33.2755 74 40 74V76C32.8799 76 25.9197 73.8886 19.9995 69.9329C14.0793 65.9772 9.46511 60.3548 6.74035 53.7766C4.0156 47.1985 3.30268 39.9601 4.69175 32.9768C6.08081 25.9934 9.50948 19.5789 14.5442 14.5442C19.5789 9.50948 25.9934 6.08081 32.9768 4.69175C39.9601 3.30268 47.1985 4.0156 53.7766 6.74035C60.3548 9.46511 65.9772 14.0793 69.9329 19.9995C73.8886 25.9197 76 32.8799 76 40H74C74 33.2755 72.006 26.7019 68.27 21.1106C64.534 15.5194 59.2239 11.1615 53.0113 8.58811Z" fill="#0E2946"/>
<path fill-rule="evenodd" clip-rule="evenodd" d="M39.29 39.5326V12.1699H41.29V40.4672L29.0216 50.727L27.7385 49.1928L39.29 39.5326Z" fill="#0E2946"/>
<path d="M43.29 40C43.29 38.3431 41.9469 37 40.29 37C38.6332 37 37.29 38.3431 37.29 40C37.29 41.6569 38.6332 43 40.29 43C41.9469 43 43.29 41.6569 43.29 40Z" fill="#0E2946" stroke="#0E2946" stroke-miterlimit="10"/>
</svg>
