<svg width="80" height="80" viewBox="0 0 80 80" fill="none" xmlns="http://www.w3.org/2000/svg">
<path d="M40 21C43.7578 21 47.4313 22.1143 50.5558 24.2021C53.6804 26.2898 56.1156 29.2572 57.5537 32.729C58.9918 36.2008 59.368 40.0211 58.6349 43.7067C57.9018 47.3924 56.0922 50.7778 53.435 53.435C50.7778 56.0922 47.3924 57.9018 43.7067 58.6349C40.0211 59.368 36.2008 58.9918 32.729 57.5537C29.2572 56.1156 26.2898 53.6804 24.2021 50.5558C22.1143 47.4313 21 43.7578 21 40C21 34.9609 23.0018 30.1282 26.565 26.565C30.1282 23.0018 34.9609 21 40 21ZM40 5C30.7174 5 21.815 8.68749 15.2513 15.2513C8.68749 21.815 5 30.7174 5 40C5 49.2826 8.68749 58.185 15.2513 64.7487C21.815 71.3125 30.7174 75 40 75C49.2826 75 58.185 71.3125 64.7487 64.7487C71.3125 58.185 75 49.2826 75 40C75 30.7174 71.3125 21.815 64.7487 15.2513C58.185 8.68749 49.2826 5 40 5Z" fill="#D6DFFF"/>
<path d="M13.1399 37.1399C13.3799 36.8999 13.6199 36.67 13.8799 36.45" stroke="#0E2946" stroke-width="2" stroke-miterlimit="10"/>
<path fill-rule="evenodd" clip-rule="evenodd" d="M25.6385 33.1761C24.9704 33.1638 24.3033 33.1922 23.6409 33.2606L23.4355 31.2712C24.1781 31.1945 24.9261 31.1627 25.6753 31.1765L25.6385 33.1761ZM28.6174 33.5031C28.2897 33.4366 27.9609 33.3802 27.6316 33.3339L27.91 31.3534C28.2793 31.4053 28.6479 31.4685 29.0153 31.5431C29.3826 31.6177 29.7467 31.7032 30.107 31.7994L29.5912 33.7317C29.2698 33.6459 28.9451 33.5697 28.6174 33.5031ZM21.6681 33.586C21.0189 33.734 20.378 33.9214 19.7492 34.1476L19.0722 32.2657C19.7772 32.0121 20.4957 31.8019 21.2237 31.636L21.6681 33.586ZM33.2947 35.2201C32.7114 34.8989 32.1081 34.6127 31.4881 34.3635L32.2339 32.5077C32.9291 32.7872 33.6055 33.1081 34.2595 33.4682L33.2947 35.2201ZM17.0371 35.4118C17.3248 35.2444 17.6168 35.0862 17.9125 34.9372L17.0127 33.1511C16.6796 33.3188 16.3509 33.4971 16.0269 33.6857L16.0269 33.6857L16.019 33.6904C15.9239 33.7469 15.8284 33.8043 15.7329 33.8626L16.7745 35.5699C16.8615 35.5169 16.9491 35.4642 17.0371 35.4118ZM16.2559 35.897C16.1709 35.9527 16.0874 36.0085 16.0056 36.0646L14.8745 34.4152C14.969 34.3503 15.0644 34.2866 15.1602 34.2238L16.2559 35.897ZM36.5325 37.5543C36.0416 37.1008 35.5246 36.6784 34.9844 36.289L36.154 34.6666C36.7596 35.1032 37.3394 35.5769 37.8897 36.0853L36.5325 37.5543ZM38.5398 39.7795C38.3393 39.5119 38.1312 39.2512 37.916 38.9976L39.441 37.7036C39.6823 37.9879 39.9155 38.2803 40.1403 38.5803L38.5398 39.7795Z" fill="#0E2946"/>
<path d="M39.9099 40C40.0899 40.27 40.2599 40.56 40.4299 40.85" stroke="#0E2946" stroke-width="2" stroke-miterlimit="10"/>
<path d="M40.4299 40.8501C40.5999 41.1401 40.7799 41.4201 40.9599 41.7001" stroke="#0E2946" stroke-width="2" stroke-miterlimit="10"/>
<path fill-rule="evenodd" clip-rule="evenodd" d="M42.1846 44.8224C41.9388 44.5651 41.6999 44.3001 41.4683 44.0278L42.9919 42.7322C43.1984 42.975 43.4114 43.2113 43.6306 43.4407L42.1846 44.8224ZM45.4721 47.5475C44.8748 47.1594 44.2994 46.7364 43.7492 46.2803L45.0256 44.7406C45.5161 45.1472 46.0291 45.5243 46.5617 45.8703L45.4721 47.5475ZM64.7819 48.035C64.4726 48.2144 64.1589 48.3843 63.8413 48.5448L62.9396 46.7595C63.2228 46.6165 63.5025 46.465 63.7783 46.305L64.7819 48.035ZM49.298 49.4439C48.6253 49.2027 47.9682 48.9231 47.33 48.6067L48.2182 46.8148C48.7873 47.0968 49.3731 47.3462 49.9729 47.5612L49.298 49.4439ZM61.8797 49.3966C61.2088 49.6428 60.5252 49.8494 59.8326 50.0158L59.3655 48.0711C59.9831 47.9227 60.5925 47.7386 61.1907 47.5191L61.8797 49.3966ZM52.3984 50.2593C52.046 50.1987 51.6963 50.1281 51.3497 50.0476L51.8021 48.0995C52.1112 48.1712 52.423 48.2342 52.7372 48.2882C53.0514 48.3422 53.3663 48.387 53.6816 48.4225L53.4575 50.4099C53.1039 50.37 52.7507 50.3199 52.3984 50.2593ZM57.7276 50.3939C57.0204 50.479 56.3077 50.5232 55.593 50.5259L55.5855 48.5259C56.2227 48.5235 56.8581 48.4841 57.4887 48.4082L57.7276 50.3939Z" fill="#0E2946"/>
<path d="M65.1799 46.62C65.4699 46.43 65.7399 46.24 65.9999 46.05" stroke="#0E2946" stroke-width="2" stroke-miterlimit="10"/>
<path d="M72.43 36.5C72.43 36.65 72.35 36.8 72.3 36.94" stroke="#0E2946" stroke-width="2" stroke-miterlimit="10" stroke-dasharray="0.46 0.46"/>
<path d="M46.4399 34.8501H34.4399V46.8501H46.4399V34.8501Z" fill="white"/>
<path fill-rule="evenodd" clip-rule="evenodd" d="M33.4399 33.8501H47.4399V47.8501H33.4399V33.8501ZM35.4399 35.8501V45.8501H45.4399V35.8501H35.4399Z" fill="#0E2946"/>
<path fill-rule="evenodd" clip-rule="evenodd" d="M8.43994 35.8501C5.67852 35.8501 3.43994 38.0887 3.43994 40.8501C3.43994 43.6115 5.67852 45.8501 8.43994 45.8501C11.2014 45.8501 13.4399 43.6115 13.4399 40.8501C13.4399 38.0887 11.2014 35.8501 8.43994 35.8501ZM1.43994 40.8501C1.43994 36.9841 4.57395 33.8501 8.43994 33.8501C12.3059 33.8501 15.4399 36.9841 15.4399 40.8501C15.4399 44.7161 12.3059 47.8501 8.43994 47.8501C4.57395 47.8501 1.43994 44.7161 1.43994 40.8501Z" fill="#0E2946"/>
<path fill-rule="evenodd" clip-rule="evenodd" d="M71.5599 33.6504L79.2921 47.0401H63.8276L71.5599 33.6504ZM67.2921 45.0401H75.8276L71.5599 37.6497L67.2921 45.0401Z" fill="#0E2946"/>
</svg>
