<svg width="80" height="80" viewBox="0 0 80 80" fill="none" xmlns="http://www.w3.org/2000/svg">
<g clip-path="url(#clip0_854_1793)">
<path d="M80 0H40V40H80V0Z" fill="#FFECB8"/>
<path d="M11 80H9V71H0V69H11V80Z" fill="#0E2946"/>
<path d="M16 75H14V66H5V64H16V75Z" fill="#0E2946"/>
<path d="M21 70H19V61H10V59H21V70Z" fill="#0E2946"/>
<path d="M39.2962 39.2914L9.2937 69.2939L10.7079 70.7082L40.7105 40.7056L39.2962 39.2914Z" fill="#0E2946"/>
<path d="M40 76C35.1904 76.0089 30.4286 75.0463 26 73.17L26.78 71.33C34.045 74.397 42.1502 74.8432 49.7079 72.5924C57.2657 70.3415 63.806 65.5336 68.2093 58.9916C72.6125 52.4496 74.6048 44.5805 73.8451 36.7314C73.0855 28.8823 69.621 21.5413 64.0449 15.9652C58.4688 10.3891 51.1278 6.92461 43.2787 6.16493C35.4296 5.40525 27.5604 7.39757 21.0185 11.8008C14.4765 16.2041 9.66855 22.7444 7.4177 30.3022C5.16685 37.8599 5.6131 45.9651 8.68004 53.23L6.83004 54C3.11701 45.2028 3.05074 35.2909 6.64581 26.4448C10.2409 17.5987 17.2028 10.5431 26 6.83004C34.7973 3.11701 44.7092 3.05074 53.5553 6.64581C62.4014 10.2409 69.457 17.2028 73.17 26C75.4804 31.4734 76.4003 37.4335 75.8477 43.3488C75.2951 49.2641 73.287 54.9507 70.0028 59.9014C66.7185 64.852 62.26 68.913 57.025 71.722C51.7899 74.5309 45.9411 76.0007 40 76Z" fill="#0E2946"/>
<path d="M40.0001 66C36.527 66.0159 33.0859 65.3359 29.8801 64L30.6601 62.15C33.6172 63.3926 36.7925 64.0326 40.0001 64.0326C43.2076 64.0326 46.3829 63.3926 49.3401 62.15C52.2486 60.9238 54.8867 59.1359 57.1033 56.8887C59.3199 54.6415 61.0714 51.9792 62.2576 49.0541C63.4438 46.129 64.0414 42.9987 64.016 39.8423C63.9907 36.686 63.343 33.5656 62.1101 30.66C60.8837 27.7563 59.0974 25.1226 56.8531 22.9093C54.6088 20.6961 51.9506 18.9466 49.0301 17.7608C46.1096 16.5749 42.9842 15.976 39.8322 15.9982C36.6803 16.0203 33.5635 16.6632 30.6601 17.89C27.7564 19.1163 25.1227 20.9026 22.9094 23.1469C20.6962 25.3912 18.9467 28.0495 17.7608 30.9699C16.575 33.8904 15.9761 37.0158 15.9983 40.1678C16.0204 43.3198 16.6633 46.4365 17.8901 49.34L16.0001 50.12C13.8267 44.9766 13.3669 39.2703 14.6887 33.8453C16.0104 28.4204 19.0435 23.5651 23.3391 19.9978C27.6347 16.4306 32.9645 14.341 38.54 14.0383C44.1154 13.7355 49.6402 15.2357 54.2968 18.3168C58.9534 21.3979 62.4944 25.8963 64.3958 31.1462C66.2972 36.3961 66.458 42.1187 64.8544 47.4671C63.2508 52.8155 59.968 57.5056 55.4917 60.8434C51.0155 64.1811 45.5837 65.9892 40.0001 66Z" fill="#0E2946"/>
<path d="M40 56.0001C37.8596 56.0053 35.7402 55.5767 33.77 54.7401L34.55 52.9001C37.1167 53.9843 39.9485 54.2779 42.683 53.7435C45.4176 53.2091 47.9304 51.8708 49.9 49.9001C51.5231 48.2781 52.7226 46.2821 53.393 44.0876C54.0634 41.8931 54.1841 39.5675 53.7446 37.3155C53.305 35.0634 52.3186 32.9539 50.8723 31.1725C49.4259 29.3912 47.5639 27.9927 45.45 27.1001C43.724 26.3773 41.8713 26.0051 40 26.0051C38.1287 26.0051 36.2761 26.3773 34.55 27.1001C32.8849 27.7997 31.3731 28.8189 30.1 30.1001C28.1293 32.0697 26.7911 34.5826 26.2566 37.3171C25.7222 40.0516 26.0159 42.8834 27.1 45.4501L25.26 46.2301C24.4369 44.2928 24.0042 42.2122 23.9865 40.1073C23.9689 38.0025 24.3667 35.9149 25.1573 33.9641C25.9478 32.0133 27.1155 30.2377 28.5934 28.739C30.0714 27.2402 31.8305 26.0478 33.77 25.2301C35.743 24.4033 37.8608 23.9775 40 23.9775C42.1392 23.9775 44.2571 24.4033 46.23 25.2301C49.651 26.6548 52.4713 29.2229 54.2094 32.4957C55.9475 35.7686 56.4957 39.5433 55.7603 43.1754C55.0249 46.8074 53.0516 50.0716 50.1772 52.4106C47.3029 54.7495 43.7058 56.0182 40 56.0001Z" fill="#0E2946"/>
<path d="M40 46V44C40.7911 44 41.5645 43.7654 42.2223 43.3259C42.8801 42.8864 43.3928 42.2616 43.6955 41.5307C43.9983 40.7998 44.0775 39.9956 43.9231 39.2196C43.7688 38.4437 43.3878 37.731 42.8284 37.1716C42.269 36.6122 41.5563 36.2312 40.7804 36.0769C40.0044 35.9225 39.2002 36.0017 38.4693 36.3045C37.7384 36.6072 37.1136 37.1199 36.6741 37.7777C36.2346 38.4355 36 39.2089 36 40H34C34 38.8133 34.3519 37.6533 35.0112 36.6666C35.6705 35.6799 36.6075 34.9109 37.7039 34.4567C38.8003 34.0026 40.0067 33.8838 41.1705 34.1153C42.3344 34.3468 43.4035 34.9182 44.2426 35.7574C45.0818 36.5965 45.6532 37.6656 45.8847 38.8295C46.1162 39.9933 45.9974 41.1997 45.5433 42.2961C45.0892 43.3925 44.3201 44.3295 43.3334 44.9888C42.3467 45.6481 41.1867 46 40 46Z" fill="#0E2946"/>
</g>
<defs>
<clipPath id="clip0_854_1793">
<rect width="80" height="80" fill="white"/>
</clipPath>
</defs>
</svg>
