<svg width="80" height="80" viewBox="0 0 80 80" fill="none" xmlns="http://www.w3.org/2000/svg">
<g clip-path="url(#clip0_2129_1673)">
<path d="M0.222168 0H80.2222V80" fill="#FCD9D9"/>
<path fill-rule="evenodd" clip-rule="evenodd" d="M14.7373 36.7072L6.7373 28.7072L8.15152 27.293L16.1515 35.293L14.7373 36.7072Z" fill="#0E2946"/>
<path fill-rule="evenodd" clip-rule="evenodd" d="M7 35L15 27L16.4142 28.4142L8.41421 36.4142L7 35Z" fill="#0E2946"/>
<path fill-rule="evenodd" clip-rule="evenodd" d="M21.7705 50.9649C22.3859 51.2253 23.0155 51.4475 23.6557 51.6309L23.105 53.5536C22.3872 53.348 21.6813 53.0988 20.9912 52.8069L21.7705 50.9649ZM19.128 49.5514C19.4073 49.7352 19.6914 49.9101 19.9798 50.0758L18.9834 51.8099C18.66 51.6241 18.3415 51.4281 18.0284 51.222C17.7153 51.0159 17.4093 50.8009 17.1108 50.5774L18.3095 48.9764C18.5757 49.1758 18.8487 49.3676 19.128 49.5514ZM25.6076 52.064C26.2653 52.1686 26.9298 52.2335 27.5976 52.2579L27.5247 54.2566C26.7759 54.2292 26.0308 54.1565 25.2935 54.0392L25.6076 52.064ZM15.4274 46.2152C15.849 46.7306 16.3021 47.221 16.7847 47.6833L15.401 49.1275C14.86 48.6091 14.3519 48.0593 13.8793 47.4814L15.4274 46.2152ZM30.5855 52.0954C30.2561 52.1435 29.9263 52.1816 29.5963 52.2096L29.7657 54.2024C30.1373 54.1709 30.5088 54.128 30.8797 54.0736L30.8797 54.0737L30.8888 54.0723C30.9981 54.0552 31.1081 54.0375 31.2185 54.019L30.8881 52.0465C30.7876 52.0634 30.6867 52.0796 30.5855 52.0954ZM31.4912 51.9363C31.5909 51.9163 31.6892 51.8956 31.786 51.874L32.221 53.8261C32.1091 53.8511 31.9968 53.8747 31.8845 53.8972L31.4912 51.9363ZM13.2926 42.8426C13.5791 43.4463 13.9015 44.031 14.2576 44.5937L12.5678 45.6634C12.1684 45.0325 11.8069 44.377 11.4857 43.7L13.2926 42.8426ZM12.259 40.0297C12.3454 40.3527 12.4413 40.6722 12.5465 40.9877L10.6492 41.6203C10.5312 41.2665 10.4237 40.9083 10.3269 40.5461L12.259 40.0297Z" fill="#0E2946"/>
<path fill-rule="evenodd" clip-rule="evenodd" d="M55.0394 43.9928C56.5167 40.8096 57.3462 38.0896 57.3462 36.1731C57.3462 27.7932 50.5529 21 42.1731 21C33.7932 21 27 27.7932 27 36.1731C27 38.0896 27.8295 40.8096 29.3068 43.9928C30.7559 47.1154 32.72 50.4584 34.7492 53.5443C36.7759 56.6264 38.8403 59.4106 40.4687 61.4105C41.1326 62.2258 41.7101 62.8936 42.1731 63.3912C42.6361 62.8936 43.2136 62.2258 43.8774 61.4105C45.5058 59.4106 47.5702 56.6264 49.597 53.5443C51.6262 50.4584 53.5902 47.1154 55.0394 43.9928ZM42.1731 66C43.5288 66 59.3462 45.6575 59.3462 36.1731C59.3462 26.6886 51.6575 19 42.1731 19C32.6886 19 25 26.6886 25 36.1731C25 45.6575 40.8173 66 42.1731 66ZM42.1731 45.9231C47.5579 45.9231 51.9231 41.5579 51.9231 36.1731C51.9231 30.7883 47.5579 26.4231 42.1731 26.4231C36.7883 26.4231 32.4231 30.7883 32.4231 36.1731C32.4231 41.5579 36.7883 45.9231 42.1731 45.9231ZM42.1731 47.9231C48.6624 47.9231 53.9231 42.6624 53.9231 36.1731C53.9231 29.6837 48.6624 24.4231 42.1731 24.4231C35.6837 24.4231 30.4231 29.6837 30.4231 36.1731C30.4231 42.6624 35.6837 47.9231 42.1731 47.9231Z" fill="#0E2946"/>
<path fill-rule="evenodd" clip-rule="evenodd" d="M67.333 39H74.333V41H67.333V39Z" fill="#0E2946"/>
<path fill-rule="evenodd" clip-rule="evenodd" d="M63.0879 25.1348L69.1429 21.6348L70.1438 23.3663L64.0888 26.8663L63.0879 25.1348Z" fill="#0E2946"/>
<path fill-rule="evenodd" clip-rule="evenodd" d="M52.4673 15.2455L55.9673 9.18945L57.6989 10.1902L54.1989 16.2462L52.4673 15.2455Z" fill="#0E2946"/>
<path fill-rule="evenodd" clip-rule="evenodd" d="M40.333 5V12H38.333V5H40.333Z" fill="#0E2946"/>
</g>
<defs>
<clipPath id="clip0_2129_1673">
<rect width="80" height="80" fill="white"/>
</clipPath>
</defs>
</svg>
