<svg width="80" height="80" viewBox="0 0 80 80" fill="none" xmlns="http://www.w3.org/2000/svg">
<g clip-path="url(#clip0_854_1744)">
<g clip-path="url(#clip1_854_1744)">
<path d="M80 80L80 40L40 40L40 80L80 80Z" fill="#FCD9D9"/>
<path d="M-4.80825e-07 11L-3.93402e-07 9L9 9L9 -8.74228e-08L11 0L11 11L-4.80825e-07 11Z" fill="#0E2946"/>
<path d="M5 16L5 14L14 14L14 5L16 5L16 16L5 16Z" fill="#0E2946"/>
<path d="M10 21L10 19L19 19L19 10L21 10L21 21L10 21Z" fill="#0E2946"/>
<path d="M40.7087 39.2962L10.7062 9.2937L9.29196 10.7079L39.2945 40.7105L40.7087 39.2962Z" fill="#0E2946"/>
<path d="M3.99996 40C3.99114 35.1904 4.95372 30.4286 6.82996 26L8.66996 26.78C5.60302 34.045 5.15677 42.1502 7.40762 49.7079C9.65847 57.2657 14.4664 63.806 21.0084 68.2092C27.5504 72.6125 35.4195 74.6048 43.2686 73.8451C51.1177 73.0855 58.4587 69.621 64.0348 64.0449C69.6109 58.4688 73.0754 51.1278 73.8351 43.2787C74.5948 35.4296 72.6024 27.5604 68.1992 21.0185C63.7959 14.4765 57.2556 9.66855 49.6978 7.4177C42.1401 5.16685 34.0349 5.6131 26.77 8.68004L26 6.83004C34.7972 3.11701 44.7091 3.05074 53.5552 6.64581C62.4013 10.2409 69.4569 17.2028 73.17 26C76.883 34.7973 76.9493 44.7092 73.3542 53.5553C69.7591 62.4014 62.7972 69.457 54 73.17C48.5266 75.4804 42.5665 76.4003 36.6512 75.8477C30.7359 75.295 25.0493 73.287 20.0986 70.0028C15.148 66.7185 11.087 62.26 8.27804 57.025C5.46906 51.7899 3.99934 45.9411 3.99996 40Z" fill="#0E2946"/>
<path d="M14 40C13.9841 36.527 14.6641 33.0859 16 29.88L17.85 30.66C16.6074 33.6172 15.9674 36.7925 15.9674 40C15.9674 43.2076 16.6074 46.3829 17.85 49.3401C19.0762 52.2486 20.8641 54.8867 23.1113 57.1033C25.3585 59.3199 28.0208 61.0714 30.9459 62.2576C33.871 63.4438 37.0013 64.0414 40.1577 64.016C43.314 63.9907 46.4344 63.343 49.34 62.1101C52.2437 60.8837 54.8774 59.0974 57.0907 56.8531C59.3039 54.6088 61.0534 51.9506 62.2392 49.0301C63.4251 46.1096 64.024 42.9842 64.0018 39.8322C63.9797 36.6803 63.3368 33.5635 62.11 30.6601C60.8837 27.7564 59.0974 25.1227 56.8531 22.9094C54.6088 20.6962 51.9505 18.9467 49.0301 17.7608C46.1096 16.575 42.9842 15.9761 39.8322 15.9982C36.6802 16.0204 33.5635 16.6633 30.66 17.89L29.88 16C35.0234 13.8267 40.7297 13.3669 46.1547 14.6887C51.5796 16.0104 56.4349 19.0435 60.0022 23.3391C63.5694 27.6347 65.659 32.9645 65.9617 38.54C66.2645 44.1154 64.7643 49.6402 61.6832 54.2968C58.6021 58.9534 54.1037 62.4944 48.8538 64.3958C43.6039 66.2972 37.8813 66.458 32.5329 64.8544C27.1845 63.2508 22.4944 59.968 19.1566 55.4917C15.8189 51.0155 14.0108 45.5837 14 40Z" fill="#0E2946"/>
<path d="M24 39.9999C23.9948 37.8595 24.4234 35.7401 25.26 33.7699L27.1 34.5499C26.0159 37.1166 25.7222 39.9484 26.2566 42.6829C26.7911 45.4174 28.1293 47.9303 30.1 49.8999C31.722 51.523 33.7181 52.7225 35.9125 53.3929C38.107 54.0632 40.4326 54.184 42.6847 53.7444C44.9367 53.3049 47.0463 52.3185 48.8276 50.8722C50.6089 49.4258 52.0074 47.5638 52.9 45.4499C53.6228 43.7238 53.9951 41.8712 53.9951 39.9999C53.9951 38.1286 53.6228 36.276 52.9 34.5499C52.2004 32.8848 51.1812 31.373 49.9 30.0999C47.9304 28.1292 45.4176 26.7909 42.683 26.2565C39.9485 25.7221 37.1167 26.0157 34.55 27.0999L33.77 25.2599C35.7073 24.4368 37.788 24.004 39.8928 23.9864C41.9976 23.9688 44.0852 24.3666 46.036 25.1571C47.9868 25.9477 49.7624 27.1154 51.2612 28.5933C52.7599 30.0712 53.9523 31.8304 54.77 33.7699C55.5968 35.7429 56.0226 37.8607 56.0226 39.9999C56.0226 42.1391 55.5968 44.2569 54.77 46.2299C53.3453 49.6508 50.7772 52.4711 47.5044 54.2093C44.2315 55.9474 40.4568 56.4956 36.8248 55.7602C33.1927 55.0248 29.9285 53.0515 27.5896 50.1771C25.2506 47.3028 23.9819 43.7056 24 39.9999Z" fill="#0E2946"/>
<path d="M34 40L36 40C36 40.7911 36.2346 41.5645 36.6741 42.2223C37.1136 42.8801 37.7384 43.3928 38.4693 43.6955C39.2002 43.9983 40.0044 44.0775 40.7804 43.9231C41.5563 43.7688 42.269 43.3878 42.8284 42.8284C43.3878 42.269 43.7688 41.5563 43.9231 40.7804C44.0775 40.0044 43.9983 39.2002 43.6955 38.4693C43.3928 37.7384 42.8801 37.1136 42.2223 36.6741C41.5645 36.2346 40.7911 36 40 36L40 34C41.1867 34 42.3467 34.3519 43.3334 35.0112C44.3201 35.6705 45.0891 36.6075 45.5433 37.7039C45.9974 38.8003 46.1162 40.0067 45.8847 41.1705C45.6532 42.3344 45.0818 43.4035 44.2426 44.2426C43.4035 45.0818 42.3344 45.6532 41.1705 45.8847C40.0067 46.1162 38.8003 45.9974 37.7039 45.5433C36.6075 45.0892 35.6705 44.3201 35.0112 43.3334C34.3519 42.3467 34 41.1867 34 40Z" fill="#0E2946"/>
</g>
</g>
<defs>
<clipPath id="clip0_854_1744">
<rect width="80" height="80" fill="white"/>
</clipPath>
<clipPath id="clip1_854_1744">
<rect width="80" height="80" fill="white" transform="translate(80) rotate(90)"/>
</clipPath>
</defs>
</svg>
