<svg width="80" height="80" viewBox="0 0 80 80" fill="none" xmlns="http://www.w3.org/2000/svg">
<g clip-path="url(#clip0_854_1745)">
<path d="M51.5027 40.3987L40.4011 51.5002L68.1621 79.2613L79.2637 68.1597L51.5027 40.3987Z" fill="#FFECB8"/>
<path d="M32.15 63.56C49.4973 63.56 63.56 49.4973 63.56 32.15C63.56 14.8027 49.4973 0.73999 32.15 0.73999C14.8027 0.73999 0.73999 14.8027 0.73999 32.15C0.73999 49.4973 14.8027 63.56 32.15 63.56Z" fill="#FFECB8"/>
<path d="M32.1501 45.2401C39.3795 45.2401 45.2401 39.3795 45.2401 32.1501C45.2401 24.9207 39.3795 19.0601 32.1501 19.0601C24.9207 19.0601 19.0601 24.9207 19.0601 32.1501C19.0601 39.3795 24.9207 45.2401 32.1501 45.2401Z" fill="white"/>
<path fill-rule="evenodd" clip-rule="evenodd" d="M36.1899 15.31C36.1899 13.2058 37.8957 11.5 39.9999 11.5C42.1041 11.5 43.8099 13.2058 43.8099 15.31V20.13C43.8099 22.1508 42.2367 23.8042 40.2482 23.932C40.1655 23.9307 40.0828 23.9301 40.0001 23.9301C39.9172 23.9301 39.8345 23.9307 39.7518 23.932C37.7632 23.8042 36.1899 22.1508 36.1899 20.13V15.31ZM36.0949 24.432C34.9247 23.3692 34.1899 21.8354 34.1899 20.13V15.31C34.1899 12.1012 36.7912 9.5 39.9999 9.5C43.2087 9.5 45.8099 12.1012 45.8099 15.31V20.13C45.8099 21.8354 45.0752 23.3691 43.905 24.432C46.5358 25.1198 48.9621 26.4966 50.9178 28.4523C53.3493 30.8838 54.8861 34.0428 55.3162 37.4177C55.8471 37.2137 56.388 37.0395 56.9364 36.8955C55.7728 35.8583 55.04 34.348 55.04 32.6665V27.9934C55.04 24.8656 57.5756 22.33 60.7035 22.33C63.8313 22.33 66.3669 24.8656 66.3669 27.9934V32.6665C66.3669 34.3158 65.6619 35.8004 64.5369 36.8354C65.3276 37.0296 66.1036 37.2865 66.8574 37.6045C68.757 38.406 70.4769 39.5799 71.9155 41.0569C73.3541 42.5339 74.4823 44.284 75.2336 46.2041C75.9848 48.1241 76.3439 50.1752 76.2897 52.2363L74.2904 52.1837C74.3376 50.3896 74.025 48.6042 73.3711 46.9328C72.7171 45.2615 71.735 43.738 70.4828 42.4524C69.2305 41.1667 67.7334 40.1449 66.0799 39.4472C64.4263 38.7495 62.6498 38.39 60.855 38.39C59.0603 38.39 57.2838 38.7495 55.6302 39.4472C53.9766 40.1449 52.4796 41.1667 51.2273 42.4524C49.975 43.738 48.993 45.2615 48.339 46.9328C47.7491 48.4405 47.437 50.0409 47.4162 51.6569C49.9789 52.6655 52.3338 54.1959 54.3189 56.1811C58.1165 59.9787 60.25 65.1294 60.25 70.5H58.25C58.25 65.6598 56.3272 61.0178 52.9047 57.5953C49.4822 54.1728 44.8402 52.25 40 52.25C35.1598 52.25 30.5178 54.1728 27.0953 57.5953C23.6728 61.0178 21.75 65.6598 21.75 70.5H19.75C19.75 65.1294 21.8835 59.9787 25.6811 56.1811C27.6663 54.1959 30.0212 52.6655 32.584 51.6568C32.5631 50.0409 32.251 48.4405 31.6611 46.9328C31.0072 45.2615 30.0251 43.738 28.7728 42.4524C27.5206 41.1667 26.0235 40.1449 24.3699 39.4472C22.7164 38.7495 20.9398 38.39 19.1451 38.39C17.3503 38.39 15.5738 38.7495 13.9202 39.4472C12.2667 40.1449 10.7696 41.1667 9.51734 42.4524C8.26508 43.738 7.283 45.2615 6.62905 46.9328C5.97509 48.6042 5.66251 50.3896 5.70973 52.1837L3.71042 52.2363C3.65617 50.1752 4.01527 48.1241 4.76654 46.2041C5.51781 44.284 6.64603 42.5339 8.08464 41.0569C9.52325 39.5799 11.2431 38.406 13.1427 37.6045C13.8235 37.3172 14.5225 37.0799 15.234 36.8936C14.0717 35.8564 13.3398 34.3469 13.3398 32.6665V27.9934C13.3398 24.8656 15.8754 22.33 19.0033 22.33C22.1311 22.33 24.6667 24.8656 24.6667 27.9934V32.6665C24.6667 34.3168 23.9609 35.8022 22.8346 36.8373C23.4616 36.9916 24.0793 37.1853 24.6839 37.4177C25.1141 34.0428 26.6508 30.8838 29.0823 28.4523C31.038 26.4967 33.4642 25.1198 36.0949 24.432ZM44.6186 50.7837C44.8932 50.848 45.1663 50.918 45.4377 50.9937C45.4566 50.6449 45.4874 50.297 45.5298 49.9508C45.2509 50.2538 44.9459 50.5326 44.6186 50.7837ZM47.4101 44.2388C48.063 43.0825 48.8638 42.0125 49.7946 41.0569C50.8562 39.9669 52.071 39.042 53.3982 38.31C53.147 35.1335 51.773 32.136 49.5036 29.8665C47.0505 27.4135 43.7469 26.0066 40.2858 25.9331C40.1911 25.9377 40.0958 25.94 39.9999 25.94C39.9041 25.94 39.8088 25.9377 39.7141 25.9331C36.2532 26.0067 32.9496 27.4135 30.4965 29.8665C28.2271 32.136 26.8531 35.1335 26.6019 38.31C27.9291 39.042 29.1439 39.9669 30.2055 41.0569C31.1316 42.0076 31.929 43.0716 32.5801 44.2212V38.12C32.5801 34.1877 35.7678 31 39.7001 31H40.2901C44.2223 31 47.4101 34.1877 47.4101 38.12V44.2388ZM34.4718 49.9632C34.7483 50.2622 35.0502 50.5374 35.3739 50.7854C35.1018 50.8493 34.8313 50.9187 34.5624 50.9937C34.5437 50.649 34.5135 50.3054 34.4718 49.9632ZM57.04 27.9934C57.04 25.9701 58.6802 24.33 60.7035 24.33C62.7267 24.33 64.3669 25.9701 64.3669 27.9934V32.6665C64.3669 34.6898 62.7267 36.33 60.7035 36.33C58.6802 36.33 57.04 34.6898 57.04 32.6665V27.9934ZM15.3398 27.9934C15.3398 25.9701 16.98 24.33 19.0033 24.33C21.0265 24.33 22.6667 25.9701 22.6667 27.9934V32.6665C22.6667 34.6898 21.0265 36.33 19.0033 36.33C16.98 36.33 15.3398 34.6898 15.3398 32.6665V27.9934ZM34.5801 38.12C34.5801 35.2923 36.8724 33 39.7001 33H40.2901C43.1178 33 45.4101 35.2923 45.4101 38.12V45.13C45.4101 47.9577 43.1178 50.25 40.2901 50.25H40H39.7001C36.8724 50.25 34.5801 47.9577 34.5801 45.13V38.12Z" fill="#0E2946"/>
</g>
<defs>
<clipPath id="clip0_854_1745">
<rect width="80" height="80" fill="white"/>
</clipPath>
</defs>
</svg>
