<svg width="80" height="80" viewBox="0 0 80 80" fill="none" xmlns="http://www.w3.org/2000/svg">
<path d="M40 80H0V40" fill="#FFECB8"/>
<path fill-rule="evenodd" clip-rule="evenodd" d="M74.7758 5.79199L71.2906 23.1963C70.838 25.4511 70.146 27.6516 69.2267 29.7597L69.2226 29.7691C67.4278 33.7711 64.8686 37.384 61.6888 40.4049L61.682 40.4114C58.755 43.1402 55.4169 45.3915 51.7901 47.0827L42.2568 51.7209L28.8389 38.3029L33.4773 28.7797C35.1685 25.153 37.4198 21.8149 40.1486 18.888L40.1565 18.8795C43.1802 15.7108 46.793 13.1623 50.7924 11.3768L50.8009 11.373C52.9089 10.4553 55.1083 9.76376 57.3621 9.3097C57.3619 9.30974 57.3622 9.30967 57.3621 9.3097L74.7758 5.79199ZM72.2243 8.34782L57.7581 11.2701C55.6442 11.6959 53.5808 12.3446 51.6035 13.2049C47.8451 14.8836 44.4498 17.2786 41.6075 20.2561C39.0217 23.0306 36.8886 26.1947 35.2865 29.6323L35.2828 29.6401L31.2613 37.8969L42.6633 49.2989L50.9301 45.277L50.9376 45.2735C54.3756 43.6712 57.54 41.5379 60.3146 38.9518C63.3028 36.1121 65.708 32.7165 67.3955 28.9555C68.2569 26.9792 68.9053 24.9168 69.3296 22.8031L72.2243 8.34782Z" fill="#0E2946"/>
<path fill-rule="evenodd" clip-rule="evenodd" d="M52.81 22.9099C50.1314 22.9099 47.96 25.0813 47.96 27.7599C47.96 30.4385 50.1314 32.6099 52.81 32.6099C55.4885 32.6099 57.66 30.4385 57.66 27.7599C57.66 25.0813 55.4885 22.9099 52.81 22.9099ZM45.96 27.7599C45.96 23.9768 49.0268 20.9099 52.81 20.9099C56.5931 20.9099 59.66 23.9768 59.66 27.7599C59.66 31.5431 56.5931 34.6099 52.81 34.6099C49.0268 34.6099 45.96 31.5431 45.96 27.7599Z" fill="#0E2946"/>
<path fill-rule="evenodd" clip-rule="evenodd" d="M25.203 16.7028C27.5848 14.32 30.8159 12.9812 34.1851 12.9812C37.5543 12.9812 40.7855 14.32 43.1673 16.703L41.7528 18.1169C39.746 16.1092 37.0237 14.9812 34.1851 14.9812C31.3464 14.9812 28.6241 16.1092 26.6173 18.1169L14.2072 30.527L12.793 29.1128L25.203 16.7028C25.203 16.7027 25.2029 16.7028 25.203 16.7028Z" fill="#0E2946"/>
<path fill-rule="evenodd" clip-rule="evenodd" d="M21.775 27.3911C18.9363 27.3911 16.214 28.5191 14.2073 30.5268L12.7927 29.1129C15.1746 26.7299 18.4058 25.3911 21.775 25.3911C25.1442 25.3911 28.3754 26.7299 30.7573 29.1129L32.8271 31.1827L31.4129 32.5969L29.3429 30.5269L30.0476 29.8222L29.3427 30.5268C27.3359 28.5191 24.6136 27.3911 21.775 27.3911Z" fill="#0E2946"/>
<path fill-rule="evenodd" clip-rule="evenodd" d="M63.8571 37.3926C66.24 39.7745 67.5788 43.0056 67.5788 46.3748C67.5788 49.7441 66.24 52.9752 63.8571 55.3571L51.4475 67.7767L50.0327 66.363L62.4427 53.943L62.4432 53.9426C64.4508 51.9358 65.5788 49.2135 65.5788 46.3748C65.5788 43.5362 64.4508 40.8139 62.4432 38.8071L63.8571 37.3926Z" fill="#0E2946"/>
<path fill-rule="evenodd" clip-rule="evenodd" d="M49.3471 47.7029L51.4471 49.8029L50.7388 50.5111L51.4471 49.8029C56.4103 54.7664 56.4103 62.8136 51.4471 67.7771L50.0328 66.3629C54.2151 62.1804 54.2151 55.3996 50.0329 51.2171C50.0329 51.2171 50.0328 51.2171 50.0328 51.2171L47.9329 49.1171L49.3471 47.7029Z" fill="#0E2946"/>
<path fill-rule="evenodd" clip-rule="evenodd" d="M5.25293 73.7527L25.2529 53.7527L26.6671 55.1669L6.66714 75.1669L5.25293 73.7527Z" fill="#0E2946"/>
<path fill-rule="evenodd" clip-rule="evenodd" d="M5.25293 63.7527L25.2529 43.7527L26.6671 45.1669L6.66714 65.1669L5.25293 63.7527Z" fill="#0E2946"/>
<path fill-rule="evenodd" clip-rule="evenodd" d="M15.2529 73.7527L35.2529 53.7527L36.6671 55.1669L16.6671 75.1669L15.2529 73.7527Z" fill="#0E2946"/>
</svg>
