<svg width="80" height="80" viewBox="0 0 80 80" fill="none" xmlns="http://www.w3.org/2000/svg">
<path d="M40 80H0V40" fill="#D6DFFF"/>
<path fill-rule="evenodd" clip-rule="evenodd" d="M74.7757 5.79199L71.2905 23.1963C70.8378 25.4511 70.1459 27.6516 69.2266 29.7597L69.2224 29.7691C67.4277 33.7711 64.8685 37.384 61.6887 40.4049L61.6819 40.4114C58.7549 43.1402 55.4168 45.3915 51.79 47.0827L42.2567 51.7209L28.8387 38.3029L33.4772 28.7797C35.1684 25.153 37.4197 21.8149 40.1485 18.888L40.1564 18.8795C43.1801 15.7108 46.7929 13.1623 50.7923 11.3768L50.8008 11.373C52.9088 10.4553 55.1081 9.76376 57.3619 9.3097C57.3618 9.30974 57.3621 9.30967 57.3619 9.3097L74.7757 5.79199ZM72.2242 8.34782L57.7579 11.2701C55.644 11.6959 53.5807 12.3446 51.6034 13.2049C47.8449 14.8836 44.4497 17.2786 41.6074 20.2561C39.0216 23.0306 36.8885 26.1947 35.2863 29.6323L35.2827 29.6401L31.2611 37.8969L42.6632 49.2989L50.93 45.277L50.9375 45.2735C54.3755 43.6712 57.5399 41.5379 60.3145 38.9518C63.3027 36.1121 65.7079 32.7165 67.3953 28.9555C68.2568 26.9792 68.9052 24.9168 69.3295 22.8031L72.2242 8.34782Z" fill="#0E2946"/>
<path fill-rule="evenodd" clip-rule="evenodd" d="M52.81 22.9099C50.1314 22.9099 47.96 25.0813 47.96 27.7599C47.96 30.4385 50.1314 32.6099 52.81 32.6099C55.4885 32.6099 57.66 30.4385 57.66 27.7599C57.66 25.0813 55.4885 22.9099 52.81 22.9099ZM45.96 27.7599C45.96 23.9768 49.0268 20.9099 52.81 20.9099C56.5931 20.9099 59.66 23.9768 59.66 27.7599C59.66 31.5431 56.5931 34.6099 52.81 34.6099C49.0268 34.6099 45.96 31.5431 45.96 27.7599Z" fill="#0E2946"/>
<path fill-rule="evenodd" clip-rule="evenodd" d="M25.2028 16.7028C27.5847 14.32 30.8158 12.9812 34.185 12.9812C37.5542 12.9812 40.7853 14.32 43.1672 16.703L41.7527 18.1169C39.7459 16.1092 37.0236 14.9812 34.185 14.9812C31.3463 14.9812 28.624 16.1092 26.6172 18.1169L14.2071 30.527L12.7928 29.1128L25.2028 16.7028C25.2029 16.7027 25.2028 16.7028 25.2028 16.7028Z" fill="#0E2946"/>
<path fill-rule="evenodd" clip-rule="evenodd" d="M21.775 27.3911C18.9363 27.3911 16.214 28.5191 14.2073 30.5268L12.7927 29.1129C15.1746 26.7299 18.4058 25.3911 21.775 25.3911C25.1442 25.3911 28.3754 26.7299 30.7573 29.1129L32.8271 31.1827L31.4129 32.5969L29.3429 30.5269L30.0476 29.8222L29.3427 30.5268C27.3359 28.5191 24.6136 27.3911 21.775 27.3911Z" fill="#0E2946"/>
<path fill-rule="evenodd" clip-rule="evenodd" d="M63.8569 37.3926C66.2399 39.7745 67.5787 43.0056 67.5787 46.3748C67.5787 49.7441 66.2399 52.9752 63.8569 55.3571L51.4474 67.7767L50.0326 66.363L62.4426 53.943L62.443 53.9426C64.4507 51.9358 65.5787 49.2135 65.5787 46.3748C65.5787 43.5362 64.4507 40.8139 62.443 38.8071L63.8569 37.3926Z" fill="#0E2946"/>
<path fill-rule="evenodd" clip-rule="evenodd" d="M49.3471 47.7029L51.4471 49.8029L50.7388 50.5111L51.4471 49.8029C56.4103 54.7664 56.4103 62.8136 51.4471 67.7771L50.0328 66.3629C54.2151 62.1804 54.2151 55.3996 50.0329 51.2171C50.0329 51.2171 50.0328 51.2171 50.0328 51.2171L47.9329 49.1171L49.3471 47.7029Z" fill="#0E2946"/>
<path fill-rule="evenodd" clip-rule="evenodd" d="M5.25293 73.7527L25.2529 53.7527L26.6671 55.1669L6.66714 75.1669L5.25293 73.7527Z" fill="#0E2946"/>
<path fill-rule="evenodd" clip-rule="evenodd" d="M5.25293 63.7527L25.2529 43.7527L26.6671 45.1669L6.66714 65.1669L5.25293 63.7527Z" fill="#0E2946"/>
<path fill-rule="evenodd" clip-rule="evenodd" d="M15.2529 73.7527L35.2529 53.7527L36.6671 55.1669L16.6671 75.1669L15.2529 73.7527Z" fill="#0E2946"/>
</svg>
