<svg width="80" height="80" viewBox="0 0 80 80" fill="none" xmlns="http://www.w3.org/2000/svg">
<path d="M40 40H80V80H40V40Z" fill="#D6DFFF"/>
<path fill-rule="evenodd" clip-rule="evenodd" d="M18 59C18 56.2386 20.2386 54 23 54C24.3261 54 25.5979 54.5268 26.5355 55.4645C27.4732 56.4021 28 57.6739 28 59C28 61.7614 25.7614 64 23 64C20.2386 64 18 61.7614 18 59ZM26 59C26 57.3431 24.6569 56 23 56C21.3431 56 20 57.3431 20 59C20 60.6569 21.3431 62 23 62C24.6569 62 26 60.6569 26 59Z" fill="#0E2946"/>
<path fill-rule="evenodd" clip-rule="evenodd" d="M60.0251 22.9996C42.1833 23.4465 27.1912 36.54 24.3472 54.1593L22.3728 53.8406C25.3702 35.271 41.1709 21.4712 59.975 21.0002L60.0251 22.9996Z" fill="#0E2946"/>
<path fill-rule="evenodd" clip-rule="evenodd" d="M59.2458 22.0001L55.9529 18.7072L57.3671 17.293L62.0742 22.0001L57.3671 26.7072L55.9529 25.293L59.2458 22.0001Z" fill="#0E2946"/>
<path fill-rule="evenodd" clip-rule="evenodd" d="M27.2928 27.7072L19.2928 19.7072L20.7071 18.293L28.7071 26.293L27.2928 27.7072Z" fill="#0E2946"/>
<path fill-rule="evenodd" clip-rule="evenodd" d="M19.2928 26.293L27.2928 18.293L28.7071 19.7072L20.7071 27.7072L19.2928 26.293Z" fill="#0E2946"/>
<path fill-rule="evenodd" clip-rule="evenodd" d="M59 8H72V21H70V10H59V8Z" fill="#0E2946"/>
<path fill-rule="evenodd" clip-rule="evenodd" d="M8 59H10V70H21V72H8V59Z" fill="#0E2946"/>
<path fill-rule="evenodd" clip-rule="evenodd" d="M61 70V75H59V70H61Z" fill="#0E2946"/>
<path fill-rule="evenodd" clip-rule="evenodd" d="M61 45V50H59V45H61Z" fill="#0E2946"/>
<path fill-rule="evenodd" clip-rule="evenodd" d="M62.8338 52.1679C61.5531 50.8904 59.5744 50.6314 58.0081 51.5363C56.4418 52.4411 55.6776 54.2846 56.1445 56.0322C56.6113 57.7798 58.1929 58.9967 60.0018 58.9999L59.9982 60.9999C57.2849 60.995 54.9125 59.1698 54.2122 56.5483C53.512 53.9269 54.6582 51.1617 57.0077 49.8045C59.3572 48.4472 62.3252 48.8357 64.2462 50.7519L62.8338 52.1679Z" fill="#0E2946"/>
<path fill-rule="evenodd" clip-rule="evenodd" d="M63.8555 63.9677C63.3887 62.2201 61.8071 61.0032 59.9982 61L60.0018 59C62.7151 59.0049 65.0875 60.8301 65.7878 63.4515C66.488 66.073 65.3418 68.8381 62.9923 70.1954C60.6428 71.5527 57.6748 71.1642 55.7538 69.248L57.1662 67.832C58.4469 69.1095 60.4256 69.3684 61.9919 68.4636C63.5582 67.5588 64.3224 65.7153 63.8555 63.9677Z" fill="#0E2946"/>
</svg>
