<svg width="81" height="81" viewBox="0 0 81 81" fill="none" xmlns="http://www.w3.org/2000/svg">
<path d="M80.4546 57C80.4546 43.7452 69.7094 33 56.4546 33C43.1998 33 32.4546 43.7452 32.4546 57C32.4546 70.2548 43.1998 81 56.4546 81C69.7094 81 80.4546 70.2548 80.4546 57Z" fill="#D6DFFF"/>
<path d="M57.8044 51.76C57.0249 51.7581 56.2622 51.9869 55.6125 52.4175C54.9627 52.8482 54.4549 53.4615 54.153 54.1802C53.8511 54.8988 53.7686 55.6908 53.9159 56.4563C54.0631 57.2218 54.4336 57.9265 54.9806 58.4819C55.5277 59.0372 56.2268 59.4183 56.9899 59.5772C57.7531 59.736 58.5462 59.6654 59.2694 59.3744C59.9925 59.0834 60.6134 58.5849 61.0538 57.9418C61.4943 57.2986 61.7345 56.5395 61.7444 55.76C61.751 55.2379 61.6541 54.7197 61.4591 54.2354C61.2642 53.751 60.9752 53.3101 60.6088 52.9381C60.2424 52.5662 59.8059 52.2705 59.3246 52.0683C58.8432 51.8661 58.3265 51.7613 57.8044 51.76ZM57.8044 57.65C57.4179 57.652 57.0395 57.5391 56.7173 57.3256C56.3951 57.1121 56.1436 56.8076 55.9948 56.4509C55.846 56.0942 55.8065 55.7013 55.8814 55.3221C55.9563 54.9429 56.1423 54.5945 56.4156 54.3212C56.6889 54.0479 57.0373 53.862 57.4165 53.787C57.7956 53.7121 58.1886 53.7516 58.5453 53.9004C58.902 54.0492 59.2064 54.3007 59.4199 54.6229C59.6335 54.9451 59.7464 55.3235 59.7444 55.71C59.7444 56.2245 59.54 56.718 59.1762 57.0818C58.8124 57.4456 58.3189 57.65 57.8044 57.65Z" fill="#0E2946"/>
<path d="M65.8345 54.74C65.6991 53.2612 65.3627 51.8078 64.8345 50.42C64.4072 49.3025 63.8572 48.236 63.1945 47.24L57.8345 39.24L52.4745 47.24C50.9874 49.4846 50.074 52.06 49.8145 54.74C48.1143 54.9086 46.5374 55.7029 45.3899 56.9687C44.2424 58.2345 43.6061 59.8815 43.6045 61.59V70.41H45.6045C45.6071 69.1217 46.1179 67.8865 47.0261 66.9728C47.9342 66.059 49.1663 65.5405 50.4545 65.53H51.6645L52.6645 68.47H53.8845C53.9825 69.4362 54.4356 70.3317 55.1562 70.9828C55.8767 71.634 56.8133 71.9945 57.7845 71.9945C58.7557 71.9945 59.6923 71.634 60.4128 70.9828C61.1333 70.3317 61.5865 69.4362 61.6845 68.47H62.9145L63.9145 65.53H65.1345C66.4279 65.5326 67.6676 66.0476 68.5823 66.9622C69.4969 67.8768 70.0118 69.1165 70.0145 70.41H72.0145V61.59C72.0137 59.8861 71.3816 58.243 70.2402 56.978C69.0989 55.7129 67.5293 54.9156 65.8345 54.74ZM50.4545 63.53C49.5492 63.5238 48.6517 63.6974 47.814 64.0407C46.9763 64.3841 46.2151 64.8903 45.5745 65.53V61.53C45.5766 60.3734 45.9902 59.2552 46.7415 58.3757C47.4927 57.4963 48.5324 56.9129 49.6745 56.73C49.6745 56.81 49.6745 56.9 49.6745 56.99C49.7381 59.0563 50.1332 61.099 50.8445 63.04L50.9845 63.47L50.4545 63.53ZM57.8045 70C57.3622 69.9986 56.9338 69.8461 56.59 69.5679C56.2463 69.2896 56.008 68.9022 55.9145 68.47H59.7045C59.6009 68.8989 59.3584 69.2815 59.0148 69.5582C58.6711 69.8349 58.2456 69.9903 57.8045 70ZM62.8945 62.45L61.5045 66.45H54.1045L52.7245 62.45C52.0826 60.7015 51.7247 58.8616 51.6645 57C51.607 54.9932 51.9469 52.9949 52.6645 51.12C53.0413 50.1402 53.5242 49.2047 54.1045 48.33L57.7945 42.78L61.4945 48.33C62.0748 49.2047 62.5577 50.1402 62.9345 51.12C63.6427 52.9975 63.9822 54.9939 63.9345 57C63.8758 58.86 63.5249 60.6991 62.8945 62.45ZM65.1645 63.53H64.6345L64.7845 63.1C65.491 61.1576 65.8859 59.1157 65.9545 57.05C65.9545 56.96 65.9545 56.87 65.9545 56.79C67.0966 56.9729 68.1363 57.5563 68.8875 58.4357C69.6387 59.3152 70.0524 60.4334 70.0545 61.59V65.59C69.417 64.9391 68.6563 64.4217 67.8167 64.068C66.9771 63.7144 66.0755 63.5314 65.1645 63.53Z" fill="#0E2946"/>
<path d="M40.4546 77C33.3345 77 26.3742 74.8887 20.4541 70.9329C14.5339 66.9772 9.9197 61.3548 7.19494 54.7766C4.47019 48.1985 3.75727 40.9601 5.14634 33.9768C6.5354 26.9934 9.96407 20.5789 14.9988 15.5442C20.0335 10.5095 26.448 7.08081 33.4314 5.69175C40.4147 4.30268 47.6531 5.0156 54.2312 7.74035C60.8093 10.4651 66.4318 15.0793 70.3875 20.9995C74.3432 26.9197 76.4546 33.8799 76.4546 41H74.4546C74.4546 34.2755 72.4605 27.7019 68.7246 22.1106C64.9886 16.5194 59.6785 12.1615 53.4658 9.58811C47.2532 7.01473 40.4169 6.34142 33.8215 7.65332C27.2262 8.96521 21.168 12.2034 16.413 16.9584C11.658 21.7134 8.4198 27.7716 7.10791 34.3669C5.79601 40.9623 6.46932 47.7986 9.0427 54.0113C11.6161 60.2239 15.9739 65.534 21.5652 69.27C27.1565 73.006 33.73 75 40.4546 75V77Z" fill="#0E2946"/>
<path d="M29.4748 51.7299L28.1948 50.1999L39.7448 40.5299V13.1699H41.7448V41.4699L29.4748 51.7299Z" fill="#0E2946"/>
<path d="M43.7446 41C43.7446 39.3431 42.4015 38 40.7446 38C39.0878 38 37.7446 39.3431 37.7446 41C37.7446 42.6569 39.0878 44 40.7446 44C42.4015 44 43.7446 42.6569 43.7446 41Z" fill="#0E2946"/>
</svg>
