<svg width="180" height="180" viewBox="0 0 180 180" fill="none" xmlns="http://www.w3.org/2000/svg">
<path d="M79.31 141C79.31 147.484 74.0538 152.74 67.57 152.74H67.51V167.4H14.73V114.65H29.38V114.74C29.38 121.224 34.6362 126.48 41.12 126.48C47.6038 126.48 52.86 121.224 52.86 114.74V114.65H67.51V129.3H67.57C74.0382 129.3 79.2879 134.532 79.31 141Z" fill="white"/>
<path fill-rule="evenodd" clip-rule="evenodd" d="M13.73 113.65V168.44H68.51V153.74C75.1858 153.281 80.3665 147.732 80.3665 141.04C80.3665 134.349 75.1858 128.8 68.51 128.34V113.65H52.86H51.72L51.86 114.77C51.6828 120.577 46.9244 125.193 41.115 125.193C35.3056 125.193 30.5471 120.577 30.37 114.77L30.52 113.65H13.73ZM66.51 151.78V166.44H15.73V115.65H28.41C28.8693 122.332 34.423 127.517 41.12 127.517C47.817 127.517 53.3707 122.332 53.83 115.65H66.51V129.3L66.57 130.3H67.57C73.5015 130.317 78.2965 135.139 78.28 141.07C78.2634 147.002 73.4415 151.797 67.51 151.78H66.51Z" fill="#0E2946"/>
<path d="M120.3 61.77V114.77H105.65C105.65 121.254 100.394 126.51 93.91 126.51C87.4262 126.51 82.17 121.254 82.17 114.77H67.51V99.44C60.9424 99.429 55.621 94.1076 55.61 87.54C55.61 79.83 60.95 75.64 67.51 75.64V61.77H120.3Z" fill="#FFC31D"/>
<path fill-rule="evenodd" clip-rule="evenodd" d="M81.21 115.79C81.7657 122.393 87.2834 127.472 93.91 127.48C100.54 127.462 106.055 122.377 106.61 115.77H121.3V60.77H66.51V74.67C59.35 75.1 54.61 80.16 54.61 87.54C54.6106 94.2762 59.7941 99.8778 66.51 100.4V115.79H81.21ZM83.16 113.79H68.51V98.44H67.51C61.4969 98.4235 56.6265 93.5531 56.61 87.54C56.61 80.92 60.89 76.64 67.51 76.64H68.51V62.79H119.3V113.79H104.64V114.79C104.64 120.722 99.8315 125.53 93.9 125.53C87.9684 125.53 83.16 120.722 83.16 114.79V113.79Z" fill="#0E2946"/>
<path d="M120.3 114.79V167.44H105.65C105.65 173.924 100.394 179.18 93.91 179.18C87.4262 179.18 82.17 173.924 82.17 167.44H67.51V152.78H67.57C71.7643 152.78 75.64 150.542 77.7371 146.91C79.8343 143.278 79.8343 138.802 77.7371 135.17C75.64 131.538 71.7643 129.3 67.57 129.3H67.51V114.79H82.17C82.17 121.274 87.4262 126.53 93.91 126.53C100.394 126.53 105.65 121.274 105.65 114.79H120.3Z" fill="#476AE3"/>
<path fill-rule="evenodd" clip-rule="evenodd" d="M81.22 168.44C81.8564 174.979 87.3401 179.974 93.91 180C100.478 179.974 105.958 174.978 106.59 168.44H121.3V113.79H104.64V114.79C104.64 120.722 99.8315 125.53 93.9 125.53C87.9685 125.53 83.16 120.722 83.16 114.79V113.79H66.51V129.3L66.57 130.3H67.57C73.5015 130.317 78.2966 135.139 78.28 141.07C78.2634 147.002 73.4415 151.797 67.51 151.78H66.51V168.44H81.22ZM83.16 166.44H68.51V153.74C75.1858 153.281 80.3666 147.732 80.3666 141.04C80.3666 134.348 75.1858 128.799 68.51 128.34V115.79H81.21C81.7362 122.414 87.2651 127.521 93.91 127.521C100.555 127.521 106.084 122.414 106.61 115.79H119.3V166.44H104.64V167.44C104.64 173.372 99.8315 178.18 93.9 178.18C87.9685 178.18 83.16 173.372 83.16 167.44V166.44Z" fill="#0E2946"/>
<path d="M63.18 105.61L60.31 90.51C53.8549 91.709 47.6483 87.4534 46.44 81C45.04 73.37 49.44 68.36 55.96 67.13L53.41 53.5L19.41 59.81L1.30005 63.18L4.42005 79.84L11.07 115.29L26.29 112.46C27.4537 118.386 32.9238 122.463 38.9355 121.884C44.9471 121.305 49.5387 116.259 49.55 110.22C49.5481 109.549 49.4878 108.88 49.37 108.22L63.18 105.61Z" fill="#EF4C59"/>
<path fill-rule="evenodd" clip-rule="evenodd" d="M25.53 113.66C27.0645 119.176 32.0849 122.994 37.81 123C41.1915 122.997 44.4335 121.652 46.8227 119.259C49.2119 116.866 50.5527 113.622 50.55 110.24C50.55 110.036 50.5352 109.833 50.5203 109.628C50.5052 109.42 50.49 109.211 50.49 109L64.35 106.38L61.1 89.3101L60.1 89.5001C57.289 90.0425 54.378 89.4336 52.02 87.8101C49.6096 86.1847 47.9468 83.6654 47.4 80.8101C46.22 74.3201 49.64 69.3301 56.12 68.1001L57.12 67.9101L54.21 52.3301L0.130005 62.3801L10.27 116.5L25.53 113.66ZM27.27 112.3L27.08 111.3L11.87 114.15L2.47 64.0001L52.61 54.6601L54.8 66.3501C47.87 68.1001 44.13 73.9401 45.46 81.1701C46.0851 84.5683 48.0533 87.5711 50.92 89.5001C53.4309 91.219 56.4759 91.9785 59.5 91.6401L62 104.81L48.22 107.38L48.39 108.38C49.4725 114.212 45.6221 119.818 39.79 120.9C33.9579 121.983 28.3525 118.132 27.27 112.3Z" fill="#0E2946"/>
<path d="M21.34 96.3101C20.1498 90.351 24.0158 84.5553 29.975 83.3651C35.9341 82.1749 41.7298 86.041 42.92 92.0001L40.92 92.3901C39.7154 87.7755 35.1201 84.9019 30.4439 85.8387C25.7676 86.7756 22.634 91.1976 23.3 95.9201L21.34 96.3101Z" fill="white"/>
<path fill-rule="evenodd" clip-rule="evenodd" d="M25.2701 81.9304C25.6784 83.9552 27.4545 85.4136 29.5201 85.4204C29.8043 85.4279 30.0887 85.4112 30.3701 85.3704C31.499 85.1442 32.4919 84.4787 33.1301 83.5204C33.7699 82.5664 34.0004 81.3957 33.7701 80.2704L33.1201 77.0004C32.8235 75.482 31.7395 74.2371 30.2763 73.7348C28.813 73.2324 27.193 73.5488 26.0263 74.5648C24.8596 75.5807 24.3235 77.142 24.6201 78.6604L25.2701 81.9304ZM28.4101 75.4804C28.5631 75.4662 28.7171 75.4662 28.8701 75.4804C29.3369 75.48 29.7931 75.6194 30.1801 75.8804C30.6976 76.2205 31.0576 76.7533 31.1801 77.3604L31.8301 80.6304C32.0813 81.8923 31.262 83.119 30.0001 83.3704C29.3823 83.4989 28.7389 83.3715 28.2168 83.0171C27.6947 82.6628 27.3387 82.1119 27.2301 81.4904L26.5801 78.2204C26.3289 76.9584 27.1481 75.7317 28.4101 75.4804Z" fill="white"/>
<path d="M92.3982 149.889L98.3972 133.886L100.27 134.588L94.2709 150.591L92.3982 149.889Z" fill="white"/>
<path d="M89.63 147.96L83.92 142.25L89.63 136.54L91.04 137.96L86.75 142.25L91.04 146.54L89.63 147.96Z" fill="white"/>
<path d="M103.04 147.96L101.63 146.54L105.92 142.25L101.63 137.96L103.04 136.54L108.75 142.25L103.04 147.96Z" fill="white"/>
<path d="M96.63 85.3104H92.71L95.83 71.9404L85.66 87.2804L82.64 91.8304H88.65H92.58L89.45 105.2L99.62 89.8604L102.64 85.3104H96.63Z" fill="white"/>
<path fill-rule="evenodd" clip-rule="evenodd" d="M36.38 152.77H44.47L45.92 148.58C46.4663 147.091 46.7702 145.525 46.82 143.94C46.897 141.26 46.1501 138.622 44.68 136.38L40.42 130L36.17 136.34C35.6596 137.107 35.237 137.929 34.91 138.79C34.2814 140.419 33.979 142.155 34.02 143.9C34.0749 145.484 34.3787 147.05 34.92 148.54L36.38 152.77ZM43 150.77H37.8L36.8 147.86C36.328 146.577 36.0613 145.227 36.01 143.86C35.9778 142.379 36.2325 140.905 36.76 139.52C37.0384 138.794 37.3938 138.1 37.82 137.45L40.41 133.57L43 137.45C43.4213 138.111 43.77 138.815 44.04 139.55C44.5772 140.932 44.8322 142.408 44.79 143.89C44.7387 145.257 44.4721 146.607 44 147.89L43 150.77Z" fill="#476AE3"/>
<path fill-rule="evenodd" clip-rule="evenodd" d="M37.4278 144.111C37.9303 145.319 39.1118 146.104 40.42 146.1C42.1961 146.095 43.6345 144.656 43.64 142.88C43.6441 141.572 42.8586 140.391 41.6507 139.888C40.4428 139.386 39.0511 139.661 38.1261 140.586C37.201 141.511 36.9253 142.903 37.4278 144.111ZM39.2765 142.403C39.4701 141.943 39.9216 141.646 40.42 141.65C41.0954 141.656 41.64 142.205 41.64 142.88C41.64 143.379 41.3392 143.828 40.8784 144.018C40.4175 144.207 39.8877 144.1 39.5367 143.746C39.1857 143.393 39.083 142.862 39.2765 142.403Z" fill="#476AE3"/>
<path d="M40.42 155.43C38.6416 155.43 37.2 153.989 37.2 152.21H39.2C39.2 152.884 39.7462 153.43 40.42 153.43C41.0937 153.43 41.64 152.884 41.64 152.21H43.64C43.64 153.989 42.1983 155.43 40.42 155.43Z" fill="#476AE3"/>
<path d="M31.42 154H29.42V147.33C29.4256 144.324 31.864 141.89 34.87 141.89V143.89C32.9686 143.89 31.4256 145.429 31.42 147.33V154Z" fill="#476AE3"/>
<path d="M31.42 154H29.42C29.4255 150.993 31.8624 148.556 34.87 148.55H36V150.55H34.87C32.9669 150.556 31.4255 152.097 31.42 154Z" fill="#476AE3"/>
<path d="M51.42 154H49.42V147.33C49.4255 145.434 47.896 143.891 46 143.88V141.88C49.0021 141.886 51.4345 144.318 51.44 147.32L51.42 154Z" fill="#476AE3"/>
<path d="M51.42 154H49.42C49.4255 152.102 47.8975 150.557 46 150.54H44.85V148.54H46C49.0021 148.557 51.4255 150.998 51.42 154Z" fill="#476AE3"/>
<path d="M112.36 43.6003L118.56 32.8403L124.9 42.8303L112.36 43.6003Z" fill="#476AE3"/>
<path d="M124.68 27.3691L131.041 0.50189L132.987 0.962669L126.626 27.8299L124.68 27.3691Z" fill="#0E2946"/>
<path d="M136.726 42.7192L178.088 11.2549L179.299 12.8467L137.937 44.311L136.726 42.7192Z" fill="#0E2946"/>
<path d="M138.338 59.71L138.443 57.7127L172.026 59.4786L171.921 61.4759L138.338 59.71Z" fill="#0E2946"/>
<circle cx="124.13" cy="55.0703" r="3" fill="#EF4C59"/>
</svg>
