<svg width="80" height="80" viewBox="0 0 80 80" fill="none" xmlns="http://www.w3.org/2000/svg">
<path fill-rule="evenodd" clip-rule="evenodd" d="M1 6.42993H31.8337L32.021 7.19095C34.3952 16.8375 35.6927 26.7176 35.8898 36.6501L35.89 36.66V36.6699C35.89 48.6628 33.0918 57.8962 27.3277 64.195C21.551 70.5077 13.1551 73.5674 2.31562 73.5199L1.32 73.5156V58.8599H2.32C7.69594 58.8599 11.3503 57.4264 13.5485 54.7837C15.7818 52.0544 17 47.8815 17 42.0599V35.7599H1V6.42993ZM3 8.42993V33.7599H19V42.0599C19 48.1164 17.739 52.8227 15.0937 56.0535L15.0891 56.0591C12.5284 59.1403 8.53165 60.6729 3.32 60.8438V71.5152C13.274 71.3746 20.7317 68.4405 25.8523 62.8448C31.1534 57.052 33.8885 48.3886 33.89 36.6799C33.7004 27.1595 32.4845 17.6881 30.2639 8.42993H3ZM44.13 6.42993H74.9549L75.1414 7.19231C77.5015 16.8406 78.7954 26.7187 78.9998 36.6494L79 36.6596V36.6699C79 48.6628 76.2018 57.8962 70.4377 64.195C64.6613 70.5073 56.2757 73.5674 45.4556 73.5199L44.46 73.5155V58.8599H45.46C50.8126 58.8599 54.4699 57.4281 56.6895 54.7825C58.9317 52.0336 60.13 47.8815 60.13 42.0599V35.7599H44.13V6.42993ZM46.13 8.42993V33.7599H62.13V42.0599C62.13 48.1149 60.8897 52.8013 58.2345 56.0525L58.2266 56.0622C55.6488 59.139 51.655 60.6722 46.46 60.8437V71.5151C56.3937 71.3743 63.8417 68.4405 68.9623 62.8448C74.2633 57.052 76.9984 48.3887 77 36.6801C76.8034 27.1607 75.5906 17.6903 73.3828 8.42993H46.13Z" fill="#FFC31D"/>
</svg>
