<svg width="80" height="80" viewBox="0 0 80 80" fill="none" xmlns="http://www.w3.org/2000/svg">
<path d="M0 0H80V80" fill="#D6DFFF"/>
<path fill-rule="evenodd" clip-rule="evenodd" d="M34 40C37.866 40 41 43.134 41 47C41 50.866 37.866 54 34 54V52C36.7614 52 39 49.7614 39 47C39 44.2386 36.7614 42 34 42V40Z" fill="#0E2946"/>
<path fill-rule="evenodd" clip-rule="evenodd" d="M10 44.5C10 33.1782 19.1782 24 30.5 24V26C20.2827 26 12 34.2827 12 44.5C12 54.7173 20.2827 63 30.5 63V65C19.1782 65 10 55.8218 10 44.5Z" fill="#0E2946"/>
<path fill-rule="evenodd" clip-rule="evenodd" d="M29 24.5C29 21.1863 31.6863 18.5 35 18.5V20.5C32.7909 20.5 31 22.2909 31 24.5C31 26.7091 32.7909 28.5 35 28.5V30.5C31.6863 30.5 29 27.8137 29 24.5Z" fill="#0E2946"/>
<path fill-rule="evenodd" clip-rule="evenodd" d="M14.5 32C14.5 17.6406 26.1406 6 40.5 6V8C27.2452 8 16.5 18.7452 16.5 32H14.5Z" fill="#0E2946"/>
<path fill-rule="evenodd" clip-rule="evenodd" d="M23.761 61.9871C27.071 68.1526 33.5022 71.9996 40.5 72.0001L40.4999 74.0001C32.7654 73.9996 25.6573 69.7476 21.9989 62.9331L23.761 61.9871Z" fill="#0E2946"/>
<path fill-rule="evenodd" clip-rule="evenodd" d="M20.5 51C20.5 44.9249 25.4249 40 31.5 40V42C26.5294 42 22.5 46.0294 22.5 51H20.5Z" fill="#0E2946"/>
<path fill-rule="evenodd" clip-rule="evenodd" d="M22.5 35.9995C22.501 38.5831 23.6123 41.0417 25.551 42.7495L24.229 44.2503C21.8595 42.163 20.5012 39.158 20.5 36.0003L22.5 35.9995Z" fill="#0E2946"/>
<path fill-rule="evenodd" clip-rule="evenodd" d="M41.9885 8.07399C41.3316 8.02494 40.6685 8 40 8V6C40.7183 6 41.431 6.02679 42.1374 6.07954L41.9885 8.07399ZM49.7122 9.83821C48.4824 9.356 47.2146 8.96294 45.9152 8.66589L46.361 6.71619C47.7586 7.0357 49.1213 7.45829 50.4423 7.97622L49.7122 9.83821ZM56.6132 13.7675C55.5575 12.9519 54.451 12.2124 53.3001 11.5558L54.2912 9.81864C55.5242 10.5221 56.7081 11.3134 57.8359 12.1848L56.6132 13.7675ZM62.217 19.4311C61.4041 18.3632 60.5294 17.3551 59.5993 16.4136L61.0221 15.008C62.0132 16.0113 62.9441 17.0843 63.8084 18.2198L62.217 19.4311ZM66.2313 26.3355C65.7005 25.097 65.0999 23.9025 64.4353 22.758L66.1648 21.7536C66.8702 22.9682 67.507 24.2351 68.0696 25.5476L66.2313 26.3355ZM68.4926 34.0075C68.264 32.675 67.9604 31.372 67.5872 30.1039L69.5058 29.5392C69.9009 30.8815 70.222 32.2602 70.4638 33.6693L68.4926 34.0075ZM69 40C69 39.3256 68.9811 38.6562 68.9439 37.9923L70.9408 37.8804C70.9801 38.5815 71 39.2882 71 40C71 40.7118 70.9801 41.4185 70.9408 42.1196L68.9439 42.0077C68.9811 41.3438 69 40.6744 69 40ZM67.5872 49.8961C67.9604 48.628 68.264 47.325 68.4926 45.9925L70.4638 46.3307C70.222 47.7399 69.9009 49.1185 69.5058 50.4608L67.5872 49.8961ZM64.4353 57.242C65.0999 56.0975 65.7005 54.903 66.2313 53.6645L68.0696 54.4524C67.507 55.7649 66.8702 57.0318 66.1648 58.2464L64.4353 57.242ZM59.5993 63.5864C60.5294 62.6449 61.4041 61.6368 62.217 60.5689L63.8084 61.7802C62.9441 62.9157 62.0132 63.9887 61.0221 64.992L59.5993 63.5864ZM53.3001 68.4442C54.451 67.7876 55.5575 67.0481 56.6132 66.2325L57.8359 67.8152C56.7081 68.6866 55.5242 69.4779 54.2911 70.1814L53.3001 68.4442ZM45.9152 71.3341C47.2146 71.0371 48.4823 70.644 49.7122 70.1618L50.4423 72.0238C49.1213 72.5417 47.7586 72.9643 46.361 73.2838L45.9152 71.3341ZM40 72C40.6685 72 41.3316 71.9751 41.9885 71.926L42.1374 73.9205C41.431 73.9732 40.7183 74 40 74V72Z" fill="#0E2946"/>
<path fill-rule="evenodd" clip-rule="evenodd" d="M39.5 66V13H41.5V66H39.5Z" fill="#0E2946"/>
<path fill-rule="evenodd" clip-rule="evenodd" d="M44 28C44 24.134 47.134 21 51 21C54.866 21 58 24.134 58 28H56C56 25.2386 53.7614 23 51 23C48.2386 23 46 25.2386 46 28H44Z" fill="#0E2946"/>
<path fill-rule="evenodd" clip-rule="evenodd" d="M48 18C48 16.3431 49.3431 15 51 15C52.6569 15 54 16.3431 54 18V20C54 21.6569 52.6569 23 51 23C49.3431 23 48 21.6569 48 20V18ZM51 17C50.4477 17 50 17.4477 50 18V20C50 20.5523 50.4477 21 51 21C51.5523 21 52 20.5523 52 20V18C52 17.4477 51.5523 17 51 17Z" fill="#0E2946"/>
<path fill-rule="evenodd" clip-rule="evenodd" d="M52 46C52 42.134 55.134 39 59 39C62.866 39 66 42.134 66 46H64C64 43.2386 61.7614 41 59 41C56.2386 41 54 43.2386 54 46H52Z" fill="#0E2946"/>
<path fill-rule="evenodd" clip-rule="evenodd" d="M56 36C56 34.3431 57.3431 33 59 33C60.6569 33 62 34.3431 62 36V38C62 39.6569 60.6569 41 59 41C57.3431 41 56 39.6569 56 38V36ZM59 35C58.4477 35 58 35.4477 58 36V38C58 38.5523 58.4477 39 59 39C59.5523 39 60 38.5523 60 38V36C60 35.4477 59.5523 35 59 35Z" fill="#0E2946"/>
<path fill-rule="evenodd" clip-rule="evenodd" d="M44 62C44 58.134 47.134 55 51 55C54.866 55 58 58.134 58 62H56C56 59.2386 53.7614 57 51 57C48.2386 57 46 59.2386 46 62H44Z" fill="#0E2946"/>
<path fill-rule="evenodd" clip-rule="evenodd" d="M48 52C48 50.3431 49.3431 49 51 49C52.6569 49 54 50.3431 54 52V54C54 55.6569 52.6569 57 51 57C49.3431 57 48 55.6569 48 54V52ZM51 51C50.4477 51 50 51.4477 50 52V54C50 54.5523 50.4477 55 51 55C51.5523 55 52 54.5523 52 54V52C52 51.4477 51.5523 51 51 51Z" fill="#0E2946"/>
</svg>
