<svg width="80" height="80" viewBox="0 0 80 80" fill="none" xmlns="http://www.w3.org/2000/svg">
<path d="M55.9502 79.8401C69.205 79.8401 79.9502 69.0949 79.9502 55.8401C79.9502 42.5853 69.205 31.8401 55.9502 31.8401C42.6954 31.8401 31.9502 42.5853 31.9502 55.8401C31.9502 69.0949 42.6954 79.8401 55.9502 79.8401Z" fill="#FFECB8"/>
<path d="M56.0001 51.6101C55.2208 51.6101 54.459 51.8412 53.8111 52.2741C53.1632 52.707 52.6582 53.3224 52.36 54.0423C52.0618 54.7623 51.9837 55.5545 52.1358 56.3188C52.2878 57.083 52.663 57.7851 53.2141 58.3361C53.7651 58.8871 54.4671 59.2624 55.2314 59.4144C55.9957 59.5664 56.7879 59.4884 57.5078 59.1902C58.2278 58.892 58.8431 58.387 59.276 57.7391C59.709 57.0911 59.9401 56.3294 59.9401 55.5501C59.9401 54.5052 59.525 53.503 58.7861 52.7641C58.0472 52.0252 57.045 51.6101 56.0001 51.6101ZM56.0001 57.4901C55.6164 57.4901 55.2413 57.3763 54.9223 57.1632C54.6032 56.95 54.3546 56.647 54.2077 56.2925C54.0609 55.938 54.0225 55.548 54.0973 55.1716C54.1722 54.7953 54.357 54.4496 54.6283 54.1783C54.8996 53.907 55.2453 53.7222 55.6216 53.6474C55.9979 53.5725 56.388 53.6109 56.7425 53.7578C57.097 53.9046 57.3999 54.1533 57.6131 54.4723C57.8263 54.7913 57.9401 55.1664 57.9401 55.5501C57.9401 56.0646 57.7357 56.5581 57.3718 56.9219C57.008 57.2857 56.5146 57.4901 56.0001 57.4901Z" fill="#0E2946"/>
<path d="M64 54.58C63.7315 51.9004 62.8152 49.3264 61.33 47.08L56 39L50.64 47C49.1529 49.2446 48.2395 51.82 47.98 54.5C46.2798 54.6686 44.703 55.4629 43.5554 56.7287C42.4079 57.9945 41.7716 59.6415 41.77 61.35V70.17H43.77C43.7727 68.8766 44.2876 67.6368 45.2023 66.7222C46.1169 65.8076 47.3566 65.2926 48.65 65.29H49.86L50.86 68.23H52.08C52.178 69.1962 52.6312 70.0917 53.3517 70.7428C54.0722 71.394 55.0088 71.7545 55.98 71.7545C56.9512 71.7545 57.8878 71.394 58.6083 70.7428C59.3289 70.0917 59.782 69.1962 59.88 68.23H61.11L62.11 65.29H63.33C64.6235 65.2926 65.8632 65.8076 66.7778 66.7222C67.6924 67.6368 68.2074 68.8766 68.21 70.17H70.21V61.43C70.2084 59.7215 69.5721 58.0745 68.4246 56.8087C67.2771 55.5429 65.7002 54.7486 64 54.58ZM48.6 63.37C47.6946 63.3633 46.797 63.5366 45.9592 63.88C45.1214 64.2233 44.3603 64.7298 43.72 65.37V61.37C43.7217 60.2148 44.134 59.0979 44.8832 58.2186C45.6324 57.3393 46.6698 56.755 47.81 56.57V56.83C47.879 58.8794 48.2739 60.9048 48.98 62.83L49.12 63.26L48.6 63.37ZM56 69.84C55.5578 69.8386 55.1293 69.6861 54.7856 69.4079C54.4418 69.1296 54.2035 68.7423 54.11 68.31H57.9C57.7964 68.7389 57.5539 69.1215 57.2103 69.3982C56.8666 69.6749 56.4411 69.8303 56 69.84ZM61 62.29L59.61 66.29H52.21L50.83 62.29C50.1902 60.5479 49.8324 58.7149 49.77 56.86C49.7126 54.8532 50.0524 52.8549 50.77 50.98C51.1468 50.0003 51.6297 49.0647 52.21 48.19L56 42.64L59.7 48.19C60.2602 49.0755 60.7261 50.0174 61.09 51C61.7982 52.8775 62.1377 54.8739 62.09 56.88C62.0111 58.7292 61.6433 60.5546 61 62.29ZM63.27 63.37H62.74L62.89 62.94C63.5924 61.0138 63.9872 58.989 64.06 56.94C64.06 56.85 64.06 56.77 64.06 56.68C65.2021 56.8629 66.2418 57.4463 66.993 58.3257C67.7443 59.2052 68.1579 60.3234 68.16 61.48V65.48C67.5315 64.8249 66.7791 64.301 65.9465 63.9388C65.114 63.5766 64.2178 63.3833 63.31 63.37H63.27Z" fill="#0E2946"/>
<path d="M56.9502 16.9502H54.9502V26.1702H56.9502V16.9502Z" fill="#0E2946"/>
<path d="M28.1801 67.9501H16.0601V11.4001H18.0601V65.9501H28.1801V67.9501Z" fill="#0E2946"/>
<path d="M44.8398 4.84009H11.5098V6.84009H44.8398V4.84009Z" fill="#0E2946"/>
<path d="M48.73 17.0601H24.29V19.0601H48.73V17.0601Z" fill="#0E2946"/>
<path d="M48.73 24.4001H24.29V26.4001H48.73V24.4001Z" fill="#0E2946"/>
<path d="M48.73 31.73H24.29V33.73H48.73V31.73Z" fill="#0E2946"/>
<path d="M46.29 39.0601H24.29V41.0601H46.29V39.0601Z" fill="#0E2946"/>
<path d="M41.4 46.4001H24.29V48.4001H41.4V46.4001Z" fill="#0E2946"/>
<path d="M7.00012 17.0001H5.00012V11.4001C4.96565 10.5177 5.10967 9.63747 5.42356 8.81212C5.73745 7.98676 6.21474 7.23327 6.82683 6.5968C7.43891 5.96034 8.1732 5.454 8.98567 5.10813C9.79815 4.76226 10.6721 4.58398 11.5551 4.58398C12.4381 4.58398 13.3121 4.76226 14.1246 5.10813C14.937 5.454 15.6713 5.96034 16.2834 6.5968C16.8955 7.23327 17.3728 7.98676 17.6867 8.81212C18.0006 9.63747 18.1446 10.5177 18.1101 11.4001H16.1101C16.139 10.7839 16.0426 10.1684 15.8267 9.59057C15.6108 9.01278 15.28 8.48479 14.8541 8.03855C14.4283 7.59231 13.9164 7.2371 13.3494 6.99441C12.7823 6.75171 12.1719 6.62658 11.5551 6.62658C10.9383 6.62658 10.3279 6.75171 9.76088 6.99441C9.19383 7.2371 8.68191 7.59231 8.2561 8.03855C7.83028 8.48479 7.49943 9.01278 7.28354 9.59057C7.06766 10.1684 6.97124 10.7839 7.00012 11.4001V17.0001Z" fill="#0E2946"/>
<path d="M56.9998 16.9999H54.9998C55.0051 15.6642 54.7459 14.3407 54.2372 13.1056C53.7285 11.8705 52.9803 10.7484 52.0358 9.80391C51.0913 8.85941 49.9692 8.11123 48.7342 7.60252C47.4991 7.0938 46.1756 6.83462 44.8398 6.83991V4.83991C46.4382 4.83463 48.0218 5.14555 49.4995 5.75477C50.9772 6.364 52.3198 7.2595 53.45 8.38971C54.5803 9.51992 55.4758 10.8625 56.085 12.3402C56.6942 13.8179 57.0051 15.4016 56.9998 16.9999Z" fill="#0E2946"/>
</svg>
