<svg width="80" height="80" viewBox="0 0 80 80" fill="none" xmlns="http://www.w3.org/2000/svg">
<path d="M0 0H80V80" fill="#FCD9D9"/>
<path fill-rule="evenodd" clip-rule="evenodd" d="M4 59.6699H76V75.6699H4V59.6699ZM6 61.6699V73.6699H74V61.6699H6Z" fill="#0E2946"/>
<path fill-rule="evenodd" clip-rule="evenodd" d="M41 60.6699V74.6699H39V60.6699H41Z" fill="#0E2946"/>
<path fill-rule="evenodd" clip-rule="evenodd" d="M4 4H76V61.67H4V4ZM6 6V59.67H74V6H6Z" fill="#0E2946"/>
<path fill-rule="evenodd" clip-rule="evenodd" d="M47.0699 29.8101H61.0699V31.8101H47.0699V29.8101Z" fill="#0E2946"/>
<path fill-rule="evenodd" clip-rule="evenodd" d="M19.0699 29.8101H33.0699V31.8101H19.0699V29.8101Z" fill="#0E2946"/>
<path fill-rule="evenodd" clip-rule="evenodd" d="M60.0699 60.62V5H62.0699V60.62H60.0699Z" fill="#0E2946"/>
<path fill-rule="evenodd" clip-rule="evenodd" d="M46.0699 60.62V5H48.0699V60.62H46.0699Z" fill="#0E2946"/>
<path fill-rule="evenodd" clip-rule="evenodd" d="M32.0699 60.62V5H34.0699V60.62H32.0699Z" fill="#0E2946"/>
<path fill-rule="evenodd" clip-rule="evenodd" d="M18.0699 60.62V5H20.0699V60.62H18.0699Z" fill="#0E2946"/>
</svg>
