<svg width="150" height="150" viewBox="0 0 150 150" fill="none" xmlns="http://www.w3.org/2000/svg">
<path fill-rule="evenodd" clip-rule="evenodd" d="M112.003 147.02V149.414L150 111.427V111.01C149.967 86.4723 130.084 66.589 105.546 66.5562H105.129L67.1423 104.553H69.5364C92.9788 104.58 111.976 123.577 112.003 147.02ZM113.93 144.685C112.705 121.983 94.5729 103.851 71.8708 102.626L105.954 68.5429C129.079 68.7901 147.766 87.4768 148.013 110.603L113.93 144.685Z" fill="#FFC31D"/>
<path d="M112.306 146.313L148.312 110.307L149.717 111.712L113.711 147.718L112.306 146.313Z" fill="#FFC31D"/>
<path d="M68.8301 102.854L104.836 66.8473L106.241 68.2521L70.2349 104.258L68.8301 102.854Z" fill="#FFC31D"/>
<path d="M141 120.02H139.013C138.991 96.5734 119.993 77.5703 96.5464 77.5429V75.5562C121.088 75.589 140.973 95.4784 141 120.02Z" fill="#FFC31D"/>
<path d="M132 129.02H130.013C129.986 105.572 110.984 86.5703 87.5364 86.5429V84.5562C112.082 84.5835 131.973 104.475 132 129.02Z" fill="#FFC31D"/>
<path d="M122.99 138.02H121.003C120.981 114.573 101.983 95.5703 78.5364 95.5429V93.5562C103.08 93.5835 122.968 113.476 122.99 138.02Z" fill="#FFC31D"/>
<path d="M118.232 69.3477L82.2218 105.358L118.232 69.3477Z" fill="white"/>
<path d="M81.5292 104.651L117.535 68.6451L118.94 70.05L82.934 106.056L81.5292 104.651Z" fill="#FFC31D"/>
<path d="M147.209 98.3247L111.199 134.335L147.209 98.3247Z" fill="white"/>
<path d="M110.495 133.628L146.501 97.6222L147.906 99.027L111.899 135.033L110.495 133.628Z" fill="#FFC31D"/>
<path d="M142.55 88.4902L106.54 124.5L142.55 88.4902Z" fill="white"/>
<path d="M105.843 123.8L141.849 87.7936L143.254 89.1984L107.248 125.205L105.843 123.8Z" fill="#FFC31D"/>
<path d="M127.947 74.1157L91.947 110.126L127.947 74.1157Z" fill="white"/>
<path d="M91.244 109.428L127.25 73.422L128.655 74.8268L92.6489 110.833L91.244 109.428Z" fill="#FFC31D"/>
<path d="M136.321 80.2354L100.311 116.245L136.321 80.2354Z" fill="white"/>
<path d="M99.6078 115.549L135.614 79.5431L137.019 80.9479L101.013 116.954L99.6078 115.549Z" fill="#FFC31D"/>
<path d="M113.245 74.5032C113.252 99.0549 97.1624 120.708 73.6532 127.786C50.1439 134.864 24.7746 125.693 11.2252 105.218C-1.90927 85.3711 -0.9628 59.3668 13.5797 40.5269C28.1223 21.6869 53.039 14.1852 75.5658 21.8646C98.0926 29.5441 113.239 50.7034 113.245 74.5032Z" fill="#F5F6F8"/>
<path fill-rule="evenodd" clip-rule="evenodd" d="M2.70998 88.3812C9.06529 113.521 31.6854 131.131 57.6159 131.126C76.6904 131.137 94.4849 121.53 104.94 105.576C119.17 83.8992 116.857 55.326 99.325 36.2204C81.7931 17.1148 53.5235 12.3599 30.7059 24.6786C7.88842 36.9974 -3.64532 63.2415 2.70998 88.3812ZM2.98011 74.5036C2.98011 44.3291 27.4414 19.8678 57.6159 19.8678C87.7768 19.9006 112.219 44.3427 112.252 74.5036C112.252 104.678 87.7904 129.139 57.6159 129.139C27.4414 129.139 2.98011 104.678 2.98011 74.5036Z" fill="#0E2946"/>
<path d="M11.2251 105.03C21.4866 120.665 38.9178 130.098 57.6196 130.136C76.3215 130.174 93.7909 120.812 104.116 105.218L98.7218 92.7416C93.682 77.4905 79.4297 67.1907 63.3675 67.1919H51.894C35.8301 67.1926 21.5759 77.4909 16.5297 92.7416L11.2251 105.03Z" fill="white"/>
<path fill-rule="evenodd" clip-rule="evenodd" d="M10.4007 105.576C20.8486 121.538 38.6479 131.148 57.7252 131.126C76.7192 131.149 94.4556 121.633 104.94 105.795L105.238 105.348L99.6656 92.4339C94.511 76.7608 79.8665 66.1762 63.3676 66.1988H51.8941C35.4163 66.1727 20.7864 76.7354 15.6258 92.3843L10.1027 105.129L10.4007 105.576ZM57.623 129.13C39.4487 129.095 22.482 120.024 12.3576 104.931L17.4735 93.02C22.3785 78.1761 36.2608 68.16 51.8941 68.1856H63.3676C79.0528 68.1835 92.9579 78.2755 97.8179 93.1889L102.983 105.109C92.7996 120.162 75.7972 129.166 57.623 129.13Z" fill="#0E2946"/>
<path d="M54.8642 54.9636C61.7011 58.6597 69.3861 60.5022 77.1556 60.3079C78.0803 60.3055 78.9652 59.9316 79.6115 59.2703C80.2578 58.6091 80.6114 57.7159 80.5927 56.7914L80.404 46.4205L83.8113 44.4338L79.8378 16.2119L47.3146 19.4205L43.7086 41.3543L47.9305 54.2682L47.9901 68.8113L57.2782 87.4172L66.2186 68.8013L65.5629 59.0762" fill="white"/>
<path fill-rule="evenodd" clip-rule="evenodd" d="M46.947 69.0595L57.298 89.6821L67.3112 68.99L66.6755 60.3079C70.1379 61.0495 73.6752 61.3829 77.2152 61.3013C78.4047 61.2923 79.5415 60.8097 80.3742 59.9602C81.2066 59.1103 81.6614 57.9608 81.6357 56.7715L81.4569 46.9867L84.8841 44.9205L80.692 15.1191L46.4602 18.5066L42.6357 41.4337L46.8874 54.437L46.947 69.0595ZM57.2682 85.1423L48.9338 68.543L48.8742 54.2681L44.702 41.2748L48.1887 20.3344L78.9834 17.2847L82.7384 43.937L79.4006 45.9238L79.5993 56.8509C79.6198 57.5078 79.3682 58.144 78.904 58.6092C78.439 59.0687 77.8093 59.3227 77.1556 59.3145C73.331 59.4042 69.511 58.9968 65.7914 58.1026C62.156 57.2289 58.6473 55.8936 55.351 54.1291L54.3576 55.8774C57.5894 57.6078 61.0181 58.9419 64.5695 59.8509L65.2152 68.5926L57.2682 85.1423Z" fill="#0E2946"/>
<path d="M55.9668 39.7352C55.9668 39.7352 55.1026 36.3378 52.9271 35.265C47.4039 32.5431 47.2152 42.0497 47.6523 44.6027C48.3774 48.8246 46.8774 49.7882 46.9668 54.2484C45.4072 46.6888 43.9867 45.5266 43.1423 42.4272C40.7781 34.1425 37.3807 20.3345 42.4768 14.2054C48.149 7.37094 60.4668 12.4372 73.9172 12.4372C78.139 12.4372 78.437 13.5398 78.437 13.5398L80.6324 15.0497L80.3443 19.8676C80.3443 19.8676 77.1953 19.6094 74.086 19.2319C58.0629 17.3147 66.0496 26.2948 64.8476 28.9272C62.99 32.9802 59.6026 33.2782 58.9271 39.7352H55.9668Z" fill="#0E2946"/>
<path d="M49.8377 39.2683C47.9931 35.9287 44.8516 33.4989 41.1556 32.553C40.3803 30.2288 39.8216 27.8378 39.4867 25.4107C38.4337 18.457 43.4602 12.1292 47.5529 10.3113C51.6456 8.49345 58.7781 5.96033 69.1787 9.37755C76.1324 11.712 80.6423 6.12921 84.7549 8.51331C91.788 12.5862 85.2516 30.4272 67.4205 25.8875C54.6357 22.6491 54.3377 23.4636 54.2284 25.8279C53.8708 33.4372 52.6489 37.9173 49.8377 39.2683Z" fill="#0E2946"/>
<path d="M50.404 45.328C47.3317 45.328 44.8411 42.8374 44.8411 39.7651C44.8411 36.6927 47.3317 34.2021 50.404 34.2021C53.4763 34.2021 55.9669 36.6927 55.9669 39.7651" fill="white"/>
<path d="M50.4039 46.3211C46.783 46.3211 43.8477 43.3857 43.8477 39.7648C43.8477 36.1438 46.783 33.2085 50.4039 33.2085C54.0249 33.2085 56.9602 36.1438 56.9602 39.7648H54.9735C54.9735 37.2411 52.9276 35.1953 50.4039 35.1953C47.8803 35.1953 45.8344 37.2411 45.8344 39.7648C45.8344 42.2885 47.8803 44.3343 50.4039 44.3343V46.3211Z" fill="#0E2946"/>
<path d="M33.9701 123.375L57.6137 99.7314L81.2573 123.375L57.6137 147.019L33.9701 123.375Z" fill="white"/>
<path fill-rule="evenodd" clip-rule="evenodd" d="M32.5729 123.377L57.6159 148.42L82.659 123.377L57.6159 98.3442L32.5729 123.377ZM57.6159 145.619L35.3742 123.377L57.6159 101.136L79.8576 123.377L57.6159 145.619Z" fill="#0E2946"/>
<path d="M53.8766 130.695L59.5046 115.682L61.3649 116.379L55.7369 131.392L53.8766 130.695Z" fill="#476AE3"/>
<path d="M51.2881 128.921L45.894 123.537L51.2881 118.143L52.6887 119.543L48.6954 123.537L52.6887 127.52L51.2881 128.921Z" fill="#476AE3"/>
<path d="M63.9436 128.921L62.543 127.52L66.5264 123.537L62.543 119.543L63.9436 118.143L69.3377 123.537L63.9436 128.921Z" fill="#476AE3"/>
<path fill-rule="evenodd" clip-rule="evenodd" d="M118.798 19.8676L130.132 31.2021L141.467 19.8676L130.132 8.5332L118.798 19.8676ZM130.132 28.4008L121.599 19.8676L130.132 11.3345L138.666 19.8676L130.132 28.4008Z" fill="#EF4C59"/>
</svg>
