<svg width="80" height="80" viewBox="0 0 80 80" fill="none" xmlns="http://www.w3.org/2000/svg">
<path d="M32 56C32 42.7452 42.7452 32 56 32C69.2548 32 80 42.7452 80 56C80 69.2548 69.2548 80 56 80C42.7452 80 32 69.2548 32 56Z" fill="#D6DFFF"/>
<path fill-rule="evenodd" clip-rule="evenodd" d="M40 6C21.2223 6 6 21.2223 6 40C6 58.7777 21.2223 74 40 74V76C20.1177 76 4 59.8823 4 40C4 20.1177 20.1177 4 40 4C59.8823 4 76 20.1177 76 40H74C74 21.2223 58.7777 6 40 6Z" fill="#0E2946"/>
<path fill-rule="evenodd" clip-rule="evenodd" d="M39.29 39.5326V12.1699H41.29V40.4672L29.0216 50.727L27.7385 49.1928L39.29 39.5326Z" fill="#0E2946"/>
<path fill-rule="evenodd" clip-rule="evenodd" d="M54.46 60.6958L65.9029 49.2529L67.3171 50.6671L54.46 63.5242L47.6829 56.7471L49.0971 55.3329L54.46 60.6958Z" fill="#0E2946"/>
<path d="M37.29 40C37.29 38.3431 38.6332 37 40.29 37C41.9469 37 43.29 38.3431 43.29 40C43.29 41.6569 41.9469 43 40.29 43C38.6332 43 37.29 41.6569 37.29 40Z" fill="#0E2946"/>
<path fill-rule="evenodd" clip-rule="evenodd" d="M36.79 40C36.79 38.067 38.357 36.5 40.29 36.5C42.223 36.5 43.79 38.067 43.79 40C43.79 41.933 42.223 43.5 40.29 43.5C38.357 43.5 36.79 41.933 36.79 40ZM40.29 37.5C38.9093 37.5 37.79 38.6193 37.79 40C37.79 41.3807 38.9093 42.5 40.29 42.5C41.6708 42.5 42.79 41.3807 42.79 40C42.79 38.6193 41.6708 37.5 40.29 37.5Z" fill="#0E2946"/>
</svg>
