<svg width="180" height="180" viewBox="0 0 180 180" fill="none" xmlns="http://www.w3.org/2000/svg">
<path d="M85.3301 82.2599C80.5833 77.5223 72.8969 77.5223 68.1501 82.2599L66.7301 80.8399C72.2616 75.3379 81.1986 75.3379 86.7301 80.8399L85.3301 82.2599Z" fill="#476AE3"/>
<path d="M95.3301 86.3998C91.5765 86.4162 87.9736 84.9246 85.3301 82.2598L86.7401 80.8398C89.0172 83.12 92.1075 84.4013 95.3301 84.4013C98.5526 84.4013 101.643 83.12 103.92 80.8398L105.33 82.2598C102.687 84.9246 99.0836 86.4162 95.3301 86.3998Z" fill="#476AE3"/>
<path d="M122.51 82.2599C117.763 77.5223 110.077 77.5223 105.33 82.2599L103.92 80.8399C109.451 75.3379 118.389 75.3379 123.92 80.8399L122.51 82.2599Z" fill="#476AE3"/>
<path d="M132.52 86.3998C128.768 86.4062 125.169 84.9161 122.52 82.2598L123.94 80.8398C126.217 83.12 129.307 84.4013 132.53 84.4013C135.753 84.4013 138.843 83.12 141.12 80.8398L142.53 82.2598C139.884 84.9271 136.277 86.4189 132.52 86.3998Z" fill="#476AE3"/>
<path d="M142.52 82.2601L141.11 80.8401C146.639 75.3326 155.581 75.3326 161.11 80.8401L159.7 82.2601C154.953 77.5225 147.267 77.5225 142.52 82.2601Z" fill="#476AE3"/>
<path d="M169.7 86.3998C165.947 86.4162 162.344 84.9246 159.7 82.2598L161.11 80.8398C163.387 83.12 166.478 84.4013 169.7 84.4013C172.923 84.4013 176.013 83.12 178.29 80.8398L179.71 82.2598C177.06 84.9204 173.456 86.4111 169.7 86.3998Z" fill="#476AE3"/>
<path d="M85.3301 97.9998C80.581 93.2678 72.8992 93.2678 68.1501 97.9998L66.7301 96.5898C72.257 91.0768 81.2032 91.0768 86.7301 96.5898L85.3301 97.9998Z" fill="#476AE3"/>
<path d="M95.3301 102.09C91.5787 102.095 87.98 100.605 85.3301 97.95L86.7401 96.54C91.4869 101.278 99.1732 101.278 103.92 96.54L105.33 98C102.673 100.639 99.0747 102.111 95.3301 102.09Z" fill="#476AE3"/>
<path d="M122.51 97.9998C117.761 93.2678 110.079 93.2678 105.33 97.9998L103.92 96.5898C109.447 91.0768 118.393 91.0768 123.92 96.5898L122.51 97.9998Z" fill="#476AE3"/>
<path d="M132.52 102.09C128.769 102.095 125.17 100.605 122.52 97.95L123.94 96.54C128.687 101.278 136.373 101.278 141.12 96.54L142.52 98C139.862 100.637 136.264 102.109 132.52 102.09Z" fill="#476AE3"/>
<path d="M142.52 98.0001L141.11 96.5901C146.635 91.0715 155.585 91.0715 161.11 96.5901L159.7 98.0001C154.951 93.268 147.269 93.268 142.52 98.0001Z" fill="#476AE3"/>
<path d="M169.7 102.09C165.949 102.095 162.35 100.605 159.7 97.95L161.11 96.54C165.857 101.278 173.543 101.278 178.29 96.54L179.71 98C177.05 100.639 173.448 102.111 169.7 102.09Z" fill="#476AE3"/>
<path d="M85.3301 113.64C80.5833 108.902 72.8969 108.902 68.1501 113.64L66.7301 112.22C72.2616 106.718 81.1986 106.718 86.7301 112.22L85.3301 113.64Z" fill="#476AE3"/>
<path d="M95.3301 117.78C91.5787 117.785 87.98 116.296 85.3301 113.64L86.7401 112.22C91.4869 116.958 99.1732 116.958 103.92 112.22L105.33 113.64C102.681 116.297 99.0819 117.788 95.3301 117.78Z" fill="#476AE3"/>
<path d="M122.51 113.64C117.763 108.902 110.077 108.902 105.33 113.64L103.92 112.22C109.451 106.718 118.389 106.718 123.92 112.22L122.51 113.64Z" fill="#476AE3"/>
<path d="M132.52 117.78C128.769 117.785 125.17 116.296 122.52 113.64L123.94 112.22C128.687 116.958 136.373 116.958 141.12 112.22L142.53 113.64C139.878 116.298 136.275 117.788 132.52 117.78Z" fill="#476AE3"/>
<path d="M142.52 113.64L141.11 112.22C146.639 106.712 155.581 106.712 161.11 112.22L159.7 113.64C154.953 108.902 147.267 108.902 142.52 113.64Z" fill="#476AE3"/>
<path d="M169.7 117.78C165.949 117.785 162.35 116.296 159.7 113.64L161.11 112.22C165.857 116.958 173.543 116.958 178.29 112.22L179.71 113.64C177.058 116.298 173.455 117.788 169.7 117.78Z" fill="#476AE3"/>
<path d="M85.3301 129.32C80.581 124.588 72.8992 124.588 68.1501 129.32L66.7301 127.91C72.257 122.397 81.2032 122.397 86.7301 127.91L85.3301 129.32Z" fill="#476AE3"/>
<path d="M95.3301 133.46C91.5787 133.465 87.98 131.975 85.3301 129.32L86.7401 127.91C91.4892 132.642 99.171 132.642 103.92 127.91L105.33 129.32C102.681 131.977 99.0819 133.468 95.3301 133.46Z" fill="#476AE3"/>
<path d="M122.51 129.32C117.761 124.588 110.079 124.588 105.33 129.32L103.92 127.91C109.447 122.397 118.393 122.397 123.92 127.91L122.51 129.32Z" fill="#476AE3"/>
<path d="M132.52 133.46C128.769 133.465 125.17 131.975 122.52 129.32L123.94 127.91C128.687 132.648 136.373 132.648 141.12 127.91L142.53 129.32C139.878 131.978 136.275 133.468 132.52 133.46Z" fill="#476AE3"/>
<path d="M142.52 129.32L141.11 127.91C146.635 122.391 155.585 122.391 161.11 127.91L159.7 129.32C154.951 124.588 147.269 124.588 142.52 129.32Z" fill="#476AE3"/>
<path d="M169.7 133.46C165.949 133.465 162.35 131.975 159.7 129.32L161.11 127.91C165.857 132.648 173.543 132.648 178.29 127.91L179.71 129.32C177.058 131.978 173.455 133.468 169.7 133.46Z" fill="#476AE3"/>
<path d="M85.3301 145C80.5833 140.262 72.8969 140.262 68.1501 145L66.7301 143.59C72.257 138.077 81.2032 138.077 86.7301 143.59L85.3301 145Z" fill="#476AE3"/>
<path d="M95.3301 149.16C91.5787 149.165 87.98 147.675 85.3301 145.02L86.7401 143.61C91.4892 148.342 99.171 148.342 103.92 143.61L105.33 145.02C102.681 147.677 99.0819 149.167 95.3301 149.16Z" fill="#476AE3"/>
<path d="M122.51 145C117.763 140.262 110.077 140.262 105.33 145L103.92 143.59C109.447 138.077 118.393 138.077 123.92 143.59L122.51 145Z" fill="#476AE3"/>
<path d="M132.52 149.16C128.769 149.165 125.17 147.675 122.52 145.02L123.94 143.61C128.689 148.342 136.371 148.342 141.12 143.61L142.53 145.02C139.878 147.678 136.275 149.168 132.52 149.16Z" fill="#476AE3"/>
<path d="M142.52 145L141.11 143.59C146.635 138.072 155.585 138.072 161.11 143.59L159.7 145C154.953 140.262 147.267 140.262 142.52 145Z" fill="#476AE3"/>
<path d="M169.7 149.16C165.949 149.165 162.35 147.675 159.7 145.02L161.11 143.61C165.859 148.342 173.541 148.342 178.29 143.61L179.71 145.02C177.058 147.678 173.455 149.168 169.7 149.16Z" fill="#476AE3"/>
<path d="M85.3301 160.71C80.5833 155.972 72.8969 155.972 68.1501 160.71L66.7301 159.29C72.2593 153.782 81.2009 153.782 86.7301 159.29L85.3301 160.71Z" fill="#476AE3"/>
<path d="M95.3301 164.85C91.5765 164.866 87.9736 163.375 85.3301 160.71L86.7401 159.29C89.0172 161.57 92.1075 162.851 95.3301 162.851C98.5526 162.851 101.643 161.57 103.92 159.29L105.33 160.71C102.687 163.375 99.0836 164.866 95.3301 164.85Z" fill="#476AE3"/>
<path d="M122.51 160.71C117.763 155.972 110.077 155.972 105.33 160.71L103.92 159.29C109.447 153.777 118.393 153.777 123.92 159.29L122.51 160.71Z" fill="#476AE3"/>
<path d="M132.52 164.85C128.768 164.856 125.169 163.366 122.52 160.71L123.94 159.29C126.217 161.57 129.307 162.851 132.53 162.851C135.753 162.851 138.843 161.57 141.12 159.29L142.53 160.71C139.884 163.377 136.277 164.869 132.52 164.85Z" fill="#476AE3"/>
<path d="M142.52 160.71L141.11 159.29C146.637 153.777 155.583 153.777 161.11 159.29L159.7 160.71C154.953 155.972 147.267 155.972 142.52 160.71Z" fill="#476AE3"/>
<path d="M169.7 164.85C165.947 164.866 162.344 163.375 159.7 160.71L161.11 159.29C163.387 161.57 166.478 162.851 169.7 162.851C172.923 162.851 176.013 161.57 178.29 159.29L179.71 160.71C177.06 163.371 173.456 164.861 169.7 164.85Z" fill="#476AE3"/>
<path d="M85.3301 175.86C80.5833 171.122 72.8969 171.122 68.1501 175.86L66.7301 174.44C72.2616 168.938 81.1986 168.938 86.7301 174.44L85.3301 175.86Z" fill="#476AE3"/>
<path d="M95.3301 180C91.5808 180.005 87.9835 178.519 85.3301 175.87L86.7401 174.45C91.4869 179.188 99.1732 179.188 103.92 174.45L105.33 175.87C102.678 178.521 99.0798 180.007 95.3301 180Z" fill="#476AE3"/>
<path d="M122.51 175.86C117.763 171.122 110.077 171.122 105.33 175.86L103.92 174.44C109.451 168.938 118.389 168.938 123.92 174.44L122.51 175.86Z" fill="#476AE3"/>
<path d="M132.52 180C128.771 180.004 125.174 178.518 122.52 175.87L123.94 174.45C128.687 179.188 136.373 179.188 141.12 174.45L142.53 175.87C139.874 178.521 136.273 180.007 132.52 180Z" fill="#476AE3"/>
<path d="M142.52 175.86L141.11 174.44C146.639 168.933 155.581 168.933 161.11 174.44L159.7 175.86C154.953 171.123 147.267 171.123 142.52 175.86Z" fill="#476AE3"/>
<path d="M169.7 180C165.951 180.005 162.353 178.519 159.7 175.87L161.11 174.45C165.857 179.188 173.543 179.188 178.29 174.45L179.71 175.87C177.054 178.521 173.453 180.006 169.7 180Z" fill="#476AE3"/>
<path fill-rule="evenodd" clip-rule="evenodd" d="M1.74832 115.191C8.14817 140.486 30.9072 158.207 57 158.21C76.2309 158.183 94.1593 148.488 104.71 132.41C118.992 110.573 116.624 81.8265 98.9592 62.6222C81.2949 43.4179 52.8458 38.66 29.8939 51.0716C6.94209 63.4832 -4.65153 89.8948 1.74832 115.191ZM2.00004 101.21C2.00004 70.8345 26.6244 46.2101 57 46.2101C87.362 46.2432 111.967 70.8482 112 101.21C112 131.586 87.3757 156.21 57 156.21C26.6244 156.21 2.00004 131.586 2.00004 101.21Z" fill="#0E2946"/>
<path d="M103.87 131.87C93.1918 148.204 74.7807 157.801 55.2754 157.201C35.77 156.6 17.9838 145.89 8.33008 128.93L14.1001 115.58C19.17 100.223 33.5181 89.8503 49.6901 89.8501H61.2401C77.4137 89.8523 91.7637 100.224 96.8401 115.58L103.87 131.87Z" fill="white"/>
<path fill-rule="evenodd" clip-rule="evenodd" d="M7.46008 129.43C17.6265 147.204 36.5239 158.183 57.0001 158.21C76.2375 158.249 94.1896 148.556 104.71 132.45L105 132L97.7901 115.26C92.592 99.4849 77.8497 88.8325 61.2401 88.8501H49.6901C33.1225 88.8357 18.4147 99.4513 13.2101 115.18L7.21008 129L7.46008 129.43ZM55.2905 156.202C36.3177 155.612 18.99 145.281 9.45008 128.87L15.0501 115.85C19.9839 100.909 33.9553 90.8256 49.6901 90.8501H61.2401C77.0256 90.8421 91.0234 100.993 95.9201 116L102.74 131.77C92.1993 147.556 74.2634 156.792 55.2905 156.202Z" fill="#0E2946"/>
<path d="M55.72 81.78C59.13 83.62 59.94 85 63.72 85.91C67.5487 86.8361 71.4822 87.2563 75.42 87.16C76.3508 87.1575 77.2416 86.7812 77.8923 86.1155C78.5429 85.4498 78.8988 84.5507 78.88 83.62L78.69 73.18L82.12 71.18L78.12 42.77L45.33 46L41.64 68.08L45.9 81.08L46 95.73C46 95.73 46.29 103.15 54.92 103.15C63.55 103.15 64.43 95.73 64.43 95.73L63.71 85.92" fill="white"/>
<path fill-rule="evenodd" clip-rule="evenodd" d="M44.96 95.7699C44.96 95.8499 45.4 104.15 54.88 104.15C64.1597 104.15 65.346 96.173 65.3984 95.8206C65.3992 95.8153 65.3997 95.8117 65.4 95.8099V95.7099L64.77 87.1399C68.2521 87.8864 71.8097 88.222 75.37 88.1399C76.5706 88.1325 77.7188 87.6466 78.56 86.7899C79.398 85.9344 79.8558 84.7772 79.83 83.5799L79.65 73.7299L83.15 71.6699L78.92 41.6699L44.47 45.0799L40.62 68.1599L44.9 81.2499L44.96 95.7699ZM46.9 81.0799L42.67 67.9999L46.27 46.9099L77.27 43.8399L81.04 70.6399L77.69 72.6399L77.89 83.6399C77.898 84.3038 77.6406 84.9433 77.1749 85.4165C76.7092 85.8897 76.0739 86.1573 75.41 86.1599C71.5599 86.2502 67.7144 85.8401 63.97 84.9399C62.2308 84.5235 60.5944 83.758 59.16 82.6899C58.37 82.1599 57.47 81.5599 56.26 80.8999L55.26 82.6599C56.2019 83.1756 57.1164 83.7397 58 84.3499C59.4381 85.4075 61.0534 86.2 62.77 86.6899L63.43 95.6899C63.3 96.4999 62.14 102.15 54.92 102.15C47.39 102.15 47 95.9499 47 95.7299L46.9 81.0799Z" fill="#0E2946"/>
<path d="M54 66.48C54 66.48 53.16 63.06 51 62C45.43 59.26 45.25 68.83 45.69 71.4C46.42 75.65 44.91 76.62 45 81.11C43.42 73.5 42 72.33 41.15 69.21C38.76 60.87 35.35 46.97 40.47 40.8C46.16 33.9 58.56 35.5 72.1 35.5C76.36 35.5 76.66 36.61 76.66 36.61L77.94 41.67L78.58 46.46C78.58 46.46 75.41 46.2 72.28 45.82C56.14 43.89 58.57 52.93 58.81 55.82C59.37 62.54 57.01 66.46 57.01 66.46L54 66.48Z" fill="#0E2946"/>
<path d="M48.4401 72.0799C45.3473 72.0799 42.8401 69.5727 42.8401 66.4799C42.8401 63.3871 45.3473 60.8799 48.4401 60.8799C51.5329 60.8799 54.0401 63.3871 54.0401 66.4799" fill="white"/>
<path d="M48.4401 73.0799C44.795 73.0799 41.8401 70.125 41.8401 66.4799C41.8401 62.8348 44.795 59.8799 48.4401 59.8799C52.0852 59.8799 55.0401 62.8348 55.0401 66.4799H53.0001C53.0001 63.9394 50.9406 61.8799 48.4001 61.8799C45.8596 61.8799 43.8001 63.9394 43.8001 66.4799C43.8001 69.0204 45.8596 71.0799 48.4001 71.0799L48.4401 73.0799Z" fill="#0E2946"/>
<circle cx="55.23" cy="32.5302" r="2.1" fill="#0E2946"/>
<path d="M78.9 45.2199C89.2 43.9399 97.49 45.1299 97.99 48.1399C98.52 51.4199 89.58 55.6099 77.99 57.4999C70.15 58.7799 63.11 58.6699 59.23 57.4999" fill="white"/>
<path d="M67.4601 59.41C64.5933 59.4895 61.7301 59.1527 58.9601 58.41L59.5601 56.5C63.4301 57.72 70.4401 57.73 77.8601 56.5C90.0001 54.52 97.3301 50.32 97.0001 48.3C96.7201 46.57 90.1501 44.83 79.0001 46.22L78.7601 44.22C88.3301 43 98.2801 43.74 99.0001 48C99.7301 52.55 89.0901 56.72 78.2001 58.5C74.6502 59.0904 71.0587 59.3948 67.4601 59.41Z" fill="#0E2946"/>
<path d="M59.27 57.4499C40.48 60.3499 37.68 57.5499 37.68 57.5499L36.99 48.5499C36.4788 41.82 40.9984 35.7399 47.59 34.2899L65.5 30.2899C70.6707 29.6323 75.5365 32.8818 76.91 37.9099L78.72 44.5299C80 49.0699 74 55.4299 59.26 57.4499" fill="white"/>
<path fill-rule="evenodd" clip-rule="evenodd" d="M36.97 58.2501C37.31 58.6001 38.94 59.7701 45.07 59.7701C49.8835 59.685 54.6838 59.2371 59.43 58.4301C68.76 57.1501 75.75 53.9501 78.6 49.6301C79.7281 48.0958 80.1265 46.1439 79.69 44.2901L77.88 37.6801C76.3337 32.1616 70.9746 28.6115 65.29 29.3401L47.37 33.2901C40.3136 34.8835 35.4812 41.3947 36 48.6101L36.71 58.0001L36.97 58.2501ZM59.12 56.5001C44.29 58.7901 39.64 57.4401 38.64 57.0001L38 48.4501C37.5552 42.2328 41.7199 36.6233 47.8 35.2501L65.68 31.3101C70.3538 30.7381 74.7426 33.6724 76 38.2101L77.76 44.8601C78.0366 46.1587 77.7336 47.5133 76.93 48.5701C74.43 52.3501 67.77 55.3201 59.12 56.5001Z" fill="#0E2946"/>
<path d="M56.23 66.7198C56.23 66.7198 57.08 78.5598 63.08 80.2098C69.08 81.8598 75.46 75.2098 78.86 74.4498C78.86 74.4498 81.13 88.5398 81.13 91.4498C81.13 94.0698 59.63 93.4498 53.37 81.5498C50.83 76.7498 54.83 69.9598 54.04 66.5498L56.23 66.7198Z" fill="#0E2946"/>
<path fill-rule="evenodd" clip-rule="evenodd" d="M52.4801 81.9898C57.0601 90.6998 69.2001 93.6998 76.3401 93.6998C77.5681 93.7078 78.7929 93.5736 79.9901 93.2998C81.7601 92.8598 82.1301 92.0098 82.1301 91.3798C82.1301 88.629 80.1997 76.4556 79.8891 74.4971C79.8689 74.3695 79.8556 74.2853 79.8501 74.2498L79.6801 73.2498L78.6801 73.4698C77.0269 74.0103 75.4657 74.7993 74.0501 75.8098L74.0345 75.8195C70.8672 77.7879 66.9242 80.2382 63.3701 79.2398C59.0201 78.0498 57.4801 69.7498 57.2601 66.6498L57.2001 65.8198L52.7701 65.3398L53.0901 66.7098C53.3585 67.8431 52.9351 69.6681 52.488 71.5955L52.4801 71.6298C51.6701 74.9898 50.7801 78.7698 52.4801 81.9898ZM54.3901 72.0798C54.7985 70.6208 55.0499 69.1223 55.1401 67.6098L55.3001 67.6698C55.6301 70.5198 57.1101 79.6498 62.7901 81.2098C67.1967 82.4189 71.5435 79.7239 75.0421 77.5548L75.0501 77.5498C76.0194 76.9246 77.0208 76.3505 78.0501 75.8298C78.5801 79.1598 80.0301 88.5598 80.1201 91.2298C79.3901 91.6198 76.2501 92.0898 71.2501 91.2298C67.4101 90.5698 58.0401 88.2498 54.2501 81.0798C52.9001 78.4998 53.6901 75.0798 54.3901 72.0798Z" fill="#0E2946"/>
<circle cx="57" cy="156" r="21" fill="white"/>
<path fill-rule="evenodd" clip-rule="evenodd" d="M35 156C35 168.15 44.8497 178 57 178C62.8348 178 68.4305 175.682 72.5564 171.556C76.6822 167.431 79 161.835 79 156C79 143.85 69.1503 134 57 134C44.8497 134 35 143.85 35 156ZM37 156C37 144.954 45.9543 136 57 136C68.0457 136 77 144.954 77 156C77 167.046 68.0457 176 57 176C45.9543 176 37 167.046 37 156Z" fill="#0E2946"/>
<path fill-rule="evenodd" clip-rule="evenodd" d="M45.3201 153.27L57.0001 169.62L68.6801 153.27L64.5901 145.9H49.4101L45.3201 153.27ZM57.0001 166.18L47.6801 153.13L50.5901 147.9H63.4101L66.3201 153.13L57.0001 166.18Z" fill="#FFC31D"/>
<rect x="46.5" y="152.2" width="21" height="2" fill="#FFC31D"/>
<path d="M50.6453 152.542L56.2477 146.243L57.7421 147.572L52.1397 153.871L50.6453 152.542Z" fill="#FFC31D"/>
<path d="M56.2542 147.576L57.7491 146.248L63.3492 152.549L61.8543 153.877L56.2542 147.576Z" fill="#FFC31D"/>
<path d="M49.019 147.111L50.9714 146.677L52.3707 152.973L50.4184 153.407L49.019 147.111Z" fill="#FFC31D"/>
<path d="M61.6177 152.979L63.0159 146.683L64.9684 147.116L63.5701 153.413L61.6177 152.979Z" fill="#FFC31D"/>
<path d="M50.4585 153.557L52.3275 152.845L57.9262 167.545L56.0572 168.257L50.4585 153.557Z" fill="#FFC31D"/>
<path d="M56.0651 167.548L61.6637 152.848L63.5328 153.56L57.9341 168.26L56.0651 167.548Z" fill="#FFC31D"/>
<path d="M140 16H164V40H180V0H140V16Z" fill="#EF4C59"/>
</svg>
