<svg width="80" height="80" viewBox="0 0 80 80" fill="none" xmlns="http://www.w3.org/2000/svg">
<path fill-rule="evenodd" clip-rule="evenodd" d="M39.9998 10.0002V40.0002H9.99976C9.99976 23.4322 23.4318 10.0002 39.9998 10.0002Z" fill="#FCD9D9"/>
<path fill-rule="evenodd" clip-rule="evenodd" d="M43.0071 19.4475L44.8141 20.2282L41.3394 35.0804H53.893L49.2307 42.1072L36.9937 60.5532L35.1867 59.7726L38.6605 44.9194H26.1068L43.0071 19.4475ZM41.6004 25.1853L32.4357 38.9982L29.834 42.9194H41.1823L38.4 54.8154L47.5641 41.0016L50.1658 37.0804H38.8175L41.6004 25.1853Z" fill="#0E2946"/>
<path fill-rule="evenodd" clip-rule="evenodd" d="M40.9998 68.0002V75.0002H38.9998V68.0002H40.9998Z" fill="#0E2946"/>
<path fill-rule="evenodd" clip-rule="evenodd" d="M67.9996 39.0002H74.9996V41.0002H67.9996V39.0002Z" fill="#0E2946"/>
<path fill-rule="evenodd" clip-rule="evenodd" d="M54.8656 63.7544L58.3656 69.8094L56.634 70.8103L53.134 64.7553L54.8656 63.7544Z" fill="#0E2946"/>
<path fill-rule="evenodd" clip-rule="evenodd" d="M9.18945 56.6345L15.2445 53.1345L16.2453 54.8661L10.1903 58.3661L9.18945 56.6345Z" fill="#0E2946"/>
<path fill-rule="evenodd" clip-rule="evenodd" d="M63.7544 25.1345L69.8094 21.6345L70.8103 23.3661L64.7553 26.8661L63.7544 25.1345Z" fill="#0E2946"/>
<path fill-rule="evenodd" clip-rule="evenodd" d="M64.7553 53.1345L70.8103 56.6345L69.8094 58.3661L63.7544 54.8661L64.7553 53.1345Z" fill="#0E2946"/>
<path fill-rule="evenodd" clip-rule="evenodd" d="M21.634 69.8096L25.134 63.7546L26.8656 64.7555L23.3656 70.8105L21.634 69.8096Z" fill="#0E2946"/>
<path fill-rule="evenodd" clip-rule="evenodd" d="M53.1339 15.2455L56.6339 9.18945L58.3655 10.1902L54.8655 16.2462L53.1339 15.2455Z" fill="#0E2946"/>
<path fill-rule="evenodd" clip-rule="evenodd" d="M40.9998 5.00024V12.0002H38.9998V5.00024H40.9998Z" fill="#0E2946"/>
<path fill-rule="evenodd" clip-rule="evenodd" d="M4.99976 39.0002H11.9998V41.0002H4.99976V39.0002Z" fill="#0E2946"/>
<path fill-rule="evenodd" clip-rule="evenodd" d="M23.3655 9.18896L26.8655 15.245L25.1339 16.2457L21.6339 10.1897L23.3655 9.18896Z" fill="#0E2946"/>
<path fill-rule="evenodd" clip-rule="evenodd" d="M10.1903 21.6345L16.2453 25.1345L15.2445 26.8661L9.18945 23.3661L10.1903 21.6345Z" fill="#0E2946"/>
</svg>
