<svg width="80" height="80" viewBox="0 0 80 80" fill="none" xmlns="http://www.w3.org/2000/svg">
<path fill-rule="evenodd" clip-rule="evenodd" d="M5 40C5 20.67 20.67 5 40 5C49.2826 5 58.185 8.68749 64.7487 15.2513C71.3125 21.815 75 30.7174 75 40C75 59.33 59.33 75 40 75C20.67 75 5 59.33 5 40ZM59 40C59 29.5066 50.4934 21 40 21C29.5066 21 21 29.5066 21 40C21 50.4934 29.5066 59 40 59C50.4934 59 59 50.4934 59 40Z" fill="#FCD9D9"/>
<path fill-rule="evenodd" clip-rule="evenodd" d="M10.2579 20C10.3633 20.1316 10.4865 20.2819 10.6266 20.4472C11.16 21.0765 11.931 21.9142 12.8804 22.7491C14.8113 24.4471 17.3284 26 20 26C22.6716 26 25.1887 24.4471 27.1196 22.7491C28.069 21.9142 28.84 21.0765 29.3734 20.4472C29.5135 20.2819 29.6367 20.1316 29.7421 20C29.6367 19.8684 29.5135 19.7181 29.3734 19.5528C28.84 18.9235 28.069 18.0858 27.1196 17.2509C25.1887 15.5529 22.6716 14 20 14C17.3284 14 14.8113 15.5529 12.8804 17.2509C11.931 18.0858 11.16 18.9235 10.6266 19.5528C10.4865 19.7181 10.3633 19.8684 10.2579 20ZM31 20C31.8181 19.425 31.818 19.4247 31.8178 19.4244L31.8159 19.4218L31.8119 19.4161L31.7984 19.3973C31.7871 19.3815 31.771 19.3592 31.7503 19.3308C31.7088 19.2742 31.6487 19.1933 31.571 19.0917C31.4156 18.8885 31.1892 18.6019 30.8991 18.2597C30.32 17.5765 29.481 16.6642 28.4404 15.7491C26.3913 13.9471 23.4084 12 20 12C16.5916 12 13.6087 13.9471 11.5596 15.7491C10.519 16.6642 9.67997 17.5765 9.10092 18.2597C8.81079 18.6019 8.58438 18.8885 8.429 19.0917C8.35128 19.1933 8.29122 19.2742 8.24975 19.3308C8.22902 19.3592 8.21291 19.3815 8.20157 19.3973L8.18812 19.4161L8.18409 19.4218L8.18275 19.4237C8.18255 19.424 8.18187 19.425 9.00001 20L8.18187 19.425L7.77771 20L8.18187 20.575L9.00001 20C8.18187 20.575 8.18167 20.5747 8.18187 20.575L8.18409 20.5782L8.18812 20.5839L8.20157 20.6027C8.21291 20.6185 8.22902 20.6408 8.24975 20.6692C8.29122 20.7258 8.35128 20.8067 8.429 20.9083C8.58438 21.1115 8.81079 21.3981 9.10092 21.7403C9.67997 22.4235 10.519 23.3358 11.5596 24.2509C13.6087 26.0529 16.5916 28 20 28C23.4084 28 26.3913 26.0529 28.4404 24.2509C29.481 23.3358 30.32 22.4235 30.8991 21.7403C31.1892 21.3981 31.4156 21.1115 31.571 20.9083C31.6487 20.8067 31.7088 20.7258 31.7503 20.6692C31.771 20.6408 31.7871 20.6185 31.7984 20.6027L31.8119 20.5839L31.8159 20.5782L31.8173 20.5763C31.8175 20.576 31.8181 20.575 31 20ZM31 20L31.8181 20.575L32.2223 20L31.8178 19.4244L31 20Z" fill="#0E2946"/>
<path fill-rule="evenodd" clip-rule="evenodd" d="M22 20C22 18.8954 21.1046 18 20 18V16C22.2091 16 24 17.7909 24 20C24 22.2091 22.2091 24 20 24C17.7909 24 16 22.2091 16 20H18C18 21.1046 18.8954 22 20 22C21.1046 22 22 21.1046 22 20Z" fill="#0E2946"/>
<path fill-rule="evenodd" clip-rule="evenodd" d="M56.1721 54.4919C54.985 55.0998 53.8807 55.8572 52.8861 56.7457L52.8846 56.7471C52.0792 57.4635 51.3241 58.2344 50.6245 59.0544C50.4858 59.221 50.3631 59.3721 50.2579 59.504C50.3628 59.6366 50.4852 59.788 50.6238 59.9545C51.3236 60.7708 52.0786 61.5383 52.8832 62.2516L52.8875 62.2553C53.8829 63.1478 54.9886 63.9091 56.1774 64.5207L56.1878 64.526L56.1982 64.5317C58.5684 65.8223 61.4315 65.8223 63.8017 64.5317L63.812 64.526L63.8225 64.5207C65.0113 63.9091 66.117 63.1478 67.1124 62.2553L67.121 62.2476C67.9239 61.5444 68.678 60.7874 69.3783 59.9819C69.518 59.814 69.6412 59.6614 69.7466 59.5282C69.6386 59.3884 69.5121 59.2267 69.3683 59.0462C68.6707 58.2293 67.918 57.4611 67.1153 56.7471L67.1137 56.7457C66.1182 55.8563 65.0127 55.0983 63.8243 54.4901L63.8217 54.4887C63.6446 54.3974 63.3782 54.3994 62.6227 54.722C62.5379 54.7583 62.4436 54.7999 62.3431 54.8442C62.0769 54.9617 61.7669 55.0985 61.4728 55.2059C61.0488 55.3606 60.5461 55.4999 59.9999 55.4999C59.4532 55.4999 58.9519 55.3603 58.5294 55.2052C58.2383 55.0983 57.9307 54.9616 57.6669 54.8445C57.5659 54.7997 57.4714 54.7577 57.3867 54.7213C56.647 54.4037 56.3697 54.3934 56.1721 54.4919ZM70.9999 59.5299C71.8174 60.1059 71.8174 60.1059 71.8173 60.106L71.8153 60.1088L71.8114 60.1143L71.7982 60.1328C71.787 60.1484 71.7711 60.1705 71.7505 60.1987C71.7093 60.2551 71.6496 60.3358 71.5725 60.4374C71.4182 60.6404 71.1939 60.9272 70.9082 61.2701L70.9016 61.2779L70.8949 61.2856C70.1345 62.1612 69.3154 62.984 68.4432 63.7483C67.3246 64.7505 66.0828 65.6059 64.7477 66.2938C61.7867 67.9016 58.2132 67.9016 55.2522 66.2938C53.9162 65.6055 52.6737 64.7494 51.5545 63.7464C50.6805 62.9715 49.8605 62.1376 49.1005 61.2505L49.0916 61.2401C48.8059 60.8973 48.5817 60.6104 48.4274 60.4074C48.3503 60.3058 48.2906 60.2251 48.2494 60.1687C48.2288 60.1405 48.2129 60.1184 48.2017 60.1028L48.1884 60.0843L48.1845 60.0788L48.1826 60.0761C48.1826 60.076 48.1825 60.0759 48.9999 59.4999C48.1888 58.9151 48.1888 58.9151 48.1888 58.915L48.1907 58.9124L48.1945 58.9072L48.2074 58.8895C48.2184 58.8744 48.2342 58.853 48.2546 58.8256C48.2954 58.7708 48.3546 58.692 48.4313 58.5924C48.5845 58.3934 48.8076 58.1107 49.0917 57.7697L49.099 57.761C49.8589 56.8698 50.6794 56.0319 51.5545 55.2534C52.6774 54.2505 53.9241 53.3957 55.2643 52.7097L55.27 52.7068C56.3822 52.1465 57.4856 52.5872 58.1757 52.8835C58.3106 52.9414 58.4331 52.9959 58.5488 53.0474C58.7847 53.1522 58.9922 53.2445 59.2189 53.3278C59.5367 53.4445 59.7866 53.4999 59.9999 53.4999C60.2138 53.4999 60.4661 53.4442 60.7871 53.3271C61.0167 53.2433 61.2279 53.15 61.4673 53.0442C61.5824 52.9934 61.7039 52.9397 61.8372 52.8828C62.5214 52.5906 63.6344 52.1428 64.7369 52.7104C66.0766 53.3962 67.3228 54.2508 68.4453 55.2534C68.4456 55.2536 68.4459 55.2539 68.4461 55.2541L67.78 55.9999L68.4453 55.2534C68.4451 55.2532 68.4456 55.2536 68.4453 55.2534C69.3204 56.0319 70.1409 56.8698 70.9009 57.7611L70.9116 57.7737L70.9219 57.7866C71.2029 58.1391 71.4233 58.4261 71.5743 58.6262C71.6499 58.7262 71.7081 58.8046 71.7479 58.8587L71.7937 58.9211L71.806 58.938L71.8105 58.9443L70.9999 59.5299ZM48.9999 59.4999L48.1888 58.915L47.772 59.4932L48.1826 60.0761L48.9999 59.4999ZM70.9999 59.5299L71.8111 58.9451L72.2279 59.5232L71.8173 60.106L70.9999 59.5299Z" fill="#0E2946"/>
<path fill-rule="evenodd" clip-rule="evenodd" d="M70.14 60.53H49V58.53H70.14V60.53Z" fill="#0E2946"/>
<path fill-rule="evenodd" clip-rule="evenodd" d="M65.0537 12.088C62.257 9.30911 57.7412 9.30955 54.9451 12.0893L53.535 10.6709C57.1117 7.11524 62.8884 7.11524 66.4651 10.6709L65.76 11.3801L66.4675 10.6733C70.0364 14.2459 70.0364 20.0343 66.4675 23.6068L59.5677 30.5067C59.5675 30.5068 59.5678 30.5065 59.5677 30.5067M65.0537 12.088C67.8414 14.8797 67.841 19.402 65.0526 22.1933L65.0537 12.088Z" fill="#0E2946"/>
<path fill-rule="evenodd" clip-rule="evenodd" d="M54.9469 12.0872C53.6072 13.4262 52.8561 15.2438 52.86 17.1379L50.86 17.142C50.8551 14.7158 51.817 12.3877 53.5331 10.6726L54.9469 12.0872Z" fill="#0E2946"/>
<path fill-rule="evenodd" clip-rule="evenodd" d="M53.7966 24.7575C53.2199 25.3334 52.8959 26.1149 52.8959 26.9299C52.8959 27.7449 53.2199 28.5264 53.7966 29.1023L52.3834 30.5175C51.431 29.5665 50.8959 28.2758 50.8959 26.9299C50.8959 25.584 51.431 24.2933 52.3834 23.3423L53.7966 24.7575Z" fill="#0E2946"/>
<path fill-rule="evenodd" clip-rule="evenodd" d="M56.7033 21.915C56.7033 21.5491 56.5569 21.1983 56.2968 20.941L57.7032 19.519C58.3432 20.1521 58.7033 21.0148 58.7033 21.915C58.7033 22.8152 58.3432 23.678 57.7032 24.311L56.2968 22.889C56.5569 22.6317 56.7033 22.281 56.7033 21.915Z" fill="#0E2946"/>
<path fill-rule="evenodd" clip-rule="evenodd" d="M60.1699 13.5857C59.2462 13.5857 58.3603 13.953 57.7075 14.6066L56.2924 13.1934C57.3203 12.1641 58.7153 11.5857 60.1699 11.5857C61.6246 11.5857 63.0196 12.1641 64.0475 13.1934L62.6324 14.6066C61.9796 13.953 61.0937 13.5857 60.1699 13.5857Z" fill="#0E2946"/>
<path fill-rule="evenodd" clip-rule="evenodd" d="M57 13.9L56.2907 13.1951C54.1629 15.3363 54.1629 18.7937 56.2907 20.9349L57.7093 19.5251C56.3569 18.1643 56.3567 15.967 57.7085 14.6058C58.3611 13.9527 59.2467 13.5857 60.17 13.5857C61.0938 13.5857 61.9797 13.953 62.6324 14.6066L64.0476 13.1934C63.0197 12.1641 61.6247 11.5857 60.17 11.5857C58.7154 11.5857 57.3204 12.1641 56.2924 13.1934L57 13.9Z" fill="#0E2946"/>
<path fill-rule="evenodd" clip-rule="evenodd" d="M15.8999 48H21.2799V56.7638L30.4399 60.1538V71H28.4399V61.5462L19.2799 58.1562V50H17.8999V65.1465L12.4629 62.4337L11.8131 63.4355L17.9379 70.3362L16.442 71.6638L9.30676 63.6245L11.757 59.8463L15.8999 61.9135V48Z" fill="#0E2946"/>
</svg>
