<svg width="80" height="80" viewBox="0 0 80 80" fill="none" xmlns="http://www.w3.org/2000/svg">
<path d="M40.4011 51.5002L51.5027 40.3987L79.2637 68.1597L68.1621 79.2613L40.4011 51.5002Z" fill="#FCD9D9"/>
<path d="M63.56 32.15C63.56 49.4973 49.4973 63.56 32.15 63.56C14.8027 63.56 0.73999 49.4973 0.73999 32.15C0.73999 14.8027 14.8027 0.73999 32.15 0.73999C49.4973 0.73999 63.56 14.8027 63.56 32.15Z" fill="#FCD9D9"/>
<path d="M45.2399 32.1501C45.2399 39.3795 39.3793 45.2401 32.1499 45.2401C24.9205 45.2401 19.0599 39.3795 19.0599 32.1501C19.0599 24.9207 24.9205 19.0601 32.1499 19.0601C39.3793 19.0601 45.2399 24.9207 45.2399 32.1501Z" fill="white"/>
<path fill-rule="evenodd" clip-rule="evenodd" d="M6.73999 13.74H72.74V15.74H6.73999V13.74Z" fill="#0E2946"/>
<path d="M19.74 10.74C19.74 11.2923 19.2923 11.74 18.74 11.74C18.1877 11.74 17.74 11.2923 17.74 10.74C17.74 10.1877 18.1877 9.73999 18.74 9.73999C19.2923 9.73999 19.74 10.1877 19.74 10.74Z" fill="#0E2946"/>
<path d="M15.74 10.74C15.74 11.2923 15.2923 11.74 14.74 11.74C14.1877 11.74 13.74 11.2923 13.74 10.74C13.74 10.1877 14.1877 9.73999 14.74 9.73999C15.2923 9.73999 15.74 10.1877 15.74 10.74Z" fill="#0E2946"/>
<path d="M11.74 10.74C11.74 11.2923 11.2923 11.74 10.74 11.74C10.1877 11.74 9.73999 11.2923 9.73999 10.74C9.73999 10.1877 10.1877 9.73999 10.74 9.73999C11.2923 9.73999 11.74 10.1877 11.74 10.74Z" fill="#0E2946"/>
<path fill-rule="evenodd" clip-rule="evenodd" d="M13.74 38.74C13.74 33.2171 18.2171 28.74 23.74 28.74C29.2628 28.74 33.74 33.2171 33.74 38.74H31.74C31.74 34.3217 28.1583 30.74 23.74 30.74C19.3217 30.74 15.74 34.3217 15.74 38.74H13.74Z" fill="#0E2946"/>
<path fill-rule="evenodd" clip-rule="evenodd" d="M19.74 23.74C19.74 21.5309 21.5309 19.74 23.74 19.74C25.9491 19.74 27.74 21.5309 27.74 23.74V26.74C27.74 28.9491 25.9491 30.74 23.74 30.74C21.5309 30.74 19.74 28.9491 19.74 26.74V23.74ZM23.74 21.74C22.6354 21.74 21.74 22.6354 21.74 23.74V26.74C21.74 27.8446 22.6354 28.74 23.74 28.74C24.8446 28.74 25.74 27.8446 25.74 26.74V23.74C25.74 22.6354 24.8446 21.74 23.74 21.74Z" fill="#0E2946"/>
<path fill-rule="evenodd" clip-rule="evenodd" d="M5.73999 5.73999H73.74V40.74H71.74V7.73999H7.73999V71.74H29.74V73.74H5.73999V5.73999Z" fill="#0E2946"/>
<path fill-rule="evenodd" clip-rule="evenodd" d="M31.74 51.74H51.74V73.74H31.74V51.74ZM33.74 53.74V71.74H49.74V53.74H33.74Z" fill="#0E2946"/>
<path fill-rule="evenodd" clip-rule="evenodd" d="M39.68 65.8099H43.79L44.46 67.6099H47L43.13 57.8699H40.34L36.5 67.6099H39L39.68 65.8099ZM43.13 63.9999H40.36L41.74 60.2599L43.13 63.9999Z" fill="#0E2946"/>
<path fill-rule="evenodd" clip-rule="evenodd" d="M53.74 51.74H64.74V53.74H55.74V71.74H71.74V56.41H73.74V73.74H53.74V51.74Z" fill="#0E2946"/>
<path fill-rule="evenodd" clip-rule="evenodd" d="M59.58 67.6099V57.8699H64.46C65.1905 57.7948 65.9196 58.025 66.4744 58.5061C67.0293 58.9871 67.3607 59.6761 67.39 60.4099C67.4223 61.3312 66.9197 62.1883 66.1 62.6099C66.9687 62.8774 67.6238 63.5953 67.8108 64.4848C67.9979 65.3743 67.6874 66.2952 67 66.8899C66.4013 67.3813 65.6439 67.6373 64.87 67.6099H59.58ZM62 59.8399V61.8399H64C64.2646 61.8529 64.5218 61.7499 64.7043 61.5578C64.8868 61.3657 64.9765 61.1036 64.95 60.8399C64.95 60.2876 64.5022 59.8399 63.95 59.8399H62ZM62 65.6399V63.6399H64.3C64.8522 63.6399 65.3 64.0876 65.3 64.6399C65.3 65.1922 64.8522 65.6399 64.3 65.6399H62Z" fill="#0E2946"/>
<path fill-rule="evenodd" clip-rule="evenodd" d="M71.3715 48.4943L76.1829 43.6829L77.5972 45.0971L71.3686 51.3256L68.1815 48.1257L69.5986 46.7143L71.3715 48.4943Z" fill="#0E2946"/>
</svg>
