<svg width="80" height="80" viewBox="0 0 80 80" fill="none" xmlns="http://www.w3.org/2000/svg">
<path d="M80 56C80 69.2548 69.2548 80 56 80C42.7452 80 32 69.2548 32 56C32 42.7452 42.7452 32 56 32C69.2548 32 80 42.7452 80 56Z" fill="#FCD9D9"/>
<path fill-rule="evenodd" clip-rule="evenodd" d="M53.0637 63.8088L59.0637 47.8088L60.9364 48.5111L54.9364 64.5111L53.0637 63.8088Z" fill="#0E2946"/>
<path fill-rule="evenodd" clip-rule="evenodd" d="M47.4141 56.16L51.707 51.8671L50.2928 50.4529L44.5857 56.16L50.2928 61.8671L51.707 60.4529L47.4141 56.16Z" fill="#0E2946"/>
<path fill-rule="evenodd" clip-rule="evenodd" d="M66.5859 56.16L62.293 51.8671L63.7072 50.4529L69.4143 56.16L63.7072 61.8671L62.293 60.4529L66.5859 56.16Z" fill="#0E2946"/>
<path fill-rule="evenodd" clip-rule="evenodd" d="M6 6H74V40H72V8H8V72H40V74H6V6Z" fill="#0E2946"/>
<path fill-rule="evenodd" clip-rule="evenodd" d="M7 14H73V16H7V14Z" fill="#0E2946"/>
<path fill-rule="evenodd" clip-rule="evenodd" d="M12 20H22V22H12V20Z" fill="#0E2946"/>
<path fill-rule="evenodd" clip-rule="evenodd" d="M17 25H27V27H17V25Z" fill="#0E2946"/>
<path fill-rule="evenodd" clip-rule="evenodd" d="M17 45H27V47H17V45Z" fill="#0E2946"/>
<path fill-rule="evenodd" clip-rule="evenodd" d="M22 30H32V32H22V30Z" fill="#0E2946"/>
<path fill-rule="evenodd" clip-rule="evenodd" d="M22 40H32V42H22V40Z" fill="#0E2946"/>
<path fill-rule="evenodd" clip-rule="evenodd" d="M22 50H32V52H22V50Z" fill="#0E2946"/>
<path fill-rule="evenodd" clip-rule="evenodd" d="M27 35H37V37H27V35Z" fill="#0E2946"/>
<path fill-rule="evenodd" clip-rule="evenodd" d="M27 55H37V57H27V55Z" fill="#0E2946"/>
<path d="M20 11C20 11.5523 19.5523 12 19 12C18.4477 12 18 11.5523 18 11C18 10.4477 18.4477 10 19 10C19.5523 10 20 10.4477 20 11Z" fill="#0E2946"/>
<path d="M16 11C16 11.5523 15.5523 12 15 12C14.4477 12 14 11.5523 14 11C14 10.4477 14.4477 10 15 10C15.5523 10 16 10.4477 16 11Z" fill="#0E2946"/>
<path d="M12 11C12 11.5523 11.5523 12 11 12C10.4477 12 10 11.5523 10 11C10 10.4477 10.4477 10 11 10C11.5523 10 12 10.4477 12 11Z" fill="#0E2946"/>
</svg>
