<svg width="80" height="80" viewBox="0 0 80 80" fill="none" xmlns="http://www.w3.org/2000/svg">
<path d="M0 0H80V80" fill="#FFECB8"/>
<path fill-rule="evenodd" clip-rule="evenodd" d="M22.8761 49.0922L32.6261 43.2522L33.6538 44.968L23.9038 50.808L22.8761 49.0922Z" fill="#0E2946"/>
<path fill-rule="evenodd" clip-rule="evenodd" d="M19.8497 25.5447L33.8597 34.7647L32.7602 36.4354L18.7502 27.2154L19.8497 25.5447Z" fill="#0E2946"/>
<path fill-rule="evenodd" clip-rule="evenodd" d="M43.2631 32.6346L51.1731 19.4846L52.8869 20.5155L44.9769 33.6655L43.2631 32.6346Z" fill="#0E2946"/>
<path fill-rule="evenodd" clip-rule="evenodd" d="M47.8383 41.8425L64.7683 48.1325L64.0717 50.0073L47.1417 43.7173L47.8383 41.8425Z" fill="#0E2946"/>
<path fill-rule="evenodd" clip-rule="evenodd" d="M42.5019 47.6606L46.2219 66.9606L44.2581 67.3392L40.5381 48.0392L42.5019 47.6606Z" fill="#0E2946"/>
<path fill-rule="evenodd" clip-rule="evenodd" d="M54.09 13.5801C52.4331 13.5801 51.09 14.9232 51.09 16.5801C51.09 18.2369 52.4331 19.5801 54.09 19.5801C55.7468 19.5801 57.09 18.2369 57.09 16.5801C57.09 14.9232 55.7468 13.5801 54.09 13.5801ZM49.09 16.5801C49.09 13.8187 51.3285 11.5801 54.09 11.5801C56.8514 11.5801 59.09 13.8187 59.09 16.5801C59.09 19.3415 56.8514 21.5801 54.09 21.5801C51.3285 21.5801 49.09 19.3415 49.09 16.5801Z" fill="#0E2946"/>
<path fill-rule="evenodd" clip-rule="evenodd" d="M15.96 21.1799C14.3031 21.1799 12.96 22.5231 12.96 24.1799C12.96 25.8368 14.3031 27.1799 15.96 27.1799C17.6168 27.1799 18.96 25.8368 18.96 24.1799C18.96 22.5231 17.6168 21.1799 15.96 21.1799ZM10.96 24.1799C10.96 21.4185 13.1985 19.1799 15.96 19.1799C18.7214 19.1799 20.96 21.4185 20.96 24.1799C20.96 26.9414 18.7214 29.1799 15.96 29.1799C13.1985 29.1799 10.96 26.9414 10.96 24.1799Z" fill="#0E2946"/>
<path fill-rule="evenodd" clip-rule="evenodd" d="M68.17 47.46C66.5132 47.46 65.17 48.8031 65.17 50.46C65.17 52.1168 66.5132 53.46 68.17 53.46C69.8269 53.46 71.17 52.1168 71.17 50.46C71.17 48.8031 69.8269 47.46 68.17 47.46ZM63.17 50.46C63.17 47.6985 65.4086 45.46 68.17 45.46C70.9315 45.46 73.17 47.6985 73.17 50.46C73.17 53.2214 70.9315 55.46 68.17 55.46C65.4086 55.46 63.17 53.2214 63.17 50.46Z" fill="#0E2946"/>
<path fill-rule="evenodd" clip-rule="evenodd" d="M46 68.0801C44.3431 68.0801 43 69.4232 43 71.0801C43 72.7369 44.3431 74.0801 46 74.0801C47.6569 74.0801 49 72.7369 49 71.0801C49 69.4232 47.6569 68.0801 46 68.0801ZM41 71.0801C41 68.3187 43.2386 66.0801 46 66.0801C48.7614 66.0801 51 68.3187 51 71.0801C51 73.8415 48.7614 76.0801 46 76.0801C43.2386 76.0801 41 73.8415 41 71.0801Z" fill="#0E2946"/>
<path fill-rule="evenodd" clip-rule="evenodd" d="M19.96 49C18.3031 49 16.96 50.3431 16.96 52C16.96 53.6569 18.3031 55 19.96 55C21.6168 55 22.96 53.6569 22.96 52C22.96 50.3431 21.6168 49 19.96 49ZM14.96 52C14.96 49.2386 17.1985 47 19.96 47C22.7214 47 24.96 49.2386 24.96 52C24.96 54.7614 22.7214 57 19.96 57C17.1985 57 14.96 54.7614 14.96 52Z" fill="#0E2946"/>
<path fill-rule="evenodd" clip-rule="evenodd" d="M40 33C36.134 33 33 36.134 33 40C33 43.866 36.134 47 40 47C43.866 47 47 43.866 47 40C47 36.134 43.866 33 40 33ZM31 40C31 35.0294 35.0294 31 40 31C44.9706 31 49 35.0294 49 40C49 44.9706 44.9706 49 40 49C35.0294 49 31 44.9706 31 40Z" fill="#0E2946"/>
</svg>
