<svg width="80" height="80" viewBox="0 0 80 80" fill="none" xmlns="http://www.w3.org/2000/svg">
<g opacity="0.2">
<path d="M0 0H80V80H0V0Z" fill="white"/>
</g>
<path fill-rule="evenodd" clip-rule="evenodd" d="M5 40C5 20.67 20.67 5 40 5C49.2826 5 58.185 8.68749 64.7487 15.2513C71.3125 21.815 75 30.7174 75 40C75 59.33 59.33 75 40 75C20.67 75 5 59.33 5 40ZM59 40C59 29.5066 50.4934 21 40 21C29.5066 21 21 29.5066 21 40C21 50.4934 29.5066 59 40 59C50.4934 59 59 50.4934 59 40Z" fill="#D6DFFF"/>
<path fill-rule="evenodd" clip-rule="evenodd" d="M10.2578 20C10.3632 20.1316 10.4864 20.2819 10.6265 20.4472C11.1599 21.0765 11.9309 21.9142 12.8803 22.7491C14.8112 24.4471 17.3283 26 19.9999 26C22.6715 26 25.1885 24.4471 27.1195 22.7491C28.0689 21.9142 28.8398 21.0765 29.3733 20.4472C29.5133 20.2819 29.6366 20.1316 29.742 20C29.6366 19.8684 29.5133 19.7181 29.3733 19.5528C28.8398 18.9235 28.0689 18.0858 27.1195 17.2509C25.1885 15.5529 22.6715 14 19.9999 14C17.3283 14 14.8112 15.5529 12.8803 17.2509C11.9309 18.0858 11.1599 18.9235 10.6265 19.5528C10.4864 19.7181 10.3632 19.8684 10.2578 20ZM30.9999 20C31.818 19.425 31.8178 19.4247 31.8176 19.4244L31.8158 19.4218L31.8118 19.4161L31.7983 19.3973C31.787 19.3815 31.7709 19.3592 31.7501 19.3308C31.7087 19.2742 31.6486 19.1933 31.5709 19.0917C31.4155 18.8885 31.1891 18.6019 30.899 18.2597C30.3199 17.5765 29.4809 16.6642 28.4403 15.7491C26.3912 13.9471 23.4083 12 19.9999 12C16.5915 12 13.6085 13.9471 11.5595 15.7491C10.5189 16.6642 9.67985 17.5765 9.1008 18.2597C8.81067 18.6019 8.58426 18.8885 8.42888 19.0917C8.35116 19.1933 8.2911 19.2742 8.24963 19.3308C8.22889 19.3592 8.21279 19.3815 8.20144 19.3973L8.18799 19.4161L8.18397 19.4218L8.18263 19.4237C8.18243 19.424 8.18175 19.425 8.99988 20L8.18175 19.425L7.77759 20L8.18175 20.575L8.99988 20C8.18175 20.575 8.18155 20.5747 8.18175 20.575L8.18397 20.5782L8.18799 20.5839L8.20144 20.6027C8.21279 20.6185 8.22889 20.6408 8.24963 20.6692C8.2911 20.7258 8.35116 20.8067 8.42888 20.9083C8.58426 21.1115 8.81067 21.3981 9.1008 21.7403C9.67985 22.4235 10.5189 23.3358 11.5595 24.2509C13.6085 26.0529 16.5915 28 19.9999 28C23.4083 28 26.3912 26.0529 28.4403 24.2509C29.4809 23.3358 30.3199 22.4235 30.899 21.7403C31.1891 21.3981 31.4155 21.1115 31.5709 20.9083C31.6486 20.8067 31.7087 20.7258 31.7501 20.6692C31.7709 20.6408 31.787 20.6185 31.7983 20.6027L31.8118 20.5839L31.8158 20.5782L31.8171 20.5763C31.8173 20.576 31.818 20.575 30.9999 20ZM30.9999 20L31.818 20.575L32.2222 20L31.8176 19.4244L30.9999 20Z" fill="#0E2946"/>
<path fill-rule="evenodd" clip-rule="evenodd" d="M22 20C22 18.8954 21.1046 18 20 18V16C22.2091 16 24 17.7909 24 20C24 22.2091 22.2091 24 20 24C17.7909 24 16 22.2091 16 20H18C18 21.1046 18.8954 22 20 22C21.1046 22 22 21.1046 22 20Z" fill="#0E2946"/>
<path fill-rule="evenodd" clip-rule="evenodd" d="M56.1721 54.4919C54.985 55.0998 53.8807 55.8572 52.8861 56.7457L52.8846 56.7471C52.0792 57.4635 51.3241 58.2344 50.6245 59.0544C50.4858 59.221 50.3631 59.3721 50.2579 59.504C50.3628 59.6366 50.4852 59.788 50.6238 59.9545C51.3236 60.7708 52.0786 61.5383 52.8832 62.2516L52.8875 62.2553C53.8829 63.1478 54.9886 63.9091 56.1774 64.5207L56.1878 64.526L56.1982 64.5317C58.5684 65.8223 61.4315 65.8223 63.8017 64.5317L63.812 64.526L63.8225 64.5207C65.0113 63.9091 66.117 63.1478 67.1124 62.2553L67.121 62.2476C67.9239 61.5444 68.678 60.7874 69.3783 59.9819C69.518 59.814 69.6412 59.6614 69.7466 59.5282C69.6386 59.3884 69.5121 59.2267 69.3683 59.0462C68.6707 58.2293 67.918 57.4611 67.1153 56.7471L67.1137 56.7457C66.1182 55.8563 65.0127 55.0983 63.8243 54.4901L63.8217 54.4887C63.6446 54.3974 63.3782 54.3994 62.6227 54.722C62.5379 54.7583 62.4436 54.7999 62.3431 54.8442C62.0769 54.9617 61.7669 55.0985 61.4728 55.2059C61.0488 55.3606 60.5461 55.4999 59.9999 55.4999C59.4532 55.4999 58.9519 55.3603 58.5294 55.2052C58.2383 55.0983 57.9307 54.9616 57.6669 54.8445C57.5659 54.7997 57.4714 54.7577 57.3867 54.7213C56.647 54.4037 56.3697 54.3934 56.1721 54.4919ZM70.9999 59.5299C71.8174 60.1059 71.8174 60.1059 71.8173 60.106L71.8153 60.1088L71.8114 60.1143L71.7982 60.1328C71.787 60.1484 71.7711 60.1705 71.7505 60.1987C71.7093 60.2551 71.6496 60.3358 71.5725 60.4374C71.4182 60.6404 71.1939 60.9272 70.9082 61.2701L70.9016 61.2779L70.8949 61.2856C70.1345 62.1612 69.3154 62.984 68.4432 63.7483C67.3246 64.7505 66.0828 65.6059 64.7477 66.2938C61.7867 67.9016 58.2132 67.9016 55.2522 66.2938C53.9162 65.6055 52.6737 64.7494 51.5545 63.7464C50.6805 62.9715 49.8605 62.1376 49.1005 61.2505L49.0916 61.2401C48.8059 60.8973 48.5817 60.6104 48.4274 60.4074C48.3503 60.3058 48.2906 60.2251 48.2494 60.1687C48.2288 60.1405 48.2129 60.1184 48.2017 60.1028L48.1884 60.0843L48.1845 60.0788L48.1826 60.0761C48.1826 60.076 48.1825 60.0759 48.9999 59.4999C48.1888 58.9151 48.1888 58.9151 48.1888 58.915L48.1907 58.9124L48.1945 58.9072L48.2074 58.8895C48.2184 58.8744 48.2342 58.853 48.2546 58.8256C48.2954 58.7708 48.3546 58.692 48.4313 58.5924C48.5845 58.3934 48.8076 58.1107 49.0917 57.7697L49.099 57.761C49.8589 56.8698 50.6794 56.0319 51.5545 55.2534C52.6774 54.2505 53.9241 53.3957 55.2643 52.7097L55.27 52.7068C56.3822 52.1465 57.4856 52.5872 58.1757 52.8835C58.3106 52.9414 58.4331 52.9959 58.5488 53.0474C58.7847 53.1522 58.9922 53.2445 59.2189 53.3278C59.5367 53.4445 59.7866 53.4999 59.9999 53.4999C60.2138 53.4999 60.4661 53.4442 60.7871 53.3271C61.0167 53.2433 61.2279 53.15 61.4673 53.0442C61.5824 52.9934 61.7039 52.9397 61.8372 52.8828C62.5214 52.5906 63.6344 52.1428 64.7369 52.7104C66.0766 53.3962 67.3228 54.2508 68.4453 55.2534C68.4456 55.2536 68.4459 55.2539 68.4461 55.2541L67.78 55.9999L68.4453 55.2534C68.4451 55.2532 68.4456 55.2536 68.4453 55.2534C69.3204 56.0319 70.1409 56.8698 70.9009 57.7611L70.9116 57.7737L70.9219 57.7866C71.2029 58.1391 71.4233 58.4261 71.5743 58.6262C71.6499 58.7262 71.7081 58.8046 71.7479 58.8587L71.7937 58.9211L71.806 58.938L71.8105 58.9443L70.9999 59.5299ZM48.9999 59.4999L48.1888 58.915L47.772 59.4932L48.1826 60.0761L48.9999 59.4999ZM70.9999 59.5299L71.8111 58.9451L72.2279 59.5232L71.8173 60.106L70.9999 59.5299Z" fill="#0E2946"/>
<path fill-rule="evenodd" clip-rule="evenodd" d="M70.14 60.53H49V58.53H70.14V60.53Z" fill="#0E2946"/>
<path fill-rule="evenodd" clip-rule="evenodd" d="M65.0536 12.088C62.2569 9.30911 57.7411 9.30955 54.9449 12.0893L53.5349 10.6709C57.1116 7.11524 62.8883 7.11524 66.4649 10.6709L65.7599 11.3801L66.4674 10.6733C70.0363 14.2459 70.0363 20.0343 66.4674 23.6068L59.5675 30.5067C59.5674 30.5068 59.5677 30.5065 59.5675 30.5067M65.0536 12.088C67.8413 14.8797 67.8409 19.402 65.0525 22.1933L65.0536 12.088Z" fill="#0E2946"/>
<path fill-rule="evenodd" clip-rule="evenodd" d="M54.9468 12.0872C53.607 13.4262 52.856 15.2438 52.8599 17.1379L50.8599 17.142C50.8549 14.7158 51.8169 12.3877 53.533 10.6726L54.9468 12.0872Z" fill="#0E2946"/>
<path fill-rule="evenodd" clip-rule="evenodd" d="M53.7965 24.7575C53.2198 25.3334 52.8958 26.1149 52.8958 26.9299C52.8958 27.7449 53.2198 28.5264 53.7965 29.1023L52.3833 30.5175C51.4309 29.5665 50.8958 28.2758 50.8958 26.9299C50.8958 25.584 51.4309 24.2933 52.3833 23.3423L53.7965 24.7575Z" fill="#0E2946"/>
<path fill-rule="evenodd" clip-rule="evenodd" d="M56.7035 21.915C56.7035 21.5491 56.5571 21.1983 56.2969 20.941L57.7033 19.519C58.3433 20.1521 58.7035 21.0148 58.7035 21.915C58.7035 22.8152 58.3433 23.678 57.7033 24.311L56.2969 22.889C56.5571 22.6317 56.7035 22.281 56.7035 21.915Z" fill="#0E2946"/>
<path fill-rule="evenodd" clip-rule="evenodd" d="M60.1701 13.5857C59.2463 13.5857 58.3604 13.953 57.7077 14.6066L56.2925 13.1934C57.3204 12.1641 58.7154 11.5857 60.1701 11.5857C61.6248 11.5857 63.0197 12.1641 64.0477 13.1934L62.6325 14.6066C61.9797 13.953 61.0938 13.5857 60.1701 13.5857Z" fill="#0E2946"/>
<path fill-rule="evenodd" clip-rule="evenodd" d="M57 13.9L56.2907 13.1951C54.1629 15.3363 54.1629 18.7937 56.2907 20.9349L57.7093 19.5251C56.3569 18.1643 56.3567 15.967 57.7085 14.6058C58.3611 13.9527 59.2467 13.5857 60.17 13.5857C61.0938 13.5857 61.9797 13.953 62.6324 14.6066L64.0476 13.1934C63.0197 12.1641 61.6247 11.5857 60.17 11.5857C58.7154 11.5857 57.3204 12.1641 56.2924 13.1934L57 13.9Z" fill="#0E2946"/>
<path fill-rule="evenodd" clip-rule="evenodd" d="M15.9001 48H21.2801V56.7638L30.4401 60.1538V71H28.4401V61.5462L19.2801 58.1562V50H17.9001V65.1465L12.463 62.4337L11.8132 63.4355L17.938 70.3362L16.4422 71.6638L9.30688 63.6245L11.7572 59.8463L15.9001 61.9135V48Z" fill="#0E2946"/>
</svg>
