<svg width="80" height="80" viewBox="0 0 80 80" fill="none" xmlns="http://www.w3.org/2000/svg">
<path fill-rule="evenodd" clip-rule="evenodd" d="M4.34314 64.3433L64.3431 4.34326L75.6568 15.657L15.6568 75.657L4.34314 64.3433Z" fill="#FFECB8"/>
<path fill-rule="evenodd" clip-rule="evenodd" d="M64.3431 75.657L4.34314 15.657L15.6568 4.34326L75.6568 64.3433L64.3431 75.657Z" fill="#FFECB8"/>
<path fill-rule="evenodd" clip-rule="evenodd" d="M30 23.4502C26.134 23.4502 23 26.5842 23 30.4502V57.8322L40 66.3322L57 57.8322V30.4502C57 26.5842 53.866 23.4502 50 23.4502V21.4502C54.9706 21.4502 59 25.4796 59 30.4502V59.0682L40 68.5682L21 59.0682V30.4502C21 25.4796 25.0294 21.4502 30 21.4502V23.4502Z" fill="#0E2946"/>
<path fill-rule="evenodd" clip-rule="evenodd" d="M39 66.4502V48.4502H41V66.4502H39Z" fill="#0E2946"/>
<path fill-rule="evenodd" clip-rule="evenodd" d="M40.11 13.55C35.1394 13.55 31.11 17.5795 31.11 22.55C31.11 24.2069 32.4531 25.55 34.11 25.55H46.11C47.7668 25.55 49.11 24.2069 49.11 22.55C49.11 17.5795 45.0805 13.55 40.11 13.55ZM29.11 22.55C29.11 16.4749 34.0349 11.55 40.11 11.55C46.1851 11.55 51.11 16.4749 51.11 22.55C51.11 25.3115 48.8714 27.55 46.11 27.55H34.11C31.3486 27.55 29.11 25.3115 29.11 22.55Z" fill="#0E2946"/>
<path fill-rule="evenodd" clip-rule="evenodd" d="M11 18.4502C11 24.5253 15.9249 29.4502 22 29.4502V31.4502C14.8203 31.4502 9 25.6299 9 18.4502H11Z" fill="#0E2946"/>
<path fill-rule="evenodd" clip-rule="evenodd" d="M22 55.4502C15.9249 55.4502 11 60.3751 11 66.4502H9C9 59.2705 14.8203 53.4502 22 53.4502V55.4502Z" fill="#0E2946"/>
<path fill-rule="evenodd" clip-rule="evenodd" d="M21.998 42.6001C17.0113 42.59 12.2271 44.572 8.70864 48.1057L7.29138 46.6946C11.1862 42.7829 16.482 40.5889 22.002 40.6001L21.998 42.6001Z" fill="#0E2946"/>
<path fill-rule="evenodd" clip-rule="evenodd" d="M71 18.4502C71 25.6299 65.1797 31.4502 58 31.4502V29.4502C64.0751 29.4502 69 24.5253 69 18.4502H71Z" fill="#0E2946"/>
<path fill-rule="evenodd" clip-rule="evenodd" d="M58 53.4502C65.1797 53.4502 71 59.2705 71 66.4502H69C69 60.3751 64.0751 55.4502 58 55.4502V53.4502Z" fill="#0E2946"/>
<path fill-rule="evenodd" clip-rule="evenodd" d="M57.9979 40.6001C63.5179 40.5889 68.8138 42.7829 72.7086 46.6946L71.2913 48.1057C67.7728 44.572 62.9887 42.59 58.002 42.6001L57.9979 40.6001Z" fill="#0E2946"/>
<path fill-rule="evenodd" clip-rule="evenodd" d="M34.0208 40.4294C30.8327 37.2413 26.5087 35.4502 22 35.4502V33.4502C27.0391 33.4502 31.8718 35.452 35.435 39.0152C38.9982 42.5784 41 47.4111 41 52.4502H39C39 47.9415 37.2089 43.6175 34.0208 40.4294Z" fill="#0E2946"/>
<path fill-rule="evenodd" clip-rule="evenodd" d="M58 35.4502C48.6112 35.4502 41 43.0614 41 52.4502H39C39 41.9568 47.5066 33.4502 58 33.4502V35.4502Z" fill="#0E2946"/>
</svg>
