<svg width="180" height="180" viewBox="0 0 180 180" fill="none" xmlns="http://www.w3.org/2000/svg">
<rect x="50.5" y="151.29" width="2" height="12.98" fill="#0E2946"/>
<path d="M51.48 179.32H29.48V148.29H31.48V177.32H51.48V179.32Z" fill="#0E2946"/>
<rect x="27.48" y="144.29" width="18.02" height="2" fill="#0E2946"/>
<rect x="34.38" y="150.89" width="13.21" height="2" fill="#0E2946"/>
<rect x="34.38" y="154.86" width="13.21" height="2" fill="#0E2946"/>
<rect x="34.38" y="158.82" width="13.21" height="2" fill="#0E2946"/>
<rect x="34.38" y="162.79" width="11.89" height="2" fill="#0E2946"/>
<rect x="34.38" y="166.75" width="9.25" height="2" fill="#0E2946"/>
<path d="M25.47 151.29H23.47V148.29C23.47 146.081 25.2608 144.29 27.47 144.29C29.6791 144.29 31.47 146.081 31.47 148.29H29.47C29.47 147.185 28.5745 146.29 27.47 146.29C26.3654 146.29 25.47 147.185 25.47 148.29V151.29Z" fill="#0E2946"/>
<path d="M52.5 151.29H50.5C50.5 149.964 49.9732 148.692 49.0355 147.755C48.0979 146.817 46.8261 146.29 45.5 146.29V144.29C49.366 144.29 52.5 147.424 52.5 151.29Z" fill="#0E2946"/>
<path d="M50.97 174.46L46.98 170.47L48.39 169.05L50.97 171.63L56.82 165.77L58.23 167.19L50.97 174.46Z" fill="#EF4C59"/>
<rect x="171.44" y="30.4902" width="2" height="12.98" fill="#0E2946"/>
<path d="M172.42 58.5202H150.41V27.4902H152.41V56.5202H172.42V58.5202Z" fill="#0E2946"/>
<rect x="148.41" y="23.48" width="18.02" height="2" fill="#0E2946"/>
<rect x="155.32" y="30.0898" width="13.21" height="2" fill="#0E2946"/>
<rect x="155.32" y="34.0498" width="13.21" height="2" fill="#0E2946"/>
<rect x="155.32" y="38.02" width="13.21" height="2" fill="#0E2946"/>
<rect x="155.32" y="41.98" width="11.89" height="2" fill="#0E2946"/>
<rect x="155.32" y="45.9502" width="9.25" height="2" fill="#0E2946"/>
<path d="M146.41 30.4902H144.41V27.4902C144.41 25.2811 146.201 23.4902 148.41 23.4902C150.619 23.4902 152.41 25.2811 152.41 27.4902H150.41C150.41 26.3857 149.515 25.4902 148.41 25.4902C147.305 25.4902 146.41 26.3857 146.41 27.4902V30.4902Z" fill="#0E2946"/>
<path d="M173.44 30.4902H171.44C171.44 27.7288 169.201 25.4902 166.44 25.4902V23.4902C170.306 23.4902 173.44 26.6242 173.44 30.4902Z" fill="#0E2946"/>
<path d="M171.9 53.6502L167.91 49.6602L169.33 48.2502L171.9 50.8202L177.76 44.9702L179.17 46.3802L171.9 53.6502Z" fill="#FFC31D"/>
<rect x="171.44" y="151.29" width="2" height="12.98" fill="#0E2946"/>
<path d="M172.42 179.32H150.41V148.29H152.41V177.32H172.42V179.32Z" fill="#0E2946"/>
<rect x="148.41" y="144.29" width="18.02" height="2" fill="#0E2946"/>
<rect x="155.32" y="150.89" width="13.21" height="2" fill="#0E2946"/>
<rect x="155.32" y="154.86" width="13.21" height="2" fill="#0E2946"/>
<rect x="155.32" y="158.82" width="13.21" height="2" fill="#0E2946"/>
<rect x="155.32" y="162.79" width="11.89" height="2" fill="#0E2946"/>
<rect x="155.32" y="166.75" width="9.25" height="2" fill="#0E2946"/>
<path d="M146.41 151.29H144.41V148.29C144.41 146.081 146.201 144.29 148.41 144.29C150.619 144.29 152.41 146.081 152.41 148.29H150.41C150.41 147.185 149.515 146.29 148.41 146.29C147.305 146.29 146.41 147.185 146.41 148.29V151.29Z" fill="#0E2946"/>
<path d="M173.44 151.29H171.44C171.44 148.529 169.201 146.29 166.44 146.29V144.29C170.306 144.29 173.44 147.424 173.44 151.29Z" fill="#0E2946"/>
<path d="M171.9 174.46L167.91 170.47L169.33 169.05L171.9 171.63L177.76 165.77L179.17 167.19L171.9 174.46Z" fill="#476AE3"/>
<circle cx="41" cy="41" r="40" fill="white"/>
<path fill-rule="evenodd" clip-rule="evenodd" d="M0 41C0 63.6437 18.3563 82 41 82C63.6437 82 82 63.6437 82 41C82 18.3563 63.6437 0 41 0C18.3563 0 0 18.3563 0 41ZM2 41C2 19.4609 19.4609 2 41 2C62.5277 2.02755 79.9725 19.4723 80 41C80 62.5391 62.5391 80 41 80C19.4609 80 2 62.5391 2 41Z" fill="#0E2946"/>
<path d="M67.68 70.1698C64.2418 58.2891 53.3632 50.1124 40.995 50.1124C28.6268 50.1124 17.7483 58.2891 14.31 70.1698L12.39 69.6098C16.0838 56.8794 27.7446 48.1211 41 48.1211C54.2554 48.1211 65.9163 56.8794 69.61 69.6098L67.68 70.1698Z" fill="#EF4C59"/>
<path fill-rule="evenodd" clip-rule="evenodd" d="M30.4 39.5301C30.411 45.3797 35.1504 50.1191 41 50.1301C46.8497 50.1191 51.589 45.3797 51.6 39.5301V29.9301C51.6 24.0759 46.8542 19.3301 41 19.3301C35.1458 19.3301 30.4 24.0759 30.4 29.9301V39.5301ZM32.4 29.9301C32.4055 25.1827 36.2527 21.3356 41 21.3301C45.7474 21.3356 49.5945 25.1827 49.6 29.9301V39.5301C49.6 44.2797 45.7497 48.1301 41 48.1301C36.2504 48.1301 32.4 44.2797 32.4 39.5301V29.9301Z" fill="#476AE3"/>
<path fill-rule="evenodd" clip-rule="evenodd" d="M75.47 69.0799C76.0166 69.6266 76.5666 70.1666 77.12 70.6999L78.51 69.2599L76.88 67.6699L75.47 69.0799ZM83.18 76.0499C82.18 75.2199 81.12 74.3399 80.09 73.4399L81.42 71.9399C82.42 72.8199 83.42 73.6799 84.42 74.4899L83.18 76.0499ZM152.58 75.8999L153.86 77.4299C155.81 75.7999 156.91 74.6399 156.91 74.6399L155.45 73.2699C154.54 74.1964 153.582 75.0743 152.58 75.8999ZM89.71 80.8299C88.61 80.0999 87.49 79.3299 86.38 78.5199L87.57 76.9099C88.64 77.6899 89.73 78.4499 90.81 79.1499L89.71 80.8299ZM146.21 80.5199L147.27 82.2099C148.42 81.4999 149.56 80.7299 150.65 79.9399L149.48 78.3199C148.42 79.0899 147.32 79.8199 146.21 80.5199ZM96.75 84.8699C95.55 84.2799 94.35 83.6299 93.17 82.9499L94.17 81.2199C95.32 81.8799 96.49 82.5099 97.64 83.0799L96.75 84.8699ZM139.28 84.1699L140.09 85.9999C141.32 85.4999 142.55 84.8899 143.75 84.2099L142.81 82.4499C141.65 83.0699 140.46 83.6499 139.28 84.1699ZM104.27 87.9999C102.99 87.5899 101.71 87.1099 100.45 86.5899L101.21 84.7399C102.43 85.2399 103.67 85.7399 104.89 86.1099L104.27 87.9999ZM131.9 86.8499L132.42 88.7799C133.71 88.4299 135 87.9999 136.31 87.5599L135.64 85.6699C134.4 86.1199 133.14 86.5099 131.9 86.8499ZM112.18 89.8999C110.85 89.6799 109.51 89.4099 108.18 89.0899L108.65 87.1499C109.92 87.4599 111.21 87.7199 112.49 87.9199L112.18 89.8999ZM124.2 88.2599L124.4 90.2599C125.75 90.1299 127.11 89.9399 128.44 89.7099L128.08 87.7099C126.8 87.9499 125.49 88.1399 124.2 88.2599ZM116.24 90.3699C117.39 90.4999 118.56 90.4999 119.71 90.4999H120.3V88.4999H119.71C118.61 88.4999 117.49 88.4499 116.39 88.3699L116.24 90.3699Z" fill="#707F8F"/>
<path fill-rule="evenodd" clip-rule="evenodd" d="M70.63 74.3199C71.5552 75.2274 72.4331 76.182 73.26 77.1799L74.79 75.8599C73.9151 74.81 72.9837 73.8085 72 72.8599L70.63 74.3199ZM77.87 83.5499C77.18 82.4499 76.44 81.3499 75.68 80.2899L77.3 79.1199C78.09 80.2099 78.85 81.3499 79.57 82.4999L77.87 83.5499ZM79.84 86.9599C80.45 88.1199 81.03 89.3099 81.56 90.4899L83.29 89.6699C82.75 88.4399 82.15 87.1999 81.51 85.9999L79.84 86.9599ZM84.17 97.8799C83.84 96.6299 83.44 95.3699 83.01 94.1399L84.89 93.4699C85.35 94.7599 85.75 96.0699 86.1 97.3699L84.17 97.8799ZM85.03 101.71C85.26 102.99 85.44 104.29 85.56 105.58L87.58 105.35C87.46 104.05 87.27 102.69 87.03 101.35L85.03 101.71ZM87.56 113.58L85.56 113.43C85.65 112.24 85.7 111.04 85.7 109.86V109.52H87.7V109.88C87.67 111 87.62 112.3 87.52 113.53L87.56 113.58ZM86.1924 121.57L86.23 121.58H86.19L86.1924 121.57ZM86.962 118.225C86.7201 119.343 86.4773 120.464 86.1924 121.57L84.29 121.09C84.61 119.82 84.88 118.54 85.1 117.26L87.1 117.59C87.0539 117.801 87.008 118.013 86.9621 118.225L86.9621 118.225L86.962 118.225ZM83.64 129.3L83.6059 129.285C84.1336 127.991 84.6217 126.755 85.08 125.49L83.19 124.85C82.8 126.08 82.31 127.31 81.8 128.52L83.6059 129.285L83.6 129.3H83.64ZM78.27 135.56L80 136.56C80.5046 135.652 81.0092 134.719 81.5091 133.796L81.5091 133.795C81.6532 133.529 81.7968 133.264 81.94 133L80.15 132.1C79.57 133.26 78.94 134.42 78.27 135.56ZM75.51 143.32L75.4971 143.31C76.3045 142.213 77.0822 141.107 77.83 140L76.17 138.9C75.45 139.97 74.69 141.06 73.9 142.12L75.4971 143.31L75.49 143.32H75.51ZM70.3789 149.56L70.39 149.57H70.37L70.3789 149.56ZM73 146.51C72.1628 147.527 71.2758 148.553 70.3789 149.56L68.9 148.24C69.78 147.24 70.65 146.24 71.47 145.24L73 146.51ZM65 152.36L66.39 153.78C66.5533 153.613 66.7165 153.455 66.881 153.296L66.8811 153.296L66.8811 153.296L66.8812 153.296L66.8812 153.296L66.8813 153.296C67.1298 153.056 67.3813 152.813 67.64 152.53L66.21 151.14C65.81 151.55 65.41 151.96 65 152.36Z" fill="#707F8F"/>
<path fill-rule="evenodd" clip-rule="evenodd" d="M73.61 73.1998C74.6191 74.0069 75.5807 74.8717 76.49 75.7898L77.87 74.3498C76.8906 73.3647 75.8555 72.4366 74.77 71.5698L73.61 73.1998ZM82.2 81.4198L79.36 78.5898L80.76 77.1698L83.61 79.9998L82.2 81.4198ZM85 84.2698L87.8 87.1298L89.24 85.7298L86.42 82.8598L85 84.2698ZM93.41 92.8598L90.64 89.9998L92.07 88.5998L94.87 91.4798L93.41 92.8598ZM96.21 95.7398L99 98.6098L100.43 97.2198L97.64 94.3398L96.21 95.7398ZM104.6 104.38L101.82 101.5L103.25 100.1L106 103L104.6 104.38ZM107.39 107.27L110.16 110.15L111.61 108.77L108.83 105.88L107.39 107.27ZM115.72 115.94L112.94 113.04L114.39 111.66L117.16 114.55L115.72 115.94ZM118.5 118.83L121.27 121.73L122.72 120.34L119.94 117.45L118.5 118.83ZM126.82 127.53L124.05 124.62L125.49 123.24L128.26 126.14L126.82 127.53ZM129.59 130.43L132.36 133.34L133.81 131.95L131.04 129.05L129.59 130.43ZM135.14 136.25L137.93 139.17L139.38 137.8L136.59 134.87L135.14 136.25Z" fill="#707F8F"/>
<path d="M74 154.52H65V145.52H67V152.52H74V154.52Z" fill="#707F8F"/>
<path d="M139.58 139.49H130.58V137.49H137.58V130.49H139.58V139.49Z" fill="#707F8F"/>
<path d="M157.18 81.9502H155.18V74.9502H148.18V72.9502H157.18V81.9502Z" fill="#707F8F"/>
<path d="M49.4957 85.8672L50.9099 84.453L60.9367 94.4797L59.5225 95.894L49.4957 85.8672Z" fill="#FFC31D"/>
<circle cx="41.93" cy="76.8802" r="11.7" fill="white"/>
<path fill-rule="evenodd" clip-rule="evenodd" d="M29.4906 79.3434C30.6655 85.2854 35.873 89.5707 41.9299 89.58C45.3059 89.5896 48.5459 88.2504 50.9299 85.86C55.2127 81.5769 55.8749 74.8655 52.5116 69.8281C49.1484 64.7907 42.6958 62.8294 37.0982 65.1431C31.5005 67.4568 28.3158 73.4015 29.4906 79.3434ZM31.442 74.8097C32.4344 69.8026 36.8255 66.1938 41.9299 66.19C44.7701 66.1801 47.4961 67.3073 49.4999 69.32C53.1112 72.9275 53.6715 78.5836 50.838 82.8295C48.0046 87.0753 42.5665 88.7285 37.8494 86.7781C33.1322 84.8277 30.4496 79.8168 31.442 74.8097Z" fill="#FFC31D"/>
</svg>
