<svg width="180" height="180" viewBox="0 0 180 180" fill="none" xmlns="http://www.w3.org/2000/svg">
<path d="M35.5601 13.3301H13.3301V48.8901H22.2201V22.2201H35.5601V13.3301Z" fill="#476AE3"/>
<path d="M57.7801 57.7799H31.1101V66.6699H66.6701V44.4399H57.7801V57.7799Z" fill="#476AE3"/>
<path d="M0 66.6698H13.33V79.9998H22.22V57.7798H0V66.6698Z" fill="#EF4C59"/>
<path d="M79.9999 13.33H66.6699V0H57.7799V13.33H44.4399V22.22H57.7799V35.56H66.6699V22.22H79.9999V13.33Z" fill="#FFC31D"/>
<path d="M178.9 57H176.9C176.9 48.1634 169.736 41 160.9 41C152.063 41 144.9 48.1634 144.9 57H142.9C142.9 47.0589 150.959 39 160.9 39C170.841 39 178.9 47.0589 178.9 57Z" fill="#0E2946"/>
<path fill-rule="evenodd" clip-rule="evenodd" d="M154.23 34.3299C154.23 38.0137 157.216 40.9999 160.9 40.9999C164.58 40.9944 167.56 38.0098 167.56 34.3299V28.6699C167.655 26.2272 166.406 23.9284 164.304 22.6788C162.203 21.4293 159.587 21.4293 157.486 22.6788C155.385 23.9284 154.135 26.2272 154.23 28.6699V34.3299ZM157.598 25.3677C158.474 24.4919 159.662 23.9999 160.9 23.9999C163.475 24.0054 165.56 26.0946 165.56 28.6699V34.3299C165.64 36.0481 164.768 37.6709 163.292 38.5538C161.816 39.4367 159.974 39.4367 158.498 38.5538C157.022 37.6709 156.151 36.0481 156.23 34.3299V28.6699C156.23 27.4314 156.722 26.2435 157.598 25.3677Z" fill="#0E2946"/>
<path d="M159.9 57.17L155.91 53.18L157.33 51.77L159.9 54.34L165.76 48.48L167.17 49.9L159.9 57.17Z" fill="#FFC31D"/>
<path d="M178.9 179.29H176.9C176.9 170.453 169.736 163.29 160.9 163.29C152.063 163.29 144.9 170.453 144.9 179.29H142.9C142.9 169.349 150.959 161.29 160.9 161.29C170.841 161.29 178.9 169.349 178.9 179.29Z" fill="#0E2946"/>
<path fill-rule="evenodd" clip-rule="evenodd" d="M154.23 156.62C154.23 160.304 157.216 163.29 160.9 163.29C164.56 163.285 167.533 160.33 167.56 156.67V151C167.421 147.42 164.478 144.588 160.895 144.588C157.312 144.588 154.369 147.42 154.23 151V156.62ZM156.23 150.95C156.235 148.375 158.325 146.29 160.9 146.29C162.145 146.29 163.338 146.788 164.213 147.673C165.088 148.557 165.573 149.756 165.56 151V156.62C165.64 158.338 164.768 159.961 163.292 160.844C161.816 161.727 159.974 161.727 158.498 160.844C157.022 159.961 156.15 158.338 156.23 156.62V150.95Z" fill="#0E2946"/>
<path d="M159.9 179.46L155.91 175.47L157.33 174.05L159.9 176.63L165.76 170.77L167.17 172.19L159.9 179.46Z" fill="#476AE3"/>
<path d="M58 179.29H56C56 170.453 48.8366 163.29 40 163.29C31.1634 163.29 24 170.453 24 179.29H22C22 169.349 30.0589 161.29 40 161.29C49.9411 161.29 58 169.349 58 179.29Z" fill="#0E2946"/>
<path fill-rule="evenodd" clip-rule="evenodd" d="M33.3301 156.62C33.3301 160.304 36.3163 163.29 40.0001 163.29C43.6644 163.29 46.6426 160.334 46.6701 156.67V151C46.6701 147.316 43.6838 144.33 40.0001 144.33C36.3163 144.33 33.3301 147.316 33.3301 151V156.62ZM36.6837 147.672C37.5606 146.788 38.7546 146.29 40.0001 146.29C41.2456 146.29 42.4395 146.788 43.3165 147.672C44.1934 148.556 44.6807 149.755 44.6701 151V156.67C44.6701 159.249 42.5792 161.34 40.0001 161.34C37.4209 161.34 35.3301 159.249 35.3301 156.67V151C35.3194 149.755 35.8067 148.556 36.6837 147.672Z" fill="#0E2946"/>
<path d="M39.01 179.46L35.02 175.47L36.43 174.05L39.01 176.63L44.86 170.77L46.28 172.19L39.01 179.46Z" fill="#EF4C59"/>
<path fill-rule="evenodd" clip-rule="evenodd" d="M75.47 69.0799C76.0166 69.6266 76.5666 70.1666 77.12 70.6999L78.51 69.2599L76.88 67.6699L75.47 69.0799ZM83.18 76.0499C82.18 75.2199 81.12 74.3399 80.09 73.4399L81.42 71.9399C82.42 72.8199 83.42 73.6799 84.42 74.4899L83.18 76.0499ZM152.58 75.8999L153.86 77.4299C155.81 75.7999 156.91 74.6399 156.91 74.6399L155.45 73.2699C154.54 74.1964 153.582 75.0743 152.58 75.8999ZM89.71 80.8299C88.61 80.0999 87.49 79.3299 86.38 78.5199L87.57 76.9099C88.64 77.6899 89.73 78.4499 90.81 79.1499L89.71 80.8299ZM146.21 80.5199L147.27 82.2099C148.42 81.4999 149.56 80.7299 150.65 79.9399L149.48 78.3199C148.42 79.0899 147.32 79.8199 146.21 80.5199ZM96.75 84.8699C95.55 84.2799 94.35 83.6299 93.17 82.9499L94.17 81.2199C95.32 81.8799 96.49 82.5099 97.64 83.0799L96.75 84.8699ZM139.28 84.1699L140.09 85.9999C141.32 85.4999 142.55 84.8899 143.75 84.2099L142.81 82.4499C141.65 83.0699 140.46 83.6499 139.28 84.1699ZM104.27 87.9999C102.99 87.5899 101.71 87.1099 100.45 86.5899L101.21 84.7399C102.43 85.2399 103.67 85.7399 104.89 86.1099L104.27 87.9999ZM131.9 86.8499L132.42 88.7799C133.71 88.4299 135 87.9999 136.31 87.5599L135.64 85.6699C134.4 86.1199 133.14 86.5099 131.9 86.8499ZM112.18 89.8999C110.85 89.6799 109.51 89.4099 108.18 89.0899L108.65 87.1499C109.92 87.4599 111.21 87.7199 112.49 87.9199L112.18 89.8999ZM124.2 88.2599L124.4 90.2599C125.75 90.1299 127.11 89.9399 128.44 89.7099L128.08 87.7099C126.8 87.9499 125.49 88.1399 124.2 88.2599ZM116.24 90.3699C117.39 90.4999 118.56 90.4999 119.71 90.4999H120.3V88.4999H119.71C118.61 88.4999 117.49 88.4499 116.39 88.3699L116.24 90.3699Z" fill="#707F8F"/>
<path fill-rule="evenodd" clip-rule="evenodd" d="M70.63 74.3199C71.5552 75.2274 72.4331 76.182 73.26 77.1799L74.79 75.8599C73.9151 74.81 72.9837 73.8085 72 72.8599L70.63 74.3199ZM77.87 83.5499C77.18 82.4499 76.44 81.3499 75.68 80.2899L77.3 79.1199C78.09 80.2099 78.85 81.3499 79.57 82.4999L77.87 83.5499ZM79.84 86.9599C80.45 88.1199 81.03 89.3099 81.56 90.4899L83.29 89.6699C82.75 88.4399 82.15 87.1999 81.51 85.9999L79.84 86.9599ZM84.17 97.8799C83.84 96.6299 83.44 95.3699 83.01 94.1399L84.89 93.4699C85.35 94.7599 85.75 96.0699 86.1 97.3699L84.17 97.8799ZM85.03 101.71C85.26 102.99 85.44 104.29 85.56 105.58L87.58 105.35C87.46 104.05 87.27 102.69 87.03 101.35L85.03 101.71ZM87.56 113.58L85.56 113.43C85.65 112.24 85.7 111.04 85.7 109.86V109.52H87.7V109.88C87.67 111 87.62 112.3 87.52 113.53L87.56 113.58ZM86.1924 121.57L86.23 121.58H86.19L86.1924 121.57ZM86.962 118.225C86.7201 119.343 86.4773 120.464 86.1924 121.57L84.29 121.09C84.61 119.82 84.88 118.54 85.1 117.26L87.1 117.59C87.0539 117.801 87.008 118.013 86.9621 118.225L86.9621 118.225L86.962 118.225ZM83.64 129.3L83.6059 129.285C84.1336 127.991 84.6217 126.755 85.08 125.49L83.19 124.85C82.8 126.08 82.31 127.31 81.8 128.52L83.6059 129.285L83.6 129.3H83.64ZM78.27 135.56L80 136.56C80.5046 135.652 81.0092 134.719 81.5091 133.796L81.5091 133.795C81.6532 133.529 81.7968 133.264 81.94 133L80.15 132.1C79.57 133.26 78.94 134.42 78.27 135.56ZM75.51 143.32L75.4971 143.31C76.3045 142.213 77.0822 141.107 77.83 140L76.17 138.9C75.45 139.97 74.69 141.06 73.9 142.12L75.4971 143.31L75.49 143.32H75.51ZM70.3789 149.56L70.39 149.57H70.37L70.3789 149.56ZM73 146.51C72.1628 147.527 71.2758 148.553 70.3789 149.56L68.9 148.24C69.78 147.24 70.65 146.24 71.47 145.24L73 146.51ZM65 152.36L66.39 153.78C66.5533 153.613 66.7165 153.455 66.881 153.296L66.8811 153.296L66.8811 153.296L66.8812 153.296L66.8812 153.296L66.8813 153.296C67.1298 153.056 67.3813 152.813 67.64 152.53L66.21 151.14C65.81 151.55 65.41 151.96 65 152.36Z" fill="#707F8F"/>
<path fill-rule="evenodd" clip-rule="evenodd" d="M73.6101 73.1998C74.6192 74.0069 75.5808 74.8717 76.4901 75.7898L77.8701 74.3498C76.8907 73.3647 75.8557 72.4366 74.7701 71.5698L73.6101 73.1998ZM82.2001 81.4198L79.3601 78.5898L80.7601 77.1698L83.6101 79.9998L82.2001 81.4198ZM85.0001 84.2698L87.8001 87.1298L89.2401 85.7298L86.4201 82.8598L85.0001 84.2698ZM93.4101 92.8598L90.6401 89.9998L92.0701 88.5998L94.8701 91.4798L93.4101 92.8598ZM96.2101 95.7398L99.0001 98.6098L100.43 97.2198L97.6401 94.3398L96.2101 95.7398ZM104.6 104.38L101.82 101.5L103.25 100.1L106 103L104.6 104.38ZM107.39 107.27L110.16 110.15L111.61 108.77L108.83 105.88L107.39 107.27ZM115.72 115.94L112.94 113.04L114.39 111.66L117.16 114.55L115.72 115.94ZM118.5 118.83L121.27 121.73L122.72 120.34L119.94 117.45L118.5 118.83ZM126.82 127.53L124.05 124.62L125.49 123.24L128.26 126.14L126.82 127.53ZM129.59 130.43L132.36 133.34L133.81 131.95L131.04 129.05L129.59 130.43ZM135.14 136.25L137.93 139.17L139.38 137.8L136.59 134.87L135.14 136.25Z" fill="#707F8F"/>
<path d="M74 154.52H65V145.52H67V152.52H74V154.52Z" fill="#707F8F"/>
<path d="M139.58 139.49H130.58V137.49H137.58V130.49H139.58V139.49Z" fill="#707F8F"/>
<path d="M157.18 81.9502H155.18V74.9502H148.18V72.9502H157.18V81.9502Z" fill="#707F8F"/>
</svg>
