<svg width="80" height="80" viewBox="0 0 80 80" fill="none" xmlns="http://www.w3.org/2000/svg">
<path d="M40 40H80V80H40V40Z" fill="#D6DFFF"/>
<path fill-rule="evenodd" clip-rule="evenodd" d="M6 6H74V40H72V8H8V72H40V74H6V6Z" fill="#0E2946"/>
<path fill-rule="evenodd" clip-rule="evenodd" d="M7 14H73V16H7V14Z" fill="#0E2946"/>
<path fill-rule="evenodd" clip-rule="evenodd" d="M12 20H22V22H12V20Z" fill="#0E2946"/>
<path fill-rule="evenodd" clip-rule="evenodd" d="M17 25H27V27H17V25Z" fill="#0E2946"/>
<path fill-rule="evenodd" clip-rule="evenodd" d="M17 45H27V47H17V45Z" fill="#0E2946"/>
<path fill-rule="evenodd" clip-rule="evenodd" d="M22 30H32V32H22V30Z" fill="#0E2946"/>
<path fill-rule="evenodd" clip-rule="evenodd" d="M22 40H32V42H22V40Z" fill="#0E2946"/>
<path fill-rule="evenodd" clip-rule="evenodd" d="M22 50H32V52H22V50Z" fill="#0E2946"/>
<path fill-rule="evenodd" clip-rule="evenodd" d="M27 35H37V37H27V35Z" fill="#0E2946"/>
<path fill-rule="evenodd" clip-rule="evenodd" d="M27 55H37V57H27V55Z" fill="#0E2946"/>
<path d="M20 11C20 11.5523 19.5523 12 19 12C18.4477 12 18 11.5523 18 11C18 10.4477 18.4477 10 19 10C19.5523 10 20 10.4477 20 11Z" fill="#0E2946"/>
<path d="M16 11C16 11.5523 15.5523 12 15 12C14.4477 12 14 11.5523 14 11C14 10.4477 14.4477 10 15 10C15.5523 10 16 10.4477 16 11Z" fill="#0E2946"/>
<path d="M12 11C12 11.5523 11.5523 12 11 12C10.4477 12 10 11.5523 10 11C10 10.4477 10.4477 10 11 10C11.5523 10 12 10.4477 12 11Z" fill="#0E2946"/>
<path fill-rule="evenodd" clip-rule="evenodd" d="M56.0637 67.6489L62.0637 51.6489L63.9364 52.3512L57.9364 68.3512L56.0637 67.6489Z" fill="#0E2946"/>
<path fill-rule="evenodd" clip-rule="evenodd" d="M50.4141 60.0001L54.707 55.7072L53.2928 54.293L47.5857 60.0001L53.2928 65.7072L54.707 64.293L50.4141 60.0001Z" fill="#0E2946"/>
<path fill-rule="evenodd" clip-rule="evenodd" d="M69.5859 60.0001L65.293 55.7072L66.7072 54.293L72.4143 60.0001L66.7072 65.7072L65.293 64.293L69.5859 60.0001Z" fill="#0E2946"/>
</svg>
