<svg width="80" height="80" viewBox="0 0 80 80" fill="none" xmlns="http://www.w3.org/2000/svg">
<path d="M50 0H80V30H50V0Z" fill="#FCD9D9"/>
<path d="M0 30H25C38.8071 30 50 41.1929 50 55C50 68.8071 38.8071 80 25 80H0V30Z" fill="#FCD9D9"/>
<path d="M15 45H25C30.5228 45 35 49.4772 35 55C35 60.5228 30.5228 65 25 65H15V45Z" fill="white"/>
<path fill-rule="evenodd" clip-rule="evenodd" d="M19.9099 9C19.9099 6.23858 22.1485 4 24.9099 4H55.0899C57.8513 4 60.0899 6.23858 60.0899 9V71C60.0899 73.7614 57.8513 76 55.0899 76H24.9099C22.1485 76 19.9099 73.7614 19.9099 71V9ZM24.9099 6C23.2531 6 21.9099 7.34315 21.9099 9V71C21.9099 72.6569 23.2531 74 24.9099 74H55.0899C56.7468 74 58.0899 72.6569 58.0899 71V9C58.0899 7.34314 56.7468 6 55.0899 6H24.9099Z" fill="#0E2946"/>
<path fill-rule="evenodd" clip-rule="evenodd" d="M26.1972 60.283L35.1872 69.273L33.773 70.6872L24.783 61.6972L26.1972 60.283Z" fill="#0E2946"/>
<path fill-rule="evenodd" clip-rule="evenodd" d="M26.7396 53.6956L41.8296 69.3356L40.3903 70.7242L25.3003 55.0842L26.7396 53.6956Z" fill="#0E2946"/>
<path d="M34.1699 5H45.8299V7.67C45.8299 8.77457 44.9345 9.67 43.8299 9.67H36.1699C35.0654 9.67 34.1699 8.77457 34.1699 7.67V5Z" fill="#0E2946"/>
<path fill-rule="evenodd" clip-rule="evenodd" d="M33.6699 4.5H46.3299V7.67C46.3299 9.05071 45.2106 10.17 43.8299 10.17H36.1699C34.7892 10.17 33.6699 9.05071 33.6699 7.67V4.5ZM34.6699 5.5V7.67C34.6699 8.49843 35.3415 9.17 36.1699 9.17H43.8299C44.6583 9.17 45.3299 8.49843 45.3299 7.67V5.5H34.6699Z" fill="#0E2946"/>
<path fill-rule="evenodd" clip-rule="evenodd" d="M33 44C33 40.134 36.134 37 40 37C43.866 37 47 40.134 47 44H45C45 41.2386 42.7614 39 40 39C37.2386 39 35 41.2386 35 44H33Z" fill="#0E2946"/>
<path fill-rule="evenodd" clip-rule="evenodd" d="M37 34C37 32.3431 38.3431 31 40 31C41.6569 31 43 32.3431 43 34V36C43 37.6569 41.6569 39 40 39C38.3431 39 37 37.6569 37 36V34ZM40 33C39.4477 33 39 33.4477 39 34V36C39 36.5523 39.4477 37 40 37C40.5523 37 41 36.5523 41 36V34C41 33.4477 40.5523 33 40 33Z" fill="#0E2946"/>
<path d="M49 58.6699C49 56.4608 50.7909 54.6699 53 54.6699H65C67.2091 54.6699 69 56.4608 69 58.6699C69 60.8791 67.2091 62.6699 65 62.6699H53C50.7909 62.6699 49 60.8791 49 58.6699Z" fill="white"/>
<path fill-rule="evenodd" clip-rule="evenodd" d="M48 58.6699C48 55.9085 50.2386 53.6699 53 53.6699H65C67.7614 53.6699 70 55.9085 70 58.6699C70 61.4313 67.7614 63.6699 65 63.6699H53C50.2386 63.6699 48 61.4313 48 58.6699ZM53 55.6699C51.3431 55.6699 50 57.0131 50 58.6699C50 60.3268 51.3431 61.6699 53 61.6699H65C66.6569 61.6699 68 60.3268 68 58.6699C68 57.0131 66.6569 55.6699 65 55.6699H53Z" fill="#0E2946"/>
<path d="M25 24L29 20H25V15H5V35H25V28V24Z" fill="white"/>
<path fill-rule="evenodd" clip-rule="evenodd" d="M4 14H26V19H31.4142L26 24.4142V36H4V14ZM25 24L24.2929 23.2929L26.5858 21H24V16H6V34H24V24H25Z" fill="#0E2946"/>
<path fill-rule="evenodd" clip-rule="evenodd" d="M21 22H9V20H21V22Z" fill="#0E2946"/>
<path fill-rule="evenodd" clip-rule="evenodd" d="M21 26H9V24H21V26Z" fill="#0E2946"/>
<path fill-rule="evenodd" clip-rule="evenodd" d="M17 30H9V28H17V30Z" fill="#0E2946"/>
<path fill-rule="evenodd" clip-rule="evenodd" d="M65 59.6699H53V57.6699H65V59.6699Z" fill="#0E2946"/>
<path fill-rule="evenodd" clip-rule="evenodd" d="M61.793 60.4136L75.342 65.6841L68.1466 72.8678L67.4401 72.1601L66.5082 72.5229L61.793 60.4136ZM67.8166 70.3711L71.7581 66.436L65.3072 63.9266L67.8166 70.3711Z" fill="#0E2946"/>
<path fill-rule="evenodd" clip-rule="evenodd" d="M71.1965 68.4021L76.2565 73.4521L74.8437 74.8677L69.7837 69.8177L71.1965 68.4021Z" fill="#0E2946"/>
</svg>
