<svg width="80" height="80" viewBox="0 0 80 80" fill="none" xmlns="http://www.w3.org/2000/svg">
<path fill-rule="evenodd" clip-rule="evenodd" d="M5 40C5 20.67 20.67 5 40 5C49.2826 5 58.185 8.68749 64.7487 15.2513C71.3125 21.815 75 30.7174 75 40C75 59.33 59.33 75 40 75C20.67 75 5 59.33 5 40ZM59 40C59 29.5066 50.4934 21 40 21C29.5066 21 21 29.5066 21 40C21 50.4934 29.5066 59 40 59C50.4934 59 59 50.4934 59 40Z" fill="#FFECB8"/>
<path fill-rule="evenodd" clip-rule="evenodd" d="M40 23.47C32.8203 23.47 27 29.2903 27 36.47V50.47H25V36.47C25 28.1857 31.7157 21.47 40 21.47C48.2843 21.47 55 28.1857 55 36.47V50.47H53V36.47C53 29.2903 47.1797 23.47 40 23.47Z" fill="#0E2946"/>
<path fill-rule="evenodd" clip-rule="evenodd" d="M34 70.5299V36.6899H32V72.5299H48V36.6899H46V70.5299H34Z" fill="#0E2946"/>
<path fill-rule="evenodd" clip-rule="evenodd" d="M39 71.53V52.47H41V71.53H39Z" fill="#0E2946"/>
<path fill-rule="evenodd" clip-rule="evenodd" d="M34.3301 13.135C34.3301 10.0063 36.8664 7.46997 39.9951 7.46997C43.1238 7.46997 45.6601 10.0063 45.6601 13.135V17.805C45.6601 20.9337 43.1238 23.47 39.9951 23.47C36.8664 23.47 34.3301 20.9337 34.3301 17.805V13.135ZM39.9951 9.46997C37.971 9.46997 36.3301 11.1108 36.3301 13.135V17.805C36.3301 19.8291 37.971 21.47 39.9951 21.47C42.0192 21.47 43.6601 19.8291 43.6601 17.805V13.135C43.6601 11.1108 42.0192 9.46997 39.9951 9.46997Z" fill="#0E2946"/>
<path fill-rule="evenodd" clip-rule="evenodd" d="M19 23.47C11.8203 23.47 6 29.2903 6 36.47V50.47H4V36.47C4 28.1857 10.7157 21.47 19 21.47C27.2843 21.47 34 28.1857 34 36.47V50.47H32V36.47C32 29.2903 26.1797 23.47 19 23.47Z" fill="#0E2946"/>
<path fill-rule="evenodd" clip-rule="evenodd" d="M13 70.5299V36.6899H11V72.5299H27V36.6899H25V70.5299H13Z" fill="#0E2946"/>
<path fill-rule="evenodd" clip-rule="evenodd" d="M18 71.53V52.47H20V71.53H18Z" fill="#0E2946"/>
<path fill-rule="evenodd" clip-rule="evenodd" d="M13.3301 13.135C13.3301 10.0063 15.8664 7.46997 18.9951 7.46997C22.1238 7.46997 24.6601 10.0063 24.6601 13.135V17.805C24.6601 20.9337 22.1238 23.47 18.9951 23.47C15.8664 23.47 13.3301 20.9337 13.3301 17.805V13.135ZM18.9951 9.46997C16.971 9.46997 15.3301 11.1108 15.3301 13.135V17.805C15.3301 19.8291 16.971 21.47 18.9951 21.47C21.0192 21.47 22.6601 19.8291 22.6601 17.805V13.135C22.6601 11.1108 21.0192 9.46997 18.9951 9.46997Z" fill="#0E2946"/>
<path fill-rule="evenodd" clip-rule="evenodd" d="M61 23.47C53.8203 23.47 48 29.2903 48 36.47V50.47H46V36.47C46 28.1857 52.7157 21.47 61 21.47C69.2843 21.47 76 28.1857 76 36.47V50.47H74V36.47C74 29.2903 68.1797 23.47 61 23.47Z" fill="#0E2946"/>
<path fill-rule="evenodd" clip-rule="evenodd" d="M55 70.5299V36.6899H53V72.5299H69V36.6899H67V70.5299H55Z" fill="#0E2946"/>
<path fill-rule="evenodd" clip-rule="evenodd" d="M60 71.53V52.47H62V71.53H60Z" fill="#0E2946"/>
<path fill-rule="evenodd" clip-rule="evenodd" d="M55.3301 13.135C55.3301 10.0063 57.8664 7.46997 60.9951 7.46997C64.1238 7.46997 66.6601 10.0063 66.6601 13.135V17.805C66.6601 20.9337 64.1238 23.47 60.9951 23.47C57.8664 23.47 55.3301 20.9337 55.3301 17.805V13.135ZM60.9951 9.46997C58.971 9.46997 57.3301 11.1108 57.3301 13.135V17.805C57.3301 19.8291 58.971 21.47 60.9951 21.47C63.0192 21.47 64.6601 19.8291 64.6601 17.805V13.135C64.6601 11.1108 63.0192 9.46997 60.9951 9.46997Z" fill="#0E2946"/>
</svg>
