<svg width="180" height="180" viewBox="0 0 180 180" fill="none" xmlns="http://www.w3.org/2000/svg">
<circle cx="68.6188" cy="68.1213" r="1.98895" fill="#EF4C59"/>
<circle cx="78.5637" cy="68.1213" r="1.98895" fill="#EF4C59"/>
<circle cx="88.5082" cy="68.1213" r="1.98895" fill="#EF4C59"/>
<circle cx="98.4531" cy="68.1213" r="1.98895" fill="#EF4C59"/>
<circle cx="108.398" cy="68.1213" r="1.98895" fill="#EF4C59"/>
<circle cx="118.343" cy="68.1213" r="1.98895" fill="#EF4C59"/>
<circle cx="128.287" cy="68.1213" r="1.98895" fill="#EF4C59"/>
<circle cx="138.232" cy="68.1213" r="1.98895" fill="#EF4C59"/>
<circle cx="148.177" cy="68.1213" r="1.98895" fill="#EF4C59"/>
<circle cx="158.122" cy="68.1213" r="1.98895" fill="#EF4C59"/>
<circle cx="168.066" cy="68.1213" r="1.98895" fill="#EF4C59"/>
<circle cx="178.011" cy="68.1213" r="1.98895" fill="#EF4C59"/>
<circle cx="68.6188" cy="78.0661" r="1.98895" fill="#EF4C59"/>
<circle cx="78.5637" cy="78.0661" r="1.98895" fill="#EF4C59"/>
<circle cx="88.5082" cy="78.0661" r="1.98895" fill="#EF4C59"/>
<circle cx="98.4531" cy="78.0661" r="1.98895" fill="#EF4C59"/>
<circle cx="108.398" cy="78.0661" r="1.98895" fill="#EF4C59"/>
<circle cx="118.343" cy="78.0661" r="1.98895" fill="#EF4C59"/>
<circle cx="128.287" cy="78.0661" r="1.98895" fill="#EF4C59"/>
<circle cx="138.232" cy="78.0661" r="1.98895" fill="#EF4C59"/>
<circle cx="148.177" cy="78.0661" r="1.98895" fill="#EF4C59"/>
<circle cx="158.122" cy="78.0661" r="1.98895" fill="#EF4C59"/>
<circle cx="168.066" cy="78.0661" r="1.98895" fill="#EF4C59"/>
<circle cx="178.011" cy="78.0661" r="1.98895" fill="#EF4C59"/>
<circle cx="68.6188" cy="88.0109" r="1.98895" fill="#EF4C59"/>
<circle cx="78.5637" cy="88.0109" r="1.98895" fill="#EF4C59"/>
<circle cx="88.5082" cy="88.0109" r="1.98895" fill="#EF4C59"/>
<circle cx="98.4531" cy="88.0109" r="1.98895" fill="#EF4C59"/>
<circle cx="108.398" cy="88.0109" r="1.98895" fill="#EF4C59"/>
<circle cx="118.343" cy="88.0109" r="1.98895" fill="#EF4C59"/>
<circle cx="128.287" cy="88.0109" r="1.98895" fill="#EF4C59"/>
<circle cx="138.232" cy="88.0109" r="1.98895" fill="#EF4C59"/>
<circle cx="148.177" cy="88.0109" r="1.98895" fill="#EF4C59"/>
<circle cx="158.122" cy="88.0109" r="1.98895" fill="#EF4C59"/>
<circle cx="168.066" cy="88.0109" r="1.98895" fill="#EF4C59"/>
<circle cx="178.011" cy="88.0109" r="1.98895" fill="#EF4C59"/>
<circle cx="68.6188" cy="97.9557" r="1.98895" fill="#EF4C59"/>
<circle cx="78.5637" cy="97.9557" r="1.98895" fill="#EF4C59"/>
<circle cx="88.5082" cy="97.9557" r="1.98895" fill="#EF4C59"/>
<circle cx="98.4531" cy="97.9557" r="1.98895" fill="#EF4C59"/>
<circle cx="108.398" cy="97.9557" r="1.98895" fill="#EF4C59"/>
<circle cx="118.343" cy="97.9557" r="1.98895" fill="#EF4C59"/>
<circle cx="128.287" cy="97.9557" r="1.98895" fill="#EF4C59"/>
<circle cx="138.232" cy="97.9557" r="1.98895" fill="#EF4C59"/>
<circle cx="148.177" cy="97.9557" r="1.98895" fill="#EF4C59"/>
<circle cx="158.122" cy="97.9557" r="1.98895" fill="#EF4C59"/>
<circle cx="168.066" cy="97.9557" r="1.98895" fill="#EF4C59"/>
<circle cx="178.011" cy="97.9557" r="1.98895" fill="#EF4C59"/>
<circle cx="68.6188" cy="107.901" r="1.98895" fill="#EF4C59"/>
<circle cx="78.5637" cy="107.901" r="1.98895" fill="#EF4C59"/>
<circle cx="88.5082" cy="107.901" r="1.98895" fill="#EF4C59"/>
<circle cx="98.4531" cy="107.901" r="1.98895" fill="#EF4C59"/>
<circle cx="108.398" cy="107.901" r="1.98895" fill="#EF4C59"/>
<circle cx="118.343" cy="107.901" r="1.98895" fill="#EF4C59"/>
<circle cx="128.287" cy="107.901" r="1.98895" fill="#EF4C59"/>
<circle cx="138.232" cy="107.901" r="1.98895" fill="#EF4C59"/>
<circle cx="148.177" cy="107.901" r="1.98895" fill="#EF4C59"/>
<circle cx="158.122" cy="107.901" r="1.98895" fill="#EF4C59"/>
<circle cx="168.066" cy="107.901" r="1.98895" fill="#EF4C59"/>
<circle cx="178.011" cy="107.901" r="1.98895" fill="#EF4C59"/>
<circle cx="68.6188" cy="117.845" r="1.98895" fill="#EF4C59"/>
<circle cx="78.5637" cy="117.845" r="1.98895" fill="#EF4C59"/>
<circle cx="88.5082" cy="117.845" r="1.98895" fill="#EF4C59"/>
<circle cx="98.4531" cy="117.845" r="1.98895" fill="#EF4C59"/>
<circle cx="108.398" cy="117.845" r="1.98895" fill="#EF4C59"/>
<circle cx="118.343" cy="117.845" r="1.98895" fill="#EF4C59"/>
<circle cx="128.287" cy="117.845" r="1.98895" fill="#EF4C59"/>
<circle cx="138.232" cy="117.845" r="1.98895" fill="#EF4C59"/>
<circle cx="148.177" cy="117.845" r="1.98895" fill="#EF4C59"/>
<circle cx="158.122" cy="117.845" r="1.98895" fill="#EF4C59"/>
<circle cx="168.066" cy="117.845" r="1.98895" fill="#EF4C59"/>
<circle cx="178.011" cy="117.845" r="1.98895" fill="#EF4C59"/>
<circle cx="68.6188" cy="127.79" r="1.98895" fill="#EF4C59"/>
<circle cx="78.5637" cy="127.79" r="1.98895" fill="#EF4C59"/>
<circle cx="88.5082" cy="127.79" r="1.98895" fill="#EF4C59"/>
<circle cx="98.4531" cy="127.79" r="1.98895" fill="#EF4C59"/>
<circle cx="108.398" cy="127.79" r="1.98895" fill="#EF4C59"/>
<circle cx="118.343" cy="127.79" r="1.98895" fill="#EF4C59"/>
<circle cx="128.287" cy="127.79" r="1.98895" fill="#EF4C59"/>
<circle cx="138.232" cy="127.79" r="1.98895" fill="#EF4C59"/>
<circle cx="148.177" cy="127.79" r="1.98895" fill="#EF4C59"/>
<circle cx="158.122" cy="127.79" r="1.98895" fill="#EF4C59"/>
<circle cx="168.066" cy="127.79" r="1.98895" fill="#EF4C59"/>
<circle cx="178.011" cy="127.79" r="1.98895" fill="#EF4C59"/>
<circle cx="68.6188" cy="137.735" r="1.98895" fill="#EF4C59"/>
<circle cx="78.5637" cy="137.735" r="1.98895" fill="#EF4C59"/>
<circle cx="88.5082" cy="137.735" r="1.98895" fill="#EF4C59"/>
<circle cx="98.4531" cy="137.735" r="1.98895" fill="#EF4C59"/>
<circle cx="108.398" cy="137.735" r="1.98895" fill="#EF4C59"/>
<circle cx="118.343" cy="137.735" r="1.98895" fill="#EF4C59"/>
<circle cx="128.287" cy="137.735" r="1.98895" fill="#EF4C59"/>
<circle cx="138.232" cy="137.735" r="1.98895" fill="#EF4C59"/>
<circle cx="148.177" cy="137.735" r="1.98895" fill="#EF4C59"/>
<circle cx="158.122" cy="137.735" r="1.98895" fill="#EF4C59"/>
<circle cx="168.066" cy="137.735" r="1.98895" fill="#EF4C59"/>
<circle cx="178.011" cy="137.735" r="1.98895" fill="#EF4C59"/>
<circle cx="68.6188" cy="147.679" r="1.98895" fill="#EF4C59"/>
<circle cx="78.5637" cy="147.679" r="1.98895" fill="#EF4C59"/>
<circle cx="88.5082" cy="147.679" r="1.98895" fill="#EF4C59"/>
<circle cx="98.4531" cy="147.679" r="1.98895" fill="#EF4C59"/>
<circle cx="108.398" cy="147.679" r="1.98895" fill="#EF4C59"/>
<circle cx="118.343" cy="147.679" r="1.98895" fill="#EF4C59"/>
<circle cx="128.287" cy="147.679" r="1.98895" fill="#EF4C59"/>
<circle cx="138.232" cy="147.679" r="1.98895" fill="#EF4C59"/>
<circle cx="148.177" cy="147.679" r="1.98895" fill="#EF4C59"/>
<circle cx="158.122" cy="147.679" r="1.98895" fill="#EF4C59"/>
<circle cx="168.066" cy="147.679" r="1.98895" fill="#EF4C59"/>
<circle cx="178.011" cy="147.679" r="1.98895" fill="#EF4C59"/>
<circle cx="68.6188" cy="157.624" r="1.98895" fill="#EF4C59"/>
<circle cx="78.5637" cy="157.624" r="1.98895" fill="#EF4C59"/>
<circle cx="88.5082" cy="157.624" r="1.98895" fill="#EF4C59"/>
<circle cx="98.4531" cy="157.624" r="1.98895" fill="#EF4C59"/>
<circle cx="108.398" cy="157.624" r="1.98895" fill="#EF4C59"/>
<circle cx="118.343" cy="157.624" r="1.98895" fill="#EF4C59"/>
<circle cx="128.287" cy="157.624" r="1.98895" fill="#EF4C59"/>
<circle cx="138.232" cy="157.624" r="1.98895" fill="#EF4C59"/>
<circle cx="148.177" cy="157.624" r="1.98895" fill="#EF4C59"/>
<circle cx="158.122" cy="157.624" r="1.98895" fill="#EF4C59"/>
<circle cx="168.066" cy="157.624" r="1.98895" fill="#EF4C59"/>
<circle cx="178.011" cy="157.624" r="1.98895" fill="#EF4C59"/>
<circle cx="68.6188" cy="167.569" r="1.98895" fill="#EF4C59"/>
<circle cx="78.5637" cy="167.569" r="1.98895" fill="#EF4C59"/>
<circle cx="88.5082" cy="167.569" r="1.98895" fill="#EF4C59"/>
<circle cx="98.4531" cy="167.569" r="1.98895" fill="#EF4C59"/>
<circle cx="108.398" cy="167.569" r="1.98895" fill="#EF4C59"/>
<circle cx="118.343" cy="167.569" r="1.98895" fill="#EF4C59"/>
<circle cx="128.287" cy="167.569" r="1.98895" fill="#EF4C59"/>
<circle cx="138.232" cy="167.569" r="1.98895" fill="#EF4C59"/>
<circle cx="148.177" cy="167.569" r="1.98895" fill="#EF4C59"/>
<circle cx="158.122" cy="167.569" r="1.98895" fill="#EF4C59"/>
<circle cx="168.066" cy="167.569" r="1.98895" fill="#EF4C59"/>
<circle cx="178.011" cy="167.569" r="1.98895" fill="#EF4C59"/>
<circle cx="68.6188" cy="177.514" r="1.98895" fill="#EF4C59"/>
<circle cx="78.5637" cy="177.514" r="1.98895" fill="#EF4C59"/>
<circle cx="88.5082" cy="177.514" r="1.98895" fill="#EF4C59"/>
<circle cx="98.4531" cy="177.514" r="1.98895" fill="#EF4C59"/>
<circle cx="108.398" cy="177.514" r="1.98895" fill="#EF4C59"/>
<circle cx="118.343" cy="177.514" r="1.98895" fill="#EF4C59"/>
<circle cx="128.287" cy="177.514" r="1.98895" fill="#EF4C59"/>
<circle cx="138.232" cy="177.514" r="1.98895" fill="#EF4C59"/>
<circle cx="148.177" cy="177.514" r="1.98895" fill="#EF4C59"/>
<circle cx="158.122" cy="177.514" r="1.98895" fill="#EF4C59"/>
<circle cx="168.066" cy="177.514" r="1.98895" fill="#EF4C59"/>
<circle cx="178.011" cy="177.514" r="1.98895" fill="#EF4C59"/>
<path d="M180 19.1435H161.354V0.49707H148.923V19.1435H130.276V31.5744H148.923V50.2208H161.354V31.5744H180V19.1435Z" fill="#FFC31D"/>
<path fill-rule="evenodd" clip-rule="evenodd" d="M2.71766 115.063C9.07661 140.232 31.72 157.865 57.6796 157.863C76.7743 157.88 94.5896 148.265 105.056 132.295C119.307 110.597 116.997 81.9906 99.4485 62.8603C81.9004 43.73 53.5998 38.9647 30.7546 51.2936C7.90941 63.6225 -3.6413 89.8945 2.71766 115.063ZM2.98349 101.178C2.98349 70.9701 27.4718 46.4818 57.6796 46.4818C87.8738 46.5147 112.343 70.9837 112.376 101.178C112.376 131.386 87.8875 155.874 57.6796 155.874C27.4718 155.874 2.98349 131.386 2.98349 101.178Z" fill="#0E2946"/>
<path d="M11.2375 131.768C21.512 147.419 38.9635 156.86 57.686 156.897C76.4086 156.933 93.8963 147.558 104.231 131.947L98.8309 119.466C93.7951 104.188 79.5238 93.8667 63.4375 93.8682H51.9514C35.8687 93.8658 21.5972 104.177 16.548 119.446L11.2375 131.768Z" fill="white"/>
<path fill-rule="evenodd" clip-rule="evenodd" d="M10.4121 132.295C20.8726 148.272 38.692 157.889 57.7889 157.863C76.803 157.891 94.5602 148.368 105.056 132.513L105.355 132.066L99.7757 119.138C94.6154 103.447 79.9547 92.8511 63.4375 92.8737H51.9513C35.465 92.8388 20.8205 103.396 15.6431 119.048L10.1138 131.847L10.4121 132.295ZM57.6866 155.875C39.4922 155.839 22.5068 146.758 12.3712 131.648L17.4928 119.725C22.4058 104.866 36.3018 94.8402 51.9513 94.8627H63.4375C79.1401 94.8606 93.0606 104.964 97.9259 119.894L103.097 131.827C92.9021 146.897 75.8809 155.911 57.6866 155.875Z" fill="#0E2946"/>
<path d="M54.925 81.6263C61.7703 85.3282 69.4608 87.1857 77.2411 87.0164C78.1676 87.0112 79.0535 86.6347 79.7002 85.9712C80.347 85.3076 80.7006 84.4124 80.6819 83.486L80.493 73.0937L83.904 71.1048L79.9261 42.8418L47.367 46.044L43.7571 68.002L47.9836 80.9302L48.0433 95.4993L57.3913 114.126L66.3416 95.4993L65.6355 85.7335" fill="white"/>
<path fill-rule="evenodd" clip-rule="evenodd" d="M46.9989 95.7281L57.3613 116.383L67.3359 95.7082L66.6994 87.0165C70.1672 87.7491 73.7073 88.0828 77.2508 88.011C78.4577 88.0196 79.6162 87.5371 80.4602 86.6744C81.3042 85.8116 81.7611 84.6428 81.726 83.4364L81.547 73.6408L84.9779 71.6121L80.7812 41.7778L46.5116 45.1789L42.6829 68.1215L46.9392 81.0994L46.9989 95.7281ZM57.3315 111.878L48.9878 95.2607L48.9282 80.9303L44.7514 67.9226L48.3116 46.9889L79.1403 43.9259L82.8994 70.5778L79.558 72.5668L79.7569 83.506C79.7778 84.1666 79.526 84.8067 79.0608 85.2762C78.5945 85.7519 77.9567 86.0206 77.2906 86.022C69.6668 86.212 62.1255 84.409 55.4121 80.7911L54.4177 82.5414C57.655 84.2694 61.087 85.6048 64.6409 86.5193L65.2873 95.3005L57.3315 111.878Z" fill="#0E2946"/>
<path d="M56.0288 66.411C56.0288 66.411 55.1636 63.0099 52.9857 61.9359C50.6089 60.7624 46.5216 61.0807 45.7459 62.9304C44.7514 65.3569 45.7459 69.8917 47.7348 71.3138C48.4608 75.5503 46.9591 76.505 47.0487 80.9702C45.4873 73.4022 42.6829 69.0365 41.7978 65.9138C39.421 57.6199 37.452 47.0188 42.5536 40.8928C48.2321 34.0409 60.5636 39.1226 74.0288 39.1226C78.2553 39.1226 78.5536 40.2265 78.5536 40.2265L80.7514 41.7282L80.463 46.5315C80.463 46.5315 77.3105 46.2829 74.1978 45.905C58.1569 43.9757 66.1525 52.9757 64.9492 55.611C63.0895 59.6486 60.4045 58.4354 59.6984 64.9193L56.0288 66.411Z" fill="#0E2946"/>
<path d="M56.6852 65.8739C56.6852 65.8739 55.2929 60.3645 51.494 58.7534C48.0829 57.3015 48.073 38.7446 48.073 38.7446C49.346 36.214 51.8687 34.5512 54.6962 34.3788C57.4404 34.2071 60.1596 33.7539 62.8111 33.0263C62.3435 33.8395 61.6804 34.5231 60.8818 35.0153C60.8818 35.0153 69.8321 34.0208 75.073 29.8639C75.073 29.8639 75.799 32.8473 74.2376 34.2297C74.2376 34.2297 81.0995 32.36 83.0785 28.0938C83.0785 28.0938 90.0398 38.7545 79.9559 43.4783C81.7709 43.8425 83.6545 43.3997 85.1172 42.265C85.1172 42.265 84.8586 46.8893 77.2211 45.9048C77.2211 45.9048 66.5205 43.9158 64.4421 45.5866C62.3636 47.2573 65.2675 50.4794 65.3172 53.1744C65.3669 55.8694 60.0465 60.7722 60.0166 67.0076L56.6852 65.8739Z" fill="#0E2946"/>
<path fill-rule="evenodd" clip-rule="evenodd" d="M55.8597 66.6495L61.011 68.3401L61.0011 66.9578C61.021 63.4976 62.8503 60.3952 64.322 57.8993L64.3226 57.8981C65.4564 55.9788 66.3116 54.4771 66.3116 53.1048C66.2119 51.8894 65.8988 50.701 65.3867 49.5943C64.6707 47.7644 64.4122 46.8396 65.0586 46.3125C66.1525 45.4672 72.1193 45.9247 77.0917 46.8396C80.3138 47.2573 82.7602 46.7899 84.3613 45.4473C85.3455 44.6622 85.9756 43.5166 86.1116 42.265L86.1713 40.0274L84.4309 41.4296L84.1227 41.6584C85.0206 40.6774 85.6748 39.4985 86.032 38.2175C87.484 33.1059 84.0033 27.7457 83.8541 27.5169L82.8597 26.0352L82.1138 27.6462C81.0597 30.0031 78.1359 31.5843 76.147 32.4495C76.279 31.5016 76.2352 30.5374 76.0177 29.6053L75.6497 28.0838L74.4265 29.0783C71.3039 31.5843 66.6298 32.897 63.6464 33.5236L64.9392 31.3258L62.5823 32.1015C60.0057 32.8088 57.363 33.2487 54.6961 33.4142C51.4842 33.5948 48.6204 35.4963 47.2077 38.3865L47.1282 38.5755V38.7843C47.1282 43.2495 47.3768 58.0771 51.1061 59.6683C54.3978 61.0606 55.6906 66.1324 55.6906 66.1324L55.8597 66.6495ZM59.1017 65.665L57.4906 65.1379C57.0133 63.5766 55.3823 59.3202 51.8718 57.8683C50.2011 57.1224 49.0475 47.5556 49.0475 38.9733C50.2062 36.8637 52.3723 35.5024 54.7757 35.3733C56.2773 35.2539 57.6099 35.0948 58.7536 34.9158L55.1436 36.6263L60.9912 35.9899C60.9977 35.989 61.0074 35.9879 61.0202 35.9863C61.6211 35.9135 68.9689 35.0238 74.2376 31.6639C74.2658 32.3283 74.0339 32.9776 73.5912 33.4738L70.3094 36.2981L74.526 35.1843C74.5344 35.1817 74.5485 35.1776 74.568 35.1718C75.1416 35.0022 80.3647 33.4578 83.0387 30.0528C83.874 31.7932 84.9978 34.8661 84.1923 37.6904C83.4572 39.9302 81.7564 41.7223 79.558 42.5733L76.9923 43.8064L79.737 44.4727C80.5086 44.6353 81.3022 44.6655 82.084 44.5622C80.5788 45.0792 78.9663 45.2024 77.4 44.9202C74.7547 44.4429 66.0729 43.0108 63.8155 44.8108C61.9558 46.3026 62.8309 48.56 63.537 50.37C63.95 51.2634 64.2185 52.2167 64.3326 53.1943C64.3425 53.9501 63.5072 55.4219 62.6122 56.9335L62.572 57.002C61.1773 59.3857 59.4858 62.2765 59.1017 65.665Z" fill="#0E2946"/>
<path d="M50.4598 72.9742C46.8348 72.9742 43.8962 70.0356 43.8962 66.4107C43.8962 62.7858 46.8348 59.8472 50.4598 59.8472C54.0847 59.8472 57.0233 62.7858 57.0233 66.4107H55.0344C55.0344 63.8842 52.9862 61.8361 50.4598 61.8361C47.9333 61.8361 45.8852 63.8842 45.8852 66.4107C45.8852 68.9372 47.9333 70.9853 50.4598 70.9853V72.9742Z" fill="#0E2946"/>
<circle cx="57.6796" cy="152.652" r="20.884" fill="white"/>
<path fill-rule="evenodd" clip-rule="evenodd" d="M35.8013 152.652C35.8013 164.735 45.5966 174.53 57.6797 174.53C69.7629 174.53 79.5582 164.735 79.5582 152.652C79.5582 140.569 69.7629 130.773 57.6797 130.773C45.5966 130.773 35.8013 140.569 35.8013 152.652ZM37.7902 152.652C37.7902 141.667 46.6951 132.762 57.6797 132.762C68.6644 132.762 77.5692 141.667 77.5692 152.652C77.5692 163.637 68.6644 172.541 57.6797 172.541C46.6951 172.541 37.7902 163.637 37.7902 152.652Z" fill="#0E2946"/>
<path fill-rule="evenodd" clip-rule="evenodd" d="M53.7018 162.268H61.7073L63.1493 158.062C63.6896 156.581 63.9917 155.023 64.0443 153.447C64.0837 151.713 63.7865 149.987 63.1692 148.366C62.8367 147.514 62.4132 146.7 61.9062 145.939L57.6797 139.584L53.5029 145.939C52.9959 146.7 52.5725 147.514 52.2399 148.366C51.6226 149.987 51.3254 151.713 51.3648 153.447C51.4174 155.023 51.7195 156.581 52.2598 158.062L53.7018 162.268ZM60.2852 160.28H55.0742L54.0897 157.386C53.6187 156.11 53.3535 154.767 53.304 153.408C53.2679 151.934 53.5213 150.468 54.0499 149.092C54.3267 148.373 54.6801 147.686 55.104 147.043L57.6797 143.175L60.2653 147.073C60.6892 147.716 61.0426 148.403 61.3195 149.121C61.848 150.498 62.1014 151.964 62.0653 153.438C62.0158 154.797 61.7506 156.139 61.2797 157.415L60.2852 160.28Z" fill="#476AE3"/>
<path fill-rule="evenodd" clip-rule="evenodd" d="M54.7211 153.658C55.2168 154.855 56.3844 155.635 57.6796 155.635C59.4481 155.635 60.8818 154.201 60.8818 152.433C60.8818 151.138 60.1016 149.97 58.905 149.474C57.7084 148.979 56.3311 149.253 55.4153 150.168C54.4995 151.084 54.2255 152.462 54.7211 153.658ZM56.4663 152.433C56.4663 151.763 57.0095 151.22 57.6796 151.22C58.3497 151.22 58.8929 151.763 58.8929 152.433C58.8929 153.103 58.3497 153.646 57.6796 153.646C57.0095 153.646 56.4663 153.103 56.4663 152.433Z" fill="#476AE3"/>
<path d="M57.6795 164.914C55.911 164.914 54.4773 163.48 54.4773 161.711H56.4662C56.4662 162.381 57.0094 162.925 57.6795 162.925C58.3496 162.925 58.8928 162.381 58.8928 161.711H60.8817C60.8817 163.48 59.448 164.914 57.6795 164.914Z" fill="#476AE3"/>
<path d="M48.7294 163.482H46.7405V156.848C46.746 153.863 49.1649 151.444 52.1504 151.438V153.427C50.2633 153.433 48.7349 154.961 48.7294 156.848V163.482Z" fill="#476AE3"/>
<path d="M48.7294 163.481H46.7405C46.7405 160.492 49.161 158.067 52.1504 158.062H53.2642V160.05H52.1504C50.2595 160.056 48.7294 161.59 48.7294 163.481Z" fill="#476AE3"/>
<path d="M68.6189 163.482H66.63V156.848C66.6245 154.961 65.0961 153.433 63.209 153.427V151.438C66.1945 151.444 68.6135 153.863 68.6189 156.848V163.482Z" fill="#476AE3"/>
<path d="M68.6189 163.481H66.63C66.63 161.59 65.0999 160.056 63.209 160.05H62.0852V158.062H63.209C66.1984 158.067 68.6189 160.492 68.6189 163.481Z" fill="#476AE3"/>
<circle cx="60.6629" cy="118.581" r="0.994475" fill="#0E2946"/>
<circle cx="60.6629" cy="122.559" r="0.994475" fill="#0E2946"/>
<circle cx="60.6629" cy="126.537" r="0.994475" fill="#0E2946"/>
<rect x="56.3469" y="114.126" width="1.98895" height="16.9061" fill="#0E2946"/>
<path d="M66.9481 116.334L62.5823 111.958L58.2961 115.389L57.063 113.867L62.7216 109.333L66.2619 112.873C69.0961 104.679 65.7348 95.2012 65.695 95.1017L67.5646 94.4155C67.7337 94.8829 71.632 105.842 67.5646 115.051L66.9481 116.334Z" fill="#0E2946"/>
<path d="M48.073 116.334L47.4863 115.011C43.4089 105.832 46.641 94.8927 46.7802 94.4253L48.7294 94.9723C48.7294 95.0816 45.8951 104.589 48.799 112.803L52.3393 109.263L58.0078 113.798L56.6852 115.389L52.4089 111.958L48.073 116.334Z" fill="#0E2946"/>
</svg>
