<svg width="80" height="80" viewBox="0 0 80 80" fill="none" xmlns="http://www.w3.org/2000/svg">
<path d="M0 0H80V80" fill="#D6DFFF"/>
<path fill-rule="evenodd" clip-rule="evenodd" d="M42.8938 19.4316L44.705 20.2023L41.3154 35.0721L44.7736 35.0501L53.8664 34.9998L37.1062 60.5685L35.295 59.7978L38.6846 44.9281L35.2263 44.95L26.1335 45.0004L42.8938 19.4316ZM44.7855 37.0501L38.8046 37.0881L41.5209 25.1717L29.8464 42.9798L35.2136 42.9501L41.1954 42.9121L38.4791 54.8285L50.1535 37.0204L44.7855 37.0501Z" fill="#0E2946"/>
<path fill-rule="evenodd" clip-rule="evenodd" d="M74 40C74 21.2223 58.7777 6 40 6V4C59.8822 4 76 20.1177 76 40H74Z" fill="#0E2946"/>
<path fill-rule="evenodd" clip-rule="evenodd" d="M6 40C6 58.7777 21.2223 74 40 74V76C20.1177 76 4 59.8822 4 40H6Z" fill="#0E2946"/>
<path fill-rule="evenodd" clip-rule="evenodd" d="M75.0001 39.5859L71.7072 36.293L70.293 37.7072L75.0001 42.4143L79.7072 37.7072L78.293 36.293L75.0001 39.5859Z" fill="#0E2946"/>
<path fill-rule="evenodd" clip-rule="evenodd" d="M5.00008 38.5857L9.70718 43.2928L8.29297 44.707L5.00008 41.4141L1.70718 44.707L0.292969 43.2928L5.00008 38.5857Z" fill="#0E2946"/>
<path fill-rule="evenodd" clip-rule="evenodd" d="M54.8657 63.7593L58.3657 69.8093L56.6345 70.8108L53.1345 64.7608L54.8657 63.7593Z" fill="#0E2946"/>
<path fill-rule="evenodd" clip-rule="evenodd" d="M64.7608 53.1345L70.8108 56.6345L69.8093 58.3657L63.7593 54.8657L64.7608 53.1345Z" fill="#0E2946"/>
<path fill-rule="evenodd" clip-rule="evenodd" d="M23.3659 9.18994L26.8659 15.2499L25.134 16.2502L21.634 10.1902L23.3659 9.18994Z" fill="#0E2946"/>
<path fill-rule="evenodd" clip-rule="evenodd" d="M10.1902 21.634L16.2502 25.134L15.2499 26.8659L9.18994 23.3659L10.1902 21.634Z" fill="#0E2946"/>
<path fill-rule="evenodd" clip-rule="evenodd" d="M60.507 59.0928L65.457 64.0428L64.0428 65.457L59.0928 60.507L60.507 59.0928Z" fill="#0E2946"/>
<path fill-rule="evenodd" clip-rule="evenodd" d="M6.44868 29.9741L13.2087 31.7841L12.6914 33.7161L5.9314 31.9061L6.44868 29.9741Z" fill="#0E2946"/>
<path fill-rule="evenodd" clip-rule="evenodd" d="M67.3085 46.2839L74.0685 48.0939L73.5513 50.0259L66.7913 48.2159L67.3085 46.2839Z" fill="#0E2946"/>
<path fill-rule="evenodd" clip-rule="evenodd" d="M48.2159 66.7913L50.0259 73.5513L48.0939 74.0685L46.2839 67.3085L48.2159 66.7913Z" fill="#0E2946"/>
<path fill-rule="evenodd" clip-rule="evenodd" d="M15.9572 14.543L20.9072 19.493L19.493 20.9072L14.543 15.9572L15.9572 14.543Z" fill="#0E2946"/>
<path fill-rule="evenodd" clip-rule="evenodd" d="M31.9061 5.9314L33.7161 12.6914L31.7841 13.2087L29.9741 6.44868L31.9061 5.9314Z" fill="#0E2946"/>
</svg>
