<svg width="80" height="80" viewBox="0 0 80 80" fill="none" xmlns="http://www.w3.org/2000/svg">
<path d="M56 80C69.2548 80 80 69.2548 80 56C80 42.7452 69.2548 32 56 32C42.7452 32 32 42.7452 32 56C32 69.2548 42.7452 80 56 80Z" fill="#FFECB8"/>
<path fill-rule="evenodd" clip-rule="evenodd" d="M15 8C13.1435 8 11.363 8.7375 10.0503 10.0503C8.7375 11.363 8 13.1435 8 15V65C8 66.8565 8.7375 68.637 10.0503 69.9497C11.363 71.2625 13.1435 72 15 72H40V74H15C12.6131 74 10.3239 73.0518 8.63604 71.364C6.94821 69.6761 6 67.3869 6 65V15C6 12.6131 6.94821 10.3239 8.63604 8.63604C10.3239 6.94821 12.6131 6 15 6H65C67.3869 6 69.6761 6.94821 71.364 8.63604C73.0518 10.3239 74 12.6131 74 15V40H72V15C72 13.1435 71.2625 11.363 69.9497 10.0503C68.637 8.7375 66.8565 8 65 8H15Z" fill="#0E2946"/>
<path fill-rule="evenodd" clip-rule="evenodd" d="M7 20H73V22H7V20Z" fill="#0E2946"/>
<path fill-rule="evenodd" clip-rule="evenodd" d="M60.7072 47.293L69.4143 56.0001L60.7072 64.7072L59.293 63.293L66.5859 56.0001L59.293 48.7072L60.7072 47.293Z" fill="#0E2946"/>
<path fill-rule="evenodd" clip-rule="evenodd" d="M44 55H68V57H44V55Z" fill="#0E2946"/>
<path fill-rule="evenodd" clip-rule="evenodd" d="M19.0098 28.0098C17.3529 28.0098 16.0098 29.3529 16.0098 31.0098C16.0098 32.6666 17.3529 34.0098 19.0098 34.0098C20.6666 34.0098 22.0098 32.6666 22.0098 31.0098C22.0098 29.3529 20.6666 28.0098 19.0098 28.0098ZM14.0098 31.0098C14.0098 28.2483 16.2483 26.0098 19.0098 26.0098C21.7712 26.0098 24.0098 28.2483 24.0098 31.0098C24.0098 33.7712 21.7712 36.0098 19.0098 36.0098C16.2483 36.0098 14.0098 33.7712 14.0098 31.0098Z" fill="#0E2946"/>
<path fill-rule="evenodd" clip-rule="evenodd" d="M33.0098 28.0098C31.3529 28.0098 30.0098 29.3529 30.0098 31.0098C30.0098 32.6666 31.3529 34.0098 33.0098 34.0098C34.6666 34.0098 36.0098 32.6666 36.0098 31.0098C36.0098 29.3529 34.6666 28.0098 33.0098 28.0098ZM28.0098 31.0098C28.0098 28.2483 30.2483 26.0098 33.0098 26.0098C35.7712 26.0098 38.0098 28.2483 38.0098 31.0098C38.0098 33.7712 35.7712 36.0098 33.0098 36.0098C30.2483 36.0098 28.0098 33.7712 28.0098 31.0098Z" fill="#0E2946"/>
<path fill-rule="evenodd" clip-rule="evenodd" d="M47.02 28.0098C45.3632 28.0098 44.02 29.3529 44.02 31.0098C44.02 32.6666 45.3632 34.0098 47.02 34.0098C48.6769 34.0098 50.02 32.6666 50.02 31.0098C50.02 29.3529 48.6769 28.0098 47.02 28.0098ZM42.02 31.0098C42.02 28.2483 44.2586 26.0098 47.02 26.0098C49.7814 26.0098 52.02 28.2483 52.02 31.0098C52.02 33.7712 49.7814 36.0098 47.02 36.0098C44.2586 36.0098 42.02 33.7712 42.02 31.0098Z" fill="#0E2946"/>
<path fill-rule="evenodd" clip-rule="evenodd" d="M61.0298 28.0098C59.3729 28.0098 58.0298 29.3529 58.0298 31.0098C58.0298 32.6666 59.3729 34.0098 61.0298 34.0098C62.6866 34.0098 64.0298 32.6666 64.0298 31.0098C64.0298 29.3529 62.6866 28.0098 61.0298 28.0098ZM56.0298 31.0098C56.0298 28.2483 58.2684 26.0098 61.0298 26.0098C63.7912 26.0098 66.0298 28.2483 66.0298 31.0098C66.0298 33.7712 63.7912 36.0098 61.0298 36.0098C58.2684 36.0098 56.0298 33.7712 56.0298 31.0098Z" fill="#0E2946"/>
<path fill-rule="evenodd" clip-rule="evenodd" d="M19.0098 44.02C17.3529 44.02 16.0098 45.3632 16.0098 47.02C16.0098 48.6769 17.3529 50.02 19.0098 50.02C20.6666 50.02 22.0098 48.6769 22.0098 47.02C22.0098 45.3632 20.6666 44.02 19.0098 44.02ZM14.0098 47.02C14.0098 44.2586 16.2483 42.02 19.0098 42.02C21.7712 42.02 24.0098 44.2586 24.0098 47.02C24.0098 49.7814 21.7712 52.02 19.0098 52.02C16.2483 52.02 14.0098 49.7814 14.0098 47.02Z" fill="#0E2946"/>
<path fill-rule="evenodd" clip-rule="evenodd" d="M33.0098 44.02C31.3529 44.02 30.0098 45.3632 30.0098 47.02C30.0098 48.6769 31.3529 50.02 33.0098 50.02C34.6666 50.02 36.0098 48.6769 36.0098 47.02C36.0098 45.3632 34.6666 44.02 33.0098 44.02ZM28.0098 47.02C28.0098 44.2586 30.2483 42.02 33.0098 42.02C35.7712 42.02 38.0098 44.2586 38.0098 47.02C38.0098 49.7814 35.7712 52.02 33.0098 52.02C30.2483 52.02 28.0098 49.7814 28.0098 47.02Z" fill="#0E2946"/>
<path fill-rule="evenodd" clip-rule="evenodd" d="M19.0098 60.0303C17.3529 60.0303 16.0098 61.3734 16.0098 63.0303C16.0098 64.6871 17.3529 66.0303 19.0098 66.0303C20.6666 66.0303 22.0098 64.6871 22.0098 63.0303C22.0098 61.3734 20.6666 60.0303 19.0098 60.0303ZM14.0098 63.0303C14.0098 60.2688 16.2483 58.0303 19.0098 58.0303C21.7712 58.0303 24.0098 60.2688 24.0098 63.0303C24.0098 65.7917 21.7712 68.0303 19.0098 68.0303C16.2483 68.0303 14.0098 65.7917 14.0098 63.0303Z" fill="#0E2946"/>
<path fill-rule="evenodd" clip-rule="evenodd" d="M33.0098 60.0303C31.3529 60.0303 30.0098 61.3734 30.0098 63.0303C30.0098 64.6871 31.3529 66.0303 33.0098 66.0303C34.6666 66.0303 36.0098 64.6871 36.0098 63.0303C36.0098 61.3734 34.6666 60.0303 33.0098 60.0303ZM28.0098 63.0303C28.0098 60.2689 30.2483 58.0303 33.0098 58.0303C35.7712 58.0303 38.0098 60.2688 38.0098 63.0303C38.0098 65.7917 35.7712 68.0303 33.0098 68.0303C30.2483 68.0303 28.0098 65.7917 28.0098 63.0303Z" fill="#0E2946"/>
</svg>
