<svg width="720" height="640" viewBox="0 0 720 640" fill="none" xmlns="http://www.w3.org/2000/svg">
<path fill-rule="evenodd" clip-rule="evenodd" d="M364 323C364 236 325 150 219 150C116 150 73.5 229 73.5 323C73.5 417 117 491.5 218.5 491.5C321.5 491.5 364 417 364 323ZM284.5 320.5C284.5 369.5 267.5 422 219 422C171.5 422 153 373.51 153 320.5C153 271 170 219.5 219 219.5C266 219.5 284.5 267 284.5 320.5Z" fill="white"/>
<path d="M393.5 468L405 400C433.456 415.2 465.239 423.103 497.5 423C540 423 561 408.5 561 379.5C561 349.5 538 333 492.5 333C466 333 442 336.5 421.5 343.5L406.5 330.5L428 155H632V224H491.5L486 272.5C494.286 271.391 502.641 270.89 511 271C585.5 271 646.5 306.5 646.5 376C646.5 457.5 588 491.5 507 491.5C464.5 491.51 427 483.51 393.5 468Z" fill="white"/>
<path fill-rule="evenodd" clip-rule="evenodd" d="M592.38 296.4L607.5 305L608.12 286.75L592.38 296.4ZM605.61 301.62L596.31 296.33L606 290.4L605.61 301.62Z" fill="#EF4C59"/>
<path fill-rule="evenodd" clip-rule="evenodd" d="M281 548.489C281 552.355 284.134 555.489 288 555.489C291.866 555.489 295 552.355 295 548.489C295 544.623 291.866 541.489 288 541.489C284.134 541.489 281 544.623 281 548.489ZM283 548.489C283 545.728 285.239 543.489 288 543.489C290.761 543.489 293 545.728 293 548.489C293 551.251 290.761 553.489 288 553.489C285.239 553.489 283 551.251 283 548.489Z" fill="#EF4C59"/>
<path d="M149.448 104.916L157.933 96.4307L166.418 104.916L157.933 113.401L149.448 104.916Z" fill="#F5F6F8"/>
<path fill-rule="evenodd" clip-rule="evenodd" d="M148.03 104.92L157.93 114.82L167.83 104.92L157.93 95.0195L148.03 104.92ZM157.93 111.99L150.86 104.92L157.93 97.8495L165 104.92L157.93 111.99Z" fill="#FFC31D"/>
<path d="M73.7899 404.829L71.8799 408.139H75.6999L73.7899 404.829Z" fill="#476AE3"/>
<path d="M85.3299 404.829L83.4199 408.139H87.2399L85.3299 404.829Z" fill="#476AE3"/>
<path d="M97.6297 404.829L95.7197 408.139H99.5397L97.6297 404.829Z" fill="#476AE3"/>
<path d="M109.93 404.829L108.02 408.139H111.84L109.93 404.829Z" fill="#476AE3"/>
<path d="M122.23 404.829L120.32 408.139H124.14L122.23 404.829Z" fill="#476AE3"/>
<path d="M134.53 404.829L132.62 408.139H136.44L134.53 404.829Z" fill="#476AE3"/>
<path d="M146.83 404.829L144.92 408.139H148.74L146.83 404.829Z" fill="#476AE3"/>
<path d="M159.13 404.829L157.22 408.139H161.04L159.13 404.829Z" fill="#476AE3"/>
<path d="M171.44 404.829L169.53 408.139H173.34L171.44 404.829Z" fill="#476AE3"/>
<path d="M182.97 404.829L181.06 408.139H184.88L182.97 404.829Z" fill="#476AE3"/>
<path d="M73.7899 417.02L71.8799 420.33H75.6999L73.7899 417.02Z" fill="#476AE3"/>
<path d="M85.3299 417.02L83.4199 420.33H87.2399L85.3299 417.02Z" fill="#476AE3"/>
<path d="M97.6297 417.02L95.7197 420.33H99.5397L97.6297 417.02Z" fill="#476AE3"/>
<path d="M109.93 417.02L108.02 420.33H111.84L109.93 417.02Z" fill="#476AE3"/>
<path d="M122.23 417.02L120.32 420.33H124.14L122.23 417.02Z" fill="#476AE3"/>
<path d="M134.53 417.02L132.62 420.33H136.44L134.53 417.02Z" fill="#476AE3"/>
<path d="M146.83 417.02L144.92 420.33H148.74L146.83 417.02Z" fill="#476AE3"/>
<path d="M159.13 417.02L157.22 420.33H161.04L159.13 417.02Z" fill="#476AE3"/>
<path d="M171.44 417.02L169.53 420.33H173.34L171.44 417.02Z" fill="#476AE3"/>
<path d="M182.97 417.02L181.06 420.33H184.88L182.97 417.02Z" fill="#476AE3"/>
<path d="M73.7899 429.21L71.8799 432.52H75.6999L73.7899 429.21Z" fill="#476AE3"/>
<path d="M85.3299 429.21L83.4199 432.52H87.2399L85.3299 429.21Z" fill="#476AE3"/>
<path d="M97.6297 429.21L95.7197 432.52H99.5397L97.6297 429.21Z" fill="#476AE3"/>
<path d="M109.93 429.21L108.02 432.52H111.84L109.93 429.21Z" fill="#476AE3"/>
<path d="M122.23 429.21L120.32 432.52H124.14L122.23 429.21Z" fill="#476AE3"/>
<path d="M134.53 429.21L132.62 432.52H136.44L134.53 429.21Z" fill="#476AE3"/>
<path d="M146.83 429.21L144.92 432.52H148.74L146.83 429.21Z" fill="#476AE3"/>
<path d="M159.13 429.21L157.22 432.52H161.04L159.13 429.21Z" fill="#476AE3"/>
<path d="M171.44 429.21L169.53 432.52H173.34L171.44 429.21Z" fill="#476AE3"/>
<path d="M182.97 429.21L181.06 432.52H184.88L182.97 429.21Z" fill="#476AE3"/>
<path d="M73.7899 441.399L71.8799 444.699H75.6999L73.7899 441.399Z" fill="#476AE3"/>
<path d="M85.3299 441.399L83.4199 444.699H87.2399L85.3299 441.399Z" fill="#476AE3"/>
<path d="M97.6297 441.399L95.7197 444.699H99.5397L97.6297 441.399Z" fill="#476AE3"/>
<path d="M109.93 441.399L108.02 444.699H111.84L109.93 441.399Z" fill="#476AE3"/>
<path d="M122.23 441.399L120.32 444.699H124.14L122.23 441.399Z" fill="#476AE3"/>
<path d="M134.53 441.399L132.62 444.699H136.44L134.53 441.399Z" fill="#476AE3"/>
<path d="M146.83 441.399L144.92 444.699H148.74L146.83 441.399Z" fill="#476AE3"/>
<path d="M159.13 441.399L157.22 444.699H161.04L159.13 441.399Z" fill="#476AE3"/>
<path d="M171.44 441.399L169.53 444.699H173.34L171.44 441.399Z" fill="#476AE3"/>
<path d="M182.97 441.399L181.06 444.699H184.88L182.97 441.399Z" fill="#476AE3"/>
<path d="M73.7899 453.59L71.8799 456.89H75.6999L73.7899 453.59Z" fill="#476AE3"/>
<path d="M85.3299 453.59L83.4199 456.89H87.2399L85.3299 453.59Z" fill="#476AE3"/>
<path d="M97.6297 453.59L95.7197 456.89H99.5397L97.6297 453.59Z" fill="#476AE3"/>
<path d="M109.93 453.59L108.02 456.89H111.84L109.93 453.59Z" fill="#476AE3"/>
<path d="M122.23 453.59L120.32 456.89H124.14L122.23 453.59Z" fill="#476AE3"/>
<path d="M134.53 453.59L132.62 456.89H136.44L134.53 453.59Z" fill="#476AE3"/>
<path d="M146.83 453.59L144.92 456.89H148.74L146.83 453.59Z" fill="#476AE3"/>
<path d="M159.13 453.59L157.22 456.89H161.04L159.13 453.59Z" fill="#476AE3"/>
<path d="M171.44 453.59L169.53 456.89H173.34L171.44 453.59Z" fill="#476AE3"/>
<path d="M182.97 453.59L181.06 456.89H184.88L182.97 453.59Z" fill="#476AE3"/>
<path d="M73.7899 465.77L71.8799 469.08H75.6999L73.7899 465.77Z" fill="#476AE3"/>
<path d="M85.3299 465.77L83.4199 469.08H87.2399L85.3299 465.77Z" fill="#476AE3"/>
<path d="M97.6297 465.77L95.7197 469.08H99.5397L97.6297 465.77Z" fill="#476AE3"/>
<path d="M109.93 465.77L108.02 469.08H111.84L109.93 465.77Z" fill="#476AE3"/>
<path d="M122.23 465.77L120.32 469.08H124.14L122.23 465.77Z" fill="#476AE3"/>
<path d="M134.53 465.77L132.62 469.08H136.44L134.53 465.77Z" fill="#476AE3"/>
<path d="M146.83 465.77L144.92 469.08H148.74L146.83 465.77Z" fill="#476AE3"/>
<path d="M159.13 465.77L157.22 469.08H161.04L159.13 465.77Z" fill="#476AE3"/>
<path d="M171.44 465.77L169.53 469.08H173.34L171.44 465.77Z" fill="#476AE3"/>
<path d="M182.97 465.77L181.06 469.08H184.88L182.97 465.77Z" fill="#476AE3"/>
<path d="M73.7899 477.96L71.8799 481.27H75.6999L73.7899 477.96Z" fill="#476AE3"/>
<path d="M85.3299 477.96L83.4199 481.27H87.2399L85.3299 477.96Z" fill="#476AE3"/>
<path d="M97.6297 477.96L95.7197 481.27H99.5397L97.6297 477.96Z" fill="#476AE3"/>
<path d="M109.93 477.96L108.02 481.27H111.84L109.93 477.96Z" fill="#476AE3"/>
<path d="M122.23 477.96L120.32 481.27H124.14L122.23 477.96Z" fill="#476AE3"/>
<path d="M134.53 477.96L132.62 481.27H136.44L134.53 477.96Z" fill="#476AE3"/>
<path d="M146.83 477.96L144.92 481.27H148.74L146.83 477.96Z" fill="#476AE3"/>
<path d="M159.13 477.96L157.22 481.27H161.04L159.13 477.96Z" fill="#476AE3"/>
<path d="M171.44 477.96L169.53 481.27H173.34L171.44 477.96Z" fill="#476AE3"/>
<path d="M182.97 477.96L181.06 481.27H184.88L182.97 477.96Z" fill="#476AE3"/>
<path d="M73.7899 490.149L71.8799 493.459H75.6999L73.7899 490.149Z" fill="#476AE3"/>
<path d="M85.3299 490.149L83.4199 493.459H87.2399L85.3299 490.149Z" fill="#476AE3"/>
<path d="M97.6297 490.149L95.7197 493.459H99.5397L97.6297 490.149Z" fill="#476AE3"/>
<path d="M109.93 490.149L108.02 493.459H111.84L109.93 490.149Z" fill="#476AE3"/>
<path d="M122.23 490.149L120.32 493.459H124.14L122.23 490.149Z" fill="#476AE3"/>
<path d="M134.53 490.149L132.62 493.459H136.44L134.53 490.149Z" fill="#476AE3"/>
<path d="M146.83 490.149L144.92 493.459H148.74L146.83 490.149Z" fill="#476AE3"/>
<path d="M159.13 490.149L157.22 493.459H161.04L159.13 490.149Z" fill="#476AE3"/>
<path d="M171.44 490.149L169.53 493.459H173.34L171.44 490.149Z" fill="#476AE3"/>
<path d="M182.97 490.149L181.06 493.459H184.88L182.97 490.149Z" fill="#476AE3"/>
<path d="M73.7899 502.34L71.8799 505.64H75.6999L73.7899 502.34Z" fill="#476AE3"/>
<path d="M85.3299 502.34L83.4199 505.64H87.2399L85.3299 502.34Z" fill="#476AE3"/>
<path d="M97.6297 502.34L95.7197 505.64H99.5397L97.6297 502.34Z" fill="#476AE3"/>
<path d="M109.93 502.34L108.02 505.64H111.84L109.93 502.34Z" fill="#476AE3"/>
<path d="M122.23 502.34L120.32 505.64H124.14L122.23 502.34Z" fill="#476AE3"/>
<path d="M134.53 502.34L132.62 505.64H136.44L134.53 502.34Z" fill="#476AE3"/>
<path d="M146.83 502.34L144.92 505.64H148.74L146.83 502.34Z" fill="#476AE3"/>
<path d="M159.13 502.34L157.22 505.64H161.04L159.13 502.34Z" fill="#476AE3"/>
<path d="M171.44 502.34L169.53 505.64H173.34L171.44 502.34Z" fill="#476AE3"/>
<path d="M182.97 502.34L181.06 505.64H184.88L182.97 502.34Z" fill="#476AE3"/>
<path d="M73.7899 514.529L71.8799 517.829H75.6999L73.7899 514.529Z" fill="#476AE3"/>
<path d="M85.3299 514.529L83.4199 517.829H87.2399L85.3299 514.529Z" fill="#476AE3"/>
<path d="M97.6297 514.529L95.7197 517.829H99.5397L97.6297 514.529Z" fill="#476AE3"/>
<path d="M109.93 514.529L108.02 517.829H111.84L109.93 514.529Z" fill="#476AE3"/>
<path d="M122.23 514.529L120.32 517.829H124.14L122.23 514.529Z" fill="#476AE3"/>
<path d="M134.53 514.529L132.62 517.829H136.44L134.53 514.529Z" fill="#476AE3"/>
<path d="M146.83 514.529L144.92 517.829H148.74L146.83 514.529Z" fill="#476AE3"/>
<path d="M159.13 514.529L157.22 517.829H161.04L159.13 514.529Z" fill="#476AE3"/>
<path d="M171.44 514.529L169.53 517.829H173.34L171.44 514.529Z" fill="#476AE3"/>
<path d="M182.97 514.529L181.06 517.829H184.88L182.97 514.529Z" fill="#476AE3"/>
<path fill-rule="evenodd" clip-rule="evenodd" d="M494.873 432.065L494.88 432.069H494.87C494.871 432.068 494.872 432.066 494.873 432.065ZM493.19 430.999L494.873 432.065C495.602 430.926 496.311 429.768 496.98 428.619L495.25 427.619C494.59 428.749 493.9 429.889 493.19 430.999ZM490.83 437.869L490.823 437.864C491.632 436.796 492.431 435.697 493.2 434.589L491.55 433.459C490.81 434.539 490.03 435.659 489.24 436.659L490.823 437.864L490.82 437.869H490.83ZM486.324 443.324L486.33 443.329H486.32L486.324 443.324ZM488.95 440.259C488.101 441.287 487.213 442.316 486.324 443.324L484.83 441.999C485.71 440.999 486.58 439.999 487.4 438.999L488.95 440.259ZM481.4 448.409L481.395 448.404C482.003 447.846 482.571 447.278 483.13 446.719L483.13 446.719C483.51 446.349 483.88 445.969 484.24 445.589L482.8 444.199L481.72 445.319L480 446.999L481.395 448.404L481.39 448.409H481.4ZM476.086 453.084L476.09 453.089H476.08L476.086 453.084ZM476.086 453.084L474.83 451.539C475.83 450.709 476.83 449.849 477.83 448.979L479.16 450.469C478.162 451.357 477.124 452.246 476.086 453.084ZM470.43 457.329L470.426 457.324C471.524 456.566 472.622 455.777 473.7 454.969L472.5 453.369C471.45 454.159 470.37 454.939 469.29 455.689L470.426 457.324L470.42 457.329H470.43ZM463.43 459.379L464.43 461.109L465.18 460.669C466.09 460.129 467 459.579 467.89 459.009L466.81 457.329C465.936 457.882 465.056 458.422 464.17 458.949L463.43 459.379ZM458.16 464.399L457.3 462.589C458.49 462.029 459.68 461.429 460.84 460.819L461.78 462.579C460.59 463.209 459.37 463.819 458.16 464.399ZM450.94 465.299L451.65 467.169C452.9 466.689 454.16 466.179 455.4 465.649L454.6 463.809C454.217 463.965 453.831 464.127 453.444 464.289C452.615 464.635 451.777 464.986 450.94 465.299ZM444.93 469.409L444.38 467.489C445.63 467.129 446.9 466.729 448.15 466.299L448.79 468.199C448.007 468.464 447.214 468.706 446.418 468.949L446.418 468.949L446.418 468.949L446.418 468.949L446.417 468.949L446.417 468.949L446.417 468.949L446.417 468.949L446.417 468.949L446.417 468.949C445.921 469.1 445.425 469.252 444.93 469.409ZM396.64 469.689C397.73 469.989 398.82 470.269 399.93 470.529L400.39 468.589C399.31 468.329 398.24 468.059 397.17 467.759L396.64 469.689ZM438.06 471.099L437.66 469.099C438.95 468.839 440.25 468.539 441.52 468.219L442 470.159C440.71 470.529 439.38 470.829 438.06 471.099ZM402.88 471.179C404.21 471.439 405.55 471.679 406.88 471.879L407.16 469.859C405.86 469.659 404.55 469.429 403.27 469.179L402.88 471.179ZM431.08 472.239L430.83 470.239C432.14 470.079 433.45 469.889 434.75 469.669L435.08 471.669C433.76 471.879 432.41 472.069 431.08 472.239ZM409.92 472.279C411.22 472.439 412.57 472.569 413.92 472.659L414.09 470.649C412.78 470.549 411.45 470.429 410.15 470.279L409.92 472.279ZM424.02 472.809L424.02 472.808C425.383 472.748 426.726 472.669 428.06 472.559L427.88 470.559C426.58 470.669 425.25 470.759 423.94 470.809L424.02 472.808L424 472.809H424.02ZM420.29 472.889C419.17 472.889 418.06 472.889 416.94 472.819L417.02 470.819C418.113 470.859 419.203 470.879 420.29 470.879H421V472.879L420.29 472.889Z" fill="#0E2946"/>
<path d="M396.64 469.689C374.285 463.446 355.261 448.701 343.64 428.609L345.37 427.609C352.844 440.572 363.539 451.384 376.42 458.999C382.92 462.834 389.896 465.796 397.17 467.809L396.64 469.689Z" fill="#0E2946"/>
<path d="M410.99 307.499L409.58 306.079L418.88 296.789L409.58 287.489L410.99 286.069L421.71 296.789L410.99 307.499Z" fill="#0E2946"/>
<path d="M340.57 441.749L338.69 441.069L343.88 426.829L358.11 432.009L357.43 433.889L345.07 429.389L340.57 441.749Z" fill="#0E2946"/>
<path d="M495.3 429.27L492.67 414.35L494.64 414L496.92 426.95L509.87 424.67L510.22 426.64L495.3 429.27Z" fill="#0E2946"/>
<path fill-rule="evenodd" clip-rule="evenodd" d="M355.86 323.579L357.31 324.949L357.28 324.999C357.955 324.211 358.718 323.468 359.479 322.726C359.529 322.677 359.58 322.628 359.63 322.579L358.23 321.149C357.43 321.949 356.63 322.749 355.86 323.579ZM352.78 330.179L352.771 330.173C353.585 329.152 354.437 328.141 355.29 327.219L353.79 325.899C352.9 326.899 352.03 327.939 351.19 328.999L352.771 330.173L352.75 330.199L352.78 330.179ZM348.668 335.742L348.68 335.749L348.65 335.769L348.668 335.742ZM350.95 332.539C350.157 333.59 349.393 334.671 348.668 335.742L347 334.649C347.75 333.539 348.54 332.429 349.34 331.349L350.95 332.539ZM345.03 341.629L343.29 340.629L343.63 340.029C344.2 339.029 344.77 338.099 345.36 337.159L347.06 338.219C346.48 339.139 345.92 340.079 345.37 341.029L345.03 341.629ZM341.842 347.772L341.86 347.779L341.83 347.799L341.842 347.772ZM343.209 344.991C342.753 345.889 342.276 346.827 341.842 347.772L340 346.999C340.56 345.779 341.17 344.559 341.79 343.379L343.56 344.299C343.445 344.527 343.328 344.758 343.209 344.991L343.209 344.991ZM339.18 354.159L339.16 354.152C339.215 354.011 339.271 353.868 339.327 353.723C339.736 352.672 340.17 351.554 340.65 350.489L338.81 349.699C338.676 350.03 338.541 350.363 338.405 350.696L338.405 350.696C338.031 351.612 337.654 352.536 337.31 353.459L339.16 354.152L339.15 354.179L339.18 354.159ZM337.007 360.723L337.03 360.729L337 360.749L337.007 360.723ZM338.19 356.949C337.753 358.21 337.355 359.481 337.007 360.723L335.1 360.179C335.47 358.899 335.87 357.599 336.3 356.319L338.19 356.949ZM335.41 367.449L335.385 367.445C335.643 366.163 335.922 364.871 336.23 363.599L334.29 363.119C333.97 364.409 333.67 365.739 333.41 367.069L335.385 367.445L335.38 367.469L335.41 367.449ZM334.312 374.286L334.34 374.289L334.31 374.309L334.312 374.286ZM334.9 370.379C334.641 371.682 334.462 372.984 334.312 374.286L332.34 374.059C332.5 372.729 332.68 371.379 332.9 370.059L334.9 370.379ZM333.82 381.189L333.79 381.188C333.831 379.885 333.91 378.563 334.05 377.279L332.05 377.119C332.033 377.333 332.016 377.548 331.999 377.764C331.911 378.865 331.82 379.999 331.82 381.119L333.79 381.188L333.79 381.209L333.82 381.189ZM331.78 386.525C331.8 387.095 331.82 387.658 331.82 388.189L333.82 388.099C333.74 387.069 333.74 385.999 333.74 384.999V384.149L331.74 384.209V385.019C331.744 385.516 331.762 386.023 331.78 386.525ZM332.42 395.249C332.26 393.919 332.12 392.559 332.01 391.249L334.01 391.089C334.11 392.399 334.25 393.729 334.41 395.029L332.42 395.249ZM332.85 398.249C333.06 399.589 333.31 400.929 333.58 402.249L335.56 401.819C335.3 400.529 335.06 399.219 334.85 397.929L332.85 398.249ZM335.108 408.479L335.108 408.479C335.025 408.188 334.941 407.895 334.86 407.589C334.65 406.799 334.44 405.999 334.25 405.209L336.19 404.739C336.38 405.509 336.58 406.289 336.79 407.059L337.21 408.559L335.29 409.119C335.231 408.904 335.17 408.692 335.108 408.479ZM336.19 412.009C336.61 413.289 337.07 414.569 337.54 415.829L339.41 415.119C338.95 413.889 338.5 412.639 338.09 411.389L336.19 412.009ZM340.32 422.339C339.75 421.129 339.19 419.879 338.67 418.639L340.51 417.869C341.02 419.079 341.57 420.299 342.13 421.479L340.32 422.339ZM343.61 428.609C342.93 427.429 342.28 426.239 341.67 425.059L343.44 424.139C344.04 425.289 344.68 426.459 345.34 427.609L343.61 428.609Z" fill="#0E2946"/>
<path fill-rule="evenodd" clip-rule="evenodd" d="M420.33 297.79C421.65 297.79 422.98 297.82 424.28 297.88L424.33 295.88C423.04 295.79 421.68 295.79 420.33 295.79V297.79ZM431.18 298.48C429.88 298.31 428.55 298.17 427.24 298.07L427.41 296.07C428.75 296.18 430.1 296.32 431.41 296.49L431.18 298.48ZM434.11 298.9C435.41 299.11 436.71 299.35 438 299.62L438.43 297.64C437.09 297.37 435.76 297.12 434.43 296.9L434.11 298.9ZM444.66 301.29L444.66 301.29C443.89 301.07 443.12 300.85 442.35 300.65C441.986 300.548 441.623 300.457 441.255 300.365L441.255 300.365L441.255 300.365L441.253 300.364C441.116 300.33 440.978 300.295 440.84 300.26L441.32 298.32L442.86 298.71C443.653 298.917 444.443 299.137 445.23 299.37L444.66 301.29ZM447.49 302.17C448.73 302.58 449.99 303.03 451.22 303.5L451.93 301.63C450.67 301.15 449.39 300.69 448.12 300.27L447.49 302.17ZM457.58 306.22C456.39 305.66 455.18 305.11 453.97 304.6L454.75 302.76C455.99 303.28 457.23 303.84 458.44 304.42L457.58 306.22ZM463 309L463.7 309.44L464.74 307.69L463.99 307.26C463.06 306.75 462.13 306.24 461.2 305.75L460.27 307.52C461.19 308 462.1 308.49 463 309ZM469.54 313.14C468.47 312.4 467.35 311.67 466.24 310.97L467.3 309.28C468.44 309.99 469.58 310.74 470.68 311.5L469.54 313.14ZM471.95 314.87C473.01 315.65 474.07 316.47 475.07 317.3L476.34 315.75C475.3 314.9 474.22 314.07 473.15 313.27L471.95 314.87ZM480.25 321.89C479.3 320.98 478.32 320.08 477.34 319.22L478.66 317.71C479.66 318.59 480.66 319.51 481.66 320.45L480.25 321.89ZM482.35 323.99C483.27 324.94 484.18 325.89 485.04 326.89L486.54 325.6C485.66 324.6 484.73 323.6 483.79 322.6L482.35 323.99ZM489.42 332.25C488.62 331.19 487.8 330.15 486.97 329.14L488.51 327.87C489.36 328.87 490.2 329.97 491.01 331.05L489.42 332.25ZM491.16 334.65C491.91 335.72 492.64 336.83 493.35 337.94L495.04 336.87C494.32 335.73 493.56 334.6 492.79 333.5L491.16 334.65ZM496.82 343.94C496.31 342.94 495.82 342.03 495.24 341.08L494.89 340.49L496.62 339.49L496.97 340.09C497.071 340.27 497.171 340.448 497.27 340.625L497.27 340.626C497.724 341.433 498.164 342.216 498.59 343.02L496.82 343.94ZM498.17 346.59C498.75 347.78 499.3 348.99 499.82 350.18L501.66 349.39C501.13 348.17 500.56 346.93 499.97 345.71L498.17 346.59ZM502.3 356.64C501.88 355.41 501.43 354.16 500.95 352.93L502.81 352.2L502.955 352.571C503.399 353.711 503.848 354.864 504.2 356L502.3 356.64ZM504.1 362.64C503.82 361.57 503.52 360.51 503.2 359.45L505.12 358.87C505.45 359.96 505.75 361.05 506.04 362.14L504.1 362.64Z" fill="#0E2946"/>
<path d="M497 428.609L495.27 427.609C506.628 407.941 509.806 384.598 504.12 362.609L506.06 362.109C511.848 384.608 508.596 408.479 497 428.609Z" fill="#0E2946"/>
<path d="M222.56 216.159L220.83 215.159C240.996 180.192 282.262 163.296 321.16 174.079L320.63 176.009C305.496 171.859 289.524 171.859 274.39 176.009C252.531 182.107 233.928 196.518 222.56 216.159Z" fill="#0E2946"/>
<path fill-rule="evenodd" clip-rule="evenodd" d="M320.71 175.999C321.97 176.349 323.25 176.739 324.49 177.139L325.12 175.239C323.84 174.829 322.54 174.429 321.24 174.069L320.71 175.999ZM330.98 179.559C329.76 179.049 328.53 178.559 327.3 178.109L327.98 176.239C329.24 176.699 330.51 177.189 331.75 177.709L330.98 179.559ZM333.69 180.749C334.88 181.299 336.08 181.879 337.25 182.479L338.16 180.709C336.97 180.089 335.75 179.489 334.53 178.929L333.69 180.749ZM343.25 185.899C342.66 185.529 342.06 185.169 341.45 184.809C340.84 184.449 340.39 184.189 339.85 183.889L340.85 182.139L342.49 183.089L344.33 184.199L343.25 185.899ZM346.094 187.749C347.074 188.413 348.078 189.093 348.97 189.789L350.16 188.179C349.08 187.389 347.97 186.599 346.85 185.849L345.74 187.509L346.094 187.749ZM354.36 194.119C353.36 193.259 352.36 192.409 351.36 191.599L352.5 189.999C353.55 190.829 354.6 191.699 355.61 192.589L354.36 194.119ZM358.97 198.479L359.36 198.869L360.79 197.469L360.39 197.069C359.58 196.249 358.74 195.439 357.89 194.649L356.53 196.109C357.36 196.879 358.18 197.679 358.97 198.479ZM364 203.999C363.16 202.999 362.29 201.999 361.4 200.999L362.87 199.649C363.78 200.649 364.68 201.649 365.54 202.649L364 203.999ZM365.87 206.319C366.68 207.359 367.47 208.419 368.23 209.499L369.86 208.339C369.08 207.239 368.27 206.149 367.45 205.089L365.87 206.319ZM369.9 211.939C370.62 213.039 371.33 214.169 372 215.299L373.71 214.279C373.03 213.119 372.31 211.969 371.57 210.849L369.9 211.939Z" fill="#0E2946"/>
<path d="M288.21 357.699L286.8 356.289L296.1 346.989L286.8 337.689L288.21 336.279L298.93 346.989L288.21 357.699Z" fill="#0E2946"/>
<path d="M369.43 229.3L367.55 228.62L372.73 214.38L386.97 219.56L386.29 221.44L373.93 216.94L369.43 229.3Z" fill="#0E2946"/>
<path d="M220.88 216.82L218.25 201.9L220.22 201.55L222.5 214.5L235.45 212.22L235.8 214.19L220.88 216.82Z" fill="#0E2946"/>
<path d="M359.6 322.6L358.2 321.17C386.307 293.5 392.169 250.334 372.46 216.17L374.2 215.17C381.831 228.429 385.916 243.432 386.06 258.73C386.134 266.454 385.189 274.153 383.25 281.63C379.218 297.183 371.045 311.353 359.6 322.63V322.6Z" fill="#0E2946"/>
<path d="M297.51 347.999C282.209 347.983 267.171 344.018 253.85 336.489C247.124 332.692 240.928 328.025 235.42 322.609C223.975 311.332 215.802 297.163 211.77 281.609L213.7 281.109C223.604 319.298 258.058 345.974 297.51 345.999V347.999Z" fill="#0E2946"/>
<path fill-rule="evenodd" clip-rule="evenodd" d="M218.42 219.649L220.21 220.549V220.529C220.79 219.359 221.42 218.189 222.06 217.079L220.32 216.079C219.66 217.249 219.02 218.459 218.42 219.649ZM217.35 226.849L215.5 226.099C216 224.849 216.5 223.599 217.1 222.389L218.92 223.219C218.37 224.389 217.85 225.609 217.35 226.829V226.849ZM213.1 232.759L215 233.359V233.339C215.4 232.079 215.83 230.819 216.28 229.619L214.4 228.929C213.94 230.179 213.5 231.469 213.1 232.759ZM213.18 240.029L211.18 239.579C211.44 238.459 211.73 237.329 212.03 236.209L212.18 235.659L214.11 236.209L213.96 236.729C213.835 237.269 213.702 237.817 213.57 238.364C213.437 238.912 213.305 239.459 213.18 239.999V240.029ZM209.89 246.539L211.89 246.829V246.809C212.09 245.509 212.31 244.199 212.57 242.929L210.57 242.539C210.31 243.869 210.08 245.209 209.89 246.539ZM211.15 253.709L209.15 253.579C209.24 252.229 209.36 250.869 209.51 249.579L211.51 249.799C211.36 251.049 211.24 252.369 211.15 253.689V253.709ZM208.96 259.559V260.649L210.96 260.629V259.559V258.769V256.669L208.96 256.609V258.749V259.559ZM209.33 267.719C209.21 266.369 209.11 265.019 209.05 263.719L211.05 263.629C211.11 264.929 211.2 266.259 211.32 267.579L209.33 267.719ZM209.66 270.719C209.83 272.049 210.04 273.389 210.27 274.719L212.25 274.369C212.02 273.079 211.82 271.759 211.66 270.459L209.66 270.719ZM210.84 277.699C211.12 279.009 211.43 280.329 211.77 281.629L213.74 281.129C213.41 279.859 213.11 278.569 212.84 277.279L210.84 277.699Z" fill="#0E2946"/>
<path d="M298.23 267.47L287.53 256.76L288.94 255.35L298.23 264.64L307.53 255.35L308.94 256.76L298.23 267.47Z" fill="#EF4C59"/>
<path d="M339.23 295.05H337.23C337.23 273.511 319.769 256.05 298.23 256.05C276.691 256.05 259.23 273.511 259.23 295.05H257.23C257.23 272.406 275.586 254.05 298.23 254.05C320.874 254.05 339.23 272.406 339.23 295.05Z" fill="#EF4C59"/>
<path fill-rule="evenodd" clip-rule="evenodd" d="M283.9 241.72C283.911 249.629 290.32 256.039 298.23 256.05C306.144 256.044 312.559 249.633 312.57 241.72V228.39C312.708 223.178 310.006 218.302 305.514 215.656C301.022 213.009 295.448 213.009 290.956 215.656C286.464 218.302 283.762 223.178 283.9 228.39V241.72ZM285.9 228.39C285.906 221.581 291.421 216.061 298.23 216.05C305.043 216.055 310.565 221.577 310.57 228.39V241.72C310.38 248.395 304.913 253.708 298.235 253.708C291.557 253.708 286.09 248.395 285.9 241.72V228.39Z" fill="#0E2946"/>
<path d="M298.4 247.129C295.882 247.133 293.468 246.132 291.69 244.349L293.11 242.939C294.513 244.343 296.416 245.131 298.4 245.131C300.384 245.131 302.287 244.343 303.69 242.939L305.11 244.349C303.335 246.136 300.918 247.137 298.4 247.129Z" fill="#0E2946"/>
<path d="M420.23 388.949L413.53 382.239L414.94 380.829L420.23 386.119L425.53 380.829L426.94 382.239L420.23 388.949Z" fill="#476AE3"/>
<path fill-rule="evenodd" clip-rule="evenodd" d="M414.23 416.98L420.23 421.81L426.27 417L424.3 390.09L420.3 386.09L416.3 390.09L414.23 416.98ZM420.23 419.25L416.23 416.08L418.27 391L420.27 389L422.27 391L424.23 416.08L420.23 419.25Z" fill="#476AE3"/>
<path d="M461.23 421.55H459.23C459.23 400.011 441.769 382.55 420.23 382.55C398.691 382.55 381.23 400.011 381.23 421.55H379.23C379.23 398.906 397.586 380.55 420.23 380.55C442.874 380.55 461.23 398.906 461.23 421.55Z" fill="#476AE3"/>
<path fill-rule="evenodd" clip-rule="evenodd" d="M405.9 368.22C405.911 376.129 412.32 382.539 420.23 382.55C428.144 382.544 434.559 376.133 434.57 368.22V354.89C434.708 349.678 432.006 344.802 427.514 342.156C423.022 339.509 417.448 339.509 412.956 342.156C408.464 344.802 405.762 349.678 405.9 354.89V368.22ZM407.9 354.89C407.906 348.081 413.421 342.561 420.23 342.55C427.043 342.555 432.565 348.077 432.57 354.89V368.22C432.38 374.895 426.913 380.208 420.235 380.208C413.557 380.208 408.09 374.895 407.9 368.22V354.89Z" fill="#0E2946"/>
<path d="M420.4 373.129C417.882 373.133 415.468 372.132 413.69 370.349L415.11 368.939C416.513 370.343 418.416 371.131 420.4 371.131C422.384 371.131 424.287 370.343 425.69 368.939L427.11 370.349C425.335 372.136 422.918 373.137 420.4 373.129Z" fill="#0E2946"/>
<circle cx="420.4" cy="468.39" r="30" fill="#EF4C59"/>
<path d="M420.06 476.789L411.11 467.839L412.52 466.429L420.06 473.959L434.12 459.899L435.53 461.319L420.06 476.789Z" fill="white"/>
<path d="M268.565 171.612L298.567 141.61L328.57 171.612L298.567 201.615L268.565 171.612Z" fill="#476AE3"/>
<path d="M294.066 180.98L301.206 161.935L303.078 162.637L295.939 181.683L294.066 180.98Z" fill="white"/>
<path d="M290.72 178.469L284.06 171.809L290.72 165.149L292.13 166.559L286.89 171.809L292.13 177.049L290.72 178.469Z" fill="white"/>
<path d="M306.42 178.469L305 177.049L310.25 171.809L305 166.559L306.42 165.149L313.08 171.809L306.42 178.469Z" fill="white"/>
<path fill-rule="evenodd" clip-rule="evenodd" d="M515.12 195.129L547.12 213.609L579.12 195.129L547.12 176.659L515.12 195.129ZM547.12 211.299L519.12 195.129L547.12 178.959L575.12 195.129L547.12 211.299Z" fill="#FFC31D"/>
<path d="M547.12 222C535.35 222 526.12 217.17 526.12 211H528.12C528.12 215.88 536.83 220 547.12 220C557.41 220 566.12 215.88 566.12 211H568.12C568.12 217.16 558.9 222 547.12 222Z" fill="#FFC31D"/>
<rect x="566.13" y="200.989" width="2" height="10" fill="#FFC31D"/>
<rect x="526.13" y="200.989" width="2" height="10" fill="#FFC31D"/>
<path fill-rule="evenodd" clip-rule="evenodd" d="M514.12 218.13C514.12 216.473 515.463 215.13 517.12 215.13C518.777 215.13 520.12 216.473 520.12 218.13C520.12 219.787 518.777 221.13 517.12 221.13C515.463 221.13 514.12 219.787 514.12 218.13ZM518.12 218.13C518.12 217.578 517.672 217.13 517.12 217.13C516.568 217.13 516.12 217.578 516.12 218.13C516.12 218.682 516.568 219.13 517.12 219.13C517.672 219.13 518.12 218.682 518.12 218.13Z" fill="#FFC31D"/>
<rect x="516.13" y="195.13" width="2" height="21" fill="#FFC31D"/>
</svg>
