<svg width="540" height="240" viewBox="0 0 540 240" fill="none" xmlns="http://www.w3.org/2000/svg">
<rect width="540" height="240" fill="#0E2946"/>
<path fill-rule="evenodd" clip-rule="evenodd" d="M4.08982 16.75L6.08982 16.95V16.92C6.21982 15.61 6.37982 14.29 6.56982 13.03L4.56982 12.75C4.38982 14.06 4.21982 15.41 4.08982 16.75ZM5.58982 24.86H3.58982C3.58982 23.52 3.67982 22.16 3.76982 20.86L5.76982 20.99C5.67982 22.18 5.61982 23.51 5.58982 24.83V24.86ZM3.56982 28.86C3.57982 30.16 3.61982 31.52 3.68982 32.86H5.69982C5.62982 31.5 5.56982 30.17 5.56982 28.86H3.56982ZM4.38982 40.86C4.22982 39.53 4.07982 38.18 3.96982 36.86L5.96982 36.68C6.07982 37.99 6.21982 39.32 6.38982 40.63L4.38982 40.86ZM4.95982 44.86C5.16982 46.21 5.40982 47.55 5.66982 48.86L7.65982 48.44C7.40982 47.15 7.16982 45.84 6.95982 44.54L4.95982 44.86ZM7.51982 56.72C7.16982 55.43 6.82982 54.11 6.51982 52.81L8.45982 52.35C8.76982 53.63 9.08982 54.92 9.45982 56.19L7.51982 56.72ZM221.93 55.47L222.15 57.47V57.44C223.45 57.3 224.76 57.22 226.02 57.22V55.22C224.67 55.24 223.3 55.32 221.93 55.47ZM233.79 57.93C232.517 57.6803 231.232 57.4967 229.94 57.38L230.11 55.38C231.476 55.5018 232.834 55.6954 234.18 55.96L233.79 57.93ZM213.93 57.08L214.49 59C215.74 58.61 217 58.29 218.33 58.08L217.93 56.08C216.57 56.37 215.24 56.7 213.93 57.08ZM241.16 60.27C239.981 59.7361 238.773 59.272 237.54 58.88L238.14 56.97C239.453 57.3862 240.742 57.877 242 58.44L241.16 60.27ZM206.31 59.93L207.16 61.74C208.34 61.19 209.56 60.67 210.77 60.21L210.06 58.34C208.81 58.82 207.54 59.35 206.31 59.93ZM8.65982 60.59C9.05982 61.87 9.47982 63.16 9.92982 64.42L11.8098 63.76C11.3798 62.52 10.9598 61.25 10.5598 60L8.65982 60.59ZM200.3 65.57L199.2 63.89C200.34 63.15 201.51 62.44 202.69 61.79L203.69 63.53C202.53 64.17 201.4 64.85 200.3 65.57ZM250.76 66.79C251.694 67.6905 252.582 68.6385 253.42 69.63L254.95 68.35C254.068 67.3 253.13 66.2986 252.14 65.35L250.76 66.79ZM194 70.28L192.7 68.76C193.7 67.88 194.8 67.02 195.87 66.22L197.07 67.82C196 68.6 195 69.43 194 70.28ZM11.3398 68.21C11.8298 69.46 12.3498 70.71 12.8898 71.93L14.7198 71.13C14.1998 69.93 13.6798 68.7 13.1998 67.47L11.3398 68.21ZM188.31 75.74L186.84 74.38C187.76 73.38 188.72 72.38 189.68 71.48L191.07 72.92C190.14 73.82 189.21 74.77 188.32 75.74H188.31ZM255.77 72.73C256.49 73.78 257.19 74.9 257.83 76.05L259.58 75.07C258.9 73.87 258.17 72.7 257.41 71.6L255.77 72.73ZM16.3998 79.2C15.7698 78.03 15.1498 76.81 14.5698 75.6L16.3698 74.73C16.9398 75.92 17.5498 77.11 18.1598 78.26L16.3998 79.2ZM94.3998 81.25C93.6894 80.25 92.8215 79.372 91.8298 78.65L92.9998 77C94.1574 77.829 95.1709 78.8425 95.9998 80L94.3998 81.25ZM181.7 80.66L183.31 81.84V81.82C184.09 80.76 184.9 79.71 185.73 78.73L184.19 77.46C183.33 78.49 182.5 79.57 181.7 80.66ZM261.13 83.18C260.704 82.0243 260.211 80.9028 259.736 79.8234L259.62 79.56L261.44 78.72C262 79.92 262.52 81.19 263 82.47L261.13 83.18ZM18.3798 82.73C19.0598 83.9 19.7698 85.06 20.4898 86.18L22.1698 85.11C21.4698 84.01 20.7698 82.87 20.0998 81.73L18.3798 82.73ZM65.2398 86.67L63.5698 85.57C64.3346 84.4104 65.1907 83.3136 66.1298 82.29L67.5998 83.65C66.7328 84.5912 65.9436 85.6012 65.2398 86.67ZM96.1198 84.54C96.5273 85.7064 96.7631 86.9258 96.8198 88.16L98.8198 88.08C98.7589 86.6468 98.4824 85.2309 97.9998 83.88L96.1198 84.54ZM179 88.42L177.27 87.42C177.95 86.25 178.67 85.09 179.4 83.97L181.07 85.06C180.35 86.15 179.65 87.29 179 88.42ZM262.41 86.88C262.76 88.11 263.1 89.39 263.41 90.69L265.37 90.22C265.06 88.89 264.7 87.57 264.32 86.31L262.41 86.88ZM25.1598 92.79C24.3398 91.74 23.5298 90.64 22.7498 89.53L24.3798 88.38C25.1498 89.46 25.9398 90.53 26.7298 91.56L25.1598 92.79ZM59.9998 93L61.8898 93.63C62.3069 92.4095 62.7944 91.2141 63.3498 90.05L61.5398 89.19C60.9545 90.4297 60.4403 91.7018 59.9998 93ZM175.28 95.43L173.49 94.55C174.07 93.35 174.68 92.15 175.31 90.96L177.08 91.89C176.46 93.07 175.86 94.25 175.28 95.43ZM94.6498 95L96.2798 96.18L96.6798 95.59C97.3809 94.6027 97.9178 93.5086 98.2698 92.35L96.3598 91.77C96.0642 92.7225 95.6223 93.6233 95.0498 94.44L94.6498 95ZM264.81 98.44L264.797 98.3414V98.3411C264.731 97.8329 264.664 97.3165 264.58 96.8C264.47 96.04 264.34 95.29 264.21 94.55L266.21 94.19C266.34 94.95 266.47 95.72 266.59 96.5C266.675 97.0366 266.742 97.5731 266.807 98.1013V98.1017L266.808 98.1022L266.808 98.1029L266.808 98.1035L266.82 98.2L264.81 98.44ZM27.7198 95.93C28.5998 96.93 29.5098 97.93 30.4298 98.93L31.8798 97.56C30.9898 96.63 30.0898 95.63 29.2298 94.63L27.7198 95.93ZM60.1298 101.22L58.1298 100.96C58.3198 99.58 58.5598 98.23 58.8598 96.96L60.8598 97.41C60.5598 98.61 60.3198 99.91 60.1398 101.22H60.1298ZM89.6598 101.11L91.1298 102.47H91.1498C92.0498 101.5 92.9998 100.47 93.7998 99.37L92.2398 98.11C91.3998 99.17 90.5398 100.17 89.6598 101.11ZM172 102.66L170.15 101.9C170.214 101.743 170.278 101.587 170.342 101.431L170.342 101.43C170.785 100.349 171.226 99.2745 171.75 98.2L173.57 99.02C173.182 99.8437 172.835 100.672 172.49 101.499C172.328 101.886 172.166 102.274 172 102.66ZM33.3498 101.79C34.3498 102.73 35.3498 103.63 36.3498 104.48L37.7198 102.94C36.7198 102.12 35.7198 101.24 34.7198 100.33L33.3498 101.79ZM267.28 106.32H265.28V106C265.28 104.79 265.28 103.56 265.17 102.34L267.17 102.22C267.24 103.48 267.28 104.75 267.28 106V106.32ZM83.9198 106.41L85.1398 108C86.1898 107.17 87.2398 106.28 88.2798 105.36L86.9198 103.89C85.9198 104.79 84.9198 105.64 83.9198 106.41ZM57.7498 109.08V108.16C57.7498 107.16 57.7498 106.05 57.8398 105.01L59.8398 105.13C59.7798 106.13 59.7498 107.13 59.7498 108.13V109.02L57.7498 109.08ZM39.6198 106.97C40.7298 107.77 41.8698 108.53 42.9998 109.23L44.0498 107.53C42.9598 106.86 41.8598 106.12 40.7898 105.35L39.6198 106.97ZM169.27 110.09L169.234 110.078C169.653 108.842 170.101 107.586 170.6 106.35L168.73 105.65C168.26 106.91 167.8 108.19 167.38 109.45L169.234 110.078L169.23 110.09H169.27ZM78.253 112.265L78.2698 112.3H78.1798L78.253 112.265ZM78.253 112.265L77.3998 110.5C78.5708 109.938 79.7093 109.31 80.8098 108.62L81.8098 110.32C80.6604 111.033 79.473 111.682 78.253 112.265ZM50.2698 112.91C49.0298 112.42 47.7798 111.85 46.5498 111.23L47.4498 109.44C48.6298 110.04 49.8298 110.58 51.0098 111.05L50.2698 112.91ZM266.701 114.405L266.74 114.41H266.7L266.701 114.405ZM267.006 111.74C266.916 112.629 266.826 113.521 266.701 114.405L264.74 114.13C264.92 112.84 265.06 111.53 265.15 110.22L267.15 110.37C267.099 110.822 267.053 111.277 267.007 111.732L267.007 111.737L267.006 111.74ZM70.4398 114.96L69.9998 113C71.2661 112.745 72.5152 112.411 73.7398 112L74.3798 113.9C73.0761 114.345 71.7471 114.712 70.3998 115L70.4398 114.96ZM58.3798 117.18C58.2898 116.5 58.1998 115.82 58.1298 115.18C56.7813 114.952 55.446 114.652 54.1298 114.28L54.6698 112.35C55.8217 112.68 56.9899 112.951 58.1698 113.16L59.9098 113.02C60.0098 114.31 60.1598 115.63 60.3498 116.94L58.3798 117.18ZM165.06 117.18L167 117.68C167.29 116.41 167.65 115.13 168.07 113.87L166.15 113.29C165.77 114.58 165.4 115.89 165.06 117.18ZM264.98 122.41L263.05 121.87C263.4 120.62 263.72 119.33 263.98 118.06L265.98 118.47C265.74 119.72 265.41 121.05 265.05 122.35L264.98 122.41ZM58.9598 121.24C59.2198 122.55 59.5198 123.88 59.8598 125.19L61.8398 124.69C61.5098 123.42 61.2098 122.12 60.9598 120.85L58.9598 121.24ZM165.17 125.48L163.17 125.12C163.41 123.81 163.68 122.48 163.97 121.12L165.92 121.56C165.775 122.581 165.579 123.621 165.383 124.66L165.382 124.661L165.382 124.662C165.335 124.915 165.287 125.168 165.24 125.42L165.17 125.48ZM260.46 129.28L262.3 130.06L262.37 130C262.9 128.75 263.39 127.48 263.76 126.28L261.88 125.61C261.46 126.84 260.97 128.07 260.46 129.28ZM62.2998 132.92C61.8398 131.66 61.3998 130.37 60.9998 129.09L62.9098 128.49C63.2998 129.74 63.7298 131 64.1798 132.23L62.2998 132.92ZM162.09 133.12L164.09 133.32L164.12 133.26C164.25 132 164.42 130.64 164.58 129.4L162.58 129.12C162.39 130.44 162.23 131.79 162.09 133.12ZM258.72 137.32L256.99 136.32C257.64 135.17 258.27 134 258.85 132.84L260.64 133.73C260.07 134.89 259.43 136.09 258.75 137.27L258.72 137.32ZM63.7898 136.63C64.3098 137.86 64.8698 139.1 65.4498 140.32L67.2598 139.45C66.6898 138.27 66.1398 137.06 65.6298 135.85L63.7898 136.63ZM163.6 141.17H161.6C161.6 139.83 161.68 138.47 161.77 137.17L163.77 137.29C163.71 138.53 163.66 139.86 163.63 141.17H163.6ZM252.69 142.89L254.31 144.06H254.34C255.14 143 255.91 141.85 256.61 140.73L254.93 139.64C254.22 140.73 253.47 141.82 252.69 142.89ZM69.3098 147.44C68.6298 146.29 67.9498 145.11 67.3098 143.92L69.0698 142.98C69.6898 144.13 70.3498 145.29 71.0698 146.42L69.3098 147.44ZM161.63 145.21C161.66 146.51 161.73 147.87 161.81 149.21L163.81 149.16C163.72 147.86 163.63 146.53 163.63 145.21H161.63ZM249.25 150.36L247.76 149C248.64 148 249.5 147 250.32 146L251.87 147.26L251.725 147.434L251.723 147.437C250.904 148.426 250.099 149.397 249.25 150.36ZM71.4698 150.86C72.2098 151.99 72.9898 153.1 73.7798 154.19L75.3998 153.01C74.6198 151.95 73.8598 150.86 73.1398 149.76L71.4698 150.86ZM243.6 156.14L242.23 154.68C243.23 153.77 244.15 152.84 245.06 151.91L246.49 153.31C245.56 154.26 244.59 155.21 243.6 156.14ZM162.17 153.24C162.32 154.57 162.51 155.92 162.72 157.24L164.7 156.94C164.5 155.65 164.32 154.33 164.17 153.02L162.17 153.24ZM78.8398 160.5C77.9498 159.5 77.0798 158.45 76.2398 157.4L77.7998 156.15C78.6198 157.15 79.4798 158.15 80.3398 159.15L78.8398 160.5ZM236.24 159.86L237.49 161.42C238.54 160.58 239.59 159.71 240.55 158.84L239.24 157.33C238.515 157.985 237.72 158.64 236.935 159.286L236.926 159.293C236.696 159.483 236.466 159.672 236.24 159.86ZM164.37 165.16C164.03 163.87 163.72 162.54 163.45 161.22L165.45 160.81C165.72 162.1 166.02 163.39 166.35 164.66L164.37 165.16ZM414.22 164.08L415.64 165.49C416.59 164.54 417.53 163.58 418.45 162.61L417 161.23C416.09 162.19 415.16 163.14 414.22 164.08ZM81.8273 163.743L81.8276 163.743L81.8277 163.744L81.8278 163.744C82.6807 164.616 83.5314 165.485 84.4398 166.33L85.7998 164.88C84.8498 163.98 83.9098 163.04 82.9998 162.09L81.5698 163.48L81.8273 163.743ZM224.2 170.52L223.2 168.79C224.34 168.12 225.47 167.43 226.58 166.72L227.65 168.41C226.5 169.17 225.36 169.87 224.2 170.56V170.52ZM408.46 169.52L409.8 171C410.8 170.14 411.79 169.23 412.75 168.26L411.38 166.81C410.46 167.72 409.46 168.63 408.46 169.52ZM90.5398 171.68C89.4898 170.85 88.4398 169.98 87.4298 169.1L88.7398 167.59C89.7398 168.45 90.7398 169.3 91.7898 170.12L90.5398 171.68ZM165.49 169.1C165.89 170.39 166.33 171.68 166.8 172.94L168.67 172.25C168.22 171.02 167.79 169.76 167.39 168.51L165.49 169.1ZM217.13 174.49L216.22 172.71C217.41 172.11 218.57 171.49 219.73 170.85L220.73 172.61C219.928 173.001 219.134 173.41 218.341 173.819L218.339 173.82L218.337 173.821L218.336 173.821L218.334 173.822L218.333 173.823L218.331 173.824L218.329 173.825L218.328 173.826C217.929 174.031 217.53 174.237 217.13 174.44V174.49ZM402.44 174.8L403.71 176.35V176.3C404.75 175.44 405.78 174.58 406.75 173.75L405.44 172.24C404.44 173.1 403.44 173.96 402.44 174.8ZM97.1198 176.35C95.9798 175.62 94.8498 174.86 93.7698 174.08L94.9298 172.45C95.9898 173.21 97.0898 173.96 98.1998 174.66L97.1198 176.35ZM209.05 176.07L209.85 177.9L209.851 177.899C211.081 177.35 212.31 176.8 213.52 176.22L212.66 174.42C211.47 174.98 210.26 175.53 209.05 176.07ZM168.3 176.66C168.83 177.9 169.4 179.14 170 180.34L171.79 179.46C171.21 178.29 170.66 177.08 170.14 175.87L168.3 176.66ZM396.21 179.71L397.41 181.31L397.39 181.27L397.581 181.125L398.032 180.783C398.888 180.134 399.744 179.484 400.6 178.86L399.36 177.29C398.32 178.1 397.27 178.91 396.21 179.71ZM107.86 182.05C109.08 182.59 110.34 183.11 111.6 183.59L112.32 181.72C112.193 181.668 112.065 181.617 111.938 181.565C111.724 181.479 111.51 181.393 111.296 181.307C110.409 180.95 109.527 180.596 108.66 180.22L107.86 182.05ZM389.72 184.36L390.86 186C391.241 185.732 391.614 185.468 391.982 185.207L392.006 185.189L392.009 185.187C392.731 184.675 393.434 184.176 394.15 183.69L392.98 182.07C391.91 182.84 390.82 183.6 389.72 184.36ZM170.88 186.92L171.16 188.92L171.19 188.91L171.191 188.91C172.52 188.71 173.85 188.51 175.12 188.25L174.86 186.77L175.6 186.31C174.92 185.2 174.24 184.06 173.6 182.92L171.85 183.92C172.127 184.367 172.386 184.816 172.643 185.263L172.643 185.264L172.643 185.264L172.644 185.264L172.644 185.264L172.644 185.264L172.644 185.264L172.644 185.264L172.644 185.264L172.644 185.265L172.644 185.265L172.644 185.265L172.644 185.265L172.644 185.265L172.645 185.265L172.645 185.265L172.645 185.266L172.645 185.266L172.645 185.266L172.645 185.266L172.645 185.266L172.645 185.266L172.645 185.266C172.889 185.69 173.132 186.112 173.39 186.53C172.55 186.67 171.72 186.8 170.88 186.92ZM383.08 188.7L384.14 190.39C385.28 189.67 386.41 188.94 387.52 188.21L386.42 186.54C385.32 187.27 384.2 187.99 383.08 188.7ZM178.65 194C177.81 192.95 176.99 191.86 176.22 190.77L177.85 189.61C178.6 190.67 179.4 191.73 180.21 192.75L178.65 194ZM376.27 192.87L377.27 194.61L377.26 194.55C377.473 194.426 377.685 194.303 377.896 194.179C378.847 193.625 379.784 193.079 380.7 192.58L379.7 190.87C379.369 191.063 379.037 191.258 378.703 191.454C377.897 191.926 377.083 192.403 376.27 192.87ZM370.27 198.5L370.236 198.436C370.394 198.353 370.552 198.269 370.709 198.186L370.711 198.185L370.713 198.184L370.739 198.17L370.739 198.17C371.758 197.628 372.777 197.087 373.84 196.59L372.84 194.84C371.68 195.48 370.51 196.11 369.34 196.73L370.236 198.436L370.23 198.44L370.27 198.5ZM181.495 197.341C182.316 198.264 183.137 199.187 184.06 200.11L185.48 198.67C184.56 197.73 183.65 196.79 182.78 195.79L181.29 197.11L181.495 197.341ZM363.06 202.11L362.19 200.31C363.38 199.73 364.57 199.14 365.75 198.54L366.66 200.32C365.48 200.9 364.28 201.49 363.07 202.08L363.06 202.11ZM189.264 204.878L189.262 204.876L189.261 204.875C188.481 204.218 187.68 203.542 186.93 202.86L188.28 201.38L188.281 201.381C189.281 202.251 190.28 203.12 191.28 203.95L190 205.5C189.76 205.296 189.515 205.089 189.267 204.881L189.264 204.878ZM347.58 206.75L348.33 208.6L348.35 208.61C349.6 208.11 350.84 207.6 352.05 207.06L351.27 205.22C350.05 205.74 348.82 206.25 347.58 206.75ZM196.51 210.29C195.38 209.54 194.26 208.77 193.19 207.97L194.37 206.36C195.42 207.13 196.51 207.89 197.61 208.62L196.51 210.29ZM340.13 209.61L340.81 211.49L340.83 211.5C341.441 211.259 342.048 211.035 342.65 210.812L342.651 210.812C343.299 210.572 343.942 210.334 344.58 210.08L343.87 208.21C342.63 208.69 341.38 209.16 340.13 209.61ZM199.94 212.4C201.09 213.11 202.28 213.78 203.47 214.4L204.39 212.6C203.22 211.99 202.06 211.34 200.94 210.68L199.94 212.4ZM325.47 216.51L325 214.6L328.82 213.45L329.42 215.36C328.12 215.76 326.831 216.14 325.542 216.519L325.54 216.52L325.47 216.51ZM207.05 216.2C208.25 216.77 209.5 217.32 210.75 217.83L211.51 215.99C210.29 215.48 209.07 214.94 207.89 214.39L207.05 216.2ZM317.75 218.63L317.25 216.7C317.778 216.565 318.305 216.426 318.831 216.288C319.59 216.088 320.348 215.889 321.11 215.7L321.63 217.63C320.63 217.926 319.604 218.184 318.568 218.444L318.568 218.444C318.309 218.509 318.05 218.574 317.79 218.64L317.75 218.63ZM218.37 220.59C217.09 220.19 215.8 219.75 214.54 219.3L215.23 217.42C216.46 217.86 217.72 218.29 218.97 218.69L218.37 220.59ZM301.69 220.11L302.06 222.11L306 221.35L305.6 219.35L305.596 219.351C304.297 219.611 302.999 219.87 301.69 220.11ZM226.16 222.71C224.84 222.41 223.53 222.08 222.25 221.71L222.77 219.78C223.51 219.981 224.267 220.176 225.03 220.371L225.032 220.372C225.557 220.506 226.084 220.641 226.61 220.78L226.16 222.71ZM293.86 221.45L294.16 223.45L294.18 223.46C294.76 223.372 295.34 223.273 295.918 223.174C296.656 223.047 297.391 222.921 298.12 222.82L297.79 220.82C296.503 221.04 295.193 221.25 293.86 221.45ZM234.11 224.22C232.77 224.01 231.44 223.78 230.11 223.54L230.49 221.54C231.76 221.78 233.08 222.01 234.39 222.21L234.11 224.22ZM285.97 222.52L286.2 224.52L290.18 224.02L289.92 222.02C288.677 222.189 287.434 222.341 286.199 222.492L286.196 222.492L285.97 222.52ZM242.11 225.17C241.043 225.07 239.973 224.96 238.9 224.84L238.11 224.75L238.34 222.75L239.12 222.84L242.3 223.16L242.11 225.17ZM278.05 223.3L278.21 225.3L278.23 225.31C279.56 225.21 280.9 225.09 282.25 224.94L282.05 222.94C280.69 223.08 279.37 223.19 278.05 223.3ZM250.13 225.75C248.79 225.68 247.45 225.6 246.13 225.5L246.27 223.5C247.59 223.59 248.92 223.67 250.27 223.74L250.13 225.75ZM270.11 223.81L270.2 225.81L270.22 225.82C271.56 225.76 272.89 225.69 274.24 225.6L274.11 223.6C272.76 223.68 271.44 223.75 270.11 223.81ZM258.2 226C256.86 226 255.52 226 254.2 225.92L254.26 223.92C254.962 223.92 255.668 223.94 256.378 223.96H256.378H256.378H256.378H256.378H256.378H256.379H256.379H256.379H256.379H256.379H256.379H256.379H256.379H256.38H256.38H256.38H256.38H256.38H256.38H256.38H256.381H256.381H256.381H256.381H256.381H256.381H256.381H256.382H256.382H256.382H256.382H256.382H256.382H256.382H256.382H256.383H256.383H256.383H256.383H256.383H256.383H256.383H256.384H256.384H256.384H256.384H256.384H256.384H256.384H256.385H256.385H256.385H256.385H256.385H256.385H256.386H256.386H256.386H256.386H256.386H256.387H256.387H256.387H256.387H256.388H256.388H256.388H256.388H256.388H256.389H256.389C257.009 223.978 257.632 223.995 258.26 224L258.2 226ZM262.2 226V224C263.52 224 264.84 224 266.2 223.94V225.94C264.87 226 263.54 226 262.2 226ZM309.5 218.55L309.93 220.5L310 220.51C310.244 220.455 310.489 220.399 310.734 220.343L310.735 220.343L310.735 220.343L310.735 220.343L310.736 220.343L310.736 220.343L310.738 220.342C311.777 220.106 312.823 219.868 313.85 219.65L313.38 217.65C312.09 217.96 310.79 218.26 309.5 218.55ZM333.21 214.13L332.59 212.23C333.85 211.81 335.11 211.39 336.37 210.95L337.02 212.84C335.78 213.29 334.5 213.72 333.23 214.14L333.21 214.13ZM354.95 203.67L355.76 205.5L355.77 205.47C356.521 205.14 357.269 204.803 358.013 204.467L358.02 204.464L358.022 204.463L358.024 204.462L358.026 204.461L358.028 204.46L358.03 204.459L358.032 204.458C358.499 204.248 358.965 204.037 359.43 203.83L358.59 202.02C357.38 202.58 356.17 203.13 354.95 203.67ZM151.14 190.39H151C149.7 190.39 148.41 190.39 147.12 190.33L147.18 188.33H151H151.15L151.14 190.39ZM155.08 188.33L155.14 190.33L155.17 190.32C156.161 190.29 157.153 190.244 158.148 190.198L158.149 190.198H158.149H158.15H158.15H158.15H158.151H158.151L158.152 190.198L158.153 190.198L158.154 190.198C158.502 190.182 158.851 190.166 159.2 190.15L159.08 188.15L158.891 188.161L158.674 188.174L158.343 188.195L158.335 188.195C157.236 188.263 156.158 188.33 155.08 188.33ZM143.05 190.15C141.71 190.07 140.37 189.97 139.05 189.84L139.24 187.84C140.55 187.96 141.87 188.06 143.24 188.15L143.05 190.15ZM163 187.85L163.18 189.85L163.21 189.84C164.197 189.751 165.184 189.651 166.158 189.552L166.761 189.491L167.17 189.45L166.94 187.45C165.63 187.6 164.31 187.74 163 187.85ZM135.02 189.39C133.69 189.22 132.34 189.02 131.02 188.81L131.35 186.81C132.63 187.03 133.95 187.22 135.27 187.39L135.02 189.39ZM127.06 188.08C125.74 187.81 124.41 187.51 123.12 187.2L123.59 185.25C124.86 185.56 126.16 185.85 127.46 186.12L127.06 188.08ZM178.67 185.55L179.06 187.55L179.13 187.54C180.44 187.28 181.76 187 183 186.67L182.55 184.72C181.26 185.02 179.96 185.29 178.67 185.55ZM119.18 186.16C117.88 185.79 116.58 185.39 115.32 184.97L115.95 183.07C117.19 183.48 118.46 183.88 119.73 184.24L119.18 186.16ZM187 185.76L186.51 183.82C187.093 183.671 187.673 183.518 188.252 183.365L188.256 183.364C188.957 183.179 189.655 182.995 190.35 182.82L190.9 184.75C189.6 185.083 188.3 185.42 187 185.76ZM194.77 183.59L194.757 183.548L194.963 183.482L194.968 183.48C196.152 183.101 197.385 182.707 198.6 182.33L197.95 180.44C196.7 180.87 195.44 181.28 194.17 181.68L194.757 183.548L194.75 183.55L194.77 183.59ZM202.41 180.97L202.393 180.925L202.662 180.826C203.835 180.392 204.994 179.963 206.17 179.5L205.42 177.65C204.19 178.15 202.96 178.63 201.71 179.09L202.393 180.925L202.38 180.93L202.41 180.97ZM104.17 180.34C102.96 179.73 101.76 179.09 100.6 178.44L101.6 176.69C102.73 177.34 103.91 177.96 105.09 178.55L104.17 180.34ZM231 166.22L229.87 164.57C230.96 163.82 232.05 163.05 233.1 162.27L234.29 163.88C233.22 164.67 232.11 165.46 231 166.22ZM62.2398 115.63H63.7998C64.0824 115.63 64.3639 115.627 64.6458 115.623L64.6469 115.623H64.6472C65.2126 115.617 65.7796 115.61 66.3598 115.63L66.1998 113.63C64.9112 113.715 63.6184 113.715 62.3298 113.63L62.2398 115.63ZM69.1998 79.48L70.3998 81.07H70.4098C71.4264 80.308 72.5071 79.6355 73.6398 79.06L72.7498 77.28C71.5017 77.9032 70.3134 78.6396 69.1998 79.48ZM76.6298 75.76L77.1798 77.68H77.1898C78.4198 77.354 79.6737 77.1266 80.9398 77L80.7198 75C79.3388 75.1469 77.9714 75.401 76.6298 75.76ZM88.5598 77.17C88.2872 77.0998 88.0098 77.0497 87.7298 77.02C86.7298 76.89 85.7298 76.82 84.7798 76.79L84.8398 74.79C85.8398 74.79 86.9198 74.9 87.9798 75.03C88.2729 75.03 88.5589 75.1071 88.8262 75.1792L88.8263 75.1792C88.8782 75.1932 88.9294 75.207 88.9798 75.22L88.5598 77.17ZM247.81 64.25C246.787 63.461 245.718 62.733 244.61 62.07L245.61 60.35C246.784 61.0563 247.916 61.831 249 62.67L247.81 64.25Z" fill="#707F8F"/>
<path d="M419.25 172.65H417.25V161.65H406.25V159.65H419.25V172.65Z" fill="#EF4C59"/>
<path fill-rule="evenodd" clip-rule="evenodd" d="M390.48 99.1002V120L411.34 99.1002H455V48.4902H375.22V99.1002H390.48ZM392.48 97.1002H377.22V50.4902H453V97.1002H410.48L392.48 115.1V97.1002Z" fill="#476AE3"/>
<path d="M501.95 154.97L481.1 134.11H437.44V113.67H439.44V132.11H481.92L499.95 150.15V132.11H515.22V85.5H469.55V83.5H517.22V134.11H501.95V154.97Z" fill="#476AE3"/>
<path d="M472.82 51.7004L479.02 40.9404L485.36 50.9404L472.82 51.7004Z" fill="#EF4C59"/>
<rect x="485.188" y="35.4844" width="27.61" height="2" transform="rotate(-76.67 485.188 35.4844)" fill="white"/>
<rect x="497.194" y="50.8389" width="51.97" height="2" transform="rotate(-37.26 497.194 50.8389)" fill="white"/>
<rect x="498.784" y="67.8125" width="2" height="33.63" transform="rotate(-86.99 498.784 67.8125)" fill="white"/>
<circle cx="484.59" cy="63.1699" r="3" fill="#FFC31D"/>
<path fill-rule="evenodd" clip-rule="evenodd" d="M0 7C0 10.866 3.13401 14 7 14C8.85652 14 10.637 13.2625 11.9497 11.9497C13.2625 10.637 14 8.85652 14 7C14 3.13401 10.866 0 7 0C3.13401 0 0 3.13401 0 7ZM2 7C2 4.23858 4.23858 2 7 2C8.32608 2 9.59785 2.52678 10.5355 3.46447C11.4732 4.40215 12 5.67392 12 7C12 9.76142 9.76142 12 7 12C4.23858 12 2 9.76142 2 7Z" fill="#FFC31D"/>
<path fill-rule="evenodd" clip-rule="evenodd" d="M289.16 86.8297L299.06 96.7297L308.96 86.8297L299.06 76.9297L289.16 86.8297ZM299.07 93.8997L292 86.8297L299.07 79.7597L306.14 86.8297L299.07 93.8997Z" fill="#FFC31D"/>
<circle cx="112" cy="115.74" r="3" fill="#476AE3"/>
<path fill-rule="evenodd" clip-rule="evenodd" d="M155.06 210.76L164.78 227.76L174.5 210.76H155.06ZM164.78 223.76L158.5 212.76H171.06L164.78 223.76Z" fill="#EF4C59"/>
</svg>
