<svg width="720" height="640" viewBox="0 0 720 640" fill="none" xmlns="http://www.w3.org/2000/svg">
<rect x="511.6" y="52.96" width="140" height="140" fill="white"/>
<path d="M556.42 147.15L555 145.73L579.19 121.55L594.84 137.2L625.44 106.6L626.85 108.02L594.84 140.03L579.19 124.37L556.42 147.15Z" fill="#476AE3"/>
<circle cx="540.06" cy="162.09" r="2" fill="#0E2946"/>
<circle cx="555.71" cy="162.09" r="2" fill="#0E2946"/>
<circle cx="571.36" cy="162.09" r="2" fill="#0E2946"/>
<circle cx="587.02" cy="162.09" r="2" fill="#0E2946"/>
<circle cx="602.67" cy="162.09" r="2" fill="#0E2946"/>
<circle cx="618.32" cy="162.09" r="2" fill="#0E2946"/>
<circle cx="540.06" cy="162.09" r="2" fill="#0E2946"/>
<circle cx="540.06" cy="146.44" r="2" fill="#0E2946"/>
<circle cx="540.06" cy="130.79" r="2" fill="#0E2946"/>
<circle cx="540.06" cy="115.13" r="2" fill="#0E2946"/>
<circle cx="540.06" cy="99.48" r="2" fill="#0E2946"/>
<circle cx="540.06" cy="83.8301" r="2" fill="#0E2946"/>
<path d="M627.15 119.31H625.15V108.31H614.15V106.31H627.15V119.31Z" fill="#476AE3"/>
<path d="M651.6 44.77L657.81 34L664.15 44L651.6 44.77Z" fill="#FFC31D"/>
<path d="M663.936 28.5339L670.302 1.6678L672.248 2.12891L665.882 28.9951L663.936 28.5339Z" fill="#0E2946"/>
<path d="M675.991 43.9004L717.354 12.436L718.565 14.0278L677.202 45.4922L675.991 43.9004Z" fill="#0E2946"/>
<path d="M677.551 60.8845L677.656 58.8873L711.24 60.6532L711.135 62.6504L677.551 60.8845Z" fill="#0E2946"/>
<circle cx="663.38" cy="56.23" r="3" fill="#EF4C59"/>
<circle cx="653.6" cy="193.66" r="30" fill="white"/>
<path fill-rule="evenodd" clip-rule="evenodd" d="M622.6 193.66C622.6 210.781 636.479 224.66 653.6 224.66C670.72 224.66 684.6 210.781 684.6 193.66C684.6 176.539 670.72 162.66 653.6 162.66C636.479 162.66 622.6 176.539 622.6 193.66ZM624.6 193.66C624.6 177.644 637.583 164.66 653.6 164.66C669.616 164.66 682.6 177.644 682.6 193.66C682.6 209.676 669.616 222.66 653.6 222.66C637.583 222.66 624.6 209.676 624.6 193.66Z" fill="#0E2946"/>
<circle cx="649.6" cy="189.66" r="30" fill="#FFC31D"/>
<path fill-rule="evenodd" clip-rule="evenodd" d="M618.6 189.66C618.6 206.781 632.479 220.66 649.6 220.66C666.72 220.66 680.6 206.781 680.6 189.66C680.6 172.539 666.72 158.66 649.6 158.66C632.479 158.66 618.6 172.539 618.6 189.66ZM620.6 189.66C620.6 173.644 633.583 160.66 649.6 160.66C665.616 160.66 678.6 173.644 678.6 189.66C678.6 205.676 665.616 218.66 649.6 218.66C633.583 218.66 620.6 205.676 620.6 189.66Z" fill="#0E2946"/>
<path fill-rule="evenodd" clip-rule="evenodd" d="M623.6 189.66C623.6 204.02 635.24 215.66 649.6 215.66C663.959 215.66 675.6 204.02 675.6 189.66C675.6 175.301 663.959 163.66 649.6 163.66C635.24 163.66 623.6 175.301 623.6 189.66ZM625.6 189.66C625.6 176.405 636.345 165.66 649.6 165.66C662.854 165.66 673.6 176.405 673.6 189.66C673.6 202.915 662.854 213.66 649.6 213.66C636.345 213.66 625.6 202.915 625.6 189.66Z" fill="white"/>
<rect x="648.6" y="199.66" width="2" height="5" fill="white"/>
<rect x="648.6" y="174.66" width="2" height="5" fill="white"/>
<path d="M649.6 190.66C646.286 190.66 643.6 187.974 643.6 184.66C643.6 181.346 646.286 178.66 649.6 178.66C651.194 178.659 652.723 179.292 653.85 180.42L652.43 181.83C650.846 180.319 648.354 180.319 646.77 181.83C645.624 182.974 645.281 184.696 645.901 186.191C646.521 187.687 647.981 188.661 649.6 188.66V190.66Z" fill="white"/>
<path d="M649.6 200.66C648.008 200.667 646.48 200.032 645.36 198.9L646.77 197.49C648.05 198.769 650.03 199.029 651.597 198.124C653.164 197.219 653.929 195.374 653.461 193.626C652.993 191.878 651.41 190.662 649.6 190.66V188.66C652.914 188.66 655.6 191.346 655.6 194.66C655.6 197.974 652.914 200.66 649.6 200.66Z" fill="white"/>
<path fill-rule="evenodd" clip-rule="evenodd" d="M356.63 322.21L358.02 323.65L360.89 320.86L359.5 319.42L356.63 322.21ZM352.28 329.22L350.89 327.79L353.76 325L355.15 326.43L352.28 329.22ZM345.15 333.36L346.55 334.79L349.42 332.01L348.02 330.57L345.15 333.36ZM340.81 340.37L339.41 338.93L342.28 336.15L343.68 337.58L340.81 340.37ZM333.68 344.51L335.07 345.94L337.94 343.16L336.55 341.72L333.68 344.51ZM329.33 351.52L327.94 350.08L330.81 347.3L332.2 348.73L329.33 351.52ZM322.2 355.66L323.59 357.09L326.46 354.3L325.07 352.87L322.2 355.66ZM317.85 362.67L316.46 361.23L319.33 358.44L320.72 359.88L317.85 362.67ZM310.72 366.81L312.12 368.24L314.99 365.45L313.59 364.02L310.72 366.81ZM306.38 373.81L305 372.38L307.86 369.59L309.26 371.03L306.38 373.81ZM299.23 378L300.64 379.39L303.49 376.65L302.1 375.22L299.23 378ZM294.9 384.96L293.51 383.53L296.38 380.74L297.77 382.18L294.9 384.96ZM287.77 389.1L289.16 390.54L292.03 387.75L290.64 386.32L287.77 389.1ZM283.43 396.11L282.03 394.68L284.9 391.89L286.3 393.32L283.43 396.11ZM276.29 400.25L277.69 401.69L280.56 398.9L279.16 397.46L276.29 400.25ZM271.95 407.26L270.56 405.83L273.43 403.04L274.82 404.47L271.95 407.26ZM264.82 411.4L266.21 412.83L269.08 410.05L267.69 408.61L264.82 411.4ZM260.47 418.41L259.06 417L261.93 414.22L263.32 415.65L260.47 418.41ZM253.34 422.55L254.73 423.98L257.6 421.2L256.21 419.76L253.34 422.55ZM249 429.56L247.6 428.12L250.47 425.34L251.87 426.77L249 429.56ZM241.86 433.7L243.26 435.13L246.13 432.34L244.73 430.91L241.86 433.7ZM237.52 440.71L236.13 439.27L239 436.48L240.39 437.92L237.52 440.71ZM230.39 444.85L231.78 446.28L234.65 443.49L233.26 442.06L230.39 444.85ZM226.04 451.85L224.65 450.42L227.52 447.63L228.91 449.07L226.04 451.85ZM218.91 456L220.31 457.43L223.17 454.64L221.78 453.21L218.91 456ZM214.57 463L213.17 461.57L216.04 458.78L217.44 460.22L214.57 463ZM207.43 467.14L208.83 468.58L211.7 465.79L210.31 464.36L207.43 467.14ZM203.09 474.15L201.7 472.72L204.57 469.93L205.96 471.36L203.09 474.15ZM195.96 478.29L197.35 479.73L200.22 476.94L198.83 475.5L195.96 478.29ZM191.61 485.3L190.22 483.87L193.09 481.08L194.48 482.51L191.61 485.3ZM184.48 489.44L185.88 490.87L188.75 488.09L187.35 486.65L184.48 489.44ZM180.14 496.45L178.74 495.01L181.61 492.23L183.01 493.66L180.14 496.45ZM173 500.59L174.4 502.02L177.26 499.24L175.87 497.8L173 500.59ZM168.66 507.6L167.27 506.16L170.14 503.38L171.53 504.81L168.66 507.6ZM161.53 511.74L162.92 513.17L165.79 510.38L164.4 508.95L161.53 511.74ZM157.18 518.75L155.79 517.31L158.66 514.52L160 516L157.18 518.75ZM150.05 522.89L151.45 524.32L154.31 521.53L152.92 520.1L150.05 522.89ZM145.71 529.89L144.31 528.46L147.18 525.67L148.58 527.11L145.71 529.89ZM141 534.47L139.59 533L141.42 531.22L142.82 532.65L141 534.47Z" fill="#707F8F"/>
<path fill-rule="evenodd" clip-rule="evenodd" d="M509.86 53.79L511.6 54.79L512.74 53.51L511 52.51L509.86 53.79ZM507.65 61.79L505.91 60.79L507.91 57.31L509.64 58.31L507.65 61.79ZM501.91 67.79L503.65 68.79L505.65 65.31L503.91 64.31L501.91 67.79ZM499.7 75.79L497.96 74.79L499.96 71.31L501.7 72.31L499.7 75.79ZM494.01 81.79L495.75 82.79L497.75 79.31L496.01 78.31L494.01 81.79ZM491.8 89.74L490.06 88.74L492.06 85.26L493.8 86.26L491.8 89.74ZM486.07 95.74L487.8 96.74L489.81 93.26L488.07 92.26L486.07 95.74ZM483.85 103.74L482.12 102.74L484.12 99.26L485.86 100.26L483.85 103.74ZM478.17 109.74L479.9 110.74L481.91 107.27L480.17 106.27L478.17 109.74ZM475.95 117.74L474.21 116.74L476.21 113.26L477.95 114.26L475.95 117.74ZM470.26 123.74L472 124.74L474 121.26L472.26 120.26L470.26 123.74ZM468 131.74L466.26 130.74L468.26 127.27L470 128.27L468 131.74ZM462.31 137.74L464.05 138.74L466.05 135.26L464.31 134.26L462.31 137.74ZM460.1 145.69L458.36 144.69L460.36 141.21L462.1 142.21L460.1 145.69ZM454.41 151.69L456.15 152.69L458.15 149.21L456.41 148.21L454.41 151.69ZM452.2 159.69L450.46 158.69L452.46 155.21L454.19 156.21L452.2 159.69ZM446.46 165.69L448.2 166.69L450.19 163.21L448.46 162.21L446.46 165.69ZM444.25 173.69L442.51 172.69L444.51 169.21L446.24 170.21L444.25 173.69ZM438.56 179.69L440.3 180.69L442.3 177.21L440.56 176.21L438.56 179.69ZM436.35 187.69L434.61 186.69L436.61 183.21L438.35 184.21L436.35 187.69ZM430.66 193.69L432.4 194.69L434.4 191.21L432.66 190.21L430.66 193.69ZM428.4 201.69L426.66 200.69L428.66 197.21L430.4 198.21L428.4 201.69ZM422.71 207.69L424.45 208.69L426.45 205.22L424.71 204.22L422.71 207.69ZM420.45 215.69L418.72 214.69L420.72 211.21L422.46 212.21L420.45 215.69ZM414.76 221.69L416.5 222.69L418.5 219.21L416.76 218.21L414.76 221.69ZM412.5 229.64L410.76 228.64L412.76 225.17L414.5 226.17L412.5 229.64ZM406.81 235.64L408.55 236.64L410.55 233.16L408.81 232.16L406.81 235.64ZM404.6 243.64L402.86 242.64L404.86 239.16L406.6 240.16L404.6 243.64ZM398.91 249.64L400.65 250.64L402.65 247.17L400.91 246.17L398.91 249.64ZM396.7 257.64L394.96 256.64L396.96 253.16L398.7 254.16L396.7 257.64ZM390.96 263.64L392.7 264.64L394.69 261.16L392.96 260.16L390.96 263.64ZM388.75 271.64L387 271L389 267.52L390.73 268.52L388.75 271.64ZM383.06 277.64L384.8 278.64L386.79 275.16L385.06 274.16L383.06 277.64ZM380.85 285.64L379.11 284.64L381.11 281.16L382.85 282.16L380.85 285.64ZM375.16 291.64L376.9 292.64L378.9 289.16L377.16 288.16L375.16 291.64ZM372.9 299.64L371.16 298.64L373.16 295.16L374.9 296.16L372.9 299.64ZM367.21 305.64L368.95 306.64L370.95 303.16L369.21 302.16L367.21 305.64ZM364.95 313.64L363.22 312.64L365.22 309.16L366.96 310.16L364.95 313.64ZM361 320.64L359.27 319.64L361.27 316.16L363.01 317.16L361 320.64Z" fill="#707F8F"/>
<path fill-rule="evenodd" clip-rule="evenodd" d="M359.65 321L363.03 323.08L364.11 321.37L360.7 319.29L359.65 321ZM369.86 327.25L366.44 325.16L367.44 323.46L370.86 325.54L369.86 327.25ZM373.27 329.33L376.69 331.41L377.69 329.71L374.27 327.62L373.27 329.33ZM383.52 335.58L380.1 333.5L381.1 331.79L384.52 333.87L383.52 335.58ZM387 337.66L390.34 339.75L391.42 338.04L388 335.96L387 337.66ZM397.17 343.91L393.76 341.83L394.76 340.12L398.17 342.21L397.17 343.91ZM400.63 346L404 348.08L405.04 346.37L401.63 344.29L400.63 346ZM410.85 352.25L407.44 350.16L408.44 348.46L411.85 350.54L410.85 352.25ZM414.27 354.33L417.68 356.41L418.68 354.71L415.27 352.62L414.27 354.33ZM424.51 360.58L421.1 358.5L422.1 356.79L425.51 358.87L424.51 360.58ZM427.92 362.67L431.34 364.75L432.4 363L429 361L427.92 362.67ZM438.17 368.92L434.75 366.83L435.75 365.13L439.17 367.21L438.17 368.92ZM441.6 371L445 373.08L446.02 371.38L442.6 369.29L441.6 371ZM451.86 377.25L448.44 375.17L449.44 373.46L452.86 375.54L451.86 377.25ZM455.27 379.33L458.69 381.42L459.69 379.71L456.27 377.63L455.27 379.33ZM465.51 385.58L462.1 383.5L463.1 381.79L466.52 383.88L465.51 385.58ZM468.93 387.67L472.34 389.75L473.34 388.04L469.93 385.96L468.93 387.67ZM479.17 393.92L475.76 391.83L476.76 390.13L480.17 392.21L479.17 393.92ZM482.58 396L486 398.09L486.99 396.38L483.58 394.29L482.58 396ZM492.85 402.25L489.44 400.17L490.44 398.46L493.85 400.55L492.85 402.25ZM496.27 404.34L499.68 406.42L500.68 404.71L497.27 402.63L496.27 404.34ZM506.51 410.59L503.09 408.5L504.14 406.8L507.55 408.88L506.51 410.59ZM509.92 412.67L513.34 414.75L514.34 413.05L510.92 410.96L509.92 412.67ZM520.17 418.92L516.75 416.84L517.75 415.13L521.17 417.21L520.17 418.92ZM523.55 421L527 423.09L527.97 421.38L524.55 419.3L523.55 421ZM533.79 427.25L530.38 425.17L531.38 423.46L534.8 425.55L533.79 427.25ZM540.62 431.42L537.21 429.34L538.21 427.63L541.62 429.71L540.62 431.42Z" fill="#707F8F"/>
<path fill-rule="evenodd" clip-rule="evenodd" d="M356.22 319.24L356.27 321.24L360.27 321.14L360.22 319.14L356.22 319.24ZM348.27 321.44L348.22 319.44L352.22 319.34L352.27 321.34L348.27 321.44ZM340.27 319.64V321.64L344.33 321.54L344.27 319.54L340.27 319.64ZM332.27 321.84V319.84L336.27 319.74V321.74L332.27 321.84ZM324.27 320.04V322.04L328.27 321.93V319.93L324.27 320.04ZM316.27 320.25L320.27 320.15V322.15L316.27 322.25V320.25ZM312.22 320.35L308.22 320.45L308.27 322.45L312.22 322.35V320.35ZM300.27 322.65L300.22 320.65L304.22 320.55L304.27 322.55L300.27 322.65ZM296.22 320.75L292.22 320.85L292.27 322.85L296.27 322.75L296.22 320.75ZM284.22 321.05L288.22 320.95L288.27 322.95L284.27 323.05L284.22 321.05ZM276.22 321.25L276.27 323.25L280.28 323.15L280.22 321.15L276.22 321.25ZM268.22 321.45L272.22 321.35L272.27 323.35L268.27 323.45L268.22 321.45ZM264.22 321.55L260.22 321.65L260.27 323.65L264.27 323.55L264.22 321.55ZM252.27 321.85L256.27 321.75L256.32 323.75L252.27 323.85V321.85ZM244.22 322.05L244.27 324.05L248.28 323.95L248.22 321.95L244.22 322.05ZM236.27 324.25L236.22 322.25L240.22 322.15L240.27 324.15L236.27 324.25ZM228.22 322.45L228.27 324.45L232.27 324.35L232.22 322.35L228.22 322.45ZM220.27 324.65L220.22 322.65L224.22 322.55L224.27 324.55L220.27 324.65ZM212.22 322.85L212.27 324.85L216.28 324.75L216.22 322.75L212.22 322.85ZM204.22 323.06L208.22 322.96L208.27 324.96L204.27 325.06L204.22 323.06ZM200.22 323.16L196.22 323.26L196.27 325.26L200.27 325.16L200.22 323.16ZM188.22 323.46L192.22 323.36L192.27 325.36L188.27 325.46L188.22 323.46ZM180.27 323.66V325.66L184.27 325.56V323.56L180.27 323.66ZM172.27 325.86V323.86L176.27 323.76V325.76L172.27 325.86ZM164.27 324.06V326.06L168.27 325.96V323.96L164.27 324.06ZM156.27 326.26V324.26L160.27 324.16V326.16L156.27 326.26ZM148.22 324.46L148.27 326.46L152.28 326.36L152.22 324.36L148.22 324.46ZM141.81 324.62L141.86 326.62L144.27 326.56L144.22 324.56L141.81 324.62Z" fill="#707F8F"/>
<path fill-rule="evenodd" clip-rule="evenodd" d="M359.359 320.73L361.649 324L363.289 322.86L360.989 319.58L359.359 320.73ZM366.239 330.55L363.939 327.27L365.579 326.12L367.879 329.4L366.239 330.55ZM368.529 333.82L370.829 337.1L372.459 335.95L370.169 332.68L368.529 333.82ZM375.409 343.65L373.119 340.38L374.759 339.23L377.049 342.51L375.409 343.65ZM377.709 346.93L379.999 350.21L381.639 349.06L379.349 345.78L377.709 346.93ZM384.589 356.78L382.289 353.5L383.929 352.36L386.229 355.63L384.589 356.78ZM386.879 360.06L389.179 363.33L390.819 362.19L388.519 358.91L386.879 360.06ZM393.759 369.89L391.469 366.61L393.109 365.46L395.399 368.74L393.759 369.89ZM396.059 373.16L398.349 376.44L399.989 375.27L397.699 372L396.059 373.16ZM402.939 383L400.649 379.72L402.289 378.57L404.579 381.85L402.939 383ZM405.229 386.29L407.529 389.57L409.169 388.42L406.869 385.15L405.229 386.29ZM412.119 396.12L409.819 392.85L411.459 391.7L413.749 394.98L412.119 396.12ZM414.409 399.4L416.699 402.68L418.339 401.53L416.049 398.25L414.409 399.4ZM421.289 409.23L418.999 405.91L420.639 404.77L422.929 408.04L421.289 409.23ZM423.589 412.51L425.879 415.78L427.519 414.64L425.219 411.36L423.589 412.51ZM430.469 422.34L428.169 419.06L429.809 417.91L432.109 421.19L430.469 422.34ZM432.759 425.61L435.059 428.89L436.699 427.74L434.399 424.47L432.759 425.61ZM439.639 435.44L437.349 432.17L438.999 431L441.289 434.28L439.639 435.44ZM441.939 438.72L444.229 442L445.869 440.85L443.579 437.57L441.939 438.72ZM448.819 448.51L446.529 445.24L448.159 444.09L450.459 447.37L448.819 448.51ZM451.109 451.79L453.409 455.07L455.049 453.92L452.749 450.64L451.109 451.79ZM457.999 461.62L455.699 458.34L457.339 457.2L459.629 460.47L457.999 461.62ZM460.299 464.87L462.589 468.14L464.229 467L461.939 463.72L460.299 464.87ZM467.179 474.7L464.889 471.42L466.529 470.27L468.819 473.55L467.179 474.7ZM469.469 478L471.769 481.25L473.399 480.13L471.099 476.86L469.469 478ZM476.359 487.8L474.059 484.53L475.699 483.38L477.999 486.66L476.359 487.8ZM478.649 491.08L480.949 494.36L482.579 493.21L480.289 489.93L478.649 491.08ZM485.529 500.91L483.239 497.64L484.879 496.49L487.169 499.77L485.529 500.91ZM487.829 504.19L490.119 507.47L491.759 506.32L489.469 503.04L487.829 504.19ZM494.709 514.02L492.419 510.74L494.049 509.6L496.349 512.87L494.709 514.02ZM496.999 517.3L499.299 520.57L500.939 519.43L498.639 516.15L496.999 517.3ZM503.879 527.13L501.589 523.85L503.229 522.7L505.519 525.98L503.879 527.13ZM506.179 530.4L508.469 533.68L510.109 532.53L507.819 529.26L506.179 530.4ZM513.059 540.23L510.759 537L512.399 535.85L514.689 539.13L513.059 540.23ZM515.349 543.51L517.649 546.79L519.289 545.64L516.989 542.36L515.349 543.51ZM522.239 553.34L519.939 550.06L521.579 548.92L523.879 552.19L522.239 553.34ZM524.529 556.62L526.819 559.9L528.459 558.75L526.169 555.47L524.529 556.62ZM531.409 566.45L529.119 563.17L530.759 562.03L533.049 565.3L531.409 566.45ZM533.709 569.73L535.999 573L537.639 571.86L535.339 568.58L533.709 569.73ZM540.629 579.56L538.329 576.28L539.969 575.13L542.269 578.41L540.629 579.56ZM542.919 582.83L545.219 586.11L546.799 585L544.559 581.69L542.919 582.83ZM547.509 589.42L547.999 590.11L549.639 588.97L549.149 588.27L547.509 589.42Z" fill="#707F8F"/>
<path fill-rule="evenodd" clip-rule="evenodd" d="M359.28 320.48L360.63 324.25L362.51 323.57L361.17 319.81L359.28 320.48ZM363.31 331.78L361.92 328L363.8 327.33L365.15 331.1L363.31 331.78ZM364.65 335.55L366 339.32L367.88 338.65L366.54 334.88L364.65 335.55ZM368.63 346.85L367.29 343.08L369.17 342.41L370.52 346.18L368.63 346.85ZM370 350.62L371.32 354.39L373.22 353.72L371.88 349.95L370 350.62ZM374 361.92L372.66 358.16L374.55 357.48L375.89 361.25L374 361.92ZM375.35 365.69L376.69 369.46L378.57 368.79L377.23 365.02L375.35 365.69ZM379.38 377L378 373.23L379.89 372.56L381.23 376.32L379.38 377ZM380.72 380.8L382.06 384.57L383.95 383.9L382.6 380.13L380.72 380.8ZM384.75 392.11L383.4 388.34L385.29 387.67L386.63 391.44L384.75 392.11ZM386.09 395.87L387.43 399.64L389.32 398.97L387.97 395.2L386.09 395.87ZM390.12 407.18L388.78 403.41L390.66 402.74L392 406.51L390.12 407.18ZM391.46 410.95L392.8 414.71L394.69 414.04L393.35 410.27L391.46 410.95ZM395.49 422.25L394.15 418.48L396.03 417.81L397.37 421.58L395.49 422.25ZM396.83 426L398.18 429.79L400.06 429.09L398.72 425.33L396.83 426ZM400.86 437.32L399.52 433.55L401.4 432.88L402.75 436.65L400.86 437.32ZM402.21 441.09L403.55 444.86L405.43 444.18L404.09 440.42L402.21 441.09ZM406.23 452.39L404.89 448.62L406.78 447.95L408.12 451.72L406.23 452.39ZM407.58 456.16L408.92 459.93L410.8 459.26L409.46 455.49L407.58 456.16ZM411.6 467.46L410.26 463.7L412.15 463.02L413.49 466.79L411.6 467.46ZM413 471.19L414.29 475L416.23 474.29L414.88 470.52L413 471.19ZM417 482.49L415.65 478.73L417.54 478.06L418.88 481.82L417 482.49ZM418.32 486.23L419.66 490L421.55 489.33L420.2 485.56L418.32 486.23ZM422.32 497.57L421 493.8L422.89 493.13L424.23 496.89L422.32 497.57ZM423.66 501.33L425 505.1L426.89 504.43L425.55 500.66L423.66 501.33ZM426.38 508.87L426.59 509.46L428.47 508.79L428.26 508.2L426.38 508.87Z" fill="#707F8F"/>
<path fill-rule="evenodd" clip-rule="evenodd" d="M359.18 318.98L359.56 322.98L361.56 322.79L361.18 318.79L359.18 318.98ZM360.32 330.98L359.94 326.98L361.94 326.79L362.32 330.79L360.32 330.98ZM360.7 334.98L361.08 338.98L363.08 338.79L362.7 334.79L360.7 334.98ZM361.85 346.98L361.46 342.98L363.46 342.79L363.84 346.79L361.85 346.98ZM362.23 350.98L362.61 354.98L364.61 354.79L364.23 350.79L362.23 350.98ZM363.37 362.98L362.99 358.98L364.99 358.78L365.37 362.78L363.37 362.98ZM363.75 366.98L364.13 370.98L366.13 370.79L365.75 366.79L363.75 366.98ZM364.89 378.98L364.51 374.98L366.51 374.79L366.89 378.79L364.89 378.98ZM365.27 382.98L365.65 386.98L367.65 386.79L367.27 382.79L365.27 382.98ZM366.42 394.98L366.04 390.98L368.04 390.79L368.42 394.79L366.42 394.98ZM366.8 398.98L367.18 402.98L369.18 402.79L368.8 398.79L366.8 398.98ZM367.94 410.98L367.56 406.98L369.56 406.79L369.94 410.79L367.94 410.98ZM368.32 414.98L368.7 418.98L370.7 418.79L370.32 414.79L368.32 414.98ZM369.46 426.98L369.08 422.98L371.08 422.79L371.46 426.79L369.46 426.98ZM369.84 430.98L370.22 434.98L372.22 434.79L371.84 430.79L369.84 430.98ZM370.99 442.98L370.61 438.98L372.61 438.79L372.99 442.79L370.99 442.98ZM371.37 446.98L371.75 450.98L373.75 450.78L373.37 446.78L371.37 446.98ZM372.51 458.98L372.13 454.98L374.13 454.79L374.51 458.79L372.51 458.98ZM372.89 462.98L373.27 466.98L375.27 466.79L374.89 462.79L372.89 462.98ZM374.03 474.98L373.65 470.98L375.65 470.79L376.03 474.79L374.03 474.98ZM374.41 478.98L374.79 482.98L376.79 482.79L376.41 478.79L374.41 478.98ZM375.56 490.98L375.17 486.98L377.17 486.79L377.56 490.79L375.56 490.98ZM375.94 494.98L376.32 498.98L378.32 498.79L377.94 494.79L375.94 494.98ZM377.08 506.98L376.7 502.98L378.7 502.79L379.08 506.79L377.08 506.98ZM377.46 510.98L377.84 514.98L379.84 514.79L379.46 510.79L377.46 510.98ZM378.6 522.98L378.22 518.98L380.22 518.79L380.6 522.79L378.6 522.98ZM378.98 526.98L379.36 530.98L381.36 530.79L380.98 526.79L378.98 526.98ZM380.13 538.98L379.75 534.98L381.75 534.79L382.13 538.79L380.13 538.98ZM380.51 542.98L380.89 546.98L382.89 546.79L382.51 542.79L380.51 542.98ZM381.65 554.98L381.27 550.98L383.27 550.79L383.65 554.79L381.65 554.98ZM382.03 558.98L382.41 562.98L384.41 562.79L384.03 558.79L382.03 558.98ZM383.17 570.98L382.79 566.98L384.79 566.79L385.17 570.79L383.17 570.98ZM383.55 574.98L383.93 578.98L385.93 578.79L385.55 574.79L383.55 574.98ZM384.7 586.98L384.32 582.98L386.32 582.79L386.7 586.79L384.7 586.98ZM385.08 590.98L385.46 594.98L387.46 594.79L387.08 590.79L385.08 590.98ZM385.84 598.96L385.91 599.75L387.91 599.56L387.84 598.77L385.84 598.96Z" fill="#707F8F"/>
<path fill-rule="evenodd" clip-rule="evenodd" d="M357.94 323.6L359.84 324.25L361.14 320.47L359.25 319.82L357.94 323.6ZM357.23 331.81L355.34 331.16L356.64 327.38L358.53 328.03L357.23 331.81ZM352.73 338.72L354.62 339.37L355.92 335.59L354.03 334.94L352.73 338.72ZM352.01 346.94L350.12 346.28L351.42 342.5L353.31 343.16L352.01 346.94ZM347.51 353.85L349.4 354.5L350.7 350.72L348.81 350.07L347.51 353.85ZM346.79 362.06L344.9 361.41L346.2 357.63L348.1 358.28L346.79 362.06ZM342.29 368.97L344.18 369.62L345.49 365.84L343.6 365.19L342.29 368.97ZM341.57 377.19L339.68 376.54L340.99 372.75L342.88 373.41L341.57 377.19ZM337.07 384.1L338.96 384.75L340.27 380.97L338.38 380.32L337.07 384.1ZM336.35 392.31L334.46 391.66L335.77 387.88L337.66 388.53L336.35 392.31ZM331.85 399.22L333.75 399.88L335.05 396.09L333.16 395.44L331.85 399.22ZM331.14 407.44L329.25 406.79L330.55 403L332.44 403.66L331.14 407.44ZM326.64 414.35L328.53 415L329.83 411.22L327.94 410.57L326.64 414.35ZM325.92 422.56L324.03 421.91L325.33 418.13L327.22 418.78L325.92 422.56ZM321.42 429.47L323.31 430.13L324.61 426.34L322.72 425.69L321.42 429.47ZM320.7 437.69L318.81 437.04L320.11 433.26L322.01 433.91L320.7 437.69ZM316.2 444.6L318.09 445.25L319.4 441.47L317.51 440.82L316.2 444.6ZM315.48 452.81L313.59 452.16L314.9 448.38L316.79 449.03L315.48 452.81ZM310.98 459.72L312.87 460.38L314.18 456.59L312.29 455.94L310.98 459.72ZM310.27 467.94L308.37 467.29L309.68 463.51L311.57 464.16L310.27 467.94ZM305.77 474.85L307.66 475.5L308.96 471.72L307.07 471.07L305.77 474.85ZM305.05 483.06L303.16 482.41L304.46 478.63L306.35 479.28L305.05 483.06ZM300.55 489.97L302.44 490.63L303.74 486.85L301.85 486.19L300.55 489.97ZM299.83 498.19L297.94 497.54L299.24 493.76L301.13 494.41L299.83 498.19ZM295.33 505.1L297.22 505.75L298.52 501.97L296.63 501.32L295.33 505.1ZM294.61 513.31L292.72 512.66L294.02 508.88L295.92 509.53L294.61 513.31ZM292 520.88L290.11 520.23L291.42 516.44L293.31 517.1L292 520.88Z" fill="#707F8F"/>
<path fill-rule="evenodd" clip-rule="evenodd" d="M356.08 320.6L356.77 322.47L360.52 321.08L359.83 319.2L356.08 320.6ZM349.28 325.27L348.58 323.39L352.33 322L353.03 323.87L349.28 325.27ZM341.08 326.18L341.78 328.06L345.53 326.66L344.83 324.79L341.08 326.18ZM334.28 330.85L333.59 328.98L337.33 327.58L338.03 329.45L334.28 330.85ZM326.09 331.77L326.79 333.64L330.54 332.25L329.84 330.37L326.09 331.77ZM319.29 336.43L318.59 334.56L322.34 333.16L323 335L319.29 336.43ZM311.09 337.35L311.79 339.22L315.54 337.83L314.84 335.95L311.09 337.35ZM304.29 342.02L303.6 340.14L307.35 338.75L308.04 340.62L304.29 342.02ZM296.1 342.93L296.8 344.81L300.55 343.41L299.85 341.54L296.1 342.93ZM289.3 347.6L288.6 345.73L292.35 344.33L293.05 346.2L289.3 347.6ZM281.11 348.52L281.8 350.39L285.55 348.99L284.85 347.12L281.11 348.52ZM274.31 353.18L273.61 351.31L277.36 349.91L278.05 351.79L274.31 353.18ZM266.11 354.1L266.81 355.97L270.56 354.58L269.86 352.7L266.11 354.1ZM259.31 358.77L258.62 356.89L262.36 355.5L263.06 357.37L259.31 358.77ZM251.12 359.68L251.82 361.56L255.56 360.16L254.87 358.29L251.12 359.68ZM244.32 364.35L243.62 362.47L247.37 361.08L248.07 362.95L244.32 364.35ZM236.12 365.27L236.82 367.14L240.57 365.74L239.87 363.87L236.12 365.27ZM229.32 369.93L228.63 368.06L232.37 366.66L233.07 368.54L229.32 369.93ZM221.13 370.85L221.83 372.72L225.58 371.33L224.88 369.45L221.13 370.85ZM214.33 375.52L213.63 373.64L217.38 372.25L218.08 374.12L214.33 375.52ZM206.13 376.43L206.83 378.31L210.58 376.91L209.88 375.04L206.13 376.43ZM199.33 381.1L198.64 379.22L202.39 377.83L203.08 379.7L199.33 381.1ZM191.14 382.02L191.84 383.89L195.59 382.49L194.89 380.62L191.14 382.02ZM184.34 386.68L183.64 384.81L187.39 383.41L188.09 385.29L184.34 386.68ZM176.15 387.6L176.84 389.47L180.59 388.08L179.9 386.2L176.15 387.6ZM169.35 392.27L168.65 390.39L172.4 388.99L173.1 390.87L169.35 392.27ZM161.15 393.18L161.85 395.06L165.6 393.66L164.9 391.79L161.15 393.18ZM154.35 397.85L153.66 395.97L157.4 394.58L158.1 396.45L154.35 397.85ZM146.16 398.77L146.86 400.64L150.6 399.24L149.91 397.37L146.16 398.77ZM139.36 403.43L138.66 401.56L142.41 400.16L143.11 402.04L139.36 403.43ZM131.16 404.35L131.86 406.22L135.61 404.83L134.91 402.95L131.16 404.35ZM124.36 409.01L123.67 407.14L127.41 405.74L128.11 407.62L124.36 409.01ZM116.17 409.93L116.87 411.81L120.62 410.41L119.92 408.54L116.17 409.93ZM109.37 414.6L108.67 412.72L112.42 411.33L113.12 413.2L109.37 414.6ZM101.87 417.39L101.17 415.52L104.92 414.12L105.62 415.99L101.87 417.39Z" fill="#707F8F"/>
<path fill-rule="evenodd" clip-rule="evenodd" d="M9.12012 260.57L13.1201 261.25L13.4601 259.25L9.46012 258.57L9.12012 260.57ZM21.0001 262.61L17.0601 261.93L17.4001 259.93L21.3401 260.61L21.0001 262.61ZM25.0001 263.29L28.9001 264L29.2801 261.97L25.3401 261.29L25.0001 263.29ZM36.8201 265.33L32.8701 264.65L33.2101 262.65L37.2101 263.33L36.8201 265.33ZM40.7301 266L44.7001 266.69L45.0101 264.68L41.0701 264L40.7301 266ZM52.5801 268.05L48.6401 267.37L48.9801 265.37L52.9201 266.05L52.5801 268.05ZM56.5201 268.73L60.4701 269.41L60.8601 267.41L56.8601 266.73L56.5201 268.73ZM68.3501 270.77L64.4101 270.09L64.7501 268.09L68.6901 268.77L68.3501 270.77ZM72.2901 271.45L76.2301 272.13L76.5701 270.13L72.6301 269.45L72.2901 271.45ZM84.1201 273.5L80.1201 272.81L80.4601 270.81L84.4601 271.49L84.1201 273.5ZM88.0001 274.18L92.0001 274.86L92.2801 272.87L88.3401 272.18L88.0001 274.18ZM99.8501 276.2L95.9101 275.52L96.2501 273.52L100.19 274.2L99.8501 276.2ZM103.79 276.88L107.74 277.56L108.13 275.56L104.13 274.88L103.79 276.88ZM115.62 278.92L111.68 278.24L112.02 276.24L116 277L115.62 278.92ZM119.56 279.6L123.5 280.28L123.84 278.28L119.9 277.6L119.56 279.6ZM131.39 281.64L127.45 280.96L127.79 278.96L131.73 279.64L131.39 281.64ZM135.33 282.32L139.27 283L139.61 281L135.67 280.32L135.33 282.32ZM147.11 284.38L143.17 283.7L143.51 281.7L147.45 282.38L147.11 284.38ZM151.05 285.06L155 285.74L155.34 283.74L151.39 283.06L151.05 285.06ZM162.93 287.11L158.99 286.43L159.33 284.43L163.27 285.11L162.93 287.11ZM166.87 287.79L170.81 288.48L171.15 286.47L167.21 285.79L166.87 287.79ZM178.7 289.84L174.76 289.16L175.09 287.16L179.04 287.85L178.7 289.84ZM182.64 290.52L186.58 291.2L186.92 289.2L182.98 288.52L182.64 290.52ZM194.46 292.56L190.52 291.88L190.86 289.88L194.8 290.56L194.46 292.56ZM198.41 293.24L202.35 293.92L202.69 291.92L198.75 291.24L198.41 293.24ZM210.23 295.28L206.29 294.6L206.63 292.6L210.57 293.28L210.23 295.28ZM214.17 295.96L218.11 296.64L218.45 294.64L214.51 293.96L214.17 295.96ZM226 298L222.06 297.32L222.4 295.32L226.34 296L226 298ZM229.93 298.71L233.87 299.39L234.21 297.39L230.27 296.71L229.93 298.71ZM241.75 300.75L237.81 300.07L238.15 298.07L242.09 298.75L241.75 300.75ZM245.7 301.43L249.64 302.11L249.98 300.11L246.04 299.43L245.7 301.43ZM257.52 303.48L253.58 302.79L253.92 300.79L257.86 301.47L257.52 303.48ZM261.46 304.16L265.4 304.84L265.74 302.85L261.8 302.16L261.46 304.16ZM273.29 306.2L269.35 305.52L269.69 303.52L273.63 304.2L273.29 306.2ZM277.23 306.88L281.17 307.56L281.51 305.56L277.57 304.88L277.23 306.88ZM289.05 308.92L285.11 308.24L285.45 306.24L289.39 306.92L289.05 308.92ZM293 309.6L296.94 310.28L297.28 308.28L293.34 307.6L293 309.6ZM304.82 311.64L300.88 310.96L301.22 308.96L305.16 309.64L304.82 311.64ZM308.76 312.32L312.7 313L313 311L309.1 310.32L308.76 312.32ZM320.59 314.28L316.65 313.6L316.99 311.6L320.93 312.28L320.59 314.28ZM324.53 314.96L328.47 315.64L328.81 313.64L324.87 312.96L324.53 314.96ZM336.35 317L332.41 316.32L332.75 314.32L336.69 315L336.35 317ZM340.3 317.72L344.24 318.41L344.58 316.4L340.64 315.72L340.3 317.72ZM352.12 319.77L348.18 319.09L348.52 317.09L352.46 317.77L352.12 319.77ZM360 321.13L356.06 320.45L356.4 318.45L360.34 319.13L360 321.13Z" fill="#707F8F"/>
<path fill-rule="evenodd" clip-rule="evenodd" d="M169.08 228.24L172.68 229.99L173.55 228.2L169.96 226.45L169.08 228.24ZM179.87 233.49L176.27 231.74L177.15 229.95L180.75 231.7L179.87 233.49ZM183.47 235.25L187.06 237L187.94 235.2L184.34 233.45L183.47 235.25ZM194.26 240.5L190.66 238.75L191.54 236.95L195.13 238.7L194.26 240.5ZM197.85 242.25L201.45 244L202.33 242.2L198.73 240.45L197.85 242.25ZM208.65 247.5L205.05 245.75L206 244L209.6 245.75L208.65 247.5ZM212.24 249.25L215.84 251L216.71 249.2L213.12 247.45L212.24 249.25ZM223.03 254.5L219.44 252.75L220.31 250.95L223.91 252.7L223.03 254.5ZM226.63 256.25L230.23 258L231.1 256.2L227.5 254.45L226.63 256.25ZM237.42 261.5L233.82 259.75L234.7 257.95L238.29 259.7L237.42 261.5ZM241.02 263.25L244.61 265L245.49 263.2L241.89 261.45L241.02 263.25ZM251.81 268.5L248.21 266.75L249.08 264.95L252.68 266.7L251.81 268.5ZM255.4 270.25L259 272L259.87 270.2L256.28 268.45L255.4 270.25ZM266.22 275.5L262.63 273.75L263.5 271.95L267.1 273.7L266.22 275.5ZM269.82 277.25L273.42 279L274.29 277.2L270.69 275.45L269.82 277.25ZM280.61 282.5L277.01 280.75L277.89 278.96L281.48 280.71L280.61 282.5ZM284.21 284.25L287.8 286L288.68 284.21L285.08 282.46L284.21 284.25ZM295.04 289.5L291.44 287.74L292.31 285.95L295.91 287.7L295.04 289.5ZM298.63 291.25L302.23 293L303.1 291.2L299.51 289.45L298.63 291.25ZM309.42 296.5L305.83 294.75L306.7 292.95L310.3 294.7L309.42 296.5ZM313.02 298.25L316.62 300L317.49 298.2L313.9 296.45L313.02 298.25ZM323.81 303.5L320.21 301.75L321.09 299.95L324.69 301.7L323.81 303.5ZM327.41 305.25L331 307L331.88 305.2L328.28 303.45L327.41 305.25ZM338.16 310.5L334.56 308.75L335.44 306.95L339.03 308.7L338.16 310.5ZM341.75 312.25L345.35 314L346.23 312.2L342.63 310.45L341.75 312.25ZM352.54 317.5L349 315.79L349.87 313.99L353.47 315.74L352.54 317.5ZM359.74 321L356.14 319.25L357.02 317.45L360.61 319.2L359.74 321Z" fill="#707F8F"/>
<path fill-rule="evenodd" clip-rule="evenodd" d="M224.7 16.9999L226.32 20.6799L228.15 19.8399L226.53 16.1899L224.7 16.9999ZM229.57 27.9999L228 24.3499L229.82 23.5399L231.44 27.1999L229.57 27.9999ZM231.19 31.7099L232.81 35.3699L234.64 34.5599L233.02 30.8999L231.19 31.7099ZM236.05 42.6799L234.43 38.9999L236.26 38.1899L237.88 41.8399L236.05 42.6799ZM237.67 46.3399L239.29 49.9999L241.12 49.1899L239.5 45.5299L237.67 46.3399ZM242.52 57.2599L240.89 53.5999L242.72 52.7899L244.34 56.4499L242.52 57.2599ZM244.14 60.9199L245.76 64.5699L247.59 63.7599L245.97 60.1099L244.14 60.9199ZM249 71.8899L247.38 68.2299L249.21 67.4199L250.83 71.0799L249 71.8899ZM250.65 75.5499L252.27 79.1999L254.1 78.3899L252.48 74.7299L250.65 75.5499ZM255.51 86.5199L253.89 82.8599L255.72 82.0499L257.34 85.6999L255.51 86.5199ZM257.14 90.1699L258.76 93.8299L260.58 92.9999L258.96 89.3599L257.14 90.1699ZM262 101.14L260.38 97.4899L262.21 96.6699L263.83 100.33L262 101.14ZM263.65 104.8L265.27 108.46L267.1 107.65L265.48 103.99L263.65 104.8ZM268.51 115.77L266.89 112.11L268.72 111.3L270.3 115L268.51 115.77ZM270.14 119.43L271.76 123.08L273.58 122.27L271.96 118.62L270.14 119.43ZM275 130.4L273.38 126.74L275.21 125.93L276.83 129.59L275 130.4ZM276.58 134.03L278.2 137.69L280 136.9L278.41 133.22L276.58 134.03ZM281.44 145L279.82 141.35L281.65 140.54L283.27 144.19L281.44 145ZM283.07 148.72L284.69 152.38L286.51 151.57L284.89 147.91L283.07 148.72ZM287.93 159.69L286.31 156L288.14 155.19L289.76 158.85L287.93 159.69ZM289.55 163.35L291.17 167L293 166.19L291.38 162.54L289.55 163.35ZM294.41 174.24L292.79 170.58L294.62 169.77L296.24 173.43L294.41 174.24ZM296 177.93L297.66 181.55L299.44 180.78L297.82 177.12L296 177.93ZM300.9 188.86L299.28 185.21L301.11 184.4L302.73 188.05L300.9 188.86ZM302.52 192.52L304.14 196.18L305.97 195.37L304.35 191.71L302.52 192.52ZM307.38 203.49L305.76 199.83L307.59 199.02L309.21 202.68L307.38 203.49ZM309 207.19L310.62 210.8L312.45 210.03L310.83 206.38L309 207.19ZM313.87 218.12L312.25 214.46L314.07 213.65L315.7 217.31L313.87 218.12ZM315.49 221.77L317.11 225.43L318.94 224.62L317.32 220.96L315.49 221.77ZM320.35 232.75L318.73 229.09L320.56 228.28L322.18 231.93L320.35 232.75ZM322 236.44L323.59 240.06L325.45 239.29L323.83 235.63L322 236.44ZM326.84 247.37L325.22 243.72L327.04 242.9L328.66 246.56L326.84 247.37ZM328.46 251.03L330.08 254.69L331.91 253.88L330.29 250.22L328.46 251.03ZM333.32 262L331.7 258.34L333.53 257.53L335.15 261.19L333.32 262ZM334.94 265.72L336.56 269.37L338.39 268.56L336.77 264.91L334.94 265.72ZM339.81 276.69L338.19 273L340.01 272.19L341.63 275.85L339.81 276.69ZM341.43 280.34L343.05 284L344.88 283.19L343.26 279.53L341.43 280.34ZM346.27 291.29L344.65 287.64L346.48 286.83L348.1 290.48L346.27 291.29ZM347.91 295L349.51 298.61L351.36 297.85L349.74 294.19L347.91 295ZM352.76 305.92L351.14 302.26L352.96 301.45L354.58 305.11L352.76 305.92ZM354.38 309.58L356 313.23L357.83 312.42L356.21 308.77L354.38 309.58ZM357.64 316.89L359.26 320.55L361.09 319.74L359.47 316.08L357.64 316.89Z" fill="#707F8F"/>
<path fill-rule="evenodd" clip-rule="evenodd" d="M331.89 69L332.33 73L334.32 72.79L333.89 68.79L331.89 69ZM333.19 81L332.76 77L334.76 76.79L335.19 80.79L333.19 81ZM333.62 85L334.06 89L336.06 88.78L335.62 84.78L333.62 85ZM334.92 97L334.49 93L336.49 92.78L336.92 96.78L334.92 97ZM335.36 101L335.79 105L337.79 104.79L337.36 100.79L335.36 101ZM336.66 113L336.22 109L338.22 108.78L338.66 112.78L336.66 113ZM337.09 117L337.52 121L339.52 120.78L339.09 116.78L337.09 117ZM338.39 128.95L337.96 124.95L339.96 124.74L340.39 128.74L338.39 128.95ZM338.82 132.95L339.26 136.95L341.25 136.73L340.82 132.73L338.82 132.95ZM340.12 144.9L339.69 140.9L341.69 140.68L342.12 144.68L340.12 144.9ZM340.56 148.9L340.99 152.9L343 152.68L342.56 148.68L340.56 148.9ZM341.85 160.85L341.42 156.85L343.42 156.64L343.85 160.64L341.85 160.85ZM342.29 164.8L342.72 168.8L344.72 168.58L344.29 164.58L342.29 164.8ZM343.59 176.8L343.15 172.8L345.15 172.58L345.59 176.58L343.59 176.8ZM344.02 180.8L344.45 184.8L346.45 184.59L346.02 180.59L344.02 180.8ZM345.32 192.75L344.89 188.75L346.89 188.53L347.33 192.53L345.32 192.75ZM345.75 196.75L346.19 200.75L348.18 200.53L347.75 196.53L345.75 196.75ZM347.05 208.7L346.62 204.7L348.62 204.49L349.05 208.49L347.05 208.7ZM347.49 212.7L347.92 216.7L349.93 216.48L349.49 212.48L347.49 212.7ZM348.79 224.65L348.35 220.65L350.35 220.43L350.78 224.43L348.79 224.65ZM349.22 228.65L349.65 232.65L351.65 232.43L351.22 228.43L349.22 228.65ZM350.52 240.6L350.08 236.6L352.08 236.39L352.52 240.39L350.52 240.6ZM350.95 244.55L351.38 248.55L353.38 248.33L352.95 244.33L350.95 244.55ZM352.25 256.55L351.82 252.55L353.82 252.33L354.25 256.33L352.25 256.55ZM352.68 260.5L353.12 264.5L355.11 264.29L354.68 260.29L352.68 260.5ZM353.98 272.45L353.55 268.45L355.55 268.23L355.98 272.23L353.98 272.45ZM354.42 276.45L354.85 280.45L356.86 280.23L356.42 276.23L354.42 276.45ZM355.72 288.4L355.28 284.4L357.28 284.19L357.71 288.19L355.72 288.4ZM356.15 292.35L356.58 296.35L358.58 296.14L358.15 292.14L356.15 292.35ZM357.45 304.3L357.01 300.3L359.01 300.08L359.45 304.08L357.45 304.3ZM357.88 308.3L358.31 312.3L360.31 312.08L359.88 308.08L357.88 308.3ZM358.75 316.25L359.18 320.25L361.18 320.04L360.75 316.04L358.75 316.25Z" fill="#707F8F"/>
<path fill-rule="evenodd" clip-rule="evenodd" d="M388.24 146.44L390.24 146.77L390.52 145.11L388.52 144.78L388.24 146.44ZM388.92 154.66L386.92 154.33L387.58 150.38L389.58 150.71L388.92 154.66ZM385.6 162.22L387.6 162.55L388.26 158.6L386.26 158.27L385.6 162.22ZM386.28 170.44L384.28 170.11L384.94 166.16L386.94 166.49L386.28 170.44ZM382.96 178L384.96 178.33L385.62 174.38L383.62 174.05L382.96 178ZM383.64 186.22L381.64 185.89L382.3 181.89L384.3 182.22L383.64 186.22ZM380.32 193.78L382.32 194.11L382.98 190.16L380.98 189.84L380.32 193.78ZM381 202L379 201.67L379.66 197.73L381.66 198.06L381 202ZM377.63 209.51L379.63 209.84L380.29 205.9L378.29 205.57L377.63 209.51ZM378.32 217.73L376.32 217.4L376.98 213.46L378.98 213.79L378.32 217.73ZM375 225.29L377 225.62L377.66 221.68L375.66 221.35L375 225.29ZM375.68 233.51L373.68 233.18L374.34 229.24L376.34 229.57L375.68 233.51ZM372.36 241.07L374.36 241.4L375.02 237.46L373.02 237.13L372.36 241.07ZM373.04 249.29L371.04 248.96L371.7 245.02L373.7 245.35L373.04 249.29ZM369.72 256.85L371.72 257.18L372.37 253.24L370.37 252.91L369.72 256.85ZM370.4 265.07L368.4 264.74L369.05 260.8L371.05 261.13L370.4 265.07ZM367.08 272.63L369.08 272.96L369.74 269.02L367.74 268.69L367.08 272.63ZM367.76 280.85L365.76 280.52L366.42 276.58L368.42 276.91L367.76 280.85ZM364.44 288.41L366.44 288.75L367.1 284.8L365.1 284.47L364.44 288.41ZM365.12 296.64L363.12 296.31L363.78 292.36L365.78 292.69L365.12 296.64ZM361.8 304.2L363.8 304.53L364.46 300.58L362.46 300.25L361.8 304.2ZM362.48 312.42L360.48 312.09L361.14 308.14L363.14 308.47L362.48 312.42ZM361.16 320.31L359.16 319.98L359.82 315.98L361.82 316.31L361.16 320.31Z" fill="#707F8F"/>
<path fill-rule="evenodd" clip-rule="evenodd" d="M479.52 213.62L480.84 215.12L482.13 213.99L480.8 212.49L479.52 213.62ZM474.84 220.4L473.52 218.9L476.52 216.26L477.84 217.76L474.84 220.4ZM467.52 224.19L468.84 225.69L471.84 223.05L470.52 221.55L467.52 224.19ZM462.84 230.98L461.51 229.48L464.51 226.84L465.83 228.34L462.84 230.98ZM455.52 234.77L456.84 236.27L459.84 233.63L458.52 232.13L455.52 234.77ZM450.84 241.56L449.52 240.06L452.52 237.42L453.84 238.92L450.84 241.56ZM443.52 245.35L444.84 246.85L447.84 244.2L446.52 242.7L443.52 245.35ZM438.84 252.14L437.51 250.64L440.51 247.99L441.83 249.49L438.84 252.14ZM431.52 255.93L432.84 257.43L435.85 254.78L434.52 253.28L431.52 255.93ZM426.84 262.72L425.52 261.21L428.52 258.57L429.84 260.07L426.84 262.72ZM419.52 266.5L420.84 268L423.84 265.36L422.52 263.86L419.52 266.5ZM414.84 273.29L413.52 271.79L416.52 269.15L417.84 270.65L414.84 273.29ZM407.51 277.08L408.84 278.58L411.84 275.94L410.51 274.44L407.51 277.08ZM402.84 283.87L401.52 282.37L404.52 279.73L405.84 281.23L402.84 283.87ZM395.52 287.66L396.84 289.16L399.84 286.51L398.52 285.01L395.52 287.66ZM390.84 294.45L389.52 292.95L392.52 290.3L393.84 291.8L390.84 294.45ZM383.51 298.24L384.84 299.74L387.84 297.09L386.51 295.59L383.51 298.24ZM378.84 305.03L377.52 303.52L380.52 300.88L381.84 302.38L378.84 305.03ZM371.52 308.81L372.84 310.31L375.84 307.67L374.52 306.17L371.52 308.81ZM366.84 315.6L365.52 314.1L368.52 311.46L369.84 312.96L366.84 315.6ZM360.84 320.89L359.51 319.39L362.51 316.75L363.84 318.25L360.84 320.89Z" fill="#707F8F"/>
<path fill-rule="evenodd" clip-rule="evenodd" d="M551.71 294.97L550.47 295.13L550.73 297.13L551.97 296.97L551.71 294.97ZM542.54 296.13L546.54 295.62L546.79 297.62L542.79 298.13L542.54 296.13ZM534.6 297.13L534.86 299.13L538.86 298.62L538.6 296.62L534.6 297.13ZM526.67 298.13L530.67 297.62L530.92 299.62L526.93 300.13L526.67 298.13ZM522.74 298.62L518.74 299.13L518.99 301.13L523 300.62L522.74 298.62ZM510.8 300.13L514.8 299.62L515.05 301.62L511.06 302.13L510.8 300.13ZM506.87 300.62L502.87 301.13L503.12 303.13L507.13 302.62L506.87 300.62ZM494.93 302.13L498.93 301.62L499.19 303.62L495.19 304.13L494.93 302.13ZM491 302.62L487 303.13L487.25 305.13L491.26 304.62L491 302.62ZM479.06 304.13L483.06 303.62L483.32 305.62L479.32 306.13L479.06 304.13ZM475.13 304.62L471.13 305.13L471.38 307.13L475.38 306.62L475.13 304.62ZM463.19 306.13L467.19 305.62L467.45 307.62L463.45 308.13L463.19 306.13ZM459.26 306.62L455.26 307.13L455.52 309.13L459.51 308.62L459.26 306.62ZM447.33 308.13L451.33 307.62L451.59 309.62L447.58 310.13L447.33 308.13ZM443.39 308.62L439.39 309.13L439.65 311.13L443.64 310.62L443.39 308.62ZM431.46 310.13L435.46 309.62L435.72 311.62L431.71 312.13L431.46 310.13ZM427.52 310.62L423.52 311.13L423.78 313.13L427.78 312.62L427.52 310.62ZM415.59 312.13L419.59 311.62L419.84 313.62L415.84 314.13L415.59 312.13ZM411.65 312.62L407.65 313.13L407.91 315.13L411.91 314.62L411.65 312.62ZM399.72 314.13L403.72 313.62L403.97 315.62L399.97 316.13L399.72 314.13ZM395.79 314.62L391.79 315.13L392.04 317.13L396.05 316.62L395.79 314.62ZM383.85 316.13L387.85 315.62L388.1 317.62L384.11 318.13L383.85 316.13ZM379.92 316.62L375.92 317.13L376.17 319.13L380.18 318.62L379.92 316.62ZM367.98 318.13L371.98 317.62L372.23 319.62L368.24 320.13L367.98 318.13ZM360.3 321.13L360.05 319.13L364.05 318.62L364.31 320.62L360.3 321.13Z" fill="#707F8F"/>
<path fill-rule="evenodd" clip-rule="evenodd" d="M360.01 321.27L364.01 321.8L364.28 319.8L360.28 319.27L360.01 321.27ZM371.94 322.8L367.94 322.27L368.21 320.27L372.21 320.8L371.94 322.8ZM375.87 323.33L379.87 323.85L380.14 321.86L376.14 321.33L375.87 323.33ZM387.8 324.9L383.8 324.38L384.07 322.38L388.07 322.91L387.8 324.9ZM391.73 325.43L395.73 325.95L395.99 323.96L391.99 323.43L391.73 325.43ZM403.66 327L399.66 326.48L399.92 324.48L403.92 325L403.66 327ZM407.59 327.48L411.59 328L411.85 326L407.85 325.48L407.59 327.48ZM419.52 329L415.52 328.47L415.78 326.47L419.78 326.99L419.52 329ZM423.41 329.59L427.41 330.12L427.67 328.11L423.67 327.59L423.41 329.59ZM435.34 331.17L431.34 330.64L431.6 328.64L435.6 329.17L435.34 331.17ZM439.28 331.69L443.28 332.22L443.54 330.22L439.54 329.69L439.28 331.69ZM451.21 333.27L447.21 332.74L447.47 330.74L451.47 331.27L451.21 333.27ZM455.14 333.75L459.14 334.27L459.4 332.28L455.4 331.75L455.14 333.75ZM467.07 335.32L463.07 334.8L463.34 332.8L467.34 333.33L467.07 335.32ZM471 335.85L475 336.37L475.27 334.38L471.27 333.85L471 335.85ZM483 337.42L479 336.9L479.27 334.9L483.27 335.42L483 337.42ZM486.9 338.02L490.9 338.54L491.17 336.54L487.17 336.02L486.9 338.02ZM498.83 339.6L494.83 339.07L495.1 337.07L499.1 337.59L498.83 339.6ZM502.76 340.12L506.76 340.65L507.03 338.64L503.03 338.12L502.76 340.12ZM514.69 341.7L510.69 341.17L510.95 339.17L514.95 339.7L514.69 341.7ZM518.62 342.22L522.62 342.75L522.88 340.75L518.88 340.22L518.62 342.22ZM530.55 343.8L526.55 343.27L526.81 341.27L530.81 341.8L530.55 343.8ZM534.48 344.28L538.48 344.8L538.74 342.81L534.74 342.28L534.48 344.28ZM546.41 345.85L542.41 345.33L542.67 343.33L546.67 343.86L546.41 345.85ZM550.34 346.38L554.34 346.9L554.6 344.91L550.6 344.38L550.34 346.38ZM562.27 347.95L558.27 347.43L558.53 345.43L562.53 345.95L562.27 347.95ZM566.21 348.48L570.21 349L570.47 347L566.47 346.48L566.21 348.48ZM578.14 350.09L574.14 349.56L574.4 347.56L578.4 348.08L578.14 350.09ZM582.07 350.56L586.07 351.09L586.34 349.08L582.34 348.56L582.07 350.56ZM594 352.14L590 351.61L590.27 349.61L594.27 350.14L594 352.14ZM597.9 352.76L601.9 353.29L602.17 351.29L598.17 350.76L597.9 352.76ZM609.83 354.34L605.83 353.81L606.1 351.81L610.1 352.34L609.83 354.34ZM613.76 354.87L617.76 355.39L618.03 353.4L614.03 352.87L613.76 354.87ZM625.69 356.39L621.69 355.87L621.96 353.87L625.96 354.4L625.69 356.39ZM629.62 356.92L633.62 357.44L633.88 355.44L629.88 354.92L629.62 356.92ZM641.55 358.49L637.55 357.97L637.81 355.97L641.81 356.49L641.55 358.49ZM645.48 359.02L649.48 359.55L649.74 357.54L645.74 357.02L645.48 359.02ZM657.41 360.6L653.41 360.07L653.67 358.07L657.67 358.59L657.41 360.6ZM661.34 361.12L665.34 361.65L665.6 359.64L661.6 359.12L661.34 361.12ZM673.27 362.65L669.27 362.12L669.53 360.12L673.53 360.65L673.27 362.65ZM677.2 363.17L681.2 363.7L681.46 361.7L677.46 361.17L677.2 363.17ZM689.13 364.75L685.13 364.22L685.39 362.22L689.39 362.75L689.13 364.75ZM693.07 365.28L697.07 365.8L697.33 363.81L693.33 363.28L693.07 365.28ZM701 366.33L705 366.85L705.27 364.86L701.27 364.33L701 366.33Z" fill="#707F8F"/>
<path fill-rule="evenodd" clip-rule="evenodd" d="M95.6602 123.52L98.8702 125.91L100.07 124.31L96.8602 121.92L95.6602 123.52ZM105.27 130.71L102.07 128.31L103.27 126.71L106.47 129.1L105.27 130.71ZM108.48 133.1L111.68 135.5L112.88 133.9L109.67 131.5L108.48 133.1ZM118.09 140.29L114.88 137.89L116.08 136.29L119.28 138.69L118.09 140.29ZM121.29 142.69L124.49 145.08L125.69 143.48L122.49 141.08L121.29 142.69ZM130.9 149.87L127.69 147.48L128.89 145.88L132.09 148.27L130.9 149.87ZM134.1 152.27L137.3 154.67L138.5 153.06L135.3 150.67L134.1 152.27ZM143.71 159.46L140.51 157.06L141.7 155.46L144.91 157.86L143.71 159.46ZM146.91 161.85L150.12 164.25L151.31 162.65L148.11 160.25L146.91 161.85ZM156.52 169.04L153.32 166.65L154.52 165.04L157.72 167.44L156.52 169.04ZM159.72 171.44L162.93 173.83L164.12 172.23L160.92 169.84L159.72 171.44ZM169.33 178.63L166.13 176.23L167.33 174.63L170.53 177.02L169.33 178.63ZM172.54 181.02L175.74 183.42L176.94 181.82L173.73 179.42L172.54 181.02ZM182.15 188.21L178.94 185.81L180.14 184.21L183.34 186.61L182.15 188.21ZM185.35 190.61L188.55 193L189.75 191.4L186.55 189L185.35 190.61ZM195 197.8L191.79 195.41L192.99 193.81L196.2 196.2L195 197.8ZM198.16 200.23L201.36 202.62L202.56 201.02L199.36 198.63L198.16 200.23ZM207.77 207.42L204.57 205.02L205.76 203.42L208.97 205.82L207.77 207.42ZM210.97 209.81L214.18 212.21L215.37 210.61L212.17 208.21L210.97 209.81ZM220.58 217L217.38 214.6L218.58 213L221.78 215.4L220.58 217ZM223.79 219.35L226.99 221.74L228.19 220.14L224.98 217.75L223.79 219.35ZM233.39 226.53L230.19 224.14L231.39 222.54L234.59 224.93L233.39 226.53ZM236.6 228.93L239.8 231.33L241 229.72L237.79 227.33L236.6 228.93ZM246.21 236.12L243 233.72L244.2 232.12L247.4 234.52L246.21 236.12ZM249.41 238.51L252.61 240.91L253.81 239.31L250.61 236.91L249.41 238.51ZM259.02 245.7L255.82 243.31L257.01 241.7L260.22 244.1L259.02 245.7ZM262.22 248.1L265.42 250.49L266.62 248.89L263.42 246.5L262.22 248.1ZM271.83 255.29L268.63 252.89L269.83 251.29L273.03 253.68L271.83 255.29ZM275 257.7L278.24 260.08L279.4 258.5L276.2 256.1L275 257.7ZM284.64 264.87L281.44 262.47L282.64 260.87L285.84 263.27L284.64 264.87ZM287.85 267.27L291.05 269.66L292.25 268.06L289.04 265.66L287.85 267.27ZM297.46 274.45L294.25 272.06L295.45 270.46L298.65 272.85L297.46 274.45ZM300.66 276.85L303.86 279.25L305.06 277.64L301.86 275.25L300.66 276.85ZM310.27 284.04L307.06 281.64L308.26 280.04L311.46 282.44L310.27 284.04ZM313.47 286.43L316.67 288.83L317.87 287.23L314.67 284.83L313.47 286.43ZM323.08 293.62L319.88 291.23L321.07 289.62L324.28 292.02L323.08 293.62ZM326.28 296L329.49 298.41L330.68 296.79L327.48 294.4L326.28 296ZM335.89 303.21L332.69 300.81L333.89 299.21L337.09 301.6L335.89 303.21ZM339.09 305.6L342.3 308L343.49 306.4L340.29 304L339.09 305.6ZM348.7 312.81L345.5 310.41L346.7 308.81L349.9 311.21L348.7 312.81ZM351.91 315.2L355.11 317.6L356.31 316L353.1 313.6L351.91 315.2ZM358.31 320L359.58 320.94L360.77 319.34L359.51 318.4L358.31 320Z" fill="#707F8F"/>
<circle cx="511.89" cy="53" r="25" fill="white"/>
<path fill-rule="evenodd" clip-rule="evenodd" d="M485.89 53C485.89 67.3594 497.53 79 511.89 79C526.249 79 537.89 67.3594 537.89 53C537.89 38.6406 526.249 27 511.89 27C497.53 27 485.89 38.6406 485.89 53ZM487.89 53C487.89 39.7452 498.635 29 511.89 29C525.144 29 535.89 39.7452 535.89 53C535.89 66.2548 525.144 77 511.89 77C498.635 77 487.89 66.2548 487.89 53Z" fill="#0E2946"/>
<path d="M528.2 71.3399C526.078 64.0952 519.434 59.117 511.885 59.117C504.336 59.117 497.691 64.0952 495.57 71.3399L493.64 70.7799C495.998 62.6647 503.434 57.0828 511.885 57.0828C520.336 57.0828 527.771 62.6647 530.13 70.7799L528.2 71.3399Z" fill="#0E2946"/>
<path fill-rule="evenodd" clip-rule="evenodd" d="M504.89 52.0801C504.89 55.9461 508.024 59.0801 511.89 59.0801C513.746 59.0801 515.527 58.3426 516.839 57.0298C518.152 55.7171 518.89 53.9366 518.89 52.0801V46.0801C518.89 42.2141 515.756 39.0801 511.89 39.0801C508.024 39.0801 504.89 42.2141 504.89 46.0801V52.0801ZM506.89 46.0801C506.89 43.3187 509.128 41.0801 511.89 41.0801C514.651 41.0801 516.89 43.3187 516.89 46.0801V52.0801C516.89 54.8415 514.651 57.0801 511.89 57.0801C509.128 57.0801 506.89 54.8415 506.89 52.0801V46.0801Z" fill="#0E2946"/>
<circle cx="141.83" cy="325.62" r="25" fill="white"/>
<path fill-rule="evenodd" clip-rule="evenodd" d="M115.83 325.62C115.83 339.98 127.471 351.62 141.83 351.62C156.189 351.62 167.83 339.98 167.83 325.62C167.83 311.261 156.189 299.62 141.83 299.62C127.471 299.62 115.83 311.261 115.83 325.62ZM117.83 325.62C117.83 312.365 128.575 301.62 141.83 301.62C155.085 301.62 165.83 312.365 165.83 325.62C165.83 338.875 155.085 349.62 141.83 349.62C128.575 349.62 117.83 338.875 117.83 325.62Z" fill="#0E2946"/>
<path d="M158.15 344C156.034 336.747 149.385 331.76 141.83 331.76C134.274 331.76 127.625 336.747 125.51 344L123.59 343.45C125.954 335.343 133.385 329.77 141.83 329.77C150.274 329.77 157.705 335.343 160.07 343.45L158.15 344Z" fill="#0E2946"/>
<path fill-rule="evenodd" clip-rule="evenodd" d="M134.83 324.7C134.83 328.566 137.964 331.7 141.83 331.7C145.696 331.7 148.83 328.566 148.83 324.7V318.7C148.83 314.834 145.696 311.7 141.83 311.7C137.964 311.7 134.83 314.834 134.83 318.7V324.7ZM136.83 318.7C136.83 315.939 139.069 313.7 141.83 313.7C144.592 313.7 146.83 315.939 146.83 318.7V324.7C146.83 327.461 144.592 329.7 141.83 329.7C139.069 329.7 136.83 327.461 136.83 324.7V318.7Z" fill="#0E2946"/>
<circle cx="542.48" cy="431.39" r="25" fill="white"/>
<path fill-rule="evenodd" clip-rule="evenodd" d="M516.48 431.39C516.48 445.75 528.121 457.39 542.48 457.39C556.839 457.39 568.48 445.75 568.48 431.39C568.48 417.031 556.839 405.39 542.48 405.39C528.121 405.39 516.48 417.031 516.48 431.39ZM518.48 431.39C518.48 418.135 529.225 407.39 542.48 407.39C555.735 407.39 566.48 418.135 566.48 431.39C566.48 444.645 555.735 455.39 542.48 455.39C529.225 455.39 518.48 444.645 518.48 431.39Z" fill="#0E2946"/>
<path d="M558.8 449.72C556.684 442.467 550.035 437.48 542.48 437.48C534.924 437.48 528.275 442.467 526.16 449.72L524.24 449.16C526.604 441.053 534.035 435.48 542.48 435.48C550.924 435.48 558.355 441.053 560.72 449.16L558.8 449.72Z" fill="#0E2946"/>
<path fill-rule="evenodd" clip-rule="evenodd" d="M535.48 430.46C535.48 434.326 538.614 437.46 542.48 437.46C544.336 437.46 546.117 436.722 547.43 435.41C548.742 434.097 549.48 432.316 549.48 430.46V424.46C549.48 420.594 546.346 417.46 542.48 417.46C538.614 417.46 535.48 420.594 535.48 424.46V430.46ZM537.48 424.46C537.48 421.699 539.719 419.46 542.48 419.46C545.241 419.46 547.48 421.699 547.48 424.46V430.46C547.48 433.221 545.241 435.46 542.48 435.46C539.719 435.46 537.48 433.221 537.48 430.46V424.46Z" fill="#0E2946"/>
<path d="M17.0596 126.4C17.0596 170.583 52.8768 206.4 97.0596 206.4C141.242 206.4 177.06 170.583 177.06 126.4C177.06 82.2174 141.242 46.4002 97.0596 46.4002C75.8358 46.3789 55.4751 54.8007 40.4676 69.8082C25.4601 84.8157 17.0384 105.176 17.0596 126.4Z" fill="#476AE3"/>
<path fill-rule="evenodd" clip-rule="evenodd" d="M16.9021 137.878C22.6115 177.763 56.7684 207.387 97.06 207.4C112.557 207.433 127.735 202.992 140.77 194.61C174.7 172.88 187.499 129.515 170.807 92.8433C154.115 56.1719 113.007 37.3443 74.3372 48.6596C35.6671 59.9748 11.1928 97.9925 16.9021 137.878ZM18.06 126.4C18.06 82.7693 53.4295 47.3998 97.06 47.3998C140.67 47.4494 176.01 82.7899 176.06 126.4C176.06 170.03 140.691 205.4 97.06 205.4C53.4295 205.4 18.06 170.03 18.06 126.4Z" fill="#0E2946"/>
<path d="M51.0898 191.88C77.6707 210.528 112.882 211.275 140.23 193.77L134.92 176.77C129.017 157.82 111.479 144.908 91.6298 144.9H78.9398C67.1326 144.915 57.09 153.516 55.2598 165.18L51.0898 191.88Z" fill="white"/>
<path fill-rule="evenodd" clip-rule="evenodd" d="M50.51 192.7C64.1308 202.301 80.3957 207.437 97.06 207.4C112.555 207.416 127.728 202.976 140.77 194.61L141.41 194.2L135.87 176.45C129.885 157.053 111.93 143.842 91.63 143.9H78.94C66.6226 143.844 56.1244 152.823 54.27 165L50 192.34L50.51 192.7ZM139 193.34C112.26 210.067 78.1365 209.305 52.17 191.4L56.24 165.33C57.9411 154.12 67.6019 145.851 78.94 145.9H91.63C111.07 145.825 128.273 158.473 134 177.05L139 193.34Z" fill="#0E2946"/>
<path d="M84.75 128.76C93.6242 133.553 103.597 135.942 113.68 135.69C114.879 135.685 116.025 135.2 116.863 134.343C117.702 133.486 118.161 132.329 118.14 131.13L117.89 117.69L122.31 115.09L117.15 78.4802L75 82.6602L70.25 111.11L75.74 127.87L75.81 146.74L106.71 167L99.53 146.77L98.61 134.12" fill="white"/>
<path fill-rule="evenodd" clip-rule="evenodd" d="M74.7795 147.28L108.649 169.43L100.489 146.53L99.6695 135.36C104.266 136.362 108.966 136.809 113.669 136.69C115.137 136.685 116.541 136.091 117.567 135.043C118.593 133.994 119.156 132.577 119.129 131.11L118.889 118.25L123.379 115.62L117.999 77.3899L74.1095 81.7099L69.1895 111.16L74.7095 128L74.7795 147.28ZM104.779 164.51L76.7795 146.19L76.7095 127.84L71.2495 111L75.8895 83.6399L116.359 79.6399L121.279 114.64L116.939 117.19L117.199 131.19C117.21 132.123 116.85 133.021 116.199 133.69C115.535 134.346 114.633 134.707 113.699 134.69C103.794 134.942 93.9952 132.594 85.2795 127.88L84.2795 129.64C88.5083 131.925 93.002 133.681 97.6595 134.87L98.5395 146.81L104.779 164.51Z" fill="#0E2946"/>
<path d="M86.19 109.05C86.19 109.05 85.06 104.65 82.25 103.25C75.08 99.7203 74.84 112.05 75.41 115.36C76.35 120.84 74.41 122.08 74.52 127.87C72.52 118.06 70.7 116.56 69.52 112.54C66.44 101.79 62.05 83.8903 68.65 75.9303C76.01 67.0603 91.98 69.1303 109.43 69.1303C114.91 69.1303 115.3 70.5603 115.3 70.5603L118.19 77.0003L117.81 83.2203C117.81 83.2203 113.73 82.8903 109.69 82.4003C88.9 79.9403 92 91.5903 92.34 95.3403C93.06 104 90 109 90 109L86.19 109.05Z" fill="#0E2946"/>
<path d="M79.0003 116.27C75.0128 116.27 71.7803 113.037 71.7803 109.05C71.7803 105.062 75.0128 101.83 79.0003 101.83C82.9878 101.83 86.2203 105.062 86.2203 109.05" fill="white"/>
<path d="M79.0003 117.27C74.4605 117.27 70.7803 113.59 70.7803 109.05C70.7803 104.51 74.4605 100.83 79.0003 100.83C83.5401 100.83 87.2203 104.51 87.2203 109.05H85.2203C85.2203 105.615 82.4355 102.83 79.0003 102.83C75.5651 102.83 72.7803 105.615 72.7803 109.05C72.7803 112.485 75.5651 115.27 79.0003 115.27V117.27Z" fill="#0E2946"/>
<path d="M106.11 69.11C110.88 69.11 114.28 65.38 116.31 62.97L114.5 68.97C115.752 68.5944 116.935 68.0168 118 67.26C119.508 66.1316 120.935 64.8986 122.27 63.57C122.27 63.57 122.81 69.43 118 72.82C120.39 73.08 126.72 71.82 127.24 66.2C127.24 66.2 134.08 76.95 119.35 80.33C119.35 80.33 124.61 81.69 126.87 80.33C126.87 80.33 125.6 83.88 116.87 83.08" fill="#0E2946"/>
<circle cx="140.29" cy="533.75" r="65" fill="#FFC31D"/>
<path fill-rule="evenodd" clip-rule="evenodd" d="M74.29 533.75C74.29 570.201 103.839 599.75 140.29 599.75C176.725 599.711 206.251 570.185 206.29 533.75C206.29 497.299 176.741 467.75 140.29 467.75C103.839 467.75 74.29 497.299 74.29 533.75ZM76.29 533.75C76.29 498.404 104.944 469.75 140.29 469.75C175.62 469.788 204.251 498.42 204.29 533.75C204.29 569.096 175.636 597.75 140.29 597.75C104.944 597.75 76.29 569.096 76.29 533.75Z" fill="#0E2946"/>
<path d="M176.49 587.26C155.463 602.016 127.605 602.608 105.97 588.76L110.17 575.29C114.849 560.307 128.723 550.103 144.42 550.1H154.42C163.743 550.115 171.678 556.893 173.15 566.1L176.49 587.26Z" fill="white"/>
<path fill-rule="evenodd" clip-rule="evenodd" d="M105.43 589.6C115.782 596.238 127.823 599.762 140.12 599.75C153.342 599.783 166.249 595.713 177.06 588.1L177.57 587.74L174.18 566C172.709 556.239 164.291 549.039 154.42 549.1H144.42C128.269 549.047 113.98 559.556 109.22 574.99L104.79 589.19L105.43 589.6ZM175.36 586.8C154.938 600.828 128.146 601.425 107.12 588.32L111.13 575.59C115.631 560.992 129.144 551.051 144.42 551.1H154.42C163.283 551.06 170.835 557.526 172.16 566.29L175.36 586.8Z" fill="#0E2946"/>
<path d="M155.9 487.62C155.9 487.62 115.75 477.44 111 500.19C106.25 522.94 126.5 522.69 126.5 522.69" fill="#0E2946"/>
<path d="M149.85 537.33C146.38 539.202 142.683 540.617 138.85 541.54C136.98 541.947 135.086 542.241 133.18 542.42C130.377 542.714 127.747 541.016 126.86 538.34L123.6 528.57L120.11 526.52L124.18 497.52L157.55 500.82L160.31 523.32L157 536.62V551.55L129.76 579.19C129.078 579.88 127.999 579.981 127.201 579.429C126.403 578.877 126.116 577.832 126.52 576.95L138.21 551.55L138.95 541.55" fill="white"/>
<path fill-rule="evenodd" clip-rule="evenodd" d="M126.58 580.26C127.086 580.609 127.686 580.797 128.3 580.8C129.102 580.797 129.869 580.473 130.43 579.9L158 552V536.75L161.37 523.48L158.49 500L123.39 496.47L119.08 527.04L122.83 529.24L125.97 538.66C127.009 541.78 130.08 543.757 133.35 543.41C135.08 543.23 136.58 543.02 137.82 542.79L137.2 551.29L125.58 576.54C124.968 577.858 125.39 579.426 126.58 580.26ZM139.15 551.8L139.84 542.33C143.508 541.376 147.047 539.982 150.38 538.18L149.38 536.42C146 538.248 142.396 539.63 138.66 540.53C136.834 540.935 134.983 541.222 133.12 541.39C130.785 541.637 128.593 540.227 127.85 538L124.47 527.9L121.23 526L125.13 498.65L156.75 501.78L159.39 523.3L156.09 536.38L156 551.14L129 578.49C128.659 578.835 128.119 578.886 127.72 578.61C127.321 578.334 127.177 577.811 127.38 577.37L139.07 551.97L139.15 551.8Z" fill="#0E2946"/>
<path d="M148.72 521.74C148.72 521.74 149.61 518.25 151.84 517.15C157.51 514.35 157.7 524.15 157.25 526.72C156.51 531.06 158.04 532.05 157.95 536.62C159.56 528.87 164.38 522.62 165.28 519.39C167.71 510.89 167.79 497.83 162.56 491.54C156.74 484.54 143.12 486.81 130.3 490.16C126.11 491.26 125.66 491.29 125.66 491.29L123.41 496.4L123.7 501.32C125.802 500.821 127.961 500.606 130.12 500.68C134.95 500.95 134.63 513.2 143.85 510.89C146.85 510.13 145.68 521.73 145.68 521.73L148.72 521.74Z" fill="#0E2946"/>
<path d="M154.43 527.44C156.74 527.44 158.823 526.048 159.706 523.913C160.589 521.778 160.099 519.321 158.464 517.689C156.829 516.057 154.371 515.571 152.238 516.457C150.104 517.344 148.716 519.43 148.72 521.74" fill="white"/>
<path d="M154.43 528.44V526.44C156.336 526.44 158.054 525.291 158.782 523.53C159.511 521.769 159.106 519.742 157.757 518.396C156.408 517.05 154.38 516.649 152.62 517.381C150.861 518.114 149.716 519.834 149.72 521.74H147.72C147.716 519.025 149.348 516.575 151.855 515.534C154.362 514.492 157.25 515.063 159.171 516.982C161.092 518.9 161.668 521.787 160.63 524.295C159.592 526.804 157.145 528.44 154.43 528.44Z" fill="#0E2946"/>
<circle cx="163.23" cy="493.44" r="8.8" fill="#0E2946"/>
<path d="M175.229 548.08C170.779 545.27 166.719 540.78 165.349 535.08C161.929 520.96 182.129 504.71 169.159 497.24C169.552 495.943 170.168 494.725 170.979 493.64C177.919 495.1 186.979 502.96 183.979 511.64C180.979 520.32 179.629 523.28 182.979 531C185.169 536 192.979 537.13 194.589 543.28L175.229 548.08Z" fill="#0E2946"/>
<path d="M601.63 581.72C601.63 612.096 577.006 636.72 546.63 636.72C516.254 636.72 491.63 612.096 491.63 581.72C491.63 551.344 516.254 526.72 546.63 526.72C561.226 526.691 575.232 532.476 585.553 542.797C595.874 553.118 601.659 567.124 601.63 581.72Z" fill="#EF4C59"/>
<path fill-rule="evenodd" clip-rule="evenodd" d="M491.333 590.948C495.847 617.964 519.24 637.75 546.63 637.72C559.026 637.746 571.073 633.62 580.85 626C602.508 609.232 608.859 579.258 595.862 555.148C582.865 531.037 554.336 519.866 528.423 528.741C502.51 537.616 486.82 563.932 491.333 590.948ZM492.63 581.72C492.63 551.896 516.807 527.72 546.63 527.72C576.44 527.753 600.597 551.91 600.63 581.72C600.63 611.543 576.453 635.72 546.63 635.72C516.807 635.72 492.63 611.543 492.63 581.72Z" fill="#0E2946"/>
<path d="M580.24 625.25C560.016 640.866 531.7 640.498 511.89 624.36L515 614.36C519.611 599.585 533.291 589.522 548.77 589.52H558.67C567.884 589.519 575.725 596.235 577.14 605.34L580.24 625.25Z" fill="white"/>
<path fill-rule="evenodd" clip-rule="evenodd" d="M511.249 625.13C521.246 633.266 533.74 637.712 546.629 637.72C559.007 637.749 571.038 633.638 580.809 626.04L581.279 625.68L578.079 605.2C576.626 595.591 568.348 588.5 558.629 588.54H548.729C532.795 588.487 518.698 598.854 513.999 614.08L510.729 624.71L511.249 625.13ZM546.589 635.71C534.393 635.705 522.556 631.579 512.999 624L515.999 614.68C520.415 600.302 533.699 590.492 548.739 590.5H558.639C567.382 590.468 574.824 596.854 576.119 605.5L579.119 624.81C569.766 631.914 558.335 635.745 546.589 635.71Z" fill="#0E2946"/>
<path d="M550.94 578.66C548.15 580.17 547.48 581.3 544.42 582.04C541.281 582.793 538.057 583.13 534.83 583.04C534.067 583.038 533.337 582.729 532.803 582.184C532.269 581.639 531.976 580.903 531.99 580.14L532.15 571.58L529.34 570L532.62 546.71L559.46 549.37L562.46 567.47L559 578.09V590.09C559 590.09 545.77 604.17 538.69 604.17C531.61 604.17 543.89 590.09 543.89 590.09L544.48 582.04" fill="white"/>
<path fill-rule="evenodd" clip-rule="evenodd" d="M535.63 603.64C536 604.34 536.77 605.18 538.63 605.18C545.599 605.18 557.552 592.998 559.485 591.028C559.61 590.901 559.693 590.816 559.73 590.78L560 590.49V578.25L563.46 567.47L560.27 548.38L531.71 545.55L528.21 570.45L531.09 572.15L530.94 580.15C530.924 581.177 531.318 582.168 532.035 582.904C532.752 583.64 533.733 584.06 534.76 584.07C537.619 584.138 540.478 583.883 543.28 583.31L542.81 589.69C540.46 592.41 534.1 600.26 535.63 603.64ZM544.8 590.5L545.37 582.82C546.74 582.411 548.029 581.768 549.18 580.92C549.899 580.421 550.643 579.961 551.41 579.54L550.46 577.78C549.533 578.281 548.829 578.747 548.213 579.155C548.165 579.187 548.117 579.219 548.07 579.25C546.916 580.124 545.59 580.744 544.18 581.07C541.124 581.813 537.984 582.149 534.84 582.07C534.343 582.067 533.868 581.866 533.521 581.511C533.173 581.156 532.982 580.677 532.99 580.18L533.16 571.04L530.42 569.44L533.48 547.76L558.6 550.24L561.46 567.35L558.04 577.78L557.95 589.7C554.12 593.71 543.95 603.18 538.63 603.18C538.19 603.18 537.64 603.12 537.5 602.81C536.78 601.21 540.58 595.31 544.58 590.75L544.8 590.5Z" fill="#0E2946"/>
<path d="M552.32 566.12C552.32 566.12 553.04 563.31 554.83 562.43C559.39 560.18 559.54 568.03 559.18 570.13C558.59 573.62 559.82 574.41 559.75 578.13C561.457 574.679 562.849 571.081 563.91 567.38C565.91 560.54 567.66 550.14 563.46 545.08C558.78 539.44 548.61 540.88 537.46 540.76C525.71 540.62 525.71 550.76 525.71 550.76C525.71 550.76 534.71 549.59 537.32 549.21C552.59 546.95 545.32 555 545.32 557.38C545.16 562.47 549.39 561.3 549.51 565.88L552.32 566.12Z" fill="#0E2946"/>
<path d="M556.91 570.71C558.773 570.714 560.454 569.595 561.168 567.875C561.883 566.155 561.49 564.174 560.173 562.857C558.856 561.541 556.875 561.148 555.155 561.862C553.436 562.577 552.316 564.258 552.32 566.12" fill="white"/>
<path d="M556.91 571.71V569.71C558.368 569.714 559.685 568.838 560.244 567.492C560.804 566.146 560.497 564.595 559.466 563.564C558.435 562.534 556.884 562.226 555.538 562.786C554.192 563.346 553.316 564.662 553.32 566.12H551.32C551.32 563.033 553.823 560.53 556.91 560.53C559.998 560.53 562.5 563.033 562.5 566.12C562.5 569.207 559.998 571.71 556.91 571.71Z" fill="#0E2946"/>
<path d="M550.519 566.31C550.519 566.31 549.829 576.02 544.909 577.37C539.989 578.72 534.749 573.24 531.969 572.65C531.969 572.65 530.109 584.2 530.109 586.57C530.109 588.71 547.729 588.16 552.869 578.45C554.949 574.51 551.669 568.94 552.319 566.12L550.519 566.31Z" fill="#0E2946"/>
<path fill-rule="evenodd" clip-rule="evenodd" d="M530.999 588.31C531.984 588.525 532.991 588.626 533.999 588.61C539.919 588.61 549.999 586.09 553.739 578.95C555.119 576.25 554.389 573.11 553.739 570.33C553.326 569.057 553.156 567.716 553.239 566.38L553.549 565.01L549.549 565.45L549.489 566.28C549.309 568.78 548.079 575.45 544.609 576.45C541.769 577.23 538.569 575.25 536.009 573.65C534.828 572.811 533.527 572.157 532.149 571.71L531.149 571.49L530.979 572.49C530.973 572.534 530.952 572.669 530.918 572.881C530.591 574.958 529.109 584.374 529.109 586.57C529.109 587.15 529.429 587.92 530.999 588.31ZM539.299 585.98C534.929 586.92 531.909 586.59 531.099 586.26H531.109C531.209 584.21 532.139 578 532.749 574.04C533.263 574.266 533.837 574.624 534.443 575.003C534.616 575.111 534.792 575.221 534.969 575.33L534.981 575.337C537.879 577.116 541.484 579.329 545.159 578.33C549.379 577.17 550.839 571.08 551.309 568.08C551.411 568.859 551.599 569.689 551.794 570.547C551.809 570.615 551.824 570.682 551.839 570.75C552.409 573.18 553.059 575.98 551.979 577.98C549.119 583.37 542.159 585.37 539.299 585.98Z" fill="#0E2946"/>
<path fill-rule="evenodd" clip-rule="evenodd" d="M351.71 239.07C339.626 226.468 322.924 219.344 305.465 219.344C288.006 219.344 271.303 226.468 259.22 239.07C233.588 265.507 233.588 307.523 259.22 333.96L360 437.48L460.78 334C486.411 307.563 486.411 265.547 460.78 239.11C448.696 226.508 431.994 219.384 414.535 219.384C397.076 219.384 380.373 226.508 368.29 239.11C365.159 242.267 362.379 245.754 360 249.51C357.623 245.74 354.843 242.24 351.71 239.07Z" fill="#EF4C59"/>
<path fill-rule="evenodd" clip-rule="evenodd" d="M258.51 334.66L360 438.91L461.5 334.66C487.5 308.11 487.5 264.92 461.5 238.37C447.76 224.08 428.27 216.809 408.527 218.609C388.785 220.408 370.931 231.082 360 247.62C348.934 231.266 331.111 220.742 311.446 218.949C291.781 217.157 272.35 224.286 258.51 238.37C232.51 264.92 232.51 308.11 258.51 334.66ZM259.94 239.76C271.831 227.346 288.279 220.33 305.47 220.34C322.662 220.333 339.11 227.352 351 239.77C354.077 242.876 356.81 246.306 359.15 250L360 251.37L360.85 250C363.193 246.306 365.929 242.876 369.01 239.77C380.903 227.361 397.347 220.345 414.535 220.345C431.723 220.345 448.166 227.361 460.06 239.77C485.29 265.54 485.29 307.49 460.06 333.27L360 436L259.94 333.26C234.71 307.49 234.71 265.54 259.94 239.76Z" fill="#0E2946"/>
<path d="M359.56 373.39C354.998 373.391 350.457 372.775 346.06 371.56C341.806 370.389 337.727 368.657 333.93 366.41C326.404 361.975 320.152 355.672 315.78 348.11L317.51 347.11C321.727 354.379 327.752 360.435 335 364.69C338.645 366.843 342.559 368.504 346.64 369.63C355.129 371.96 364.09 371.96 372.58 369.63L373.11 371.56C368.697 372.78 364.138 373.395 359.56 373.39Z" fill="white"/>
<path fill-rule="evenodd" clip-rule="evenodd" d="M399.79 350L401.45 351.13C402.11 350.15 402.74 349.14 403.34 348.1L401.61 347.1C401.04 348.09 400.42 349.06 399.79 350ZM397.04 356.75L397.019 356.731C398.01 355.737 398.835 354.683 399.66 353.62L398.07 352.4C397.27 353.4 396.43 354.4 395.56 355.4L397.019 356.731L397 356.75H397.04ZM390.61 360.15L391.89 361.69C392.93 360.83 394 359.91 394.92 358.95L393.52 357.52C392.61 358.44 391.61 359.32 390.61 360.15ZM386.11 365.86L385.05 364.16C386.16 363.47 387.25 362.74 388.3 361.96L389.49 363.58C388.4 364.38 387.26 365.15 386.11 365.86ZM378.99 367.34L379.79 369.17C381 368.63 382.26 368 383.46 367.39L382.51 365.63C381.36 366.25 380.18 366.82 378.99 367.34ZM372.53 369.63L373.06 371.56C374.37 371.2 375.67 370.78 376.95 370.32L376.26 368.44C375.03 368.89 373.78 369.29 372.53 369.63Z" fill="white"/>
<path d="M354.6 279.65L353.19 278.23L358.14 273.28L353.19 268.32L354.6 266.91L360.97 273.28L354.6 279.65Z" fill="white"/>
<path d="M401.88 348.89L398.8 340.43L400.67 339.74L403.07 346.33L409.66 343.93L410.34 345.81L401.88 348.89Z" fill="white"/>
<path d="M316.24 355.67L314.27 355.32L315.83 346.45L324.7 348.02L324.36 349.99L317.45 348.77L316.24 355.67Z" fill="white"/>
<path d="M403.34 348.11L401.61 347.11C412.661 327.941 409.373 303.727 393.61 288.2L395.01 286.77C411.418 302.94 414.842 328.149 403.34 348.11Z" fill="white"/>
<path fill-rule="evenodd" clip-rule="evenodd" d="M359.56 274.25C360.7 274.25 361.85 274.29 362.98 274.37L363.12 272.37C361.94 272.25 360.74 272.25 359.56 272.25V274.25ZM369.77 275.37C368.49 275.09 367.19 274.87 365.91 274.7L366.17 272.7C367.51 272.87 368.86 273.11 370.17 273.39L369.77 275.37ZM372.62 276.07C373.87 276.42 375.13 276.83 376.35 277.28L377.04 275.4C375.77 274.93 374.46 274.51 373.16 274.15L372.62 276.07ZM382.6 280.09C381.45 279.47 380.27 278.89 379.08 278.37L379.88 276.54C381.12 277.08 382.35 277.68 383.55 278.33L382.6 280.09ZM385.14 281.56C386.25 282.24 387.34 282.98 388.39 283.75L389.58 282.14C388.49 281.34 387.35 280.57 386.2 279.86L385.14 281.56ZM390.7 285.57C391.7 286.4 392.68 287.29 393.61 288.2L395 286.74C394.05 285.79 393 284.87 392 284L390.7 285.57Z" fill="white"/>
<path d="M312.54 310.66L310.61 310.16C316.389 287.854 336.518 272.277 359.56 272.28V274.28C351.17 274.287 342.924 276.461 335.62 280.59C331.926 282.666 328.526 285.225 325.51 288.2C319.232 294.378 314.74 302.139 312.51 310.66H312.54Z" fill="white"/>
<path fill-rule="evenodd" clip-rule="evenodd" d="M309.71 314.16L311.71 314.5V314.49C311.94 313.21 312.22 311.92 312.51 310.66L310.58 310.16C310.24 311.48 309.95 312.82 309.71 314.16ZM311.02 321.32L309.02 321.26C309.07 319.9 309.16 318.53 309.31 317.19L311.31 317.41C311.16 318.69 311.06 320 311 321.31L311.02 321.32ZM309.02 324.32C309.06 325.67 309.16 327.04 309.31 328.39L311.3 328.16C311.16 326.87 311.02 325.56 311.02 324.26L309.02 324.32ZM310.6 335.39C310.26 334.08 309.97 332.74 309.74 331.39L311.74 331.04C311.96 332.32 312.24 333.61 312.57 334.88L310.6 335.39ZM311.45 338.33C311.85 339.63 312.34 340.92 312.85 342.16L314.7 341.4C314.21 340.2 313.75 338.96 313.35 337.72L311.45 338.33ZM314.11 344.95C314.63 346.03 315.19 347.11 315.78 348.11L317.51 347.08C316.982 346.258 316.537 345.361 316.102 344.486C316.035 344.35 315.967 344.215 315.9 344.08L314.11 344.95Z" fill="white"/>
<path d="M360 328.5C359.032 328.504 358.071 328.338 357.16 328.01C356.877 327.912 356.6 327.799 356.33 327.67C354.581 326.83 353.17 325.419 352.33 323.67C352.199 323.393 352.082 323.109 351.98 322.82C351.333 320.989 351.333 318.991 351.98 317.16C352.07 316.9 352.19 316.62 352.31 316.35C353.151 314.601 354.561 313.191 356.31 312.35C356.587 312.219 356.871 312.102 357.16 312C358.992 311.36 360.988 311.36 362.82 312C363.08 312.09 363.36 312.21 363.63 312.33C365.379 313.171 366.789 314.581 367.63 316.33C367.76 316.62 367.88 316.9 367.98 317.18C368.627 319.011 368.627 321.009 367.98 322.84L366.1 322.16C366.345 321.466 366.47 320.736 366.47 320C366.468 319.264 366.343 318.534 366.1 317.84C366.024 317.614 365.934 317.394 365.83 317.18C365.187 315.845 364.108 314.769 362.77 314.13C362.569 314.033 362.362 313.949 362.15 313.88C360.747 313.38 359.214 313.38 357.81 313.88C357.591 313.953 357.378 314.04 357.17 314.14C355.827 314.783 354.743 315.866 354.1 317.21C354.003 317.411 353.919 317.618 353.85 317.83C353.35 319.233 353.35 320.766 353.85 322.17C353.923 322.389 354.01 322.602 354.11 322.81C354.753 324.153 355.837 325.237 357.18 325.88C357.381 325.978 357.588 326.061 357.8 326.13C359.204 326.63 360.737 326.63 362.14 326.13C362.366 326.054 362.586 325.964 362.8 325.86C364.135 325.217 365.211 324.137 365.85 322.8L367.65 323.67C366.811 325.419 365.4 326.83 363.65 327.67C363.36 327.8 363.08 327.92 362.8 328.02C361.901 328.339 360.954 328.501 360 328.5Z" fill="white"/>
<path d="M367.67 323.66L365.87 322.81C365.96 322.6 366.05 322.39 366.12 322.18L368.02 322.82C367.92 323.106 367.803 323.387 367.67 323.66Z" fill="white"/>
<path d="M352 322.84C351.347 321.003 351.347 318.997 352 317.16L353.88 317.84C353.632 318.533 353.507 319.264 353.51 320C353.505 320.736 353.63 321.468 353.88 322.16L352 322.84Z" fill="white"/>
<path fill-rule="evenodd" clip-rule="evenodd" d="M356.5 341H363.5V335.61C365.298 335.207 367.014 334.497 368.57 333.51L372.37 337.32L377.32 332.37L373.51 328.57C374.497 327.014 375.207 325.298 375.61 323.5H381V316.5H375.61C375.207 314.702 374.497 312.986 373.51 311.43L377.32 307.62L372.37 302.68L368.57 306.49C367.014 305.503 365.298 304.793 363.5 304.39V299H356.5V304.39C354.704 304.791 352.992 305.501 351.44 306.49L347.62 302.68L342.68 307.62L346.49 311.43C345.503 312.986 344.793 314.702 344.39 316.5H339V323.5H344.39C344.793 325.298 345.503 327.014 346.49 328.57L342.68 332.37L347.62 337.32L351.44 333.51C352.992 334.499 354.704 335.209 356.5 335.61V341ZM361.5 339H358.5V333.94L357.66 333.8C355.58 333.451 353.607 332.634 351.89 331.41L351.2 330.92L347.62 334.5L345.5 332.37L349.08 328.8L348.59 328.11C347.366 326.393 346.549 324.42 346.2 322.34L346.06 321.5H341V318.5H346.06L346.2 317.66C346.549 315.58 347.366 313.607 348.59 311.89L349.08 311.2L345.5 307.62L347.62 305.5L351.2 309.08L351.89 308.59C353.607 307.366 355.58 306.549 357.66 306.2L358.5 306.06V301H361.5V306.06L362.34 306.2C364.42 306.549 366.393 307.366 368.11 308.59L368.8 309.08L372.37 305.5L374.5 307.62L370.92 311.2L371.41 311.89C372.634 313.607 373.451 315.58 373.8 317.66L373.94 318.5H379V321.5H373.94L373.8 322.34C373.451 324.42 372.634 326.393 371.41 328.11L370.92 328.8L374.5 332.37L372.37 334.5L368.8 330.92L368.11 331.41C366.393 332.634 364.42 333.451 362.34 333.8L361.5 333.94V339Z" fill="white"/>
<path d="M368 322.84L366.12 322.16C366.365 321.466 366.49 320.736 366.49 320C366.488 319.265 366.363 318.534 366.12 317.84L368 317.16C368.653 318.997 368.653 321.003 368 322.84Z" fill="white"/>
<path fill-rule="evenodd" clip-rule="evenodd" d="M302.14 122.75L309.55 130.17L316.97 122.75L309.55 115.34L302.14 122.75ZM309.58 127.34L305 122.75L309.58 118.17L314.17 122.75L309.58 127.34Z" fill="#EF4C59"/>
<path fill-rule="evenodd" clip-rule="evenodd" d="M467.19 421.46L474.6 428.88L482.02 421.46L474.6 414.05L467.19 421.46ZM474.58 426.05L470 421.46L474.58 416.88L479.17 421.46L474.58 426.05Z" fill="#476AE3"/>
<path fill-rule="evenodd" clip-rule="evenodd" d="M25.5098 406.39L32.9198 413.8L40.3298 406.42L32.9198 399L25.5098 406.39ZM32.9198 411L28.3298 406.39L32.9198 401.83L37.5098 406.42L32.9198 411Z" fill="#EF4C59"/>
<rect x="279.15" y="76.9199" width="2" height="20" fill="#FFC31D"/>
<rect x="270.15" y="85.9199" width="20" height="2" fill="#FFC31D"/>
<rect x="601.71" y="279.8" width="2" height="20" fill="#476AE3"/>
<rect x="592.71" y="288.8" width="20" height="2" fill="#476AE3"/>
<rect x="670.92" y="430.95" width="2" height="20" fill="#FFC31D"/>
<rect x="661.92" y="439.95" width="20" height="2" fill="#FFC31D"/>
<rect x="288.15" y="618.49" width="2" height="20" fill="#EF4C59"/>
<rect x="279.15" y="627.49" width="20" height="2" fill="#EF4C59"/>
<circle cx="290.15" cy="523.13" r="12.5" fill="white"/>
<path fill-rule="evenodd" clip-rule="evenodd" d="M276.65 523.13C276.65 530.586 282.694 536.63 290.15 536.63C297.603 536.624 303.644 530.583 303.65 523.13C303.65 515.674 297.606 509.63 290.15 509.63C282.694 509.63 276.65 515.674 276.65 523.13ZM278.65 523.13C278.65 516.779 283.799 511.63 290.15 511.63C296.499 511.635 301.644 516.781 301.65 523.13C301.65 529.481 296.501 534.63 290.15 534.63C283.799 534.63 278.65 529.481 278.65 523.13Z" fill="#EF4C59"/>
<circle cx="706.27" cy="366.01" r="12.5" fill="white"/>
<path fill-rule="evenodd" clip-rule="evenodd" d="M692.77 366.01C692.77 373.466 698.814 379.51 706.27 379.51C713.721 379.499 719.759 373.461 719.77 366.01C719.77 358.554 713.726 352.51 706.27 352.51C698.814 352.51 692.77 358.554 692.77 366.01ZM694.77 366.01C694.77 359.659 699.919 354.51 706.27 354.51C712.619 354.516 717.765 359.661 717.77 366.01C717.77 372.361 712.621 377.51 706.27 377.51C699.919 377.51 694.77 372.361 694.77 366.01Z" fill="#476AE3"/>
<circle cx="166.83" cy="226.05" r="12.5" fill="white"/>
<path fill-rule="evenodd" clip-rule="evenodd" d="M153.33 226.05C153.33 233.506 159.374 239.55 166.83 239.55C174.284 239.545 180.325 233.504 180.33 226.05C180.33 218.594 174.286 212.55 166.83 212.55C159.374 212.55 153.33 218.594 153.33 226.05ZM155.33 226.05C155.33 219.699 160.479 214.55 166.83 214.55C173.179 214.556 178.325 219.701 178.33 226.05C178.33 232.401 173.181 237.55 166.83 237.55C160.479 237.55 155.33 232.401 155.33 226.05Z" fill="#FFC31D"/>
<circle cx="224.9" cy="15.01" r="12.5" fill="white"/>
<path fill-rule="evenodd" clip-rule="evenodd" d="M211.4 15.0133C211.402 22.4679 217.445 28.51 224.9 28.51C232.357 28.5045 238.4 22.4575 238.4 15C238.394 7.54547 232.348 1.50633 224.893 1.51001C217.439 1.51369 211.398 7.5588 211.4 15.0133ZM214.274 10.6115C216.054 6.31298 220.248 3.51001 224.9 3.51001C231.245 3.51551 236.389 8.65493 236.4 15C236.404 19.6522 233.605 23.8486 229.308 25.6318C225.011 27.4149 220.063 26.4335 216.772 23.1453C213.481 19.8571 212.495 14.9099 214.274 10.6115Z" fill="#0E2946"/>
<circle cx="332.47" cy="65.79" r="8" fill="white"/>
<path fill-rule="evenodd" clip-rule="evenodd" d="M323.47 65.79C323.47 70.7606 327.499 74.79 332.47 74.79C337.44 74.79 341.47 70.7606 341.47 65.79C341.47 60.8195 337.44 56.79 332.47 56.79C327.499 56.79 323.47 60.8195 323.47 65.79ZM325.47 65.79C325.47 61.924 328.604 58.79 332.47 58.79C336.336 58.79 339.47 61.924 339.47 65.79C339.47 69.656 336.336 72.79 332.47 72.79C328.604 72.79 325.47 69.656 325.47 65.79Z" fill="#476AE3"/>
<circle cx="100.68" cy="416.77" r="8" fill="white"/>
<path fill-rule="evenodd" clip-rule="evenodd" d="M91.6797 416.77C91.6797 421.741 95.7091 425.77 100.68 425.77C105.65 425.77 109.68 421.741 109.68 416.77C109.68 411.799 105.65 407.77 100.68 407.77C95.7091 407.77 91.6797 411.799 91.6797 416.77ZM93.6797 416.77C93.6797 412.904 96.8137 409.77 100.68 409.77C104.546 409.77 107.68 412.904 107.68 416.77C107.68 420.636 104.546 423.77 100.68 423.77C96.8137 423.77 93.6797 420.636 93.6797 416.77Z" fill="#0E2946"/>
<circle cx="551.84" cy="295.46" r="8" fill="white"/>
<path fill-rule="evenodd" clip-rule="evenodd" d="M542.84 295.45C542.84 300.421 546.869 304.45 551.84 304.45C556.81 304.45 560.84 300.421 560.84 295.45C560.84 290.479 556.81 286.45 551.84 286.45C546.869 286.45 542.84 290.479 542.84 295.45ZM544.84 295.45C544.84 291.584 547.974 288.45 551.84 288.45C555.706 288.45 558.84 291.584 558.84 295.45C558.84 299.316 555.706 302.45 551.84 302.45C547.974 302.45 544.84 299.316 544.84 295.45Z" fill="#EF4C59"/>
<circle cx="386.91" cy="599.66" r="8" fill="white"/>
<path fill-rule="evenodd" clip-rule="evenodd" d="M377.91 599.66C377.91 604.63 381.939 608.66 386.91 608.66C391.88 608.66 395.91 604.63 395.91 599.66C395.91 594.689 391.88 590.66 386.91 590.66C381.939 590.66 377.91 594.689 377.91 599.66ZM379.91 599.66C379.91 595.794 383.044 592.66 386.91 592.66C390.776 592.66 393.91 595.794 393.91 599.66C393.91 603.526 390.776 606.66 386.91 606.66C383.044 606.66 379.91 603.526 379.91 599.66Z" fill="#FFC31D"/>
<circle cx="389.48" cy="144.9" r="4" fill="white"/>
<path fill-rule="evenodd" clip-rule="evenodd" d="M384.48 144.9C384.48 147.661 386.719 149.9 389.48 149.9C392.241 149.9 394.48 147.661 394.48 144.9C394.48 142.138 392.241 139.9 389.48 139.9C386.719 139.9 384.48 142.138 384.48 144.9ZM386.48 144.9C386.48 143.243 387.823 141.9 389.48 141.9C391.137 141.9 392.48 143.243 392.48 144.9C392.48 146.557 391.137 147.9 389.48 147.9C387.823 147.9 386.48 146.557 386.48 144.9Z" fill="#0E2946"/>
<circle cx="6.12988" cy="259.02" r="4" fill="white"/>
<path fill-rule="evenodd" clip-rule="evenodd" d="M1.12988 259C1.12988 261.761 3.36846 264 6.12988 264C8.89131 264 11.1299 261.761 11.1299 259C11.1299 256.239 8.89131 254 6.12988 254C3.36846 254 1.12988 256.239 1.12988 259ZM3.12988 259C3.12988 257.343 4.47303 256 6.12988 256C7.78674 256 9.12988 257.343 9.12988 259C9.12988 260.657 7.78674 262 6.12988 262C4.47303 262 3.12988 260.657 3.12988 259Z" fill="#EF4C59"/>
<circle cx="481.5" cy="213.24" r="4" fill="white"/>
<path fill-rule="evenodd" clip-rule="evenodd" d="M476.5 213.24C476.5 216.001 478.739 218.24 481.5 218.24C484.261 218.24 486.5 216.001 486.5 213.24C486.5 210.479 484.261 208.24 481.5 208.24C478.739 208.24 476.5 210.479 476.5 213.24ZM478.5 213.24C478.5 211.583 479.843 210.24 481.5 210.24C483.157 210.24 484.5 211.583 484.5 213.24C484.5 214.897 483.157 216.24 481.5 216.24C479.843 216.24 478.5 214.897 478.5 213.24Z" fill="#FFC31D"/>
<circle cx="427.53" cy="509.13" r="4" fill="white"/>
<path fill-rule="evenodd" clip-rule="evenodd" d="M422.53 509.13C422.53 511.891 424.768 514.13 427.53 514.13C430.291 514.13 432.53 511.891 432.53 509.13C432.53 506.368 430.291 504.13 427.53 504.13C424.768 504.13 422.53 506.368 422.53 509.13ZM424.53 509.13C424.53 507.473 425.873 506.13 427.53 506.13C429.187 506.13 430.53 507.473 430.53 509.13C430.53 510.787 429.187 512.13 427.53 512.13C425.873 512.13 424.53 510.787 424.53 509.13Z" fill="#0E2946"/>
</svg>
