<svg width="720" height="640" viewBox="0 0 720 640" fill="none" xmlns="http://www.w3.org/2000/svg">
<path fill-rule="evenodd" clip-rule="evenodd" d="M421.57 315C421.57 228 382.57 142 276.57 142C173.57 142 131.07 221 131.07 315C131.07 409 174.57 483.5 276.07 483.5C379.07 483.5 421.57 409 421.57 315ZM342.07 312.5C342.07 361.5 325.07 414 276.57 414C229.07 414 210.57 365.51 210.57 312.5C210.57 263 227.57 211.5 276.57 211.5C323.57 211.5 342.07 259 342.07 312.5Z" fill="white"/>
<circle cx="116.54" cy="187.029" r="6" fill="#F5F6F8"/>
<path fill-rule="evenodd" clip-rule="evenodd" d="M109.54 187C109.54 190.866 112.674 194 116.54 194C120.406 194 123.54 190.866 123.54 187C123.54 183.134 120.406 180 116.54 180C112.674 180 109.54 183.134 109.54 187ZM111.54 187C111.54 184.239 113.779 182 116.54 182C117.866 182 119.138 182.527 120.076 183.464C121.013 184.402 121.54 185.674 121.54 187C121.54 189.761 119.301 192 116.54 192C113.779 192 111.54 189.761 111.54 187Z" fill="#476AE3"/>
<path d="M513.57 478.51V216H436.07V147H594.07V478.5L513.57 478.51Z" fill="white"/>
<circle cx="499.65" cy="342.29" r="40" fill="#EF4C59"/>
<path d="M464.9 362.29H429.18V269.38H447.54V271.38H431.18V360.29H464.9V362.29Z" fill="#0E2946"/>
<path d="M500.62 315.83H498.62V271.38H482.26V269.38H500.62V315.83Z" fill="#0E2946"/>
<path fill-rule="evenodd" clip-rule="evenodd" d="M446.54 280.47H483.26V260.29H446.54V280.47ZM481.26 278.47H448.54V262.29H481.26V278.47Z" fill="#0E2946"/>
<rect x="447.54" y="301.199" width="34.72" height="2" fill="#0E2946"/>
<rect x="447.54" y="319.38" width="34.72" height="2" fill="#0E2946"/>
<rect x="447.54" y="337.56" width="23.15" height="2" fill="#0E2946"/>
<path d="M498.05 351.879L487.49 341.329L488.91 339.909L498.05 349.049L517.03 330.069L518.44 331.479L498.05 351.879Z" fill="white"/>
<path d="M217.22 520.67L231.96 521.18L225.02 533.39L217.22 520.67Z" fill="#F5F6F8"/>
<path fill-rule="evenodd" clip-rule="evenodd" d="M215.4 519.609L225.05 535.349L233.65 520.229L215.4 519.609ZM224.98 531.419L219.05 521.739L230.27 522.119L224.98 531.419Z" fill="#EF4C59"/>
<path d="M520.572 115.81L529.058 124.295L520.572 132.78L512.087 124.295L520.572 115.81Z" fill="#F5F6F8"/>
<path fill-rule="evenodd" clip-rule="evenodd" d="M510.67 124.29L520.57 134.19L530.47 124.29L520.57 114.39L510.67 124.29ZM520.57 131.36L513.5 124.29L520.57 117.22L527.64 124.29L520.57 131.36Z" fill="#FFC31D"/>
<path fill-rule="evenodd" clip-rule="evenodd" d="M195.49 322L216.9 343.37V322H232.6V270H150.6V322H195.49ZM196.32 320H152.6V272H230.6V320H214.9V338.58L196.32 320Z" fill="#FFC31D"/>
<path fill-rule="evenodd" clip-rule="evenodd" d="M132.78 286.46V297.87L144.2 286.46H166.93V259.46H124.93V286.46H132.78ZM134.78 284.46H126.93V261.42H164.93V284.42H143.37L134.78 293V284.46Z" fill="#EF4C59"/>
<path fill-rule="evenodd" clip-rule="evenodd" d="M287.82 353.699C289.067 353.76 290.3 353.982 291.49 354.359L292.1 352.439C290.743 352.019 289.339 351.77 287.92 351.699L287.82 353.699ZM280.25 354.699L279.7 352.769C281.011 352.385 282.348 352.094 283.7 351.899L283.98 353.899C282.721 354.056 281.474 354.303 280.25 354.639V354.699ZM294.8 355.969C295.814 356.671 296.714 357.525 297.47 358.499L299.05 357.319C298.174 356.165 297.125 355.153 295.94 354.319L294.8 355.969ZM273.87 358.499L272.49 356.999C273.506 356.031 274.618 355.17 275.81 354.429L276.86 356.129C275.786 356.805 274.784 357.589 273.87 358.469V358.499ZM217.87 357.229C218.33 358.489 218.86 359.759 219.43 360.999L221.25 360.149C220.69 358.959 220.19 357.749 219.75 356.539L217.87 357.229ZM369.36 363.129C368.298 362.437 367.169 361.854 365.99 361.389L366.72 359.529C368.025 360.042 369.274 360.685 370.45 361.449L369.36 363.129ZM269.24 364.529L269.227 364.522C269.865 363.398 270.578 362.318 271.36 361.289L269.77 360.079C268.937 361.177 268.178 362.33 267.5 363.529L269.227 364.522L269.2 364.569L269.24 364.529ZM299.31 361.629C299.774 362.791 300.087 364.008 300.24 365.249L302.2 364.999C302.032 363.591 301.686 362.21 301.17 360.889L299.31 361.629ZM221.32 364.549C221.98 365.719 222.7 366.889 223.46 368.019L225.12 366.889C224.39 365.799 223.7 364.669 223.06 363.549L221.32 364.549ZM374.74 368.419C374.016 367.375 373.196 366.401 372.29 365.509L373.7 364.079C374.688 365.063 375.585 366.134 376.38 367.279L374.74 368.419ZM266.193 371.667L266.2 371.669L266.18 371.709L266.193 371.667ZM267.51 368.009C267.006 369.216 266.57 370.432 266.193 371.667L264.28 371.099C264.68 369.779 265.15 368.479 265.67 367.229L267.51 368.009ZM301.13 373.359L301.128 373.358C301.705 372.046 302.096 370.66 302.29 369.239L300.29 368.989C300.124 370.226 299.787 371.434 299.29 372.579L301.128 373.358L301.11 373.399L301.13 373.359ZM330.46 372.689L332.13 373.789L332.11 373.829C332.826 372.745 333.618 371.712 334.48 370.739L332.99 369.409C332.071 370.442 331.225 371.538 330.46 372.689ZM228.45 374.449C227.54 373.449 226.66 372.379 225.84 371.319L227.42 370.099C228.21 371.099 229.06 372.099 229.94 373.099L228.45 374.449ZM376.66 371.739C377.218 372.902 377.696 374.101 378.09 375.329L379.99 374.709C379.567 373.396 379.056 372.113 378.46 370.869L376.66 371.739ZM264.72 379.329L264.703 379.328C264.823 378.048 265.003 376.759 265.3 375.469L263.3 375.089C263.04 376.419 262.85 377.789 262.72 379.149L264.703 379.328L264.7 379.359L264.72 379.329ZM296.45 380.199L294.93 378.899C295.76 377.899 296.57 376.899 297.34 375.819L299 376.999C298.15 378.129 297.3 379.219 296.43 380.229L296.45 380.199ZM328.584 380.747L328.59 380.749L328.57 380.779L328.584 380.747ZM330.22 377.179C329.625 378.349 329.08 379.538 328.584 380.747L326.74 379.989C327.26 378.719 327.83 377.479 328.43 376.279L330.22 377.179ZM379.59 382.909C379.526 381.903 379.403 380.901 379.22 379.909C379.17 379.649 379.12 379.389 379.06 379.139L381.06 378.719C381.085 378.854 381.113 378.992 381.14 379.129C381.168 379.267 381.195 379.404 381.22 379.539C381.423 380.627 381.559 381.725 381.63 382.829L379.59 382.909ZM237.41 382.679C238.5 383.489 239.62 384.269 240.75 384.999L241.84 383.319C240.74 382.609 239.61 381.859 238.61 381.079L237.41 382.679ZM290.53 385.929L289.3 384.349C290.322 383.549 291.304 382.698 292.24 381.799L293.62 383.239C292.63 384.159 291.59 385.069 290.53 385.899V385.929ZM262.53 383.299C262.54 384.649 262.61 386.029 262.75 387.389L264.74 387.199C264.61 385.899 264.53 384.589 264.53 383.299H262.53ZM326.11 388.259L324.17 387.769C324.5 386.459 324.89 385.139 325.31 383.859L327.21 384.489C326.8 385.699 326.43 386.999 326.11 388.229V388.259ZM244.24 387.149C245.43 387.809 246.65 388.429 247.87 388.999L248.74 387.179C247.56 386.629 246.39 386.039 245.24 385.399L244.24 387.149ZM283.55 390.159L282.7 388.349C283.874 387.804 285.013 387.186 286.11 386.499L287.16 388.209C285.998 388.945 284.793 389.61 283.55 390.199V390.159ZM378.92 390.549L380.87 390.999C381.177 389.655 381.397 388.292 381.53 386.919L379.53 386.739C379.414 388.022 379.21 389.295 378.92 390.549ZM255.51 391.859C254.22 391.489 252.91 391.059 251.63 390.579L252.34 388.709C253.57 389.169 254.82 389.579 256.06 389.939L255.51 391.859ZM460.791 390.229L460.791 390.229C460.851 390.933 460.91 391.631 460.91 392.329L462.91 392.249C462.88 391.359 462.82 390.469 462.75 389.579L460.75 389.739C460.763 389.903 460.777 390.066 460.791 390.229ZM275.76 392.849L275.35 390.849C276.618 390.588 277.87 390.254 279.1 389.849L279.73 391.749C278.429 392.18 277.103 392.534 275.76 392.809V392.849ZM264.32 395.419C264.05 394.509 263.81 393.579 263.6 392.649L263.52 393.429C262.18 393.289 260.82 393.089 259.52 392.819L259.91 390.819C261.12 391.059 262.33 391.249 263.53 391.379L265.36 391.019C265.61 392.289 265.92 393.569 266.29 394.809L264.32 395.419ZM322.71 395.779L324.71 395.999C324.85 394.669 325 393.359 325.3 392.139L323.3 391.779C323.05 393.089 322.86 394.439 322.71 395.779ZM378.1 398.789L376.31 397.899C376.89 396.719 377.41 395.519 377.85 394.339L379.72 395.019C379.238 396.293 378.684 397.538 378.06 398.749L378.1 398.789ZM460.77 400.199L462.77 400.369L462.73 400.329C462.85 398.999 462.92 397.619 462.98 396.269H460.98C460.95 397.569 460.88 398.899 460.77 400.199ZM267.38 403.009C266.76 401.789 266.2 400.539 265.7 399.279L267.56 398.539C268.04 399.739 268.56 400.939 269.16 402.109L267.38 403.009ZM322.38 402.249V403.899L324.38 403.849V402.249C324.38 401.858 324.393 401.467 324.405 401.077V401.077V401.076V401.076V401.076V401.076V401.076V401.075V401.075V401.075V401.075V401.075V401.075V401.074V401.074V401.074V401.074V401.074V401.073V401.073V401.073V401.073V401.073V401.073V401.072V401.072V401.072V401.072V401.072V401.071V401.071V401.071V401.071V401.071V401.071V401.07V401.07V401.07V401.07V401.07V401.069C324.418 400.684 324.43 400.301 324.43 399.919L322.43 399.839C322.38 400.639 322.38 401.439 322.38 402.249ZM373.76 405.739L372.16 404.539C372.95 403.479 373.69 402.389 374.36 401.309L376.06 402.369C375.36 403.449 374.59 404.589 373.76 405.699V405.739ZM459.54 407.959L461.49 408.399V408.359C461.644 407.638 461.778 406.934 461.91 406.24L461.91 406.239L461.911 406.237C462.028 405.622 462.143 405.014 462.27 404.409L460.27 404.099C460.07 405.389 459.82 406.689 459.54 407.959ZM271.61 409.949C270.81 408.859 270.04 407.719 269.33 406.569L271.03 405.569C271.71 406.669 272.45 407.759 273.23 408.819L271.61 409.949ZM367 410.419L368.41 411.879V411.839C369.38 410.869 370.32 409.869 371.19 408.869L369.69 407.549C368.84 408.519 367.94 409.489 367 410.419ZM323.2 411.999C322.97 410.669 322.78 409.309 322.65 407.999L324.65 407.799C324.78 409.089 324.95 410.399 325.18 411.689L323.2 411.999ZM459.18 416.149L457.3 415.449C457.76 414.229 458.18 412.979 458.55 411.729L460.46 412.289C460.08 413.589 459.65 414.879 459.18 416.149ZM361.08 415.619L362.31 417.199C363.38 416.369 364.44 415.499 365.44 414.609L364.13 413.109C363.368 413.778 362.551 414.435 361.755 415.075L361.755 415.076L361.754 415.076L361.753 415.077L361.752 415.078C361.525 415.26 361.301 415.44 361.08 415.619ZM325.21 419.849C324.78 418.569 324.39 417.259 324.05 415.939L325.99 415.449C326.31 416.719 326.69 417.979 327.11 419.209L325.21 419.849ZM282.47 421.039L283 421.459L284.23 419.879L283.71 419.469C282.85 418.789 282.01 418.079 281.2 417.369L279.88 418.869C280.71 419.609 281.58 420.339 282.47 421.039ZM355.63 421.849L354.63 420.139C355.75 419.459 356.87 418.739 357.94 417.999L359.08 419.639C358.597 419.938 358.116 420.243 357.634 420.549L357.629 420.552L357.628 420.553L357.626 420.553L357.625 420.554L357.624 420.555L357.623 420.556L357.622 420.556L357.62 420.557L357.619 420.558L357.618 420.559L357.617 420.559L357.616 420.56L357.616 420.56L357.615 420.56L357.614 420.561L357.614 420.561L357.613 420.562L357.612 420.562L357.612 420.563C356.954 420.98 356.295 421.398 355.63 421.799V421.849ZM454.07 422.649L455.83 423.599V423.549C456.46 422.359 457.07 421.139 457.63 419.949L455.81 419.129C455.27 420.319 454.68 421.509 454.07 422.649ZM348.51 425.709L347.65 423.899C348.84 423.339 350.02 422.729 351.17 422.109L352.12 423.869L351.822 424.019L351.441 424.21L351.234 424.314C350.337 424.765 349.427 425.224 348.51 425.659V425.709ZM286.32 423.879C287.45 424.629 288.62 425.339 289.8 425.999L290.77 424.209C289.64 423.619 288.51 422.929 287.42 422.209L286.32 423.879ZM328.44 427.339C327.8 426.139 327.21 424.909 326.67 423.659L328.51 422.869C329.03 424.069 329.6 425.249 330.2 426.399L328.44 427.339ZM341.009 428.746L341.01 428.749H341L341.009 428.746ZM341.009 428.746L340.35 426.859C341.58 426.429 342.82 425.949 344.04 425.449L344.8 427.299C343.553 427.818 342.286 428.297 341.009 428.746ZM297.2 429.359C295.93 428.889 294.66 428.359 293.43 427.799L294.27 425.979C295.066 426.35 295.88 426.675 296.703 427.004L296.703 427.005L296.703 427.005C297.1 427.163 297.5 427.323 297.9 427.489L297.2 429.359ZM449.86 429.239L451.47 430.419H451.49C452.29 429.329 453.06 428.199 453.76 427.059L452.07 425.989C451.37 427.089 450.63 428.189 449.86 429.239ZM333.21 431.029L332.75 429.089C334.02 428.789 335.3 428.449 336.57 428.089L337.13 430.009C335.85 430.379 334.53 430.729 333.23 430.999L333.21 431.029ZM301.05 430.629C302.34 431.009 303.67 431.349 305 431.629L305.41 429.659C304.13 429.389 302.85 429.069 301.6 428.709L301.05 430.629ZM330.5 430.859C331.23 431.999 332.02 433.119 332.85 434.189L334.43 432.979C333.64 431.939 332.88 430.869 332.18 429.779L330.5 430.859ZM446.26 436.649L444.82 435.269C445.72 434.319 446.61 433.339 447.45 432.339L448.98 433.629C448.11 434.659 447.2 435.679 446.26 436.649ZM335.47 437.319C336.33 438.319 337.33 439.299 338.33 440.229L339.75 438.779C338.79 437.889 337.87 436.999 337 435.999L335.47 437.319ZM440.27 442.119L439 440.559C440 439.739 441 438.879 442 438.009L443.35 439.489C442.37 440.389 441.33 441.279 440.27 442.119ZM341.42 442.889C342.47 443.719 343.57 444.529 344.7 445.299L345.83 443.639C344.74 442.899 343.66 442.119 342.66 441.319L341.42 442.889ZM433.58 446.789L432.53 445.079C433.65 444.399 434.76 443.669 435.83 442.919L436.97 444.559C435.91 445.329 434.77 446.079 433.62 446.789H433.58ZM348.12 447.449C349.28 448.119 350.48 448.759 351.71 449.349L352.59 447.559C351.41 446.979 350.24 446.359 349.12 445.719L348.12 447.449ZM426.42 450.599L425.59 448.789C426.78 448.239 427.97 447.649 429.12 447.039L430.06 448.799C429.176 449.288 428.239 449.74 427.289 450.198C427.013 450.331 426.737 450.464 426.46 450.599H426.42ZM355.42 451.009C356.65 451.519 357.93 451.999 359.21 452.439L359.86 450.539C358.643 450.169 357.436 449.676 356.266 449.198L356.17 449.159L355.42 451.009ZM418.88 453.569L418.25 451.669C419.51 451.259 420.76 450.809 421.96 450.329L422.69 452.189C421.49 452.679 420.21 453.149 418.92 453.569H418.88ZM365.3 454.229L367 454.639L367.46 452.689L365.79 452.289L363.62 451.709L363.09 453.639C363.81 453.839 364.55 454.039 365.3 454.229ZM411.16 455.709L411.158 455.699C412.462 455.411 413.766 455.085 415.1 454.699L414.57 452.769C413.31 453.119 412.02 453.429 410.74 453.709L411.158 455.699L411.11 455.709H411.16ZM371 455.489C372.36 455.759 373.69 455.999 375 456.219L375.3 454.209C374.01 453.989 372.7 453.749 371.4 453.489L371 455.489ZM403.17 457.049L403.17 457.045C404.417 456.896 405.655 456.714 406.909 456.529L407.18 456.489L406.85 454.489C405.56 454.709 404.25 454.889 402.94 455.049L403.17 457.045L403.13 457.049H403.17ZM379 456.809C380.33 456.979 381.68 457.129 383 457.249L383.19 455.249C381.9 455.129 380.57 454.979 379.25 454.809L379 456.809ZM395 457.669L394.94 455.669C396.075 455.669 397.217 455.588 398.34 455.508C398.524 455.495 398.707 455.482 398.89 455.469L399.04 457.469L398.469 457.497C397.374 457.549 396.219 457.605 395.07 457.639L395 457.669ZM391 457.669C389.67 457.669 388.31 457.609 387 457.539L387.11 455.539C388.43 455.609 389.76 455.659 391.11 455.669L391 457.669ZM317.47 432.909H317.13V430.909H317.46C318.65 430.909 319.87 430.909 321.07 430.799L321.18 432.799C320 432.869 318.7 432.909 317.47 432.909ZM309.07 432.329C310.36 432.519 311.72 432.659 313.07 432.749L313.25 430.739C311.94 430.649 310.63 430.509 309.34 430.329L309.07 432.329ZM325.24 432.439L325 430.439C326.3 430.289 327.61 430.089 328.9 429.859L329.25 431.859C327.92 432.089 326.57 432.289 325.24 432.439ZM274.15 413.089C275.03 414.089 275.92 415.089 276.92 416.089L278.34 414.669C277.41 413.729 276.51 412.779 275.67 411.779L274.15 413.089ZM267.61 393.659H267.85V393.619C269.132 393.638 270.413 393.591 271.69 393.479L271.5 391.479C270.3 391.599 269.07 391.659 267.84 391.659H267.61V393.659ZM231.26 377.399C232.26 378.339 233.26 379.259 234.26 380.139L235.56 378.619C234.56 377.769 233.59 376.879 232.66 375.969L231.26 377.399ZM337.24 368.019L335.92 366.509C336.959 365.612 338.047 364.774 339.18 363.999L340.31 365.649C339.233 366.39 338.201 367.195 337.22 368.059L337.24 368.019ZM342.73 361.879L343.66 363.649L343.62 363.689C344.777 363.067 345.969 362.513 347.19 362.029L346.47 360.169C345.191 360.665 343.942 361.236 342.73 361.879ZM350.84 360.909L350.35 358.979C351.665 358.634 353.001 358.377 354.35 358.209L354.59 360.209C353.328 360.359 352.076 360.583 350.84 360.879V360.909ZM358.49 359.999C359.766 360.029 361.036 360.163 362.29 360.399L362.67 358.439C361.308 358.18 359.926 358.033 358.54 357.999L358.49 359.999Z" fill="#0E2946"/>
<path d="M450.46 402.319L449.04 400.909L461.75 388.199L474.46 400.909L473.04 402.319L461.75 391.029L450.46 402.319Z" fill="#0E2946"/>
<path fill-rule="evenodd" clip-rule="evenodd" d="M315.57 134.1L301.57 142.19V158.35L315.57 150.27V134.1ZM303.57 154.9V143.35L313.57 137.57V149.13L303.57 154.9Z" fill="#476AE3"/>
<path fill-rule="evenodd" clip-rule="evenodd" d="M327.57 127.18L313.57 135.26V151.42L327.57 143.34V127.18ZM315.57 148V136.42L325.57 130.64V142.23L315.57 148Z" fill="#476AE3"/>
<path fill-rule="evenodd" clip-rule="evenodd" d="M325.57 128.33V144.5L339.57 136.41V120.25L325.57 128.33ZM327.57 141V129.5L337.57 123.71V135.23L327.57 141Z" fill="#476AE3"/>
<path fill-rule="evenodd" clip-rule="evenodd" d="M337.57 121.399V137.569L351.57 129.489V113.319L337.57 121.399ZM339.57 134.099V122.569L349.57 116.779V128.329L339.57 134.099Z" fill="#476AE3"/>
<path fill-rule="evenodd" clip-rule="evenodd" d="M349.57 114.47V130.64L363.57 122.56V106.39L349.57 114.47ZM351.57 127.19V115.64L361.57 109.86V121.41L351.57 127.19Z" fill="#476AE3"/>
<path fill-rule="evenodd" clip-rule="evenodd" d="M301.57 156V172.21L315.57 164.09V147.92L301.57 156ZM303.57 168.76V157.21L313.57 151.42V162.98L303.57 168.76Z" fill="#476AE3"/>
<path fill-rule="evenodd" clip-rule="evenodd" d="M327.57 141.029L313.57 149.119V165.279L327.57 157.199V141.029ZM315.57 161.829V150.279L325.57 144.499V156.049L315.57 161.829Z" fill="#476AE3"/>
<path fill-rule="evenodd" clip-rule="evenodd" d="M339.57 134.1L325.57 142.19V158.35L339.57 150.27V134.1ZM327.57 154.9V143.35L337.57 137.57V149.13L327.57 154.9Z" fill="#476AE3"/>
<path fill-rule="evenodd" clip-rule="evenodd" d="M337.57 135.26V151.43L351.57 143.34V127.18L337.57 135.26ZM339.57 148V136.43L349.57 130.64V142.23L339.57 148Z" fill="#476AE3"/>
<path fill-rule="evenodd" clip-rule="evenodd" d="M349.57 128.33V144.5L363.57 136.41V120.25L349.57 128.33ZM351.57 141V129.5L361.57 123.71V135.23L351.57 141Z" fill="#476AE3"/>
<path fill-rule="evenodd" clip-rule="evenodd" d="M301.57 169.899V186.069L315.57 177.999V161.819L301.57 169.899ZM303.57 182.599V171.069L313.57 165.279V176.829L303.57 182.599Z" fill="#476AE3"/>
<path fill-rule="evenodd" clip-rule="evenodd" d="M313.57 163V179.14L327.57 171.08V154.92L313.57 163ZM315.57 175.68V164.14L325.57 158.35V169.91L315.57 175.68Z" fill="#476AE3"/>
<path fill-rule="evenodd" clip-rule="evenodd" d="M325.57 156V172.21L339.57 164.09V147.92L325.57 156ZM327.57 168.76V157.21L337.57 151.42V162.98L327.57 168.76Z" fill="#476AE3"/>
<path fill-rule="evenodd" clip-rule="evenodd" d="M351.57 141.029L337.57 149.119V165.279L351.57 157.199V141.029ZM339.57 161.829V150.279L349.57 144.499V156.049L339.57 161.829Z" fill="#476AE3"/>
<path fill-rule="evenodd" clip-rule="evenodd" d="M363.57 134.1L349.57 142.19V158.35L363.57 150.27V134.1ZM351.57 154.9V143.35L361.57 137.57V149.13L351.57 154.9Z" fill="#476AE3"/>
<path fill-rule="evenodd" clip-rule="evenodd" d="M315.57 175.67L301.57 183.76V199.92L315.57 191.84V175.67ZM303.57 196.47V184.92L313.57 179.14V190.69L303.57 196.47Z" fill="#476AE3"/>
<path fill-rule="evenodd" clip-rule="evenodd" d="M313.57 176.83V193L327.57 184.91V168.75L313.57 176.83ZM315.57 189.55V178L325.57 172.21V183.78L315.57 189.55Z" fill="#476AE3"/>
<path fill-rule="evenodd" clip-rule="evenodd" d="M325.57 169.899V186.069L339.57 177.999V161.819L325.57 169.899ZM327.57 182.599V171.069L337.57 165.279V176.829L327.57 182.599Z" fill="#476AE3"/>
<path fill-rule="evenodd" clip-rule="evenodd" d="M337.57 163V179.14L351.57 171.08V154.92L337.57 163ZM339.57 175.68V164.14L349.57 158.35V169.91L339.57 175.68Z" fill="#476AE3"/>
<path fill-rule="evenodd" clip-rule="evenodd" d="M349.57 156V172.21L363.57 164.09V147.92L349.57 156ZM351.57 168.76V157.21L361.57 151.42V162.98L351.57 168.76Z" fill="#476AE3"/>
</svg>
