<svg width="720" height="640" viewBox="0 0 720 640" fill="none" xmlns="http://www.w3.org/2000/svg">
<path fill-rule="evenodd" clip-rule="evenodd" d="M373.5 323C373.5 236 334.5 150 228.5 150C125.5 150 83 229 83 323C83 417 126.5 491.51 228 491.5C331 491.5 373.5 417 373.5 323ZM294 320.5C294 369.5 277 422 228.5 422C181 422 162.5 373.51 162.5 320.5C162.5 271 179.5 219.5 228.5 219.5C275.5 219.5 294 267 294 320.5Z" fill="white"/>
<path d="M637 420V489H394.5V430.5L505.5 333.5C531 311 544 288 544 264.51C544 236.01 526 222.01 490 222.01C474.611 222.131 459.308 224.318 444.5 228.51C428.5 232.51 416 237.01 407 242.51L397.5 176C430 160.5 464 152.5 498.5 152.5C565.5 152.5 627.5 180 627.5 259C627.5 308 604.5 341.5 501 420H637Z" fill="white"/>
<path d="M488.25 223.11H486.25V209.11C486.25 201.931 480.43 196.11 473.25 196.11C466.07 196.11 460.25 201.931 460.25 209.11V223.11H458.25V209.11C458.25 200.826 464.966 194.11 473.25 194.11C481.534 194.11 488.25 200.826 488.25 209.11V223.11Z" fill="#EF4C59"/>
<path d="M481.25 245.16H465.25V209.33H467.25V243.16H479.25V209.33H481.25V245.16Z" fill="#EF4C59"/>
<rect x="472.25" y="225.11" width="2" height="19.06" fill="#EF4C59"/>
<path fill-rule="evenodd" clip-rule="evenodd" d="M467.58 190.441C467.586 193.57 470.121 196.105 473.25 196.111C476.379 196.105 478.915 193.57 478.92 190.441V185.771C478.92 182.639 476.382 180.101 473.25 180.101C470.119 180.101 467.58 182.639 467.58 185.771V190.441ZM469.58 185.771C469.586 183.748 471.227 182.111 473.25 182.111C475.273 182.111 476.915 183.748 476.92 185.771V190.441C476.92 192.467 475.277 194.111 473.25 194.111C471.223 194.111 469.58 192.467 469.58 190.441V185.771Z" fill="#EF4C59"/>
<path d="M467.25 223.11H465.25V209.11C465.25 201.931 459.43 196.11 452.25 196.11C445.07 196.11 439.25 201.931 439.25 209.11V223.11H437.25V209.11C437.25 200.826 443.966 194.11 452.25 194.11C460.534 194.11 467.25 200.826 467.25 209.11V223.11Z" fill="#EF4C59"/>
<path d="M460.25 245.16H444.25V209.33H446.25V243.16H458.25V209.33H460.25V245.16Z" fill="#EF4C59"/>
<rect x="451.25" y="225.11" width="2" height="19.06" fill="#EF4C59"/>
<path fill-rule="evenodd" clip-rule="evenodd" d="M446.58 190.441C446.586 193.57 449.121 196.105 452.25 196.111C455.379 196.105 457.915 193.57 457.92 190.441V185.771C457.92 182.639 455.382 180.101 452.25 180.101C449.119 180.101 446.58 182.639 446.58 185.771V190.441ZM448.58 185.771C448.586 183.748 450.227 182.111 452.25 182.111C454.273 182.111 455.915 183.748 455.92 185.771V190.441C455.92 192.467 454.277 194.111 452.25 194.111C450.223 194.111 448.58 192.467 448.58 190.441V185.771Z" fill="#EF4C59"/>
<path d="M509.25 223.11H507.25V209.11C507.25 201.931 501.43 196.11 494.25 196.11C487.07 196.11 481.25 201.931 481.25 209.11V223.11H479.25V209.11C479.25 200.826 485.966 194.11 494.25 194.11C502.534 194.11 509.25 200.826 509.25 209.11V223.11Z" fill="#EF4C59"/>
<path d="M502.25 245.16H486.25V209.33H488.25V243.16H500.25V209.33H502.25V245.16Z" fill="#EF4C59"/>
<rect x="493.25" y="225.11" width="2" height="19.06" fill="#EF4C59"/>
<path fill-rule="evenodd" clip-rule="evenodd" d="M488.58 190.441C488.586 193.57 491.121 196.105 494.25 196.111C497.379 196.105 499.915 193.57 499.92 190.441V185.771C499.92 182.639 497.382 180.101 494.25 180.101C491.119 180.101 488.58 182.639 488.58 185.771V190.441ZM490.58 185.771C490.586 183.748 492.227 182.111 494.25 182.111C496.273 182.111 497.915 183.748 497.92 185.771V190.441C497.92 192.467 496.277 194.111 494.25 194.111C492.223 194.111 490.58 192.467 490.58 190.441V185.771Z" fill="#EF4C59"/>
<circle cx="384.92" cy="435.11" r="40" fill="#476AE3"/>
<rect x="383.92" y="372.04" width="2" height="14.96" fill="#0E2946"/>
<path d="M339.87 454.13H320.85V363.04H322.85V452.13H339.87V454.13Z" fill="#0E2946"/>
<rect x="312.84" y="353.03" width="54.05" height="2" fill="#0E2946"/>
<rect x="333.56" y="389.74" width="39.64" height="2" fill="#0E2946"/>
<path d="M340.29 368.65C341.597 368.647 342.889 368.923 344.08 369.46L343.88 372C342.893 371.522 341.807 371.282 340.71 371.3C338.46 371.3 336.28 372.3 336.28 374.82C336.24 375.836 336.663 376.814 337.43 377.48C338.257 378.166 339.307 378.522 340.38 378.48C341.619 378.513 342.842 378.187 343.9 377.54L344.3 380.02C342.947 380.686 341.458 381.029 339.95 381.02C338.235 381.134 336.549 380.533 335.292 379.361C334.035 378.189 333.317 376.549 333.31 374.83C333.31 370.73 336.68 368.65 340.29 368.65Z" fill="#0E2946"/>
<path d="M357.31 368.83L352.97 380.83H349.16L344.77 368.83H348L351.1 377.92L354.16 368.83H357.31Z" fill="#0E2946"/>
<rect x="333.56" y="401.631" width="39.64" height="2" fill="#0E2946"/>
<rect x="333.56" y="413.521" width="35.68" height="2" fill="#0E2946"/>
<rect x="333.56" y="425.41" width="27.75" height="2" fill="#0E2946"/>
<path d="M304.84 372H302.84V363C302.84 357.477 307.317 353 312.84 353C318.363 353 322.84 357.477 322.84 363H320.84C320.84 358.582 317.258 355 312.84 355C308.422 355 304.84 358.582 304.84 363V372Z" fill="#0E2946"/>
<path d="M385.92 372H383.92C383.92 362.611 376.309 355 366.92 355V353C377.413 353 385.92 361.507 385.92 372Z" fill="#0E2946"/>
<path d="M384.45 445.84L372.76 434.15L374.18 432.74L384.45 443.01L403.44 424.03L404.85 425.44L384.45 445.84Z" fill="white"/>
<path fill-rule="evenodd" clip-rule="evenodd" d="M366.912 199.361C367.618 199.381 368.312 199.4 369 199.4V197.41C367.71 197.32 366.36 197.32 365 197.32V199.32C365.649 199.325 366.285 199.343 366.912 199.361ZM357.07 199.49L357.07 199.49C358.417 199.43 359.733 199.38 361.03 199.36L360.98 197.36C359.68 197.38 358.34 197.43 356.98 197.49L357.07 199.49L357.06 199.49H357.07ZM376.88 200C375.6 199.85 374.28 199.72 372.94 199.62L373.09 197.62C374.45 197.72 375.81 197.85 377.09 198L376.88 200ZM340.98 198.74L341.18 200.74L345.16 200.35L344.98 198.35L340.98 198.74ZM384.67 201.29C383.4 201.02 382.1 200.77 380.79 200.55L381.11 198.55C382.45 198.77 383.79 199.02 385.11 199.31L384.67 201.29ZM333.28 201.669L333.28 201.67H333.27L333.28 201.669ZM335.99 201.3C335.073 201.42 334.167 201.539 333.28 201.669L332.99 199.67C333.9 199.54 334.83 199.42 335.77 199.31L336.99 199.17L337.22 201.17L335.99 201.3ZM388.5 202.23C389.76 202.58 391.03 202.96 392.27 203.38L392.9 201.48C391.63 201.06 390.33 200.66 389.03 200.3L388.5 202.23ZM318 205.5L317.3 203.63C318.54 203.16 319.84 202.72 321.14 202.32L321.73 204.23C320.45 204.62 319.2 205.05 318 205.5ZM395.93 204.72C397.13 205.2 398.35 205.73 399.55 206.28L400.39 204.46C399.204 203.882 398 203.396 396.804 202.914L396.67 202.86L395.93 204.72ZM310.8 208.72L309.86 206.96C311.03 206.33 312.25 205.73 313.5 205.16L314.32 206.99C313.156 207.538 312.012 208.124 310.848 208.721L310.83 208.73L310.8 208.72ZM403.09 208.02C404.24 208.63 405.4 209.27 406.54 209.94L407.55 208.25C406.38 207.53 405.2 206.87 404.02 206.25L403.09 208.02ZM304.22 212.94L303 211.38C304.06 210.57 305.19 209.78 306.34 209.04L307.42 210.72C306.34 211.43 305.27 212.19 304.25 213L304.22 212.94ZM409.94 212C411.02 212.7 412.12 213.45 413.22 214.22L414.37 212.58C413.25 211.8 412.13 211.04 411.02 210.32L409.94 212ZM290.6 214.5L290.36 212.5C291.7 212.34 293.06 212.22 294.41 212.15L294.51 214.15C294.229 214.176 293.946 214.202 293.663 214.227C292.64 214.32 291.611 214.413 290.6 214.53V214.5ZM298.54 218.23L297.04 216.9C297.87 215.97 298.77 215.05 299.71 214.17H298.45V212.17C299.81 212.17 301.17 212.29 302.52 212.42L302.32 214.42C301.596 214.342 300.852 214.292 300.117 214.243L300.07 214.24L301.23 215.5C300.3 216.38 299.38 217.31 298.53 218.26L298.54 218.23ZM419.54 219C418.49 218.15 417.45 217.34 416.42 216.55L417.62 214.96C418.67 215.76 419.73 216.58 420.8 217.44L419.54 219ZM321.08 219.82C322.25 220.42 323.4 221.08 324.48 221.76L325.55 220C324.41 219.31 323.22 218.63 322 218L321.08 219.82ZM268.7 222.55L267.59 220.89C268.72 220.14 269.89 219.43 271.08 218.77L272.08 220.52C270.92 221.15 269.8 221.83 268.71 222.55H268.7ZM422.57 221.57C423.57 222.41 424.57 223.28 425.57 224.19L426.87 222.7C425.87 221.78 424.87 220.9 423.87 220.05L422.57 221.57ZM294 224.58L292.26 223.58C292.924 222.385 293.659 221.229 294.46 220.12L296.09 221.28C295.329 222.338 294.631 223.44 294 224.58ZM327.63 223.99C328.71 224.8 329.7 225.65 330.63 226.52L331.97 225.07C330.978 224.129 329.936 223.241 328.85 222.41L327.63 223.99ZM262.51 227.38L261.16 225.91C262.16 224.99 263.21 224.11 264.27 223.27L265.5 224.85C264.51 225.65 263.5 226.5 262.54 227.38H262.51ZM289.12 231.21L291.05 231.73H291.08C291.41 230.486 291.818 229.264 292.3 228.07L290.45 227.31C289.925 228.581 289.481 229.884 289.12 231.21ZM335.59 232.46C334.89 231.376 334.122 230.337 333.29 229.35L334.82 228.06C335.708 229.113 336.526 230.222 337.27 231.38L335.59 232.46ZM255.58 231.83L257.13 233.09H257.16C258 232.07 258.86 231.08 259.72 230.14L258.26 228.77C257.34 229.74 256.44 230.77 255.58 231.83ZM337.45 235.84C337.988 237.003 338.443 238.203 338.81 239.43L340.73 238.87C340.335 237.547 339.848 236.254 339.27 235L337.45 235.84ZM252.57 239.51L250.88 238.45C251.59 237.31 252.34 236.18 253.12 235.07L254.76 236.23C254 237.3 253.29 238.4 252.6 239.51H252.57ZM246.99 245.57L248.8 246.42H248.83C249.355 245.295 249.943 244.17 250.499 243.106L250.58 242.95L248.83 241.95C248.18 243.13 247.56 244.35 246.99 245.57ZM341.75 247.09L339.75 247.02V246.14C339.746 245.154 339.686 244.169 339.57 243.19L341.57 242.94C341.703 244.002 341.769 245.071 341.77 246.14C341.8 246.458 341.79 246.766 341.78 247.083L341.78 247.09H341.75ZM288.3 243.5C288.492 244.866 288.769 246.219 289.13 247.55L291.07 247.02C290.73 245.775 290.473 244.509 290.3 243.23L288.3 243.5ZM245.88 253.73L243.98 253.11C244.41 251.81 244.87 250.53 245.37 249.29L247.23 250.03C246.78 251.23 246.32 252.48 245.91 253.73H245.88ZM290.48 251.45C291.016 252.716 291.634 253.945 292.33 255.13L294.05 254.13C293.404 253.013 292.826 251.858 292.32 250.67L290.48 251.45ZM340.26 255.22L338.36 254.58C338.782 253.363 339.117 252.116 339.36 250.85L341.36 251.21C341.099 252.571 340.742 253.911 340.29 255.22H340.26ZM241.87 260.96L243.87 261.35H243.9C244.02 260.761 244.148 260.169 244.277 259.575C244.428 258.878 244.58 258.177 244.72 257.47L242.79 256.96C242.45 258.31 242.14 259.64 241.87 260.96ZM297.27 261.69C296.324 260.699 295.436 259.654 294.61 258.56L296.2 257.36C296.986 258.405 297.827 259.406 298.72 260.36L297.27 261.69ZM334.9 261.44L336.54 262.59H336.57C337.362 261.46 338.07 260.273 338.69 259.04L336.9 258.14C336.318 259.29 335.65 260.393 334.9 261.44ZM303.54 267C302.415 266.226 301.331 265.395 300.29 264.51L301.58 262.98C302.573 263.822 303.607 264.613 304.68 265.35L303.54 267ZM329.57 266.89L330.73 268.52L330.75 268.51C331.879 267.703 332.933 266.796 333.9 265.8L332.46 264.4C331.576 265.318 330.609 266.152 329.57 266.89ZM242.79 269.17L240.79 269C240.9 267.65 241.05 266.3 241.24 265L243.24 265.28C243.07 266.52 242.92 267.84 242.81 269.16L242.79 269.17ZM307.03 269.17C308.243 269.825 309.499 270.396 310.79 270.88L311.54 269.01C310.335 268.559 309.162 268.024 308.03 267.41L307.03 269.17ZM323.14 271.94L322.72 269.94C323.955 269.671 325.159 269.272 326.31 268.75L327.13 270.57C325.851 271.161 324.514 271.617 323.14 271.93V271.94ZM314.8 272.01C316.135 272.268 317.491 272.398 318.85 272.4L319 272.36V270.36H318.85C317.619 270.357 316.39 270.24 315.18 270.01L314.8 272.01ZM240.6 277.1V275.1V273.1L242.6 273.16V275.16V277.16L240.6 277.1ZM240.81 281.17C240.91 282.48 241.05 283.83 241.21 285.17L243.2 284.95C243.04 283.65 242.9 282.32 242.81 281.02L240.81 281.17ZM242.56 293.17C242.28 291.86 242.02 290.52 241.8 289.17L243.8 288.83C244.02 290.12 244.27 291.43 244.55 292.72L242.56 293.17ZM243.48 297.11C243.81 298.39 244.17 299.7 244.56 301L246.48 300.43C246.1 299.15 245.74 297.87 245.42 296.61L243.48 297.11ZM247.13 308.6C246.65 307.34 246.2 306.06 245.78 304.8L247.67 304.16C248.09 305.4 248.53 306.66 249 307.9L247.13 308.6ZM248.6 312.36C249.12 313.61 249.65 314.85 250.2 316.07L252.02 315.26C251.541 314.242 251.118 313.217 250.692 312.185C250.611 311.99 250.531 311.796 250.45 311.6L248.6 312.36ZM253.71 323.33C253.09 322.14 252.49 320.94 251.9 319.73L253.7 318.86C254.28 320.05 254.87 321.24 255.48 322.41L253.71 323.33ZM255.61 326.88C256.26 328.06 256.93 329.23 257.61 330.38L259.36 329.34C258.66 328.2 258 327.05 257.36 325.88L255.61 326.88ZM261.87 337.21C261.14 336.1 260.41 334.97 259.7 333.83L261.39 332.77C262.1 333.9 262.82 335.02 263.54 336.11L261.87 337.21ZM264.13 340.55C264.9 341.66 265.69 342.76 266.47 343.83L268.08 342.64C267.31 341.59 266.54 340.51 265.77 339.41L264.13 340.55ZM269.386 347.684L269.386 347.684C269.221 347.473 269.056 347.261 268.89 347.05L270.48 345.82C271.3 346.89 272.13 347.93 272.95 348.94L271.4 350.2C270.726 349.398 270.058 348.544 269.387 347.685L269.387 347.684L269.387 347.684L269.386 347.684L269.386 347.684L269.386 347.684L269.386 347.684L269.386 347.684ZM273.99 353.31L276.66 356.31L278.14 355.01C277.847 354.677 277.555 354.344 277.262 354.01C276.678 353.344 276.093 352.677 275.5 352.01L273.99 353.31ZM282.28 362.1C281.34 361.2 280.38 360.24 279.42 359.25L280.86 357.86C281.8 358.86 282.74 359.77 283.67 360.66L282.28 362.1ZM288.38 367.45C287.38 366.66 286.32 365.78 285.26 364.84L286.58 363.34C287.504 364.181 288.478 364.979 289.362 365.702L289.58 365.88L288.38 367.45ZM290.03 239.38H288.03C288.029 238.002 288.122 236.626 288.31 235.26L290.31 235.53C290.137 236.806 290.053 238.093 290.06 239.38H290.03ZM274.71 216.9L275.54 218.72L275.56 218.75C276.52 218.311 277.532 217.899 278.506 217.502L278.507 217.501L278.514 217.498L278.516 217.498L278.52 217.496C278.739 217.407 278.956 217.318 279.17 217.23L278.48 215.35C277.21 215.82 275.94 216.34 274.71 216.9ZM313.86 216.77C315.11 217.14 316.35 217.64 317.54 218.14L318.31 216.29C317.07 215.78 315.78 215.3 314.49 214.87L313.86 216.77ZM282.91 216.03L282.38 214.11C283.68 213.75 285.01 213.43 286.38 213.16L286.77 215.16C285.45 215.41 284.16 215.71 282.91 216.06V216.03ZM306.25 214.89C307.53 215.11 308.83 215.38 310.09 215.69L310.58 213.72C309.26 213.4 307.92 213.12 306.58 212.89L306.25 214.89ZM325.53 203.18L325.53 203.178C326.777 202.869 328.073 202.58 329.39 202.37L329 200.37C327.67 200.63 326.34 200.92 325.05 201.24L325.53 203.178L325.52 203.18H325.53ZM349.12 200L349.12 200H349.11L349.12 200ZM353.09 199.7C351.783 199.79 350.467 199.89 349.12 200L348.96 198L352.96 197.7L353.09 199.7Z" fill="#0E2946"/>
<path d="M292.21 369.321H274.24V367.321H290.21V351.351H292.21V369.321Z" fill="#0E2946"/>
<path d="M218.92 160.78L233.65 161.28L226.71 173.49L218.92 160.78Z" fill="#F5F6F8"/>
<path fill-rule="evenodd" clip-rule="evenodd" d="M217.09 159.71L226.74 175.45L235.34 160.33L217.09 159.71ZM226.68 171.52L220.74 161.84L231.96 162.22L226.68 171.52Z" fill="#476AE3"/>
<path fill-rule="evenodd" clip-rule="evenodd" d="M563.23 382.37C563.23 386.236 566.364 389.37 570.23 389.37C574.096 389.37 577.23 386.236 577.23 382.37C577.23 378.504 574.096 375.37 570.23 375.37C566.364 375.37 563.23 378.504 563.23 382.37ZM565.23 382.37C565.23 379.609 567.469 377.37 570.23 377.37C572.991 377.37 575.23 379.609 575.23 382.37C575.23 385.132 572.991 387.37 570.23 387.37C567.469 387.37 565.23 385.132 565.23 382.37Z" fill="#FFC31D"/>
<path d="M116.902 531.647L108.417 523.162L116.902 514.677L125.388 523.162L116.902 531.647Z" fill="#F5F6F8"/>
<path fill-rule="evenodd" clip-rule="evenodd" d="M107.01 523.161L116.91 533.061L126.81 523.161L116.91 513.261L107.01 523.161ZM116.91 530.231L109.84 523.161L116.91 516.091L123.98 523.161L116.91 530.231Z" fill="#EF4C59"/>
<path fill-rule="evenodd" clip-rule="evenodd" d="M472.91 161.73V173.14L484.32 161.73H507.06V134.73H465.06V161.73H472.91ZM474.91 159.73H467.06V136.73H505.06V159.73H483.5L474.91 168.31V159.73Z" fill="#476AE3"/>
<circle cx="71.75" cy="107.94" r="2" fill="#FFC31D"/>
<circle cx="81.75" cy="107.94" r="2" fill="#FFC31D"/>
<circle cx="91.75" cy="107.94" r="2" fill="#FFC31D"/>
<circle cx="101.75" cy="107.94" r="2" fill="#FFC31D"/>
<circle cx="111.75" cy="107.94" r="2" fill="#FFC31D"/>
<circle cx="121.75" cy="107.94" r="2" fill="#FFC31D"/>
<circle cx="131.75" cy="107.94" r="2" fill="#FFC31D"/>
<circle cx="141.75" cy="107.94" r="2" fill="#FFC31D"/>
<circle cx="151.75" cy="107.94" r="2" fill="#FFC31D"/>
<circle cx="161.75" cy="107.94" r="2" fill="#FFC31D"/>
<circle cx="171.75" cy="107.94" r="2" fill="#FFC31D"/>
<circle cx="181.75" cy="107.94" r="2" fill="#FFC31D"/>
<circle cx="71.75" cy="117.94" r="2" fill="#FFC31D"/>
<circle cx="81.75" cy="117.94" r="2" fill="#FFC31D"/>
<circle cx="91.75" cy="117.94" r="2" fill="#FFC31D"/>
<circle cx="101.75" cy="117.94" r="2" fill="#FFC31D"/>
<circle cx="111.75" cy="117.94" r="2" fill="#FFC31D"/>
<circle cx="121.75" cy="117.94" r="2" fill="#FFC31D"/>
<circle cx="131.75" cy="117.94" r="2" fill="#FFC31D"/>
<circle cx="141.75" cy="117.94" r="2" fill="#FFC31D"/>
<circle cx="151.75" cy="117.94" r="2" fill="#FFC31D"/>
<circle cx="161.75" cy="117.94" r="2" fill="#FFC31D"/>
<circle cx="171.75" cy="117.94" r="2" fill="#FFC31D"/>
<circle cx="181.75" cy="117.94" r="2" fill="#FFC31D"/>
<circle cx="71.75" cy="127.94" r="2" fill="#FFC31D"/>
<circle cx="81.75" cy="127.94" r="2" fill="#FFC31D"/>
<circle cx="91.75" cy="127.94" r="2" fill="#FFC31D"/>
<circle cx="101.75" cy="127.94" r="2" fill="#FFC31D"/>
<circle cx="111.75" cy="127.94" r="2" fill="#FFC31D"/>
<circle cx="121.75" cy="127.94" r="2" fill="#FFC31D"/>
<circle cx="131.75" cy="127.94" r="2" fill="#FFC31D"/>
<circle cx="141.75" cy="127.94" r="2" fill="#FFC31D"/>
<circle cx="151.75" cy="127.94" r="2" fill="#FFC31D"/>
<circle cx="161.75" cy="127.94" r="2" fill="#FFC31D"/>
<circle cx="171.75" cy="127.94" r="2" fill="#FFC31D"/>
<circle cx="181.75" cy="127.94" r="2" fill="#FFC31D"/>
<circle cx="71.75" cy="137.94" r="2" fill="#FFC31D"/>
<circle cx="81.75" cy="137.94" r="2" fill="#FFC31D"/>
<circle cx="91.75" cy="137.94" r="2" fill="#FFC31D"/>
<circle cx="101.75" cy="137.94" r="2" fill="#FFC31D"/>
<circle cx="111.75" cy="137.94" r="2" fill="#FFC31D"/>
<circle cx="121.75" cy="137.94" r="2" fill="#FFC31D"/>
<circle cx="131.75" cy="137.94" r="2" fill="#FFC31D"/>
<circle cx="141.75" cy="137.94" r="2" fill="#FFC31D"/>
<circle cx="151.75" cy="137.94" r="2" fill="#FFC31D"/>
<circle cx="161.75" cy="137.94" r="2" fill="#FFC31D"/>
<circle cx="171.75" cy="137.94" r="2" fill="#FFC31D"/>
<circle cx="181.75" cy="137.94" r="2" fill="#FFC31D"/>
<circle cx="71.75" cy="147.94" r="2" fill="#FFC31D"/>
<circle cx="81.75" cy="147.94" r="2" fill="#FFC31D"/>
<circle cx="91.75" cy="147.94" r="2" fill="#FFC31D"/>
<circle cx="101.75" cy="147.94" r="2" fill="#FFC31D"/>
<circle cx="111.75" cy="147.94" r="2" fill="#FFC31D"/>
<circle cx="121.75" cy="147.94" r="2" fill="#FFC31D"/>
<circle cx="131.75" cy="147.94" r="2" fill="#FFC31D"/>
<circle cx="141.75" cy="147.94" r="2" fill="#FFC31D"/>
<circle cx="151.75" cy="147.94" r="2" fill="#FFC31D"/>
<circle cx="161.75" cy="147.94" r="2" fill="#FFC31D"/>
<circle cx="171.75" cy="147.94" r="2" fill="#FFC31D"/>
<circle cx="181.75" cy="147.94" r="2" fill="#FFC31D"/>
<circle cx="71.75" cy="157.94" r="2" fill="#FFC31D"/>
<circle cx="81.75" cy="157.94" r="2" fill="#FFC31D"/>
<circle cx="91.75" cy="157.94" r="2" fill="#FFC31D"/>
<circle cx="101.75" cy="157.94" r="2" fill="#FFC31D"/>
<circle cx="111.75" cy="157.94" r="2" fill="#FFC31D"/>
<circle cx="121.75" cy="157.94" r="2" fill="#FFC31D"/>
<circle cx="131.75" cy="157.94" r="2" fill="#FFC31D"/>
<circle cx="141.75" cy="157.94" r="2" fill="#FFC31D"/>
<circle cx="151.75" cy="157.94" r="2" fill="#FFC31D"/>
<circle cx="161.75" cy="157.94" r="2" fill="#FFC31D"/>
<circle cx="171.75" cy="157.94" r="2" fill="#FFC31D"/>
<circle cx="181.75" cy="157.94" r="2" fill="#FFC31D"/>
<circle cx="71.75" cy="167.94" r="2" fill="#FFC31D"/>
<circle cx="81.75" cy="167.94" r="2" fill="#FFC31D"/>
<circle cx="91.75" cy="167.94" r="2" fill="#FFC31D"/>
<circle cx="101.75" cy="167.94" r="2" fill="#FFC31D"/>
<circle cx="111.75" cy="167.94" r="2" fill="#FFC31D"/>
<circle cx="121.75" cy="167.94" r="2" fill="#FFC31D"/>
<circle cx="131.75" cy="167.94" r="2" fill="#FFC31D"/>
<circle cx="141.75" cy="167.94" r="2" fill="#FFC31D"/>
<circle cx="151.75" cy="167.94" r="2" fill="#FFC31D"/>
<circle cx="161.75" cy="167.94" r="2" fill="#FFC31D"/>
<circle cx="171.75" cy="167.94" r="2" fill="#FFC31D"/>
<circle cx="181.75" cy="167.94" r="2" fill="#FFC31D"/>
<circle cx="71.75" cy="177.94" r="2" fill="#FFC31D"/>
<circle cx="81.75" cy="177.94" r="2" fill="#FFC31D"/>
<circle cx="91.75" cy="177.94" r="2" fill="#FFC31D"/>
<circle cx="101.75" cy="177.94" r="2" fill="#FFC31D"/>
<circle cx="111.75" cy="177.94" r="2" fill="#FFC31D"/>
<circle cx="121.75" cy="177.94" r="2" fill="#FFC31D"/>
<circle cx="131.75" cy="177.94" r="2" fill="#FFC31D"/>
<circle cx="141.75" cy="177.94" r="2" fill="#FFC31D"/>
<circle cx="151.75" cy="177.94" r="2" fill="#FFC31D"/>
<circle cx="161.75" cy="177.94" r="2" fill="#FFC31D"/>
<circle cx="171.75" cy="177.94" r="2" fill="#FFC31D"/>
<circle cx="181.75" cy="177.94" r="2" fill="#FFC31D"/>
<circle cx="71.75" cy="187.94" r="2" fill="#FFC31D"/>
<circle cx="81.75" cy="187.94" r="2" fill="#FFC31D"/>
<circle cx="91.75" cy="187.94" r="2" fill="#FFC31D"/>
<circle cx="101.75" cy="187.94" r="2" fill="#FFC31D"/>
<circle cx="111.75" cy="187.94" r="2" fill="#FFC31D"/>
<circle cx="121.75" cy="187.94" r="2" fill="#FFC31D"/>
<circle cx="131.75" cy="187.94" r="2" fill="#FFC31D"/>
<circle cx="141.75" cy="187.94" r="2" fill="#FFC31D"/>
<circle cx="151.75" cy="187.94" r="2" fill="#FFC31D"/>
<circle cx="161.75" cy="187.94" r="2" fill="#FFC31D"/>
<circle cx="171.75" cy="187.94" r="2" fill="#FFC31D"/>
<circle cx="181.75" cy="187.94" r="2" fill="#FFC31D"/>
<circle cx="71.75" cy="197.94" r="2" fill="#FFC31D"/>
<circle cx="81.75" cy="197.94" r="2" fill="#FFC31D"/>
<circle cx="91.75" cy="197.94" r="2" fill="#FFC31D"/>
<circle cx="101.75" cy="197.94" r="2" fill="#FFC31D"/>
<circle cx="111.75" cy="197.94" r="2" fill="#FFC31D"/>
<circle cx="121.75" cy="197.94" r="2" fill="#FFC31D"/>
<circle cx="131.75" cy="197.94" r="2" fill="#FFC31D"/>
<circle cx="141.75" cy="197.94" r="2" fill="#FFC31D"/>
<circle cx="151.75" cy="197.94" r="2" fill="#FFC31D"/>
<circle cx="161.75" cy="197.94" r="2" fill="#FFC31D"/>
<circle cx="171.75" cy="197.94" r="2" fill="#FFC31D"/>
<circle cx="181.75" cy="197.94" r="2" fill="#FFC31D"/>
<circle cx="71.75" cy="207.94" r="2" fill="#FFC31D"/>
<circle cx="81.75" cy="207.94" r="2" fill="#FFC31D"/>
<circle cx="91.75" cy="207.94" r="2" fill="#FFC31D"/>
<circle cx="101.75" cy="207.94" r="2" fill="#FFC31D"/>
<circle cx="111.75" cy="207.94" r="2" fill="#FFC31D"/>
<circle cx="121.75" cy="207.94" r="2" fill="#FFC31D"/>
<circle cx="131.75" cy="207.94" r="2" fill="#FFC31D"/>
<circle cx="141.75" cy="207.94" r="2" fill="#FFC31D"/>
<circle cx="151.75" cy="207.94" r="2" fill="#FFC31D"/>
<circle cx="161.75" cy="207.94" r="2" fill="#FFC31D"/>
<circle cx="171.75" cy="207.94" r="2" fill="#FFC31D"/>
<circle cx="181.75" cy="207.94" r="2" fill="#FFC31D"/>
<circle cx="71.75" cy="217.94" r="2" fill="#FFC31D"/>
<circle cx="81.75" cy="217.94" r="2" fill="#FFC31D"/>
<circle cx="91.75" cy="217.94" r="2" fill="#FFC31D"/>
<circle cx="101.75" cy="217.94" r="2" fill="#FFC31D"/>
<circle cx="111.75" cy="217.94" r="2" fill="#FFC31D"/>
<circle cx="121.75" cy="217.94" r="2" fill="#FFC31D"/>
<circle cx="131.75" cy="217.94" r="2" fill="#FFC31D"/>
<circle cx="141.75" cy="217.94" r="2" fill="#FFC31D"/>
<circle cx="151.75" cy="217.94" r="2" fill="#FFC31D"/>
<circle cx="161.75" cy="217.94" r="2" fill="#FFC31D"/>
<circle cx="171.75" cy="217.94" r="2" fill="#FFC31D"/>
<circle cx="181.75" cy="217.94" r="2" fill="#FFC31D"/>
</svg>
