<svg width="720" height="640" viewBox="0 0 720 640" fill="none" xmlns="http://www.w3.org/2000/svg">
<path d="M311.1 184.141L351 221.781C360.163 230.425 374.401 230.672 383.86 222.351L446 167.581L435.22 147.231L376 187.151C376 187.151 342 148.251 315.71 139.741L315.13 129.221" fill="white"/>
<path d="M367.72 229.471C361.227 229.46 354.986 226.954 350.29 222.471L310.41 184.831L311.79 183.381L351.66 221.021C360.427 229.367 374.127 229.606 383.18 221.571L444.79 167.321L434.9 148.651L375.84 188.441L375.26 187.781C374.92 187.391 341.11 148.991 315.41 140.661L314.76 140.451L314.14 129.251L316.14 129.141L316.68 138.981C341.22 147.341 371.46 180.511 376.18 185.801L435.62 145.751L447.3 167.751L446.7 168.281L384.5 223.101C379.871 227.2 373.903 229.466 367.72 229.471Z" fill="#0E2946"/>
<path d="M613.75 277.85C613.75 294.419 600.319 307.85 583.75 307.85H583.61V345.3H448.73V210.41H486.18C486.175 210.493 486.175 210.577 486.18 210.66C486.18 227.229 499.611 240.66 516.18 240.66C532.749 240.66 546.18 227.229 546.18 210.66C546.185 210.577 546.185 210.493 546.18 210.41H583.63V247.85H583.77C600.331 247.861 613.75 261.289 613.75 277.85Z" fill="white"/>
<path fill-rule="evenodd" clip-rule="evenodd" d="M447.73 209.41V346.3H584.61V308.88C601.731 308.88 615.61 295.001 615.61 277.88C615.61 260.759 601.731 246.88 584.61 246.88V209.43H546.16H545.05L545.17 210.53V210.66C545.17 226.676 532.186 239.66 516.17 239.66C500.154 239.66 487.17 226.676 487.17 210.66V210.53L487.31 209.41H447.73ZM582.61 306.85V344.3H449.73V211.41H485.16C485.16 228.531 499.039 242.41 516.16 242.41C533.281 242.41 547.16 228.531 547.16 211.41H582.61V248.85H583.75C599.766 248.85 612.75 261.834 612.75 277.85C612.75 293.866 599.766 306.85 583.75 306.85H582.61Z" fill="#0E2946"/>
<path d="M718.5 75.3008V210.771H681.06C681.06 227.339 667.629 240.771 651.06 240.771C634.491 240.771 621.06 227.339 621.06 210.771H583.61V171.551C566.825 171.54 553.221 157.936 553.21 141.151C553.21 121.441 566.84 110.741 583.61 110.741V75.3008H718.5Z" fill="#FFC31D"/>
<path fill-rule="evenodd" clip-rule="evenodd" d="M620.06 211.771C620.688 228.443 634.376 241.64 651.06 241.661C667.721 241.608 681.372 228.42 682 211.771H719.5V74.3008H582.61V109.751C564.38 110.151 552.21 122.701 552.21 141.151C552.212 158.102 565.668 171.991 582.61 172.531V211.771H620.06ZM622.06 209.771H584.61V170.551H583.61C567.38 170.534 554.226 157.381 554.21 141.151C554.21 126.511 563.3 111.741 583.61 111.741H584.61V76.3008H717.5V209.771H680.06V210.771C680.06 226.787 667.076 239.771 651.06 239.771C635.044 239.771 622.06 226.787 622.06 210.771V209.771Z" fill="#0E2946"/>
<path d="M718.5 210.771V345.301H681.05C681.05 361.869 667.618 375.301 651.05 375.301C634.481 375.301 621.05 361.869 621.05 345.301H583.61V307.851H583.75C600.318 307.851 613.75 294.419 613.75 277.851C613.75 261.282 600.318 247.851 583.75 247.851H583.61V210.771H621.06C621.06 227.339 634.491 240.771 651.06 240.771C667.628 240.771 681.06 227.339 681.06 210.771H718.5Z" fill="#476AE3"/>
<path fill-rule="evenodd" clip-rule="evenodd" d="M620.06 346.301C620.899 362.823 634.516 375.803 651.06 375.851C667.58 375.771 681.162 362.8 682 346.301H719.5V209.771H680.06V210.771C680.06 226.787 667.076 239.771 651.06 239.771C635.044 239.771 622.06 226.787 622.06 210.771V209.771H582.61V248.851H583.75C599.766 248.851 612.75 261.834 612.75 277.851C612.75 293.867 599.766 306.851 583.75 306.851H582.61V346.301H620.06ZM622.06 344.301H584.61V308.861C601.731 308.861 615.61 294.981 615.61 277.861C615.61 260.74 601.731 246.861 584.61 246.861V211.771H620C620 228.891 633.879 242.771 651 242.771C668.121 242.771 682 228.891 682 211.771H717.5V344.301H680.06V345.301C680.06 361.317 667.076 374.301 651.06 374.301C635.044 374.301 622.06 361.317 622.06 345.301V344.301Z" fill="#0E2946"/>
<path d="M570 212.861L562.66 174.281C546.167 177.35 530.303 166.487 527.2 150.001C523.64 130.501 534.96 117.711 551.53 114.571L545 79.7109L458.21 95.8509L411.87 104.451L419.87 147.021L436.87 237.611L475.77 230.381C478.807 246.673 494.477 257.419 510.77 254.381C527.062 251.343 537.807 235.673 534.77 219.381L570 212.861Z" fill="#EF4C59"/>
<path fill-rule="evenodd" clip-rule="evenodd" d="M474.94 231.54C478.151 245.65 490.698 255.661 505.17 255.66C522.283 255.655 536.154 241.783 536.16 224.67C536.157 223.184 536.05 221.701 535.84 220.23L571.14 213.67L563.43 173.12L562.43 173.31C554.848 174.775 546.996 173.14 540.63 168.77C534.1 164.361 529.611 157.516 528.17 149.77C524.97 132.27 534.2 118.82 551.7 115.5L552.7 115.31L545.83 78.54L410.7 103.65L436 238.77L474.94 231.54ZM476.7 230.22L476.52 229.22L437.58 236.44L420.78 146.83L413 105.25L458.34 96.89L544.17 80.89L550.31 113.75C532.26 117.61 522.8 131.79 526.16 150.16C527.705 158.423 532.495 165.723 539.46 170.43C545.987 174.898 553.981 176.688 561.79 175.43L568.79 212.06L533.53 218.62L533.7 219.62C536.137 235.13 525.788 249.762 510.353 252.633C494.918 255.503 480.001 245.569 476.7 230.22Z" fill="#0E2946"/>
<path d="M299.78 123.32C309.62 128.626 320.674 131.273 331.85 131C333.176 130.984 334.442 130.442 335.368 129.493C336.294 128.544 336.806 127.266 336.79 125.94L336.52 111L341.41 108.13L336.88 76L289 77.85L283.69 103.74L289.77 122.33L289.85 133.24L308.89 140L316.17 153.25L315.17 129.25" fill="white"/>
<path fill-rule="evenodd" clip-rule="evenodd" d="M308.2 140.8L317.35 157.48L316.16 130.53C321.299 131.669 326.558 132.18 331.82 132.05C333.415 132.035 334.938 131.385 336.052 130.244C337.167 129.103 337.781 127.565 337.76 125.97L337.5 111.65L342.5 108.73L337.75 74.9805L288.16 76.9305L282.63 103.85L288.75 122.54L288.84 134L308.2 140.8ZM309.59 139.17L290.83 132.53L290.73 122.32L284.68 103.68L289.79 78.8105L336 77.0005L340.33 107.63L335.51 110.47L335.79 125.96C335.814 127.021 335.406 128.046 334.66 128.8C333.912 129.564 332.889 129.996 331.82 130C320.828 130.267 309.957 127.661 300.28 122.44L299.33 124.2C304.028 126.733 309.018 128.681 314.19 130L315 149L309.59 139.17Z" fill="#0E2946"/>
<path d="M301.37 101.46C301.37 101.46 300.13 96.58 297 95C289.05 91.08 288.79 104.76 289.42 108.42C290.42 114.5 289.62 115.88 289.75 122.3C284.88 113.84 281.94 109.92 280.67 105.46C277.26 93.54 276.67 73.53 283.97 64.71C292.13 54.88 311.27 54.05 330.61 54.05C353 54.08 355.74 49 355.74 49C355.74 49 363.51 87.23 331.29 83.36C308.24 80.59 307.85 82.09 308.19 86.23C308.99 95.84 305.63 101.43 305.63 101.43L301.37 101.46Z" fill="#0E2946"/>
<path d="M155.1 518.66C151.74 521.12 146.61 522.56 139.93 528.48C135.08 532.78 131.83 536.48 130.68 542.56C128.79 552.56 118.33 553.92 118.33 553.92V497C131.26 498 145.7 498 145.7 498C150.58 514.22 152.42 502 155.1 518.66Z" fill="#0E2946"/>
<path fill-rule="evenodd" clip-rule="evenodd" d="M117.33 496V555.06L118.45 554.96C118.451 554.96 118.456 554.959 118.463 554.958C118.915 554.887 129.682 553.199 131.65 542.78C132.72 537.12 135.58 533.67 140.58 529.27C143.857 526.398 147.494 523.964 151.4 522.03C152.884 521.292 154.314 520.45 155.68 519.51L156.18 519.14L156.08 518.54C154.65 509.9 153.49 508.62 151.65 507.26L151.647 507.258C150.428 506.349 148.908 505.215 146.65 497.73L146.44 497.02H145.69C145.55 497.02 131.14 497.01 118.4 496.08L117.33 496ZM119.33 552.71V498.11C130.2 498.85 141.93 499 144.95 499C147.289 506.488 149.049 507.789 150.469 508.839L150.47 508.84L150.473 508.843C151.731 509.781 152.731 510.527 154.01 518.22C152.865 518.948 151.684 519.616 150.47 520.22C146.426 522.227 142.661 524.751 139.27 527.73C134.09 532.31 130.87 536.18 129.7 542.37C128.33 549.71 121.96 552.06 119.33 552.71Z" fill="#0E2946"/>
<path d="M134.941 519.404L135.785 518.867L141.429 527.72L140.586 528.258L134.941 519.404Z" fill="white"/>
<path d="M130.974 522.19L131.817 521.653L137.462 530.506L136.619 531.044L130.974 522.19Z" fill="white"/>
<rect x="46.3398" y="597.511" width="604.28" height="2" fill="#707F8F"/>
<rect x="0.569824" y="617.62" width="333" height="2" fill="#707F8F"/>
<rect x="343.57" y="637.62" width="333" height="2" fill="#707F8F"/>
<rect x="367.23" y="617.62" width="64.72" height="2" fill="#707F8F"/>
<rect x="462.03" y="617.62" width="172" height="2" fill="#707F8F"/>
<rect x="112.03" y="637.62" width="172" height="2" fill="#707F8F"/>
<path fill-rule="evenodd" clip-rule="evenodd" d="M23.9 12.83L25.82 13.42C25.8547 13.3067 25.8895 13.1932 25.9243 13.0795C26.2701 11.9494 26.6211 10.8021 27.03 9.63L25.13 9C24.7 10.29 24.29 11.57 23.9 12.83ZM23.67 21.12L21.73 20.64C22.0022 19.5511 22.2889 18.4477 22.5778 17.336L22.73 16.75L24.65 17.28C24.5304 17.751 24.408 18.2247 24.2854 18.6992L24.2852 18.6998L24.2852 18.7C24.0799 19.4946 23.8741 20.2912 23.68 21.08L23.67 21.12ZM19.97 28.51L21.97 28.88L21.98 28.84C22.21 27.56 22.48 26.26 22.77 24.99L20.77 24.56C20.48 25.89 20.21 27.21 19.97 28.51ZM20.79 36.72L18.79 36.49C18.94 35.18 19.12 33.83 19.32 32.49L21.32 32.79C21.12 34.06 20.94 35.42 20.8 36.68L20.79 36.72ZM18.22 44.55L20.22 44.61L20.23 44.57C20.27 43.27 20.34 41.94 20.43 40.7L18.43 40.55L18.4116 40.7922L18.4116 40.7923C18.317 42.036 18.22 43.3106 18.22 44.55ZM18.37 52.61C18.28 51.29 18.22 49.93 18.2 48.61H20.2C20.2 49.93 20.28 51.25 20.37 52.54L18.37 52.61ZM18.77 56.61C18.93 57.96 19.13 59.3 19.37 60.61L21.36 60.26C21.13 58.99 20.93 57.68 20.77 56.37L18.77 56.61ZM21.28 68.48C20.89 67.2 20.52 65.89 20.21 64.57L22.15 64.1C22.46 65.37 22.81 66.65 23.15 67.88L21.28 68.48ZM22.6255 72.4237C23.1104 73.6364 23.5988 74.8576 24.2 76.06L25.96 75.21L25.8559 74.9695L25.7496 74.7243C25.304 73.6967 24.8472 72.6434 24.45 71.59L22.58 72.31L22.6255 72.4237ZM28.04 83.19C27.32 82.05 26.64 80.87 26.04 79.69L27.8 78.69C28.41 79.83 29.07 80.98 29.8 82.09L28.04 83.19ZM30.28 86.57C31.05 87.65 31.87 88.73 32.72 89.79L34.24 88.54C33.6127 87.7596 32.997 86.9325 32.4065 86.1391C32.2252 85.8954 32.0462 85.6549 31.87 85.42L30.28 86.57ZM38.14 95.79C37.4969 95.1469 36.8952 94.5038 36.3109 93.8794L36.3103 93.8787L36.3084 93.8767L36.3067 93.8749C35.9839 93.5299 35.6663 93.1905 35.35 92.86L36.83 91.52C37.7 92.52 38.61 93.44 39.55 94.38L38.14 95.79ZM42.9432 100.194C43.3472 100.538 43.7497 100.88 44.14 101.22L45.42 99.67C44.42 98.83 43.42 97.96 42.42 97.09L41.08 98.58C41.6775 99.1165 42.3122 99.6568 42.9432 100.194ZM50.58 106.09C49.47 105.31 48.37 104.51 47.32 103.72L48.52 102.12C49.52 102.9 50.63 103.69 51.73 104.45L50.58 106.09ZM53.96 108.29C55.08 109.043 56.22 109.753 57.38 110.42L58.41 108.7C57.27 108.02 56.15 107.32 55.04 106.61L53.96 108.29ZM64.38 114.42C63.1933 113.793 62.0133 113.153 60.84 112.5L61.84 110.75C62.99 111.4 64.16 112.03 65.33 112.65L64.38 114.42ZM67.96 116.26C69.16 116.86 70.36 117.44 71.58 118.02L72.43 116.21C71.23 115.64 70.04 115.06 68.85 114.47L67.96 116.26ZM78.88 121.36C77.64 120.83 76.41 120.3 75.19 119.75L76.01 117.92C77.22 118.47 78.44 119 79.66 119.52L78.88 121.36ZM84.2923 123.557L84.2942 123.558C84.9601 123.827 85.6272 124.096 86.3 124.36L87.03 122.5C85.8 122.02 84.57 121.52 83.34 121.02L82.58 122.87C83.1519 123.096 83.7217 123.326 84.2923 123.557ZM93.8 127.23L90.04 125.82L90.75 123.95L94.49 125.35L93.8 127.23ZM97.58 128.61L101.36 129.95L102.02 128.07L98.26 126.73L97.58 128.61ZM108.93 132.58L105.14 131.28L105.8 129.39L109.58 130.69L108.93 132.58ZM112.72 133.87L116.52 135.16L117.16 133.26L113.37 131.98L112.72 133.87ZM124.09 137.74L120.31 136.44L120.95 134.55L124.74 135.84L124.09 137.74ZM127.88 139.04L131.65 140.36L132.32 138.48L128.53 137.15L127.88 139.04ZM139.15 143.1C137.92 142.63 136.67 142.17 135.41 141.71L136.09 139.83L139.86 141.23L139.15 143.1ZM142.88 144.53C144.13 145.02 145.36 145.52 146.58 146.02L147.34 144.17C147.126 144.083 146.912 143.996 146.697 143.908C145.678 143.493 144.651 143.075 143.61 142.67L142.88 144.53ZM153.85 149.21C152.66 148.66 151.45 148.11 150.22 147.57L151.02 145.74C152.27 146.29 153.49 146.84 154.69 147.4L153.85 149.21ZM157.42 150.95C158.63 151.56 159.81 152.18 160.92 152.8L161.89 151.05C160.75 150.42 159.55 149.79 158.32 149.16L157.42 150.95ZM167.64 156.94C166.64 156.22 165.49 155.5 164.34 154.79L165.34 153.09C166.53 153.81 167.67 154.56 168.74 155.3L167.64 156.94ZM170.79 159.28C171.84 160.12 172.83 160.98 173.74 161.84L175.12 160.38C174.16 159.49 173.13 158.59 172.04 157.72L170.79 159.28ZM178.84 167.72L178.26 166.92C177.7 166.15 177.09 165.38 176.44 164.64L177.95 163.33C178.64 164.11 179.29 164.93 179.88 165.74L180.47 166.55L178.84 167.72ZM181.1 170.98C181.84 172.08 182.56 173.19 183.25 174.31L184.95 173.25C184.24 172.12 183.51 170.99 182.76 169.87L181.1 170.98ZM187.25 181.17C186.63 180.01 185.99 178.86 185.32 177.71L187.05 176.71C187.469 177.426 187.878 178.149 188.286 178.873C188.54 179.322 188.793 179.772 189.05 180.22L187.25 181.17ZM189.08 184.7C189.67 185.88 190.24 187.08 190.79 188.28L192.61 187.44C192.05 186.23 191.47 185.01 190.87 183.81L189.08 184.7ZM193.86 195.6C193.604 194.929 193.329 194.258 193.055 193.587C192.827 193.028 192.598 192.469 192.38 191.91L194.23 191.14C194.75 192.38 195.25 193.63 195.73 194.89L193.86 195.6ZM195.22 199.33C195.65 200.59 196.06 201.84 196.46 203.1L198.37 202.51C197.97 201.23 197.55 199.95 197.11 198.68L195.22 199.33ZM198.58 210.76C198.27 209.47 197.93 208.19 197.58 206.91L199.5 206.38C199.87 207.68 200.2 208.98 200.5 210.28L198.58 210.76ZM199.45 214.67C199.73 215.97 199.98 217.27 200.22 218.57L202.23 218.25C201.99 216.917 201.73 215.583 201.45 214.25L199.45 214.67ZM201.4 226.42C201.25 225.11 201.07 223.8 200.87 222.48L202.87 222.19C203.07 223.523 203.25 224.857 203.41 226.19L201.4 226.42ZM202.16 234.24C202.08 232.907 201.98 231.573 201.86 230.24L203.86 230.06C203.98 231.4 204.08 232.74 204.17 234.06L202.16 234.24ZM129.05 232.66L129.33 234.66L129.3 234.71C129.625 234.664 129.954 234.619 130.286 234.573L130.287 234.572H130.288L130.288 234.572H130.288L130.288 234.572C131.267 234.437 132.275 234.297 133.29 234.14L133.05 232.14C131.71 232.3 130.38 232.47 129.05 232.66ZM180.77 235.01C179.46 234.8 178.15 234.61 176.84 234.43L177.11 232.43C178.44 232.61 179.76 232.81 181.11 233.02L180.77 235.01ZM121.489 236.005L121.49 236.01H121.46L121.489 236.005ZM121.489 236.005L121.12 234.01C122.43 233.76 123.75 233.53 125.12 233.31L125.44 235.31C124.07 235.538 122.779 235.767 121.489 236.005ZM188.58 236.53C187.29 236.25 185.99 235.99 184.69 235.75L185.05 233.75C186.37 234 187.69 234.26 189 234.54L188.58 236.53ZM113.22 235.71L113.67 237.71V237.66C114.96 237.35 116.26 237.07 117.56 236.83L117.14 234.83C115.83 235.11 114.52 235.4 113.22 235.71ZM196.29 238.42C195.645 238.25 195.002 238.085 194.36 237.92C193.717 237.755 193.075 237.59 192.43 237.42L192.9 235.48C194.2 235.79 195.5 236.11 196.8 236.48L196.29 238.42ZM105.4 237.63L105.94 239.56L105.97 239.64C106.393 239.52 106.818 239.402 107.242 239.284C108.091 239.049 108.94 238.813 109.78 238.56L109.28 236.63C107.98 236.92 106.68 237.27 105.4 237.63ZM202.39 240.04V242.15L204.4 242.16C204.396 241.716 204.383 241.271 204.371 240.827C204.355 240.271 204.34 239.716 204.34 239.16L204.5 238.65L204.33 238.59V238.15H203.07L200.68 237.44L200.12 239.36L200.408 239.444L200.409 239.445C201.065 239.637 201.727 239.831 202.39 240.04ZM211.39 243.15C210.14 242.68 208.9 242.23 207.65 241.8L208.3 239.91C209.57 240.35 210.83 240.8 212.09 241.27L211.39 243.15ZM90.1 242.66L90.8 244.54L90.84 244.59C91.2131 244.449 91.5871 244.309 91.9606 244.17L91.9636 244.168L91.9639 244.168L91.9641 244.168L91.9643 244.168L91.9645 244.168L91.9648 244.168L91.965 244.168L91.9652 244.168L91.9655 244.168L91.9657 244.168L91.9668 244.167L91.9684 244.167L91.9691 244.166L91.9695 244.166C92.8344 243.843 93.697 243.521 94.54 243.18L93.88 241.29C92.61 241.73 91.35 242.19 90.1 242.66ZM218.8 246.12C218.219 245.867 217.637 245.628 217.055 245.389C216.415 245.126 215.774 244.863 215.13 244.58L215.88 242.73C217.12 243.23 218.36 243.73 219.59 244.28L218.8 246.12ZM82.67 245.66L83.46 247.5V247.55C83.965 247.333 84.4735 247.118 84.9848 246.901L84.9857 246.901C85.6991 246.599 86.4179 246.294 87.14 245.98L86.39 244.12C85.7559 244.394 85.1244 244.65 84.4954 244.905C83.8845 245.152 83.2761 245.399 82.67 245.66ZM226.02 249.5C224.82 248.91 223.63 248.34 222.43 247.79L223.27 245.97C224.48 246.53 225.69 247.11 226.9 247.7L226.02 249.5ZM202.28 250.19L204.28 250.28C204.33 248.94 204.38 247.59 204.4 246.19H202.4C202.38 247.54 202.34 248.87 202.28 250.19ZM76.21 250.83L75.34 249.02C76.55 248.45 77.77 247.88 78.99 247.33L79.82 249.15C78.58 249.7 77.4 250.26 76.21 250.83ZM229.61 251.28C230.78 251.89 231.95 252.52 233.11 253.17L234.08 251.42C232.9 250.76 231.72 250.13 230.54 249.51L229.61 251.28ZM69.11 254.42L68.17 252.65C69.35 252.023 70.54 251.403 71.74 250.79L72.64 252.58C71.45 253.19 70.28 253.8 69.11 254.42ZM236.51 255.21C237.65 255.83 238.78 256.51 239.91 257.21L240.95 255.56C239.81 254.85 238.66 254.16 237.51 253.49L236.51 255.21ZM203.7 258.34L201.7 258.15L201.7 258.148C201.82 256.829 201.94 255.509 202.03 254.15L204.03 254.29C203.95 255.643 203.843 256.987 203.71 258.32L203.7 258.34ZM61.18 256.63L62.18 258.34H62.19C63.32 257.67 64.47 257 65.66 256.38L64.66 254.63C63.49 255.27 62.33 255.94 61.18 256.63ZM246.58 261.53C245.48 260.78 244.38 260.04 243.27 259.32L244.36 257.65C245.48 258.37 246.59 259.12 247.71 259.88L246.58 261.53ZM54.35 260.91L55.46 262.58C55.6929 262.428 55.9245 262.277 56.1555 262.126L56.1615 262.122L56.1641 262.12C57.0408 261.547 57.9079 260.98 58.8 260.42L57.73 258.73C56.59 259.45 55.47 260.17 54.35 260.91ZM200.73 265.99L202.73 266.28V266.32C202.93 265 203.11 263.66 203.26 262.29L201.26 262.05C201.1 263.37 200.92 264.68 200.73 265.99ZM48.94 267.1L47.75 265.49C48.83 264.69 49.92 263.91 51.03 263.14L52.17 264.78C51.7501 265.088 51.3317 265.392 50.9154 265.694L50.8809 265.719L50.8772 265.722C50.2256 266.195 49.5792 266.664 48.94 267.14V267.1ZM256.717 269.019L256.718 269.019L256.718 269.02C257.579 269.703 258.45 270.395 259.28 271.1L260.55 269.56C260.011 269.11 259.456 268.666 258.906 268.225C258.404 267.824 257.907 267.426 257.43 267.03L256.19 268.6C256.365 268.739 256.541 268.879 256.717 269.019ZM42.67 272.02L41.4 270.47C42.3136 269.693 43.2939 268.934 44.2724 268.175L44.2736 268.174L44.55 267.96L45.77 269.54C44.72 270.35 43.69 271.18 42.67 272.02ZM199.37 273.92L201.37 274.31V274.27C201.63 272.95 201.87 271.63 202.1 270.34L200.1 270C199.87 271.32 199.63 272.62 199.37 273.92ZM265.3 276.31C264.3 275.41 263.3 274.54 262.3 273.67L263.6 272.16C264.6 273.03 265.6 273.92 266.6 274.82L265.3 276.31ZM35.32 275.76L36.67 277.23L36.9775 276.948L36.9787 276.947C37.8498 276.146 38.7369 275.331 39.64 274.58L38.32 273.07L38.3154 273.074C37.317 273.963 36.3185 274.851 35.32 275.76ZM271.05 281.76C270.1 280.83 269.14 279.91 268.18 279L269.55 277.55C270.442 278.361 271.285 279.189 272.138 280.025L272.45 280.33L271.05 281.76ZM197.64 281.64L199.58 282.12C199.94 280.83 200.25 279.52 200.55 278.21L198.55 277.77C198.26 279.07 197.95 280.36 197.64 281.64ZM31 282.78L29.58 281.42C30.3644 280.567 31.1706 279.78 31.9925 278.978L31.9936 278.977L31.9944 278.976C32.1358 278.838 32.2777 278.699 32.42 278.56L33.81 279.99C32.8433 280.903 31.9067 281.833 31 282.78ZM274.245 284.892C275.064 285.727 275.881 286.561 276.69 287.45L278.15 286.08C277.23 285.1 276.3 284.13 275.37 283.18L273.94 284.58L274.245 284.892ZM25.69 288.67L24.16 287.42C25.01 286.42 25.91 285.37 26.81 284.37L28.29 285.71C27.7751 286.272 27.2773 286.847 26.7747 287.428C26.4182 287.84 26.0593 288.255 25.69 288.67ZM195.58 289.31L197.49 289.89C197.877 288.61 198.247 287.32 198.6 286.02L196.67 285.49C196.32 286.77 195.96 288.05 195.58 289.31ZM281.99 293.35C281.12 292.35 280.24 291.35 279.35 290.35L280.84 289.01C281.73 290.01 282.62 291.01 283.5 292.01L281.99 293.35ZM19.19 293.75L20.81 294.92C21.58 293.86 22.37 292.8 23.19 291.75L21.61 290.52C20.78 291.59 19.96 292.67 19.19 293.75ZM195 297.59L193.12 296.93C193.56 295.68 193.98 294.43 194.39 293.16L196.3 293.78L196.13 294.279C195.764 295.352 195.389 296.45 195 297.54V297.59ZM285.875 298.013C286.286 298.518 286.695 299.022 287.1 299.51L288.66 298.25C287.81 297.2 286.96 296.15 286.11 295.15L284.58 296.43C285.01 296.948 285.444 297.481 285.875 298.013ZM16.43 301.51L14.72 300.51C15.41 299.37 16.14 298.23 16.88 297.1L18.55 298.2C17.8351 299.258 17.1395 300.373 16.4723 301.442L16.4719 301.443L16.43 301.51ZM190.3 304.27L192.15 305.03V305.07C192.65 303.83 193.14 302.567 193.62 301.28L191.75 300.57C191.385 301.583 190.981 302.582 190.581 303.574L190.478 303.828L190.381 304.069L190.3 304.27ZM291.99 305.7C291.256 304.718 290.514 303.754 289.779 302.798L289.58 302.54L291.15 301.31C291.97 302.36 292.78 303.42 293.59 304.5L291.99 305.7ZM10.86 307.55L12.66 308.42C13.23 307.29 13.83 306.11 14.47 304.9L12.71 303.95C12.06 305.14 11.44 306.36 10.86 307.55ZM296.66 312.17L296.435 311.851L296.431 311.846L296.431 311.845C295.739 310.866 295.053 309.894 294.35 308.93L295.97 307.76C296.75 308.83 297.53 309.93 298.3 311.03L296.66 312.17ZM187.11 311.58L188.93 312.42C189.49 311.24 190.04 310.01 190.58 308.75L188.75 307.95C188.22 309.18 187.67 310.38 187.11 311.58ZM9.58 315.73L7.69 315.06C8.14 313.81 8.63 312.54 9.16 311.28L11 312.06C10.7252 312.858 10.4032 313.661 10.0819 314.462C9.91208 314.885 9.74246 315.308 9.58 315.73ZM299.904 316.829C300.352 317.469 300.799 318.108 301.25 318.74L302.88 317.59L302.54 317.107C301.891 316.185 301.237 315.256 300.59 314.32L298.95 315.47C299.105 315.689 299.259 315.909 299.414 316.129L299.684 316.514L299.904 316.829ZM185.33 319.64L183.57 318.7C184.18 317.54 184.79 316.36 185.39 315.17L187.18 316.06C186.58 317.28 185.96 318.47 185.33 319.65V319.64ZM6.43 318.91C6.06 320.22 5.72 321.54 5.43 322.84L7.43 323.28V323.29C7.63685 322.359 7.87098 321.412 8.10418 320.469L8.10429 320.468L8.1051 320.465L8.10523 320.464C8.18735 320.132 8.26935 319.8 8.35 319.47L6.43 318.91ZM305.89 325.28C305.398 324.599 304.91 323.913 304.42 323.226L304.418 323.223C304.133 322.822 303.847 322.421 303.56 322.02L305.19 320.86L307.51 324.11L305.89 325.28ZM179.64 325.65L181.35 326.65C182.04 325.52 182.72 324.36 183.38 323.23L181.64 322.23C180.973 323.39 180.307 324.53 179.64 325.65ZM6.24 331.04L4.24 330.88C4.35 329.55 4.51 328.19 4.71 326.88L6.71 327.19C6.5 328.42 6.35 329.76 6.24 331.04ZM308.23 328.53L310.58 331.77L312.19 330.59L309.85 327.36L308.23 328.53ZM176.95 333.42L175.31 332.28C176.06 331.21 176.8 330.11 177.53 328.99L179.2 330.08C178.46 331.21 177.71 332.32 176.95 333.42ZM314.886 337.728C315.007 337.892 315.129 338.056 315.25 338.22L316.95 337.03L314.58 333.82L312.87 335C313.372 335.686 313.878 336.368 314.383 337.049L314.642 337.399L314.886 337.728ZM4.14 339.02C4.05 337.78 4 336.51 4 335.26V334.95H6V335.25C6 336.46 6 337.67 6.13 338.87L4.14 339.02ZM170.58 338.66L172.14 339.89H172.17C172.99 338.83 173.797 337.76 174.59 336.68L172.98 335.49C172.201 336.559 171.391 337.609 170.582 338.658L170.581 338.658L170.58 338.66ZM320.08 344.64L317.68 341.44L319.28 340.24L321.68 343.43L320.08 344.64ZM165.58 344.82L167.08 346.12C167.271 345.896 167.462 345.672 167.652 345.448L167.654 345.446C168.329 344.652 169.002 343.862 169.68 343.09L168.13 341.82C167.29 342.82 166.44 343.82 165.58 344.82ZM5.42 347.06C5.34049 346.699 5.2662 346.337 5.18958 345.964L5.18881 345.961C5.15968 345.819 5.13022 345.676 5.1 345.53C4.93 344.71 4.79 343.89 4.66 343.07L6.66 342.77C6.78 343.56 6.92 344.34 7.08 345.13C7.15672 345.521 7.23932 345.901 7.32329 346.286L7.32541 346.296L7.3286 346.311L7.33152 346.324C7.35429 346.429 7.37714 346.534 7.4 346.64L5.42 347.06ZM322.53 347.83C323.337 348.903 324.147 349.963 324.96 351.01L326.55 349.79L324.12 346.62L322.53 347.83ZM161.69 352.11L160.24 350.74C160.611 350.332 160.98 349.935 161.347 349.539C161.88 348.965 162.409 348.396 162.93 347.81L164.42 349.15C163.874 349.756 163.314 350.359 162.759 350.956L162.754 350.961L162.75 350.966L162.746 350.969C162.39 351.352 162.036 351.733 161.69 352.11ZM6.36 350.99C6.7 352.3 7.07 353.61 7.45 354.88L9.37 354.3C8.99 353.06 8.63 351.78 8.3 350.49L6.36 350.99ZM329.85 357.34C329.264 356.626 328.679 355.861 328.093 355.095L327.825 354.746C327.68 354.556 327.535 354.368 327.39 354.18L328.97 352.96L331.43 356.11L329.85 357.34ZM154.65 356.42L156.03 357.85H156.04C157 356.92 157.96 355.97 158.9 355.02L157.47 353.61C157.324 353.759 157.179 353.908 157.034 354.056C156.258 354.852 155.493 355.636 154.65 356.42ZM10.13 362.5C9.63 361.28 9.13 360 8.7 358.72L10.58 358.06C11.02 359.31 11.49 360.55 11.98 361.75L10.13 362.5ZM150.126 363.325L150.13 363.33H150.12L150.126 363.325ZM150.126 363.325L148.81 361.83C149.81 360.95 150.81 360.06 151.76 359.16L153.12 360.62C152.399 361.283 151.684 361.925 150.963 362.573L150.935 362.597L150.919 362.612L150.915 362.616L150.499 362.989C150.375 363.1 150.25 363.212 150.126 363.325ZM334.83 363.63C334.282 362.969 333.737 362.269 333.192 361.567L333.175 361.545C333.07 361.41 332.965 361.275 332.859 361.14C332.69 360.922 332.52 360.705 332.35 360.49L333.92 359.25C334.74 360.3 335.57 361.35 336.4 362.38L334.83 363.63ZM143.966 368.525L143.97 368.53H143.96L143.966 368.525ZM143.966 368.525L142.71 366.97C143.135 366.617 143.57 366.263 144.009 365.906C144.603 365.423 145.203 364.935 145.79 364.44L147.08 365.97C146.042 366.828 145.004 367.687 143.966 368.525ZM13.58 369.84C12.95 368.67 12.34 367.45 11.77 366.22L13.58 365.42C14.14 366.62 14.73 367.8 15.35 368.94L13.58 369.84ZM338.185 367.818L338.186 367.82C338.737 368.511 339.286 369.201 339.84 369.86L341.4 368.6L338.88 365.49L337.33 366.75C337.616 367.104 337.9 367.461 338.185 367.818ZM137.58 373.42L136.4 371.81C137.46 371.03 138.52 370.23 139.58 369.42L140.8 371.01C139.73 371.84 138.66 372.64 137.58 373.42ZM342.38 372.97L344.92 376.06L346.46 374.79L343.92 371.7L342.38 372.97ZM17.84 376.74C17.07 375.65 16.32 374.51 15.6 373.35L17.3 372.3C17.99 373.42 18.73 374.53 19.47 375.58L17.84 376.74ZM130.984 378.021L130.99 378.03H130.97L130.984 378.021ZM134.32 375.77C133.205 376.537 132.099 377.284 130.984 378.021L129.89 376.36C130.99 375.63 132.09 374.89 133.18 374.13L134.32 375.77ZM350.09 382.2C349.23 381.193 348.37 380.173 347.51 379.14L349.04 377.85L351.61 380.91L350.09 382.2ZM124.165 382.301L124.17 382.31H124.15L124.151 382.309L124.165 382.301ZM127.63 380.21C126.455 380.927 125.31 381.614 124.165 382.301L123.17 380.58C124.31 379.91 125.44 379.22 126.57 378.52L127.63 380.21ZM20.32 379.97C21.18 381.03 22.09 382.03 23.01 383.03L24.46 381.65C23.57 380.71 22.7 379.71 21.87 378.71L20.32 379.97ZM117.14 386.23L117.136 386.222C118.311 385.604 119.502 384.967 120.71 384.31L119.71 382.57C118.54 383.22 117.38 383.85 116.21 384.46L117.136 386.222L117.12 386.23H117.14ZM543.89 384.42C545.017 385.087 546.143 385.78 547.27 386.5L548.34 384.87C547.22 384.15 546.09 383.43 544.94 382.72L543.89 384.42ZM355.27 388.29L352.66 385.29L354.18 383.99L356.78 386.99L355.27 388.29ZM25.89 385.88C26.89 386.8 27.94 387.68 29 388.51L30.24 386.95C29.24 386.15 28.24 385.3 27.24 384.42L25.89 385.88ZM109.89 389.78L109.06 387.96C110.26 387.41 111.45 386.85 112.65 386.26L113.53 388.06C112.32 388.65 111.1 389.22 109.89 389.78ZM550.56 388.7C551.67 389.45 552.75 390.21 553.82 390.97L554.98 389.35C553.9 388.58 552.8 387.81 551.69 387.05L550.56 388.7ZM32.3 390.9C33.42 391.64 34.59 392.35 35.77 393.01L36.75 391.23C35.61 390.63 34.49 389.95 33.41 389.23L32.3 390.9ZM360.58 394.32L357.94 391.32L359.45 390.01L362.08 393.01L360.58 394.32ZM560.16 395.74C559.133 394.933 558.083 394.123 557.01 393.31L558.21 391.72C559.29 392.53 560.36 393.35 561.4 394.17L560.16 395.74ZM39.4 394.85C40.62 395.42 41.89 395.95 43.16 396.42L43.86 394.55C42.63 394.09 41.42 393.58 40.24 393.04L39.4 394.85ZM87.1 397.81L86.58 395.79C87.85 395.49 89.14 395.16 90.42 394.79L90.95 396.72C89.68 397.09 88.37 397.42 87.08 397.73L87.1 397.81ZM47.04 397.81C48.32 398.17 49.64 398.51 50.97 398.81L51.41 396.89C50.12 396.59 48.85 396.26 47.61 395.89L47.04 397.81ZM363.238 397.359C364.125 398.356 365.013 399.353 365.91 400.35L367.39 399.02C366.497 398.02 365.607 397.02 364.72 396.02L363.23 397.35L363.238 397.359ZM563.3 398.32C564.3 399.17 565.3 400.03 566.3 400.9L567.64 399.34C567.095 398.861 566.533 398.384 565.971 397.909C565.503 397.512 565.035 397.116 564.58 396.72L563.3 398.32ZM371.3 406.26L368.58 403.25L370.06 401.9C370.96 402.893 371.86 403.873 372.76 404.84L371.3 406.26ZM569.22 403.56C570.2 404.48 571.16 405.39 572.09 406.31L573.49 404.89C572.59 403.96 571.59 403.03 570.59 402.1L569.22 403.56ZM577.56 412.06C576.69 411.06 575.79 410.11 574.87 409.14L576.32 407.76C577.247 408.753 578.157 409.753 579.05 410.76L577.56 412.06ZM375.128 410.307C375.678 410.883 376.227 411.459 376.78 412.06L378.23 410.68L375.49 407.78L374.03 409.15C374.396 409.54 374.761 409.922 375.125 410.304L375.128 410.307ZM382.34 417.83C381.413 416.883 380.483 415.923 379.55 414.95L380.99 413.57C381.714 414.349 382.433 415.079 383.154 415.813L383.157 415.816C383.361 416.023 383.565 416.231 383.77 416.44L382.34 417.83ZM581.943 417.247L581.962 417.272L581.998 417.317L582.004 417.325C582.215 417.59 582.424 417.852 582.63 418.11L584.21 416.89C583.4 415.84 582.55 414.74 581.68 413.74L580.15 415.02C580.753 415.751 581.355 416.509 581.943 417.247ZM387.97 423.53L385.14 420.69L386.57 419.28C387.242 419.995 387.914 420.659 388.582 421.319C388.849 421.582 389.115 421.845 389.38 422.11L387.97 423.53ZM584.99 421.27C585.77 422.35 586.52 423.45 587.24 424.53L588.91 423.43C588.18 422.32 587.41 421.2 586.62 420.1L584.99 421.27ZM393.68 429.13L390.82 426.33L392.22 424.9C393.17 425.84 394.13 426.77 395.08 427.69L393.68 429.13ZM589.3 427.88C590.02 429.02 590.68 430.17 591.3 431.32L593.02 430.4C592.39 429.23 591.71 428.04 591.02 426.88L589.3 427.88ZM399.48 434.66C399.027 434.232 398.572 433.802 398.118 433.37L397.798 433.067L397.349 432.641L397.046 432.353L396.57 431.9L397.95 430.46L400.85 433.2L399.48 434.66ZM594.644 438.216L594.73 438.42L596.57 437.64C596.06 436.42 595.49 435.18 594.9 433.96L593.1 434.83C593.694 435.952 594.172 437.092 594.644 438.216ZM405.33 440.08L402.41 437.42L403.77 435.95C404.75 436.863 405.73 437.763 406.71 438.65L405.33 440.08ZM408.33 442.76C409.33 443.66 410.33 444.55 411.33 445.42L412.66 443.92C411.66 443.05 410.66 442.17 409.66 441.27L408.33 442.76ZM597.39 445.9C597.02 444.66 596.6 443.4 596.15 442.16L598.03 441.48C598.49 442.75 598.92 444.05 599.31 445.32L597.39 445.9ZM414.39 448.14L417.39 450.75L418.7 449.23C417.7 448.37 416.7 447.51 415.7 446.63L414.39 448.14ZM599.22 453.56C599 452.29 598.74 450.99 598.43 449.7L600.38 449.24C600.69 450.57 600.97 451.91 601.19 453.24L599.22 453.56ZM420.46 453.34L423.55 455.89L424.81 454.34C423.74 453.51 422.74 452.66 421.74 451.8L420.46 453.34ZM429.8 460.89C429.259 460.446 428.691 459.999 428.117 459.548C427.631 459.165 427.141 458.78 426.66 458.39L427.91 456.84L431.04 459.32L429.8 460.89ZM599.76 457.43C599.89 458.74 600.02 460.06 600.02 461.35L602.03 461.29C601.99 459.95 601.9 458.58 601.76 457.23L599.76 457.43ZM436.15 465.78L432.96 463.35L434.18 461.77C435.24 462.59 436.3 463.39 437.36 464.19L436.15 465.78ZM599.67 469.18L601.67 469.42C601.83 468.06 601.94 466.69 601.99 465.36L599.99 465.27C599.94 466.59 599.83 467.9 599.67 469.18ZM442.58 470.51C441.5 469.73 440.42 468.95 439.34 468.15L440.52 466.54L443.75 468.89L442.58 470.51ZM445.88 472.83C446.98 473.61 448.08 474.37 449.18 475.12L450.31 473.47L447.03 471.19L445.88 472.83ZM600 477.42L598.08 476.84C598.45 475.61 598.78 474.33 599.08 473.05L601.08 473.46C600.933 473.987 600.791 474.522 600.648 475.061C600.441 475.843 600.231 476.633 600 477.42ZM452.51 477.32C453.64 478.07 454.75 478.8 455.87 479.52L456.95 477.84C455.85 477.13 454.74 476.4 453.62 475.66L452.51 477.32ZM462.66 483.79C461.53 483.1 460.39 482.4 459.25 481.68L460.31 479.99C461.45 480.7 462.58 481.4 463.7 482.08L462.66 483.79ZM595.19 484L596.97 484.91L596.96 484.95C597.58 483.75 598.14 482.5 598.66 481.19L596.8 480.45C596.32 481.66 595.77 482.85 595.19 484ZM469.58 487.91L466.1 485.91L467.1 484.18L467.321 484.31C468.405 484.945 469.473 485.571 470.55 486.18L469.58 487.91ZM592.58 491.85L591 490.62C591.8 489.62 592.55 488.52 593.25 487.43L594.94 488.5C594.2 489.65 593.41 490.77 592.58 491.85ZM480.17 493.64C481.38 494.25 482.58 494.84 483.77 495.42L484.64 493.62C483.46 493.05 482.27 492.46 481.08 491.85L480.17 493.64ZM587.02 497.72L585.69 496.23C586.69 495.36 587.6 494.45 588.48 493.5L589.94 494.87C589 495.94 588.02 496.91 587 497.81L587.02 497.72ZM487.42 497.07C488.65 497.64 489.87 498.19 491.09 498.72L491.89 496.89C490.69 496.36 489.48 495.81 488.26 495.25L487.42 497.07ZM496.434 500.957L496.429 500.955L496.428 500.955L496.427 500.954L496.004 500.783C495.598 500.618 495.19 500.453 494.78 500.29L495.55 498.45C496.79 498.96 498.02 499.45 499.24 499.93L498.51 501.79C497.822 501.521 497.13 501.24 496.434 500.957ZM579.45 500.96L580.51 502.65L580.47 502.7C581.63 501.98 582.76 501.2 583.88 500.35L582.68 498.75C581.65 499.52 580.56 500.26 579.45 500.96ZM506.09 504.55C504.84 504.12 503.57 503.68 502.3 503.21L502.98 501.33C504.24 501.79 505.49 502.23 506.73 502.65L506.09 504.55ZM573.288 506.405L573.29 506.41L573.25 506.42L573.288 506.405ZM573.288 506.405L572.5 504.57C573.71 504.06 574.9 503.49 576.05 502.9L576.97 504.67C575.752 505.333 574.525 505.918 573.288 506.405ZM513.78 506.93C512.5 506.57 511.21 506.19 509.92 505.79L510.51 503.88C511.79 504.28 513.06 504.65 514.32 505.01L513.78 506.93ZM565.58 509.12L565.05 507.19C566.32 506.84 567.58 506.45 568.8 506.02L569.46 507.91C568.33 508.367 567.159 508.696 565.985 509.026L565.955 509.034L565.75 509.092L565.58 509.14V509.12ZM525.46 509.74C526.82 509.99 528.15 510.22 529.46 510.42L529.74 508.41C528.45 508.22 527.15 507.99 525.83 507.74L525.46 509.74ZM557.64 510.85L557.34 508.85C558.65 508.65 559.96 508.41 561.22 508.15L561.63 510.1C560.486 510.382 559.31 510.563 558.124 510.745L558.123 510.745C557.962 510.77 557.801 510.795 557.64 510.82V510.85ZM533.47 511.02C534.8 511.18 536.15 511.31 537.47 511.42L537.65 509.42C536.35 509.31 535.03 509.18 533.7 509.02L533.47 511.02ZM549.59 511.61L549.49 509.61C550.81 509.55 552.14 509.45 553.43 509.33L553.63 511.33C553.168 511.361 552.703 511.397 552.235 511.434L552.224 511.434L552.189 511.437C551.328 511.504 550.459 511.571 549.59 511.61ZM545.33 511.71C544.07 511.71 542.79 511.71 541.5 511.64L541.59 509.64C542.218 509.64 542.848 509.658 543.475 509.675C544.098 509.693 544.717 509.71 545.33 509.71H545.58V511.71H545.33ZM517.67 508C518.98 508.33 520.29 508.64 521.58 508.93L522.02 506.98C520.74 506.69 519.45 506.39 518.15 506.06L517.67 508ZM473.04 489.87C474.23 490.52 475.4 491.15 476.58 491.77L477.55 490C476.39 489.407 475.22 488.777 474.04 488.11L473.04 489.87ZM65.99 400.41C64.99 400.41 63.99 400.41 62.99 400.35L63.06 398.35C64.37 398.4 65.68 398.42 67.01 398.4V400.4L65.99 400.41ZM71.13 400.24L71.1263 400.179C71.8564 400.135 72.5955 400.079 73.3386 400.022L73.3392 400.022H73.3398H73.3403H73.3407H73.3411H73.3415H73.3419H73.3422L73.3547 400.021L73.3594 400.021C73.9579 399.975 74.5589 399.93 75.16 399.89L74.94 397.89C73.63 398.04 72.3 398.15 71.01 398.24L71.1263 400.179L71.11 400.18L71.13 400.24ZM54.99 399.57C56.28 399.78 57.63 399.95 58.99 400.08L59.21 398.07C57.89 397.94 56.58 397.77 55.3 397.57L54.99 399.57ZM79.17 399.36L79.1604 399.298C79.5035 399.243 79.8487 399.187 80.1956 399.13L80.2027 399.129L80.2064 399.128L80.207 399.128L80.2076 399.128L80.2082 399.128L80.2088 399.128L80.2099 399.128L80.2108 399.128C81.1799 398.969 82.1623 398.809 83.15 398.67L82.76 396.67C81.46 396.93 80.15 397.16 78.86 397.36L79.1604 399.298L79.15 399.3L79.17 399.36ZM94.23 393.67L94.83 395.57L94.85 395.58C96.13 395.18 97.4 394.76 98.66 394.3L98 392.41C96.74 392.85 95.49 393.27 94.23 393.67ZM102.46 392.91L101.74 391.05C102.434 390.779 103.124 390.496 103.815 390.212C104.349 389.993 104.884 389.774 105.42 389.56L106.2 391.4C104.95 391.93 103.71 392.42 102.46 392.91ZM540.5 382.31L538.6 381.19L539.6 379.46L541.52 380.59L540.5 382.31ZM253.04 266.13C251.98 265.33 250.91 264.54 249.84 263.77L251.01 262.15C252.09 262.93 253.17 263.73 254.25 264.54L253.04 266.13ZM98.32 241.87L97.7 239.97C98.97 239.55 100.25 239.15 101.53 238.76L102.12 240.67C101.199 241.016 100.255 241.325 99.3307 241.627L99.3297 241.628L99.3251 241.629L99.3206 241.631L99.3114 241.634C98.9881 241.739 98.6671 241.844 98.35 241.95L98.32 241.87ZM168.95 233.54C170.26 233.66 171.58 233.79 172.89 233.94L173.13 231.94C171.79 231.79 170.46 231.65 169.13 231.54L168.95 233.54ZM137.23 233.71L137.04 231.71C138.37 231.58 139.71 231.47 141.04 231.37L141.19 233.37C139.84 233.52 138.52 233.64 137.2 233.76L137.23 233.71ZM161 233.03C162.333 233.083 163.667 233.153 165 233.24L165.08 231.24C163.75 231.16 162.41 231.08 161.08 231.03L161 233.03ZM145.16 233.12L145.06 231.12C146.39 231.05 147.73 231 149.06 230.96L149.12 232.96C148.238 233.019 147.36 233.061 146.487 233.103L146.485 233.103C146.032 233.125 145.581 233.146 145.13 233.17L145.16 233.12ZM154.07 232.91H157.07V230.91H154.07H153.07V232.91H154.07Z" fill="#707F8F"/>
<path d="M355.66 560.74C356.43 564.74 356.24 570.11 360.48 576.91C363.91 582.41 368.48 585.01 374.56 586.16C384.56 588.05 385.93 598.51 385.93 598.51H329C330 585.58 330 571.14 330 571.14C346.22 566.26 339 563.42 355.66 560.74Z" fill="#0E2946"/>
<path fill-rule="evenodd" clip-rule="evenodd" d="M328 599.511H387.07L387.01 598.281C387.009 598.279 387.008 598.274 387.007 598.267C386.937 597.816 385.249 587.049 374.83 585.081C368.62 583.901 364.48 581.191 361.42 576.281C358.999 572.341 357.537 567.888 357.15 563.281L357.136 563.176C357.011 562.235 356.893 561.349 356.73 560.501L356.55 559.551L355.55 559.701C346.309 561.229 344.104 562.838 341.557 564.695L341.55 564.701C341.488 564.745 341.426 564.789 341.363 564.833C339.304 566.297 336.844 568.046 329.73 570.191L329.02 570.401V571.141C329.02 571.291 329.01 585.701 328.08 598.441L328 599.511ZM384.67 597.511H330.11C330.86 586.641 331 574.911 330.94 571.881C338.04 569.681 340.49 567.891 342.65 566.311C344.99 564.601 346.86 563.241 354.8 561.891C354.88 562.431 354.96 563.001 355.04 563.591C355.447 568.501 357.006 573.246 359.59 577.441C362.98 582.861 367.52 585.861 374.33 587.141C381.67 588.511 384.02 594.881 384.67 597.511Z" fill="#0E2946"/>
<path d="M338.67 320L311.28 295.39L236.58 281.21C231.24 325.9 224.08 430.56 224.08 430.56L140.66 496.13L156.36 525L261.86 466.89C270.659 462.041 277.112 453.827 279.74 444.13C283.84 429.06 290.16 405.38 295 385.37C310.07 423.49 318.25 473.23 326.93 573.19L359.93 569.53C365.76 440.18 364.22 410.31 338.67 320Z" fill="white"/>
<path d="M326 574.26L325.91 573.26C317.14 472 308.8 423 294.07 385.71L295.93 384.97C310.69 422.29 319.06 471.3 327.83 572.04L359 568.59C364.68 441.78 363.57 411.68 337.71 320.29L339.64 319.75C365.64 411.63 366.7 441.75 360.96 569.53V570.39L326 574.26Z" fill="#0E2946"/>
<path d="M326.794 565.17L359.822 561.512L360.043 563.5L327.015 567.158L326.794 565.17Z" fill="#0E2946"/>
<path d="M156 526.32L139.41 495.89L223.14 430.06C223.66 422.57 230.51 323.84 235.62 281.11L237.62 281.35C232.34 325.51 225.2 429.6 225.13 430.64V431.09L142 496.42L156.81 523.6L261.37 466C269.92 461.269 276.198 453.285 278.78 443.86C285.99 417.31 298.41 370.36 300.56 354.17L300.66 353.44L316.58 350.7L316.91 352.7L302.44 355.19C300.01 372.13 287.83 418.19 280.71 444.41C277.982 454.356 271.36 462.781 262.34 467.78L156 526.32Z" fill="#0E2946"/>
<path d="M145.806 493.612L147.562 492.655L163.263 521.465L161.507 522.422L145.806 493.612Z" fill="#0E2946"/>
<path d="M335 171.001C348.38 197.751 342 319.641 342 319.641C342 319.641 321.68 314.181 286.58 327.841C250.92 341.711 222.75 337.281 222.75 337.281C222.75 337.281 237.92 207.001 246.3 181.831C252.62 163.021 267.45 147.831 283.15 141.291L285.94 131.811L308.89 140.001L324.25 167.001L325.3 143.381" fill="white"/>
<path d="M234.23 338.941C230.343 338.989 226.457 338.768 222.6 338.281L221.65 338.141L221.76 337.141C222.38 331.821 237.03 206.451 245.36 181.471C251.36 163.531 265.85 147.471 282.36 140.471L285.31 130.471L309.61 139.131L323.43 163.481L324.33 143.321L326.33 143.411L325.12 170.511L308.21 140.801L286.6 133.111L284 142.001L283.56 142.181C267.41 148.871 253.17 164.541 247.27 182.121C239.4 205.751 225.27 324.331 223.88 336.401C229.08 337.001 254.88 339.091 286.24 326.891C316.9 314.971 336.19 317.451 341.08 318.401C341.68 305.761 346.49 196.251 334.08 171.401L335.87 170.511C341.49 181.741 344.4 210.261 344.52 255.301C344.6 288.751 343.03 319.301 343.02 319.641L342.95 320.871L341.76 320.551C334.82 318.711 314.43 318.031 286.97 328.721C270.165 335.333 252.288 338.797 234.23 338.941Z" fill="#0E2946"/>
<path d="M418.52 168C426.07 162.07 438.71 159.08 442.52 158.1C447.81 156.75 448.19 171.22 447.52 174.21C446.52 178.38 431.66 181.14 426.99 189.21C423.27 194.59 418.45 193.47 416.82 194.81L407 182.24L407.68 181.34C408.6 179.93 413.43 170.83 413.43 170.83L419.79 157.75C420.017 157.114 420.597 156.672 421.27 156.62" fill="white"/>
<path d="M416.63 196.19L405.72 182.25L406.86 180.74C407.53 179.74 410.86 173.5 412.53 170.36L418.85 157.36C419.226 156.383 420.127 155.707 421.17 155.62L421.32 157.62C421.042 157.643 420.803 157.827 420.71 158.09V158.19L414.35 171.27C414.14 171.67 409.47 180.46 408.54 181.88L408.28 182.23L417.09 193.48C417.713 193.27 418.351 193.11 419 193C421.17 192.55 423.86 192 426.17 188.63C428.88 183.96 434.85 181.01 439.65 178.63C442.88 177.03 446.23 175.38 446.56 173.98C447.13 171.54 446.83 161.98 444.31 159.51C443.938 159.083 443.353 158.912 442.81 159.07L442.15 159.24C437.78 160.35 426.15 163.24 419.15 168.78L417.92 167.21C425.24 161.46 437.14 158.44 441.63 157.3L442.28 157.14C443.5 156.802 444.807 157.163 445.68 158.08C449.11 161.44 449.03 172.08 448.47 174.43C447.91 176.78 444.65 178.37 440.47 180.43C435.91 182.69 430.23 185.5 427.79 189.71C425.857 192.593 422.78 194.509 419.34 194.97C418.659 195.056 417.999 195.263 417.39 195.58L416.63 196.19Z" fill="#0E2946"/>
<path d="M427.06 173.77C427.06 173.77 437.31 168.38 446.6 167.04L427.06 173.77Z" fill="white"/>
<path d="M427.53 174.65L426.6 172.88C427.02 172.66 437.11 167.4 446.45 166.05L446.74 168.05C437.74 169.33 427.63 174.6 427.53 174.65Z" fill="#0E2946"/>
<path d="M426.09 168.86C426.09 168.86 437.16 162.86 446.45 161.57L426.09 168.86Z" fill="white"/>
<path d="M426.56 169.74L425.61 167.98C426.07 167.73 436.95 161.98 446.3 160.58L446.59 162.58C437.59 163.86 426.67 169.68 426.56 169.74Z" fill="#0E2946"/>
<path d="M430.75 177.71C430.75 177.71 439.48 173.26 446.85 172.55L430.75 177.71Z" fill="white"/>
<path d="M431.21 178.601L430.3 176.821C430.66 176.631 439.3 172.281 446.76 171.561L446.95 173.561C439.85 174.231 431.29 178.561 431.21 178.601Z" fill="#0E2946"/>
<path d="M258.5 220.101C273.12 230.681 312.3 250.311 336.06 261.861C347.679 267.529 361.594 265.41 371 256.541C388.71 239.851 415.79 212.841 422.15 198.041C411 185.251 405 180.521 405 180.521L347.31 218.521C347.31 218.521 323.44 207.391 298.49 183.391" fill="white"/>
<path d="M349.6 266C344.75 266.009 339.962 264.911 335.6 262.79C312.95 251.79 272.73 231.68 257.9 220.94L259.07 219.32C273.8 229.94 313.9 250 336.49 261C347.739 266.429 361.168 264.382 370.29 255.85C386.29 240.72 414.08 213.29 420.94 198.26C412.15 188.18 406.62 183.26 404.94 181.8L347.4 219.72L346.9 219.48C346.66 219.37 322.59 208.01 297.8 184.17L299.19 182.73C313.453 196.549 329.636 208.237 347.24 217.43L405.06 179.33L405.63 179.77C405.88 179.97 411.83 184.71 422.88 197.43L423.29 197.9L423.04 198.48C416.82 212.94 391.67 238.48 371.67 257.31C365.686 262.908 357.794 266.015 349.6 266Z" fill="#0E2946"/>
<path d="M417.13 208.161C405.36 193.821 399 188.521 399 188.521L417.13 208.161Z" fill="white"/>
<path d="M416.35 208.79C404.78 194.69 398.42 189.34 398.35 189.29L399.63 187.75C399.89 187.97 406.19 193.28 417.89 207.52L416.35 208.79Z" fill="#0E2946"/>
<path d="M351.115 579.318L359.935 573.648L360.475 574.488L351.655 580.158L351.115 579.318Z" fill="white"/>
<path d="M353.897 583.258L362.717 577.588L363.257 578.428L354.437 584.098L353.897 583.258Z" fill="white"/>
<path d="M307.7 143.42L305.01 157.23L287.25 142.91" fill="white"/>
<path d="M330.61 147.4L328.79 138.7L315.02 134.62L315.58 132.7L329.93 136.95L330.62 137.7L332.56 146.99L330.61 147.4Z" fill="#0E2946"/>
<path d="M530.26 374.931L544.99 375.431L538.05 387.641L530.26 374.931Z" fill="#F5F6F8"/>
<path fill-rule="evenodd" clip-rule="evenodd" d="M528.43 373.86L538.08 389.6L546.68 374.49L528.43 373.86ZM538.02 385.67L532.08 375.99L543.3 376.37L538.02 385.67Z" fill="#EF4C59"/>
<path d="M556.4 70.1309L553.18 58.1309L564.73 60.7209L556.4 70.1309Z" fill="#476AE3"/>
<path d="M538.703 23.7305L540.403 22.6705L555.036 46.139L553.336 47.199L538.703 23.7305Z" fill="#0E2946"/>
<path d="M573.047 52.2881L580.055 0.792785L582.037 1.06249L575.029 52.5578L573.047 52.2881Z" fill="#0E2946"/>
<path d="M584.837 61.6836L609.837 39.1895L611.174 40.6762L586.175 63.1704L584.837 61.6836Z" fill="#0E2946"/>
<path d="M491.17 413.93H479.07V401.83H471.01V413.93H458.91V421.99H471.01V434.08H479.07V421.99H491.17V413.93Z" fill="#FFC31D"/>
<path d="M34.5 345.57H52.5V363.57H64.5V333.57H34.5V345.57Z" fill="#EF4C59"/>
<path d="M194.01 61.5908H173.85V93.8408H181.91V69.6508H194.01V61.5908Z" fill="#476AE3"/>
<path d="M214.17 101.911H189.98V109.971H222.23V89.8105H214.17V101.911Z" fill="#476AE3"/>
<path d="M437.57 148.2C436.23 139.752 441.888 131.782 450.305 130.259C458.722 128.736 466.814 134.218 468.52 142.6L466.52 142.95C465.807 137.974 462.431 133.786 457.72 132.031C453.009 130.277 447.716 131.238 443.922 134.536C440.127 137.833 438.439 142.941 439.52 147.85L437.57 148.2Z" fill="white"/>
<path fill-rule="evenodd" clip-rule="evenodd" d="M443.73 127.14C444.244 129.944 446.68 131.985 449.53 132C449.889 132.002 450.247 131.968 450.6 131.9C452.141 131.623 453.509 130.744 454.402 129.457C455.295 128.17 455.639 126.581 455.36 125.04L454.49 120.2C453.893 117.003 450.825 114.888 447.625 115.469C444.425 116.05 442.295 119.107 442.86 122.31L443.73 127.14ZM447.97 117.41C448.201 117.371 448.435 117.351 448.67 117.35V117.34C450.564 117.34 452.186 118.696 452.52 120.56L453.39 125.39C453.578 126.412 453.352 127.467 452.76 128.32C452.161 129.166 451.258 129.747 450.24 129.94C448.118 130.317 446.09 128.91 445.7 126.79L444.82 121.95C444.443 119.828 445.85 117.801 447.97 117.41Z" fill="white"/>
<path d="M673.621 329.006L684.527 299.913L686.4 300.615L675.494 329.708L673.621 329.006Z" fill="white"/>
<path d="M668.44 324.651L658.64 314.851L668.44 305.051L669.86 306.471L661.47 314.851L669.86 323.241L668.44 324.651Z" fill="white"/>
<path d="M691.67 324.651L690.26 323.241L698.64 314.851L690.26 306.471L691.67 305.051L701.47 314.851L691.67 324.651Z" fill="white"/>
<path d="M687.49 110.691H681.6L686.29 90.6406L671.03 113.641L666.5 120.461H675.51H681.4L676.71 140.511L691.97 117.511L696.5 110.691H687.49Z" fill="white"/>
<path d="M56.52 184.88V215.55L83.09 200.21V169.54L56.52 184.88Z" fill="#0E2946"/>
<path fill-rule="evenodd" clip-rule="evenodd" d="M29 200.791L56.52 216.701L84.09 200.831V169.001L56.56 153.091L29 169.001V200.791ZM56.52 214.401L31 199.641V170.121L56.52 155.361L82.09 170.121V199.641L56.52 214.401Z" fill="#0E2946"/>
<rect x="55.52" y="184.881" width="2" height="30.67" fill="#0E2946"/>
<path d="M56.52 186.031L29.46 170.411L30.46 168.671L56.52 183.721L82.59 168.671L83.59 170.411L56.52 186.031Z" fill="#0E2946"/>
<path d="M293.37 109.461C288.951 109.461 285.37 105.879 285.37 101.461C285.37 97.0427 288.951 93.4609 293.37 93.4609C297.788 93.4609 301.37 97.0427 301.37 101.461" fill="white"/>
<path d="M293.37 110.461C288.399 110.461 284.37 106.432 284.37 101.461C284.37 96.4904 288.399 92.4609 293.37 92.4609C298.34 92.4609 302.37 96.4904 302.37 101.461H300.37C300.37 97.5949 297.236 94.4609 293.37 94.4609C289.504 94.4609 286.37 97.5949 286.37 101.461C286.37 105.327 289.504 108.461 293.37 108.461V110.461Z" fill="#0E2946"/>
<path d="M571.46 447.37C573.526 447.629 575.601 446.955 577.12 445.53L535.88 486.78C532.77 489.89 526.88 489.05 522.75 484.91L564 443.66C565.982 445.724 568.619 447.035 571.46 447.37Z" fill="#0E2946"/>
<path d="M571.38 448.37C565.084 447.529 560.132 442.576 559.29 436.28L561.29 436.11C562.06 441.429 566.241 445.605 571.56 446.37L571.38 448.37Z" fill="#0E2946"/>
<path d="M531 489.661C530.508 489.658 530.017 489.621 529.53 489.551C523.707 488.487 519.153 483.925 518.1 478.101C517.635 475.571 518.404 472.971 520.17 471.101L521.58 472.511C520.262 473.948 519.705 475.927 520.08 477.841C521.023 482.786 524.893 486.653 529.84 487.591C531.752 487.971 533.732 487.418 535.17 486.101L536.58 487.511C535.087 488.952 533.074 489.727 531 489.661Z" fill="#0E2946"/>
<path d="M572.25 448.411C571.96 448.411 571.67 448.411 571.38 448.411L571.55 446.411C573.323 446.646 575.109 446.078 576.42 444.861C579.13 442.141 578.29 436.861 574.54 433.151C572.83 431.37 570.593 430.185 568.16 429.771C566.246 429.393 564.266 429.95 562.83 431.271C561.613 432.582 561.045 434.368 561.28 436.141L559.28 436.311C558.988 433.95 559.77 431.583 561.41 429.861C563.274 428.084 565.879 427.314 568.41 427.791C571.293 428.248 573.953 429.619 576 431.701C580.52 436.231 581.36 442.751 577.87 446.241C576.366 447.693 574.339 448.476 572.25 448.411Z" fill="#0E2946"/>
<path d="M535.176 486.14L576.429 444.887L577.843 446.301L536.59 487.554L535.176 486.14Z" fill="#0E2946"/>
<path d="M520.173 471.14L561.425 429.887L562.84 431.301L521.587 472.554L520.173 471.14Z" fill="#0E2946"/>
<path d="M522.05 484.258L563.302 443.005L564.717 444.419L523.464 485.672L522.05 484.258Z" fill="#0E2946"/>
<circle cx="26.1899" cy="9.14062" r="6" fill="#F5F6F8"/>
<path fill-rule="evenodd" clip-rule="evenodd" d="M19.7225 11.8196C20.806 14.4353 23.3584 16.1408 26.1897 16.1408C30.0557 16.1408 33.1897 13.0068 33.1897 9.14083C33.1897 6.30959 31.4842 3.75714 28.8684 2.67367C26.2527 1.59021 23.2419 2.1891 21.2399 4.19108C19.2379 6.19307 18.639 9.20389 19.7225 11.8196ZM21.1897 9.14083C21.1897 6.37941 23.4282 4.14083 26.1897 4.14083C27.5157 4.14083 28.7875 4.66761 29.7252 5.6053C30.6629 6.54298 31.1897 7.81475 31.1897 9.14083C31.1897 11.9023 28.9511 14.1408 26.1897 14.1408C23.4282 14.1408 21.1897 11.9023 21.1897 9.14083Z" fill="#FFC31D"/>
<path d="M245.44 352.221V350.221C253.724 350.221 260.44 343.505 260.44 335.221H262.44C262.44 344.61 254.829 352.221 245.44 352.221Z" fill="#0E2946"/>
<path fill-rule="evenodd" clip-rule="evenodd" d="M477.51 316.56L479.9 323.5H493.1L495.46 316.6C496.395 314.032 496.915 311.332 497 308.6C497.084 305.612 496.581 302.636 495.52 299.84C494.955 298.377 494.234 296.979 493.37 295.67L486.5 285.36L479.63 295.67C478.766 296.979 478.045 298.377 477.48 299.84C476.414 302.621 475.901 305.583 475.97 308.56C476.055 311.292 476.575 313.992 477.51 316.56ZM493.6 315.91L491.67 321.5H481.33L479.35 315.94C478.49 313.581 478.008 311.1 477.92 308.59C477.85 305.86 478.316 303.142 479.29 300.59C479.82 299.263 480.491 297.996 481.29 296.81L486.5 289L491.66 296.78C492.459 297.966 493.13 299.233 493.66 300.56C494.634 303.112 495.1 305.83 495.03 308.56C494.942 311.07 494.46 313.551 493.6 315.91Z" fill="#476AE3"/>
<path fill-rule="evenodd" clip-rule="evenodd" d="M481.58 306.811C481.58 309.528 483.782 311.731 486.5 311.731C489.215 311.725 491.414 309.526 491.42 306.811C491.42 304.093 489.217 301.891 486.5 301.891C483.782 301.891 481.58 304.093 481.58 306.811ZM483.58 306.811C483.58 305.198 484.887 303.891 486.5 303.891C487.274 303.891 488.017 304.198 488.564 304.746C489.112 305.293 489.42 306.036 489.42 306.811C489.42 308.423 488.112 309.731 486.5 309.731C484.887 309.731 483.58 308.423 483.58 306.811Z" fill="#476AE3"/>
<path d="M486.5 328.2C483.785 328.195 481.585 325.995 481.58 323.28H483.58C483.58 324.893 484.887 326.2 486.5 326.2C488.112 326.2 489.42 324.893 489.42 323.28H491.42C491.414 325.995 489.215 328.195 486.5 328.2Z" fill="#476AE3"/>
<path d="M469.85 326.421H467.85V314.651C467.861 309.769 471.818 305.816 476.7 305.811V307.811C472.92 307.811 469.855 310.871 469.85 314.651V326.421Z" fill="#476AE3"/>
<path d="M469.85 326.42H467.85C467.855 321.536 471.816 317.58 476.7 317.58H478.7V319.58H476.7C472.92 319.58 469.855 322.641 469.85 326.42Z" fill="#476AE3"/>
<path d="M505.15 326.421H503.15V314.651C503.144 310.871 500.079 307.811 496.3 307.811V305.811C501.181 305.816 505.139 309.769 505.15 314.651V326.421Z" fill="#476AE3"/>
<path d="M505.15 326.42H503.15C503.144 322.641 500.079 319.58 496.3 319.58H494.3V317.58H496.3C501.184 317.58 505.144 321.536 505.15 326.42Z" fill="#476AE3"/>
<circle cx="572.83" cy="69.9102" r="3" fill="#EF4C59"/>
<path d="M256.5 226.69C259.866 226.949 263.252 226.611 266.5 225.69L256.5 226.69Z" fill="white"/>
<path d="M258.74 227.78C257.4 227.78 256.5 227.7 256.41 227.69L256.59 225.69C259.821 225.931 263.069 225.61 266.19 224.74L266.82 226.63C264.202 227.429 261.476 227.816 258.74 227.78Z" fill="#0E2946"/>
<path fill-rule="evenodd" clip-rule="evenodd" d="M322.46 94.6807C322.46 99.6807 325.22 103.681 328.75 103.681C332.28 103.681 335.04 99.6807 335.04 94.6807C335.04 89.6807 332.28 85.6807 328.75 85.6807C325.22 85.6807 322.46 89.6807 322.46 94.6807ZM324.46 94.6807C324.46 90.8907 326.42 87.6807 328.75 87.6807C331.08 87.6807 333.04 90.8807 333.04 94.6807C333.04 98.4807 331.04 101.681 328.75 101.681C326.46 101.681 324.46 98.4707 324.46 94.6807Z" fill="#EF4C59"/>
<path fill-rule="evenodd" clip-rule="evenodd" d="M338.31 94.6807C338.31 98.6107 340.52 101.681 343.31 101.681C346.09 101.681 348.31 98.6007 348.31 94.6807C348.31 90.7607 346.13 87.6807 343.31 87.6807C340.49 87.6807 338.31 90.7507 338.31 94.6807ZM340.31 94.6807C340.31 91.9707 341.7 89.6807 343.31 89.6807C344.91 89.6807 346.31 91.9707 346.31 94.6807C346.31 97.3907 344.95 99.6807 343.31 99.6807C341.67 99.6807 340.31 97.3907 340.31 94.6807Z" fill="#EF4C59"/>
<path d="M340.34 94.6807H338.34C338.34 92.9707 337.47 91.6807 336.69 91.6807C335.91 91.6807 335 93.0007 335 94.6807H333C333 91.8807 334.61 89.6807 336.65 89.6807C338.69 89.6807 340.34 91.8807 340.34 94.6807Z" fill="#EF4C59"/>
<path d="M284.5 99.1904H282.5C282.5 94.2199 286.529 90.1904 291.5 90.1904H323.25V92.1904H291.5C287.634 92.1904 284.5 95.3244 284.5 99.1904Z" fill="#EF4C59"/>
<path d="M323 166C325.5 169.5 335.9 185.8 341.5 197" stroke="#0E2946" stroke-width="2"/>
<path d="M214 435.5L224 335.5L340 311L362 410V447C342.333 450.833 301.4 458.5 295 458.5C288.6 458.5 238.333 443.167 214 435.5Z" fill="white"/>
<path d="M222.837 337L212.5 435L294.16 458.5L351 447.5H362.5L361.5 407L342 316" stroke="#0E2946" stroke-width="2"/>
<path d="M336 262L331 320L355.5 413.5L360 448" stroke="#0E2946" stroke-width="2"/>
<path d="M284.476 135C282.315 139.535 279.998 151.09 297.438 156.296C314.879 161.501 317.668 172.268 316.882 177" stroke="#0E2946" stroke-width="2"/>
<path d="M291 152C286.962 156.667 280.905 168.8 288.981 180" stroke="#0E2946" stroke-width="2"/>
<circle cx="289.5" cy="177.5" r="2.5" fill="#0E2946"/>
<circle cx="314.5" cy="175.5" r="2.5" fill="#0E2946"/>
<path d="M332 147C336 155.5 350.5 159.5 352 188" stroke="#0E2946" stroke-width="2"/>
<circle cx="353.5" cy="194.5" r="6.5" fill="white" stroke="#0E2946" stroke-width="2"/>
<circle cx="353.5" cy="194.5" r="2.5" fill="white" stroke="#0E2946" stroke-width="2"/>
<rect x="266.196" y="327.775" width="39.8632" height="5" transform="rotate(-51.1169 266.196 327.775)" stroke="#0E2946" stroke-width="2"/>
<line x1="264.214" y1="338.381" x2="301.214" y2="291.381" stroke="#0E2946" stroke-width="2"/>
</svg>
