<svg width="720" height="640" viewBox="0 0 720 640" fill="none" xmlns="http://www.w3.org/2000/svg">
<path fill-rule="evenodd" clip-rule="evenodd" d="M351.5 323C351.5 236 312.5 150 206.5 150C103.5 150 61 229 61 323C61 417 104.5 491.51 206 491.5C309 491.5 351.5 417 351.5 323ZM272 320.5C272 369.5 255 422 206.5 422C159 422 140.5 373.51 140.5 320.5C140.5 271 157.5 219.5 206.5 219.5C253.5 219.5 272 267 272 320.5Z" fill="white"/>
<path d="M562.5 155L463.5 347.5H537.5V281.5H613.5V347.5H659V413.5H613.5V486.5H537.5V413.5H377V357.5L476.5 155H562.5Z" fill="white"/>
<path fill-rule="evenodd" clip-rule="evenodd" d="M364.13 339.27H348L346.32 323.08L346.88 322.76L347.82 322.19C347.969 322.102 348.126 322.008 348.291 321.909C348.857 321.571 349.519 321.176 350.3 320.75C352.39 319.52 353.633 318.701 355.081 317.747L355.081 317.747L355.44 317.51C356.02 317.12 356.65 316.7 357.38 316.23C361.93 313 365.01 309.96 365.12 305.68C365.12 302.31 364.02 297.8 354.53 297.8C351.252 297.817 347.994 298.315 344.86 299.28C342.103 300.057 339.424 301.092 336.86 302.37L335.62 303.03L332.95 285.83L333.57 285.5C340.737 281.656 348.758 279.682 356.89 279.76C371.47 279.76 387.05 285.99 387.05 303.48C387.243 309.198 385.009 314.73 380.9 318.71C377.08 322.76 372.77 325.61 365.76 329.64L364.13 339.27ZM348.28 358.65C350.372 360.669 353.173 361.786 356.08 361.76L356.06 361.79C358.997 361.856 361.834 360.719 363.911 358.641C365.989 356.564 367.126 353.727 367.06 350.79C367.066 347.927 365.916 345.183 363.87 343.18C359.502 339.031 352.649 339.031 348.28 343.18C344.152 347.51 344.152 354.32 348.28 358.65ZM349.694 344.606L349.7 344.6L349.69 344.61L349.694 344.606ZM349.7 357.25C346.323 353.712 346.321 348.146 349.694 344.606C353.294 341.265 358.862 341.267 362.46 344.61C364.122 346.24 365.056 348.472 365.05 350.8C365.08 354.45 362.902 357.756 359.537 359.17C356.172 360.584 352.287 359.825 349.7 357.25ZM362.43 337.27H349.77L348.34 324.16L348.76 323.9C349.43 323.49 350.19 323.03 351.19 322.49C352.832 321.517 353.988 320.763 355.077 320.053C355.533 319.755 355.977 319.465 356.44 319.17L358.44 317.88C362.84 314.77 366.93 311.15 367.06 305.7C367.06 299.13 362.82 295.8 354.47 295.8C350.995 295.812 347.54 296.341 344.22 297.37C341.783 298.069 339.4 298.945 337.09 299.99L335.09 286.93C341.811 283.46 349.277 281.685 356.84 281.76C383 281.76 385 298.38 385 303.48C385.181 308.675 383.154 313.703 379.42 317.32C375.67 321.29 371.39 324.08 364.3 328.15L363.89 328.38L362.43 337.27Z" fill="#476AE3"/>
<path fill-rule="evenodd" clip-rule="evenodd" d="M360.45 221.81C361.76 221.83 363.1 221.87 364.4 221.94L364.45 219.95C363.15 219.87 361.79 219.81 360.45 219.81V221.81ZM352.53 222L352.4 220C353.74 219.91 355.09 219.85 356.4 219.82L356.46 221.82C355.17 221.82 353.84 221.88 352.53 222ZM368.34 222.21C369.65 222.33 370.97 222.48 372.28 222.66L372.53 220.67C371.21 220.5 369.86 220.34 368.53 220.21L368.34 222.21ZM344.64 222.8L344.36 220.8C345.69 220.61 347.04 220.44 348.36 220.3L348.57 222.3C347.28 222.44 346 222.6 344.65 222.79L344.64 222.8ZM376.19 223.26C377.49 223.49 378.79 223.75 380.07 224.03L380.53 222.04C379.19 221.76 377.86 221.5 376.53 221.26L376.19 223.26ZM336.86 224.25L336.42 222.25C337.72 221.96 339.05 221.68 340.37 221.43L340.74 223.43C340.147 223.545 339.547 223.676 338.947 223.807L338.947 223.807C338.252 223.959 337.557 224.111 336.87 224.24L336.86 224.25ZM383.92 224.94C385.2 225.27 386.48 225.63 387.74 226.01L388.32 224.1C387.03 223.71 385.72 223.34 384.43 223.01L383.92 224.94ZM329.22 226.32L328.62 224.42C329.89 224.01 331.2 223.63 332.5 223.28L333.02 225.21C331.76 225.55 330.48 225.92 329.23 226.31L329.22 226.32ZM391.51 227.24C392.75 227.66 394 228.13 395.22 228.61L395.95 226.75C394.7 226.25 393.43 225.78 392.17 225.35L391.51 227.24ZM321.77 229L321.02 227.15C322.27 226.64 323.54 226.15 324.8 225.7L325.47 227.59C324.24 228 323 228.5 321.77 229ZM398.81 230.12C400.01 230.65 401.22 231.21 402.4 231.78L403.27 229.99C402.07 229.4 400.84 228.83 399.61 228.29L398.81 230.12ZM314.49 232.26L313.59 230.47C314.78 229.87 316.01 229.28 317.24 228.73L318.06 230.55C316.93 231.09 315.73 231.67 314.56 232.26H314.49ZM405.92 233.59C407.08 234.22 408.23 234.87 409.36 235.54L410.38 233.83C409.23 233.14 408.05 232.47 406.87 231.83L405.92 233.59ZM307.56 236.09L306.56 234.38C307.7 233.69 308.88 233.01 310.06 232.38L311.06 234.13C309.9 234.74 308.75 235.41 307.63 236.09H307.56ZM412.72 237.63C413.83 238.35 414.93 239.09 416 239.85L417.15 238.21C416.07 237.45 414.94 236.68 413.81 235.95L412.72 237.63ZM301 240.48L299.83 238.86C300.91 238.07 302.03 237.3 303.15 236.55L304.25 238.22C303.627 238.674 302.997 239.104 302.364 239.537L302.364 239.537C301.91 239.847 301.455 240.158 301 240.48ZM419.25 242.21C420.28 243.01 421.34 243.84 422.34 244.69L423.62 243.15C423.015 242.649 422.386 242.152 421.769 241.664L421.769 241.664C421.325 241.314 420.888 240.968 420.47 240.63L419.25 242.21ZM294.8 245.4L293.5 243.88C294.5 243.01 295.58 242.14 296.63 241.31L297.87 242.88C296.83 243.68 295.8 244.52 294.8 245.38V245.4ZM425.33 247.28C426.3 248.17 427.28 249.08 428.21 250L429.61 248.57C428.67 247.64 427.67 246.7 426.67 245.8L425.33 247.28ZM287.58 249.34L289 250.75C289.92 249.82 290.88 248.89 291.85 248.01L290.49 246.54C289.52 247.44 288.58 248.34 287.58 249.34Z" fill="#0E2946"/>
<path fill-rule="evenodd" clip-rule="evenodd" d="M426.14 393.53L427.5 395L427.505 394.995C428.483 394.057 429.462 393.119 430.41 392.2L428.99 390.79L428.99 390.79C428.06 391.72 427.14 392.64 426.14 393.53ZM291.35 395.73C290.35 394.83 289.35 393.9 288.41 392.96L289.81 391.53C290.74 392.45 291.71 393.36 292.69 394.25L291.35 395.73ZM420.11 398.65L421.35 400.22C422.4 399.39 423.46 398.53 424.48 397.65L423.18 396.13C422.503 396.712 421.795 397.285 421.097 397.849C420.764 398.118 420.433 398.385 420.11 398.65ZM297.51 400.9C296.46 400.09 295.4 399.24 294.36 398.38L295.64 396.84C296.64 397.69 297.7 398.52 298.73 399.32L297.51 400.9ZM413.65 403.29L414.76 404.96L414.8 405C415.92 404.21 417 403.44 418.08 402.65L416.91 401.03C415.85 401.8 414.75 402.56 413.65 403.29ZM304.06 405.56C302.93 404.83 301.81 404.07 300.72 403.3L301.87 401.66C302.94 402.42 304.04 403.17 305.15 403.88L304.06 405.56ZM406.85 407.41L407.85 409.16H407.89C409.07 408.5 410.25 407.82 411.28 407.12L410.28 405.41C409.16 406.1 408.01 406.77 406.85 407.41ZM311 409.68C309.82 409.04 308.64 408.37 307.49 407.68L308.49 405.96C309.61 406.63 310.77 407.28 311.93 407.91L311 409.68ZM399.85 410.92L400.67 412.74V412.78C401.9 412.23 403.12 411.64 404.32 411L403.42 409.21C402.25 409.8 401.05 410.38 399.85 410.92ZM318.3 413.18C317.07 412.64 315.83 412.07 314.63 411.48L315.51 409.69C316.69 410.26 317.9 410.82 319.1 411.35L318.3 413.18ZM392.51 413.89L393.18 415.78V415.82C394.44 415.36 395.71 414.88 396.96 414.34L396.21 412.48C394.99 412.97 393.74 413.45 392.51 413.89ZM325.81 416.13C324.55 415.7 323.28 415.23 322.03 414.74L322.76 412.87C323.98 413.35 325.23 413.82 326.47 414.25L325.81 416.13ZM384.95 416.27L385.47 418.2V418.24C386.76 417.89 388.07 417.51 389.35 417.06L388.75 415.16C387.5 415.55 386.22 415.93 384.95 416.27ZM333.54 418.47C332.25 418.14 330.94 417.77 329.65 417.38L330.23 415.47C331.49 415.85 332.77 416.21 334.05 416.54L333.54 418.47ZM377.23 418L377.6 420C378.92 419.79 380.25 419.51 381.55 419.2L381.11 417.2C379.83 417.49 378.52 417.76 377.23 418ZM341.44 420.22C340.11 419.98 338.78 419.72 337.44 419.44L337.87 417.44C339.15 417.72 340.45 417.98 341.75 418.21L341.44 420.22ZM369.6 421.22V421.2C370.644 421.09 371.699 420.962 372.748 420.834L372.748 420.834L372.749 420.834L372.749 420.834L372.751 420.834C373.038 420.799 373.325 420.764 373.61 420.73L373.33 418.73C372.02 418.92 370.7 419.08 369.39 419.22L369.6 421.22ZM349.44 421.33C348.1 421.2 346.75 421.04 345.44 420.87L345.7 418.87C347 419.05 348.33 419.2 349.64 419.32L349.44 421.33ZM361.49 419.74L361.55 421.74V421.72C362.841 421.691 364.16 421.634 365.498 421.575L365.62 421.57L365.49 419.57L365.04 419.597C363.844 419.669 362.663 419.74 361.49 419.74ZM353.5 421.6C354.8 421.68 356.16 421.74 357.5 421.74L357.56 419.73C356.24 419.72 354.91 419.67 353.61 419.6L353.5 421.6Z" fill="#0E2946"/>
<path d="M432.72 253.06H415.56V251.06H430.72V235.9H432.72V253.06Z" fill="#0E2946"/>
<path d="M289.28 407.63H287.28V390.47H304.44V392.47H289.28V407.63Z" fill="#0E2946"/>
<path d="M298.42 537.06L283.68 536.56L290.63 524.35L298.42 537.06Z" fill="#F5F6F8"/>
<path fill-rule="evenodd" clip-rule="evenodd" d="M282 537.5L300.24 538.12L290.59 522.38L282 537.5ZM296.59 536L285.37 535.61L290.66 526.31L296.59 536Z" fill="#FFC31D"/>
<path fill-rule="evenodd" clip-rule="evenodd" d="M61.5 183C61.5 186.866 64.634 190 68.5 190C72.366 190 75.5 186.866 75.5 183C75.5 179.134 72.366 176 68.5 176C64.634 176 61.5 179.134 61.5 183ZM63.5 183C63.5 180.239 65.7386 178 68.5 178C71.2614 178 73.5 180.239 73.5 183C73.5 185.761 71.2614 188 68.5 188C65.7386 188 63.5 185.761 63.5 183Z" fill="#476AE3"/>
<path d="M402.073 104.459L410.558 112.944L402.073 121.43L393.587 112.944L402.073 104.459Z" fill="#F5F6F8"/>
<path fill-rule="evenodd" clip-rule="evenodd" d="M392.18 112.94L402.08 122.84L411.97 112.94L402.08 103.04L392.18 112.94ZM402.08 120.01L395 112.94L402.08 105.87L409.15 112.94L402.08 120.01Z" fill="#EF4C59"/>
<path d="M555.31 117.83C553.033 115.55 549.942 114.269 546.72 114.269C543.497 114.269 540.407 115.55 538.13 117.83L536.72 116.41C542.247 110.897 551.193 110.897 556.72 116.41L555.31 117.83Z" fill="#EF4C59"/>
<path d="M565.32 122C561.57 122.009 557.971 120.523 555.32 117.87L556.74 116.45C561.487 121.188 569.173 121.188 573.92 116.45L575.33 117.87C572.676 120.525 569.073 122.012 565.32 122Z" fill="#EF4C59"/>
<path d="M592.5 117.83C590.223 115.55 587.133 114.269 583.91 114.269C580.688 114.269 577.597 115.55 575.32 117.83L573.91 116.41C579.435 110.892 588.386 110.892 593.91 116.41L592.5 117.83Z" fill="#EF4C59"/>
<path d="M602.5 122C598.75 122.009 595.151 120.523 592.5 117.87L593.91 116.45C598.657 121.188 606.343 121.188 611.09 116.45L612.51 117.87C609.857 120.525 606.254 122.012 602.5 122Z" fill="#EF4C59"/>
<path d="M629.69 117.83C627.413 115.55 624.322 114.269 621.1 114.269C617.877 114.269 614.787 115.55 612.51 117.83L611.09 116.41C616.617 110.897 625.563 110.897 631.09 116.41L629.69 117.83Z" fill="#EF4C59"/>
<path d="M639.69 122C635.939 122.011 632.34 120.525 629.69 117.87L631.1 116.45C635.847 121.188 643.533 121.188 648.28 116.45L649.69 117.87C647.04 120.525 643.441 122.011 639.69 122Z" fill="#EF4C59"/>
<path d="M555.31 133.53C553.033 131.25 549.942 129.969 546.72 129.969C543.497 129.969 540.407 131.25 538.13 133.53L536.72 132.11C542.247 126.597 551.193 126.597 556.72 132.11L555.31 133.53Z" fill="#EF4C59"/>
<path d="M565.32 137.66C561.571 137.664 557.974 136.178 555.32 133.53L556.74 132.11C561.487 136.848 569.173 136.848 573.92 132.11L575.33 133.53C572.674 136.182 569.073 137.668 565.32 137.66Z" fill="#EF4C59"/>
<path d="M592.5 133.53C590.223 131.249 587.133 129.968 583.91 129.968C580.688 129.968 577.597 131.249 575.32 133.53L573.91 132.11C579.435 126.591 588.386 126.591 593.91 132.11L592.5 133.53Z" fill="#EF4C59"/>
<path d="M602.5 137.66C598.751 137.665 595.153 136.179 592.5 133.53L593.91 132.11C598.657 136.848 606.343 136.848 611.09 132.11L612.51 133.53C609.854 136.181 606.252 137.666 602.5 137.66Z" fill="#EF4C59"/>
<path d="M629.69 133.53C627.413 131.25 624.322 129.969 621.1 129.969C617.877 129.969 614.787 131.25 612.51 133.53L611.09 132.11C616.617 126.597 625.563 126.597 631.09 132.11L629.69 133.53Z" fill="#EF4C59"/>
<path d="M639.69 137.66C635.94 137.667 632.342 136.181 629.69 133.53L631.1 132.11C635.847 136.848 643.533 136.848 648.28 132.11L649.69 133.53C647.038 136.181 643.44 137.667 639.69 137.66Z" fill="#EF4C59"/>
<path d="M555.31 149.21C553.033 146.93 549.942 145.649 546.72 145.649C543.497 145.649 540.407 146.93 538.13 149.21L536.72 147.8C539.372 145.148 542.969 143.657 546.72 143.657C550.471 143.657 554.068 145.148 556.72 147.8L555.31 149.21Z" fill="#EF4C59"/>
<path d="M565.32 153.35C561.568 153.355 557.97 151.865 555.32 149.21L556.74 147.8C561.489 152.532 569.171 152.532 573.92 147.8L575.33 149.21C572.677 151.868 569.075 153.358 565.32 153.35Z" fill="#EF4C59"/>
<path d="M592.5 149.21C590.223 146.93 587.133 145.648 583.91 145.648C580.688 145.648 577.597 146.93 575.32 149.21L573.91 147.8C576.559 145.142 580.158 143.648 583.91 143.648C587.663 143.648 591.261 145.142 593.91 147.8L592.5 149.21Z" fill="#EF4C59"/>
<path d="M602.5 153.35C598.749 153.355 595.15 151.865 592.5 149.21L593.91 147.8C598.659 152.532 606.341 152.532 611.09 147.8L612.51 149.21C609.858 151.868 606.255 153.358 602.5 153.35Z" fill="#EF4C59"/>
<path d="M629.69 149.21C627.413 146.93 624.322 145.649 621.1 145.649C617.877 145.649 614.787 146.93 612.51 149.21L611.09 147.8C613.742 145.148 617.339 143.657 621.09 143.657C624.841 143.657 628.438 145.148 631.09 147.8L629.69 149.21Z" fill="#EF4C59"/>
<path d="M639.69 153.35C635.938 153.357 632.339 151.867 629.69 149.21L631.1 147.8C635.849 152.532 643.531 152.532 648.28 147.8L649.69 149.21C647.041 151.867 643.442 153.357 639.69 153.35Z" fill="#EF4C59"/>
<path d="M555.31 164.89C550.561 160.158 542.879 160.158 538.13 164.89L536.72 163.48C542.247 157.967 551.193 157.967 556.72 163.48L555.31 164.89Z" fill="#EF4C59"/>
<path d="M565.32 169C561.568 169.005 557.97 167.516 555.32 164.86L556.74 163.45C561.487 168.188 569.173 168.188 573.92 163.45L575.33 164.86C572.677 167.518 569.075 169.008 565.32 169Z" fill="#EF4C59"/>
<path d="M592.5 164.89C587.751 160.158 580.069 160.158 575.32 164.89L573.91 163.48C579.435 157.961 588.386 157.961 593.91 163.48L592.5 164.89Z" fill="#EF4C59"/>
<path d="M602.5 169C598.749 169.005 595.15 167.516 592.5 164.86L593.91 163.45C598.657 168.188 606.343 168.188 611.09 163.45L612.51 164.86C609.858 167.518 606.255 169.008 602.5 169Z" fill="#EF4C59"/>
<path d="M629.69 164.89C624.941 160.158 617.259 160.158 612.51 164.89L611.09 163.48C616.617 157.967 625.563 157.967 631.09 163.48L629.69 164.89Z" fill="#EF4C59"/>
<path d="M639.69 169C635.938 169.008 632.339 167.517 629.69 164.86L631.1 163.45C635.847 168.188 643.533 168.188 648.28 163.45L649.69 164.86C647.041 167.517 643.442 169.008 639.69 169Z" fill="#EF4C59"/>
<path d="M555.31 180.59C550.561 175.858 542.879 175.858 538.13 180.59L536.72 179.18C542.247 173.667 551.193 173.667 556.72 179.18L555.31 180.59Z" fill="#EF4C59"/>
<path d="M565.32 184.73C561.568 184.735 557.97 183.245 555.32 180.59L556.74 179.18C561.489 183.912 569.171 183.912 573.92 179.18L575.33 180.59C572.677 183.247 569.075 184.738 565.32 184.73Z" fill="#EF4C59"/>
<path d="M592.5 180.59C587.751 175.858 580.069 175.858 575.32 180.59L573.91 179.18C579.435 173.661 588.386 173.661 593.91 179.18L592.5 180.59Z" fill="#EF4C59"/>
<path d="M602.5 184.73C598.749 184.735 595.15 183.245 592.5 180.59L593.91 179.18C598.659 183.912 606.341 183.912 611.09 179.18L612.51 180.59C609.858 183.247 606.255 184.738 602.5 184.73Z" fill="#EF4C59"/>
<path d="M629.69 180.59C624.941 175.858 617.259 175.858 612.51 180.59L611.09 179.18C616.617 173.667 625.563 173.667 631.09 179.18L629.69 180.59Z" fill="#EF4C59"/>
<path d="M639.69 184.73C635.938 184.737 632.339 183.247 629.69 180.59L631.1 179.18C635.849 183.912 643.531 183.912 648.28 179.18L649.69 180.59C647.041 183.247 643.442 184.737 639.69 184.73Z" fill="#EF4C59"/>
<path d="M555.31 196.28C553.033 194 549.942 192.719 546.72 192.719C543.497 192.719 540.407 194 538.13 196.28L536.72 194.86C542.247 189.347 551.193 189.347 556.72 194.86L555.31 196.28Z" fill="#EF4C59"/>
<path d="M565.32 200.41C561.57 200.419 557.971 198.933 555.32 196.28L556.74 194.86C561.487 199.598 569.173 199.598 573.92 194.86L575.33 196.28C572.676 198.935 569.073 200.422 565.32 200.41Z" fill="#EF4C59"/>
<path d="M592.5 196.28C590.223 193.999 587.133 192.718 583.91 192.718C580.688 192.718 577.597 193.999 575.32 196.28L573.91 194.86C579.435 189.341 588.386 189.341 593.91 194.86L592.5 196.28Z" fill="#EF4C59"/>
<path d="M602.5 200.41C598.75 200.419 595.151 198.933 592.5 196.28L593.91 194.86C598.657 199.598 606.343 199.598 611.09 194.86L612.51 196.28C609.857 198.935 606.254 200.422 602.5 200.41Z" fill="#EF4C59"/>
<path d="M629.69 196.28C627.413 194 624.322 192.719 621.1 192.719C617.877 192.719 614.787 194 612.51 196.28L611.09 194.86C616.617 189.347 625.563 189.347 631.09 194.86L629.69 196.28Z" fill="#EF4C59"/>
<path d="M639.69 200.41C635.939 200.422 632.34 198.935 629.69 196.28L631.1 194.86C635.847 199.598 643.533 199.598 648.28 194.86L649.69 196.28C647.04 198.935 643.441 200.422 639.69 200.41Z" fill="#EF4C59"/>
<path d="M555.31 211.43C553.033 209.15 549.942 207.869 546.72 207.869C543.497 207.869 540.407 209.15 538.13 211.43L536.72 210C542.247 204.487 551.193 204.487 556.72 210L555.31 211.43Z" fill="#EF4C59"/>
<path d="M565.32 215.57C561.568 215.575 557.97 214.085 555.32 211.43L556.74 210.01C561.487 214.747 569.173 214.747 573.92 210.01L575.33 211.43C572.677 214.088 569.075 215.578 565.32 215.57Z" fill="#EF4C59"/>
<path d="M592.5 211.43C590.223 209.15 587.133 207.869 583.91 207.869C580.688 207.869 577.597 209.15 575.32 211.43L573.91 210C579.435 204.482 588.386 204.482 593.91 210L592.5 211.43Z" fill="#EF4C59"/>
<path d="M602.5 215.57C598.749 215.575 595.15 214.085 592.5 211.43L593.91 210.01C598.657 214.747 606.343 214.747 611.09 210.01L612.51 211.43C609.858 214.088 606.255 215.578 602.5 215.57Z" fill="#EF4C59"/>
<path d="M629.69 211.43C627.413 209.15 624.322 207.869 621.1 207.869C617.877 207.869 614.787 209.15 612.51 211.43L611.09 210C616.617 204.487 625.563 204.487 631.09 210L629.69 211.43Z" fill="#EF4C59"/>
<path d="M639.69 215.57C635.938 215.577 632.339 214.087 629.69 211.43L631.1 210C635.847 214.738 643.533 214.738 648.28 210L649.69 211.42C647.043 214.081 643.443 215.575 639.69 215.57Z" fill="#EF4C59"/>
<circle cx="471.46" cy="320.76" r="40" fill="#FFC31D"/>
<path d="M471 331.49L459.3 319.8L460.72 318.38L471 328.66L489.98 309.68L491.39 311.09L471 331.49Z" fill="white"/>
<path d="M264.55 317.52C259.982 317.52 256.28 313.818 256.28 309.25C256.28 304.683 259.982 300.98 264.55 300.98V302.98C261.087 302.98 258.28 305.788 258.28 309.25C258.28 312.713 261.087 315.52 264.55 315.52V317.52Z" fill="#EF4C59"/>
<path d="M268.79 330.86V328.86C281.294 328.86 291.43 318.724 291.43 306.22C291.43 293.716 281.294 283.58 268.79 283.58V281.58C282.398 281.58 293.43 292.612 293.43 306.22C293.43 319.828 282.398 330.86 268.79 330.86Z" fill="#EF4C59"/>
<path d="M263.34 289V287C266.134 287 268.4 284.734 268.4 281.94C268.4 279.145 266.134 276.88 263.34 276.88V274.88C267.239 274.88 270.4 278.041 270.4 281.94C270.4 285.839 267.239 289 263.34 289Z" fill="#EF4C59"/>
<path d="M288 291.071H286C285.984 274.895 272.875 261.787 256.7 261.771V259.771C273.98 259.787 287.984 273.791 288 291.071Z" fill="#EF4C59"/>
<path d="M256.67 341.771V339.771C265.233 339.776 273.104 335.068 277.15 327.521L278.91 328.461C274.521 336.662 265.972 341.778 256.67 341.771H256.67Z" fill="#EF4C59"/>
<path d="M280.7 314.1H278.7C278.684 307.969 273.711 303.005 267.58 303V301C274.816 301.005 280.684 306.864 280.7 314.1Z" fill="#EF4C59"/>
<path d="M276.25 305.76L274.93 304.26C277.328 302.152 278.701 299.113 278.7 295.92H280.7C280.699 299.687 279.078 303.272 276.25 305.76Z" fill="#EF4C59"/>
<rect x="255.67" y="268.04" width="2" height="64.24" fill="#EF4C59"/>
<path d="M245.84 381.76H216C207.07 381.749 199.836 374.51 199.83 365.58V343.05L191.83 337.91L199.83 316.08V305.76C199.83 280.355 220.425 259.76 245.83 259.76V261.76C221.53 261.76 201.83 281.459 201.83 305.76V316.43L194.3 337.1L201.84 341.96V365.58C201.846 373.401 208.179 379.743 216 379.76H245.83L245.84 381.76Z" fill="#0E2946"/>
<path d="M213.982 305.362L214.827 303.55L233.388 312.205L232.543 314.018L213.982 305.362Z" fill="#0E2946"/>
<path d="M209.11 355.76C205.663 355.768 202.355 354.4 199.92 351.96L201.34 350.55C205.635 354.841 212.595 354.841 216.89 350.55L218.31 351.96C215.869 354.397 212.559 355.764 209.11 355.76Z" fill="#0E2946"/>
<path d="M223 317.26C219.134 317.26 216 314.126 216 310.26C215.995 308.571 216.607 306.939 217.72 305.67L219.22 306.99C218.428 307.895 217.994 309.058 218 310.26C218.027 312.849 220.027 314.99 222.608 315.192C225.19 315.395 227.499 313.593 227.93 311.04L229.93 311.35C229.393 314.759 226.451 317.268 223 317.26Z" fill="#0E2946"/>
</svg>
