<svg width="720" height="640" viewBox="0 0 720 640" fill="none" xmlns="http://www.w3.org/2000/svg">
<rect x="11.0698" y="598.23" width="333" height="2" fill="#707F8F"/>
<rect x="314.07" y="618.23" width="333" height="2" fill="#707F8F"/>
<rect x="407.73" y="598.23" width="64.72" height="2" fill="#707F8F"/>
<rect x="502.53" y="598.23" width="172" height="2" fill="#707F8F"/>
<rect x="62.5298" y="618.23" width="172" height="2" fill="#707F8F"/>
<rect x="354.07" y="637.23" width="333" height="2" fill="#707F8F"/>
<rect x="122.53" y="637.23" width="172" height="2" fill="#707F8F"/>
<rect y="252.96" width="40" height="310" fill="white"/>
<path fill-rule="evenodd" clip-rule="evenodd" d="M8 543.48L20 549.48L32 543.48V528.8L20 522.8L8 528.8V543.48ZM20 547.25L10 542.25V530L20 525L30 530V542.25L20 547.25Z" fill="#0E2946"/>
<path fill-rule="evenodd" clip-rule="evenodd" d="M15.6857 537.927C16.4085 539.672 18.1114 540.81 20.0002 540.81C22.5771 540.804 24.6647 538.717 24.6702 536.14C24.6702 534.251 23.5324 532.548 21.7873 531.825C20.0423 531.103 18.0336 531.502 16.698 532.838C15.3624 534.173 14.9629 536.182 15.6857 537.927ZM17.5325 535.13C17.9452 534.131 18.9194 533.48 20.0002 533.48C21.4709 533.48 22.6647 534.669 22.6702 536.14C22.6743 537.221 22.0263 538.197 21.0289 538.614C20.0315 539.03 18.8815 538.804 18.1158 538.041C17.3501 537.279 17.1198 536.129 17.5325 535.13Z" fill="#0E2946"/>
<path fill-rule="evenodd" clip-rule="evenodd" d="M9.24023 269.89L17.9402 292.25L22.1402 282.79L31.6002 278.59L9.24023 269.89ZM18.0602 287.05L12.7602 273.4L26.4002 278.71L20.6202 281.27L18.0602 287.05Z" fill="#0E2946"/>
<path d="M30 444.63H28V443.36H12V444.63H10V441.36H30V444.63Z" fill="#0E2946"/>
<rect x="18" y="459.36" width="4" height="2" fill="#0E2946"/>
<rect x="19" y="442.36" width="2" height="18" fill="#0E2946"/>
<path fill-rule="evenodd" clip-rule="evenodd" d="M10 334.18H30V314.18H10V334.18ZM28 332.18H12V316.18H28V332.18Z" fill="#0E2946"/>
<rect x="11" y="359.57" width="18" height="2" fill="#0E2946"/>
<rect x="11" y="371.57" width="18" height="2" fill="#0E2946"/>
<rect x="13" y="357.57" width="2" height="18" fill="#0E2946"/>
<rect x="25" y="357.57" width="2" height="18" fill="#0E2946"/>
<path fill-rule="evenodd" clip-rule="evenodd" d="M11.2202 405.3L8.4502 420.51L23.6802 417.77L28.6802 408.99L31.6802 405.99L22.9902 397.3L19.9902 400.3L11.2202 405.3ZM10.9402 418L13.0002 406.57L21.1002 402L23.0002 400.08L28.8902 405.91L27.1702 407.62L22.3902 415.91L10.9402 418Z" fill="#0E2946"/>
<path d="M19.8989 401.792L21.3131 400.378L28.5893 407.654L27.1751 409.069L19.8989 401.792Z" fill="#0E2946"/>
<path d="M8.98779 418.559L17.4731 410.074L18.8873 411.488L10.402 419.973L8.98779 418.559Z" fill="#0E2946"/>
<path fill-rule="evenodd" clip-rule="evenodd" d="M15.8599 410.1C15.8599 411.757 17.203 413.1 18.8599 413.1C20.5167 413.1 21.8599 411.757 21.8599 410.1C21.8599 408.443 20.5167 407.1 18.8599 407.1C17.203 407.1 15.8599 408.443 15.8599 410.1ZM17.8599 410.1C17.8599 409.548 18.3076 409.1 18.8599 409.1C19.4121 409.1 19.8599 409.548 19.8599 410.1C19.8599 410.652 19.4121 411.1 18.8599 411.1C18.3076 411.1 17.8599 410.652 17.8599 410.1Z" fill="#0E2946"/>
<path fill-rule="evenodd" clip-rule="evenodd" d="M11.0002 498L9.72021 504L15.8002 502.8C20.1975 504.865 25.443 503.472 28.2351 499.496C31.0271 495.52 30.5578 490.113 27.1226 486.678C23.6874 483.242 18.2801 482.773 14.3044 485.565C10.3287 488.357 8.93485 493.603 11.0002 498ZM16.3102 500.86L16.0002 500.7L12.2402 501.47L13.0102 497.71L12.8502 497.4C11.0496 493.895 12.0691 489.601 15.2529 487.28C18.4367 484.959 22.8367 485.301 25.6229 488.087C28.4091 490.873 28.7516 495.273 26.4303 498.457C24.1089 501.641 19.815 502.661 16.3102 500.86Z" fill="#0E2946"/>
<rect x="167.38" y="320.36" width="400" height="12" fill="white"/>
<path fill-rule="evenodd" clip-rule="evenodd" d="M166.38 333.36H568.38V319.36H166.38V333.36ZM566.38 331.36H168.38V321.36H566.38V331.36Z" fill="#0E2946"/>
<rect x="446.38" y="320.36" width="2" height="12" fill="#0E2946"/>
<path d="M306.75 312.21H450.5L420.55 216.38H326.8L356.75 312.21" fill="white"/>
<path fill-rule="evenodd" clip-rule="evenodd" d="M306.75 313.21H451.86L421.29 215.38H325.44L355.39 311.21H306.75V313.21ZM449.14 311.21H357.49L328.16 217.38H419.82L449.14 311.21Z" fill="#0E2946"/>
<path d="M412.18 216.711L414.089 216.115L444.029 311.947L442.12 312.543L412.18 216.711Z" fill="#0E2946"/>
<path d="M492.8 279.21H252.8L302.8 119.21H542.8L492.8 279.21Z" fill="white"/>
<path fill-rule="evenodd" clip-rule="evenodd" d="M251.44 280.21H493.54L544.16 118.21H302.07L251.44 280.21ZM492.07 278.21H254.16L303.54 120.21H541.44L492.07 278.21Z" fill="#0E2946"/>
<path d="M485.8 279.21H245.8L295.8 119.21H535.8L485.8 279.21Z" fill="#476AE3"/>
<path fill-rule="evenodd" clip-rule="evenodd" d="M244.44 280.21H486.54L537.16 118.21H295.07L244.44 280.21ZM485.07 278.21H247.16L296.54 120.21H534.44L485.07 278.21Z" fill="#0E2946"/>
<path d="M266.75 302.21H276.75C282.273 302.21 286.75 306.687 286.75 312.21H256.75C256.75 306.687 261.227 302.21 266.75 302.21Z" fill="white"/>
<path fill-rule="evenodd" clip-rule="evenodd" d="M255.75 313.21H287.75V312.21C287.75 306.135 282.825 301.21 276.75 301.21H266.75C260.675 301.21 255.75 306.135 255.75 312.21V313.21ZM285.7 311.21H257.81C258.319 306.656 262.168 303.212 266.75 303.21H276.75C281.336 303.207 285.19 306.653 285.7 311.21Z" fill="#0E2946"/>
<path fill-rule="evenodd" clip-rule="evenodd" d="M287.55 253H318.92C322.885 252.797 326.323 250.192 327.59 246.43L350.88 172.55C351.506 170.835 351.271 168.923 350.25 167.41C349.211 166.077 347.589 165.331 345.9 165.41H314.53C310.564 165.607 307.123 168.214 305.86 171.98L282.58 245.85C281.955 247.569 282.189 249.483 283.21 251C284.246 252.333 285.864 253.079 287.55 253ZM307.77 172.55C308.793 169.634 311.449 167.604 314.53 167.38L345.93 167.33C346.983 167.267 348 167.718 348.66 168.54C349.308 169.54 349.434 170.791 349 171.9L325.69 245.82C324.66 248.736 322.004 250.768 318.92 251H287.55C286.495 251.064 285.476 250.609 284.82 249.78C284.173 248.784 284.046 247.536 284.48 246.43L307.77 172.55Z" fill="white"/>
<path fill-rule="evenodd" clip-rule="evenodd" d="M354.07 253H385.44C389.407 252.796 392.847 250.192 394.12 246.43L417.4 172.55C418.026 170.835 417.791 168.923 416.77 167.41C415.731 166.077 414.109 165.331 412.42 165.41H381.06C377.09 165.603 373.644 168.211 372.38 171.98L349.1 245.85C348.475 247.569 348.709 249.483 349.73 251C350.766 252.333 352.384 253.079 354.07 253ZM374.29 172.55C375.315 169.631 377.975 167.6 381.06 167.38L412.41 167.33C413.465 167.27 414.484 167.72 415.15 168.54C415.788 169.544 415.911 170.791 415.48 171.9L392.2 245.77C391.17 248.686 388.514 250.718 385.43 250.95H354.06C353.005 251.014 351.986 250.559 351.33 249.73C350.681 248.734 350.558 247.484 351 246.38L374.29 172.55Z" fill="white"/>
<path fill-rule="evenodd" clip-rule="evenodd" d="M420.59 253H452C455.973 252.77 459.401 250.132 460.64 246.35L483.92 172.47C484.546 170.755 484.311 168.844 483.29 167.33C482.252 165.996 480.629 165.25 478.94 165.33H447.58C443.61 165.523 440.164 168.131 438.9 171.9L415.62 245.85C414.995 247.569 415.229 249.483 416.25 251C417.286 252.333 418.904 253.079 420.59 253ZM440.85 172.55C441.875 169.631 444.535 167.6 447.62 167.38L478.93 167.33C479.985 167.27 481.004 167.72 481.67 168.54C482.308 169.544 482.431 170.791 482 171.9L458.77 245.82C457.747 248.741 455.087 250.776 452 251H420.63C419.575 251.064 418.556 250.609 417.9 249.78C417.251 248.784 417.128 247.534 417.57 246.43L440.85 172.55Z" fill="white"/>
<path fill-rule="evenodd" clip-rule="evenodd" d="M360.56 184.05L361 186C361.511 185.881 362.035 185.824 362.56 185.83H363.79V183.83H362.56C361.886 183.814 361.214 183.888 360.56 184.05ZM357.29 188.16L355.79 186.83C356.538 185.983 357.441 185.287 358.45 184.78L359.36 186.56C358.575 186.958 357.873 187.501 357.29 188.16ZM353.45 191.66L355.36 192.26L355.86 190.69C355.981 190.315 356.131 189.951 356.31 189.6L354.53 188.68C354.297 189.133 354.103 189.604 353.95 190.09L353.45 191.66ZM353.86 197.03L351.95 196.43L352.85 193.57L354.76 194.17L353.86 197.03ZM350.45 201.2L352.36 201.8L353.26 198.94L351.35 198.34L350.45 201.2ZM350.22 206.67L348.65 205.44C349.16 204.779 349.553 204.035 349.81 203.24V203.11L351.72 203.71L351.67 203.84C351.364 204.864 350.872 205.823 350.22 206.67ZM345.09 207.86L345.65 209.78C346.729 209.464 347.74 208.948 348.63 208.26L347.41 206.67C346.717 207.206 345.93 207.61 345.09 207.86ZM323.4 210.14H320.4V208.14H323.4V210.14ZM325.4 210.14H328.4V208.14H325.4V210.14ZM333.4 210.14H330.4V208.14H333.4V210.14ZM335.4 210.14H338.4V208.14H335.4V210.14ZM340.4 210.14H343.13H343.47L343.4 208.14H340.4V210.14Z" fill="white"/>
<path fill-rule="evenodd" clip-rule="evenodd" d="M418.76 208.46L419.51 210.31C420.318 209.983 421.179 209.81 422.05 209.8V207.8C420.922 207.812 419.806 208.036 418.76 208.46ZM416.22 213.09L414.53 212C415.123 211.04 415.894 210.202 416.8 209.53L417.99 211.14C417.282 211.672 416.681 212.334 416.22 213.09ZM412.72 216.96L414.64 217.53L415.49 214.67L413.58 214.06L412.72 216.96ZM413.21 222.32L411.29 221.75L412.15 218.87L414.07 219.44L413.21 222.32ZM409.87 226.54L411.79 227.11L412.64 224.23L410.72 223.66L409.87 226.54ZM409.27 231.91L407.84 230.51C408.457 229.886 408.95 229.149 409.29 228.34L411.13 229.12C410.69 230.158 410.059 231.105 409.27 231.91ZM404.03 232.48L404.37 234.48C405.469 234.27 406.519 233.86 407.47 233.27L406.47 231.56C405.723 232.019 404.895 232.331 404.03 232.48ZM382.21 234.61H379.21V232.61H382.21V234.61ZM384.21 234.61H387.21V232.61H384.21V234.61ZM392.21 234.61H389.21V232.61H392.21V234.61ZM394.21 234.61H397.21V232.61H394.21V234.61ZM399.21 234.61H402.21V232.61H399.21V234.61Z" fill="white"/>
<path fill-rule="evenodd" clip-rule="evenodd" d="M447.44 213.25L449.35 213.85L449.59 213.08L447.68 212.48L447.44 213.25ZM447.84 218.62L445.94 218.02L446.84 215.16L448.75 215.76L447.84 218.62ZM444.43 222.79L446.34 223.39L447.24 220.53L445.33 219.93L444.43 222.79ZM444.84 228.16L442.93 227.56L443.83 224.7L445.74 225.3L444.84 228.16ZM441.43 232.33L443.34 232.93L444.24 230.07L442.33 229.46L441.43 232.33ZM441.83 237.7L439.92 237.09L440.83 234.23L442.73 234.83L441.83 237.7ZM438.42 241.86L440.33 242.46L441.23 239.6L439.32 239L438.42 241.86ZM438.83 247.23L436.92 246.63L437.82 243.77L439.73 244.37L438.83 247.23ZM435.42 251.4L437.32 252L438.23 249.14L436.32 248.54L435.42 251.4ZM302.54 255.8L300.63 255.2L301.53 252.34L303.44 252.94L302.54 255.8ZM433.91 256.2L435.82 256.8L436.72 253.94L434.82 253.34L433.91 256.2ZM301.04 260.62L299.13 260.02L300.03 257.16L301.94 257.76L301.04 260.62ZM432.42 260.9L434.28 261.62C434.35 261.45 434.41 261.27 434.47 261.09L435.22 258.71L433.31 258.11L432.56 260.49C432.52 260.63 432.47 260.77 432.42 260.9ZM298.11 265.5C297.858 264.861 297.834 264.155 298.04 263.5L298.53 261.95L300.44 262.55L299.95 264.1C299.914 264.196 299.897 264.298 299.9 264.4C299.898 264.527 299.922 264.653 299.97 264.77L298.11 265.5ZM429.71 264.25L430.8 265.93C431.746 265.312 432.567 264.522 433.22 263.6L431.59 262.44C431.084 263.158 430.446 263.772 429.71 264.25ZM425.88 267.39H425.51V265.39H425.88C426.648 265.389 427.411 265.264 428.14 265.02L428.79 266.91C427.853 267.229 426.87 267.391 425.88 267.39ZM423.51 267.39H420.51V265.39H423.51V267.39ZM415.51 267.39H418.51V265.39H415.51V267.39ZM413.51 267.39H410.51V265.39H413.51V267.39ZM405.51 267.39H408.51V265.39H405.51V267.39ZM403.51 267.39H400.51V265.39H403.51V267.39ZM395.51 267.39H398.51V265.39H395.51V267.39ZM393.51 267.39H390.51V265.39H393.51V267.39ZM385.51 267.39H388.51V265.39H385.51V267.39ZM383.51 267.39H380.51V265.39H383.51V267.39ZM375.51 267.39H378.51V265.39H375.51V267.39ZM373.51 267.39H370.51V265.39H373.51V267.39ZM365.51 267.39H368.51V265.39H365.51V267.39ZM363.51 267.39H360.51V265.39H363.51V267.39ZM355.51 267.39H358.51V265.39H355.51V267.39ZM353.51 267.39H350.51V265.39H353.51V267.39ZM345.51 267.39H348.51V265.39H345.51V267.39ZM343.51 267.39H340.51V265.39H343.51V267.39ZM335.51 267.39H338.51V265.39H335.51V267.39ZM333.51 267.39H330.51V265.39H333.51V267.39ZM325.51 267.39H328.51V265.39H325.51V267.39ZM323.51 267.39H320.51V265.39H323.51V267.39ZM315.51 267.39H318.51V265.39H315.51V267.39ZM313.51 267.39H310.51V265.39H313.51V267.39ZM305.51 267.39H308.51V265.39H305.51V267.39ZM303.51 267.39H300.91C300.712 267.39 300.514 267.37 300.32 267.33L300.71 265.33H300.91H303.51V267.39Z" fill="white"/>
<ellipse cx="316.732" cy="209.16" rx="4.29" ry="3.14" transform="rotate(-40.52 316.732 209.16)" fill="#476AE3"/>
<path fill-rule="evenodd" clip-rule="evenodd" d="M312.57 212.38C313.279 213.314 314.397 213.847 315.57 213.81C318.212 213.681 320.506 211.947 321.35 209.44C321.779 208.253 321.611 206.932 320.9 205.89C320.191 204.956 319.071 204.426 317.9 204.47C315.258 204.599 312.964 206.333 312.12 208.84C311.691 210.023 311.859 211.341 312.57 212.38ZM314.01 209.47C314.586 207.788 316.107 206.609 317.88 206.47C318.419 206.433 318.943 206.656 319.29 207.07C319.614 207.604 319.669 208.259 319.44 208.84C318.865 210.523 317.344 211.703 315.57 211.84C315.029 211.874 314.505 211.647 314.16 211.23C313.83 210.701 313.774 210.046 314.01 209.47Z" fill="white"/>
<ellipse cx="375.466" cy="233.859" rx="4.29" ry="3.14" transform="rotate(-40.52 375.466 233.859)" fill="#476AE3"/>
<path fill-rule="evenodd" clip-rule="evenodd" d="M371.31 237.09C372.019 238.024 373.139 238.554 374.31 238.51C376.947 238.372 379.232 236.64 380.08 234.14C380.512 232.958 380.348 231.641 379.64 230.6C378.93 229.667 377.812 229.134 376.64 229.17C373.998 229.299 371.705 231.033 370.86 233.54C370.431 234.727 370.599 236.048 371.31 237.09ZM372.75 234.17C373.325 232.487 374.846 231.307 376.62 231.17C377.158 231.134 377.68 231.362 378.02 231.78C378.353 232.307 378.413 232.962 378.18 233.54C377.604 235.222 376.083 236.401 374.31 236.54C373.77 236.582 373.244 236.358 372.9 235.94C372.567 235.409 372.511 234.75 372.75 234.17Z" fill="white"/>
<path fill-rule="evenodd" clip-rule="evenodd" d="M366.62 181.3L372.94 184.53L364.59 187.76L366.62 181.3Z" fill="#476AE3"/>
<path fill-rule="evenodd" clip-rule="evenodd" d="M366 179.87L363 189.44L375.37 184.66L366 179.87ZM366.15 186.08L367.21 182.73L370.49 184.4L366.15 186.08Z" fill="white"/>
<path fill-rule="evenodd" clip-rule="evenodd" d="M425.17 205.3L431.49 208.53L423.13 211.76L425.17 205.3Z" fill="#476AE3"/>
<path fill-rule="evenodd" clip-rule="evenodd" d="M424.55 203.87L421.55 213.44L433.92 208.66L424.55 203.87ZM424.71 210.08L425.77 206.73L429 208.4L424.71 210.08Z" fill="white"/>
<path fill-rule="evenodd" clip-rule="evenodd" d="M298.82 254.99L304.37 247.65L305.28 254.99H298.82Z" fill="#476AE3"/>
<path fill-rule="evenodd" clip-rule="evenodd" d="M296.81 256H306.41L305.05 245.09L296.81 256ZM304.15 254H300.83L303.68 250.23L304.15 254Z" fill="white"/>
<ellipse cx="449.777" cy="209.162" rx="4.29" ry="3.14" transform="rotate(-40.52 449.777 209.162)" fill="#476AE3"/>
<path fill-rule="evenodd" clip-rule="evenodd" d="M445.61 212.38C446.32 213.313 447.438 213.846 448.61 213.81C451.252 213.681 453.546 211.947 454.39 209.44C454.819 208.253 454.651 206.932 453.94 205.89C453.231 204.956 452.112 204.426 450.94 204.47C448.3 204.604 446.009 206.336 445.16 208.84C444.746 210.025 444.913 211.336 445.61 212.38ZM447.05 209.47C447.627 207.788 449.147 206.609 450.92 206.47C451.46 206.43 451.985 206.653 452.33 207.07C452.663 207.601 452.719 208.26 452.48 208.84C451.906 210.523 450.384 211.703 448.61 211.84C448.072 211.876 447.55 211.648 447.21 211.23C446.877 210.703 446.818 210.048 447.05 209.47Z" fill="white"/>
<rect x="436.5" y="331.86" width="2" height="287.5" fill="#0E2946"/>
<rect x="556.5" y="331.86" width="2" height="267.5" fill="#0E2946"/>
<path d="M328.31 149.36H248.44L270.63 78.3599H350.5L328.31 149.36Z" fill="#EF4C59"/>
<path fill-rule="evenodd" clip-rule="evenodd" d="M247.05 150.36H329.05L351.86 77.3599H269.86L247.05 150.36ZM327.58 148.36H249.8L271.36 79.3599H349.14L327.58 148.36Z" fill="#0E2946"/>
<path fill-rule="evenodd" clip-rule="evenodd" d="M642 54.2598L605.02 172.75H405.02L442 54.2598H642Z" fill="white"/>
<path fill-rule="evenodd" clip-rule="evenodd" d="M403.66 173.74H605.76L643.36 53.25H441.26L403.66 173.74ZM604.28 171.74H406.38L442.74 55.25H640.64L604.28 171.74Z" fill="#0E2946"/>
<path d="M551.76 158.27H525.48C523.27 158.27 522.04 156.48 522.73 154.27L524.51 148.55C525.285 146.274 527.36 144.693 529.76 144.55H556.05C558.26 144.55 559.49 146.34 558.8 148.55L557 154.26C556.229 156.536 554.159 158.121 551.76 158.27Z" fill="white"/>
<path fill-rule="evenodd" clip-rule="evenodd" d="M525.48 159.27H551.76C554.613 159.141 557.093 157.269 558 154.56L559.75 148.84C560.205 147.573 560.027 146.164 559.27 145.05C558.507 144.051 557.305 143.488 556.05 143.54H529.76C526.922 143.678 524.46 145.545 523.56 148.24L521.77 153.97C521.319 155.239 521.501 156.647 522.26 157.76C523.024 158.757 524.225 159.321 525.48 159.27ZM525.47 148.84C526.114 146.983 527.8 145.686 529.76 145.54H556.05C556.667 145.496 557.266 145.753 557.66 146.23C558.035 146.83 558.102 147.573 557.84 148.23L556.06 153.96C555.412 155.818 553.723 157.115 551.76 157.26H525.48C524.862 157.3 524.262 157.039 523.87 156.56C523.49 155.962 523.419 155.219 523.68 154.56L525.47 148.84Z" fill="#EF4C59"/>
<rect x="530.48" y="150.4" width="20.57" height="2" fill="#EF4C59"/>
<path fill-rule="evenodd" clip-rule="evenodd" d="M462.78 109.96C464.15 111.73 466.294 112.725 468.53 112.63C473.44 112.63 478.69 108.64 480.22 103.74C481.045 101.461 480.737 98.9252 479.39 96.9102C478.02 95.1402 475.876 94.1449 473.64 94.2402C468.72 94.2402 463.48 98.2302 461.95 103.14C461.125 105.416 461.433 107.949 462.78 109.96ZM463.86 103.74C465.15 99.6102 469.54 96.2402 473.64 96.2402C475.237 96.1519 476.778 96.8456 477.77 98.1002C478.74 99.5844 478.94 101.443 478.31 103.1C477.02 107.23 472.63 110.59 468.53 110.59C466.934 110.671 465.395 109.983 464.39 108.74C463.428 107.253 463.232 105.396 463.86 103.74Z" fill="#FFC31D"/>
<path d="M439.81 145.2L438.6 143.61L460.91 126.58L465.84 133.77L493.13 112.93L504.51 129.5L502.86 130.63L492.67 115.8L465.39 136.63L460.45 129.45L439.81 145.2Z" fill="#476AE3"/>
<path fill-rule="evenodd" clip-rule="evenodd" d="M437.85 145.4H499.94L519.32 83.3198H457.23L437.85 145.4ZM498.47 143.4H440.57L458.7 85.3198H516.6L498.47 143.4Z" fill="#0E2946"/>
<rect x="530.61" y="124.22" width="40" height="2" fill="#0E2946"/>
<rect x="533.73" y="114.2" width="60" height="2" fill="#0E2946"/>
<rect x="536.86" y="104.19" width="50" height="2" fill="#0E2946"/>
<rect x="539.99" y="94.1802" width="55" height="2" fill="#0E2946"/>
<rect x="543.11" y="84.1602" width="60" height="2" fill="#0E2946"/>
<path fill-rule="evenodd" clip-rule="evenodd" d="M484.5 58.26H618V58.25C620.63 58.25 622.09 60.38 621.27 63L621.11 63.5C620.2 66.2099 617.734 68.0942 614.88 68.26H481.38C478.75 68.26 477.29 66.13 478.11 63.5L478.27 63C479.186 60.298 481.651 58.4226 484.5 58.26ZM619.26 60.76C618.943 60.4022 618.476 60.2166 618 60.26H484.5C482.529 60.4358 480.841 61.7446 480.18 63.61L480.02 64.11C479.799 64.6498 479.836 65.2606 480.12 65.77C480.439 66.1238 480.905 66.3086 481.38 66.27H614.88C616.851 66.0942 618.539 64.7854 619.2 62.92L619.36 62.42C619.586 61.8812 619.549 61.2677 619.26 60.76Z" fill="#0E2946"/>
<rect x="436.38" y="71.2798" width="200" height="2" fill="#0E2946"/>
<ellipse cx="466.642" cy="63.5192" rx="2.92" ry="2.14" transform="rotate(-40.69 466.642 63.5192)" fill="#231F20"/>
<ellipse cx="456.64" cy="63.529" rx="2.92" ry="2.14" transform="rotate(-40.69 456.64 63.529)" fill="#231F20"/>
<ellipse cx="446.638" cy="63.5285" rx="2.92" ry="2.14" transform="rotate(-40.69 446.638 63.5285)" fill="#231F20"/>
<path fill-rule="evenodd" clip-rule="evenodd" d="M596 284.23H546.54C542.12 284.23 539.64 280.7 541 276.35L576 164.08C577.36 159.73 582 156.2 586.46 156.2H635.91C640.33 156.2 642.81 159.73 641.46 164.08L606.46 276.35C605.09 280.7 600.41 284.23 596 284.23Z" fill="white"/>
<path fill-rule="evenodd" clip-rule="evenodd" d="M546.54 285.23H596C600.81 285.23 605.93 281.38 607.4 276.65L642.4 164.38C643.208 162.193 642.902 159.75 641.58 157.83C640.229 156.08 638.109 155.098 635.9 155.2H586.45C581.63 155.2 576.51 159.05 575.04 163.78L540.04 276.05C539.232 278.237 539.538 280.68 540.86 282.6C542.214 284.347 544.332 285.327 546.54 285.23ZM577 164.41C578.415 160.31 582.169 157.472 586.5 157.23L635.93 157.19C637.5 157.098 639.017 157.773 640 159C640.931 160.418 641.12 162.198 640.51 163.78L605.51 276.05C604.089 280.15 600.333 282.987 596 283.23H546.59C545.019 283.318 543.502 282.64 542.52 281.41C541.589 280 541.396 278.228 542 276.65L577 164.41Z" fill="#0E2946"/>
<path fill-rule="evenodd" clip-rule="evenodd" d="M616.76 164.08H600.76C600.26 164.12 599.777 163.891 599.491 163.479C599.205 163.067 599.159 162.535 599.37 162.08L601.22 156.17H621.22L619.37 162.08C618.992 163.218 617.958 164.01 616.76 164.08Z" fill="#002E46"/>
<path fill-rule="evenodd" clip-rule="evenodd" d="M600.76 165.08H616.76C618.403 165.003 619.831 163.928 620.36 162.37L622.61 155.16H600.51L598.45 161.77C598.18 162.546 598.295 163.403 598.76 164.08C599.229 164.713 599.972 165.085 600.76 165.08ZM600.38 162.41L602 157.2H619.89L618.45 161.81C618.179 162.512 617.538 163.003 616.79 163.08H600.79C600.637 163.096 600.486 163.04 600.38 162.93C600.301 162.766 600.301 162.574 600.38 162.41Z" fill="#0E2946"/>
<path fill-rule="evenodd" clip-rule="evenodd" d="M587.46 191.31C588.541 192.708 590.234 193.494 592 193.42C596.104 193.249 599.681 190.57 601 186.68C601.625 184.931 601.38 182.989 600.34 181.45C599.264 180.044 597.569 179.253 595.8 179.33C591.699 179.519 588.13 182.196 586.8 186.08C586.174 187.829 586.419 189.771 587.46 191.31ZM588.71 186.68C589.788 183.646 592.567 181.543 595.78 181.33H595.79C596.915 181.271 598.001 181.754 598.71 182.63C599.378 183.655 599.512 184.939 599.07 186.08C597.991 189.112 595.211 191.211 592 191.42C590.873 191.485 589.783 191.005 589.07 190.13C588.403 189.104 588.269 187.821 588.71 186.68Z" fill="#FFC31D"/>
<path d="M572.33 216.21L571.13 214.61L586.42 203.09L590.15 208.38L610.53 193.01L619.27 205.44L617.63 206.59L610.08 195.86L589.7 211.23L585.97 205.93L572.33 216.21Z" fill="#476AE3"/>
<path fill-rule="evenodd" clip-rule="evenodd" d="M568.79 217.59H615.89L630.34 171.28H583.25L568.79 217.59ZM614.42 215.59H571.51L584.72 173.28H627.62L614.42 215.59Z" fill="#0E2946"/>
<rect x="557.67" y="254" width="30" height="2" fill="#0E2946"/>
<rect x="559.97" y="246.62" width="45" height="2" fill="#0E2946"/>
<rect x="562.28" y="239.23" width="37.5" height="2" fill="#0E2946"/>
<rect x="564.58" y="231.84" width="41.25" height="2" fill="#0E2946"/>
<rect x="566.89" y="224.46" width="45" height="2" fill="#0E2946"/>
<path d="M620.1 264.24H593.81C592.822 264.32 591.864 263.874 591.288 263.067C590.712 262.259 590.603 261.209 591 260.3L592.76 254.67C593.54 252.419 595.602 250.863 597.98 250.73H624.27C625.252 250.666 626.196 251.118 626.762 251.922C627.327 252.727 627.433 253.768 627.04 254.67L625.28 260.3C624.511 262.541 622.465 264.097 620.1 264.24Z" fill="white"/>
<path fill-rule="evenodd" clip-rule="evenodd" d="M593.81 265.24H620.1C622.896 265.102 625.328 263.277 626.24 260.63L628 255C628.464 253.75 628.296 252.354 627.55 251.25C626.782 250.246 625.573 249.678 624.31 249.73H598.02C595.201 249.856 592.748 251.698 591.84 254.37L590.08 260C589.638 261.247 589.82 262.63 590.57 263.72C591.338 264.724 592.547 265.291 593.81 265.24ZM593.73 254.97C594.38 253.135 596.058 251.861 598 251.73H624.31C624.937 251.685 625.546 251.951 625.94 252.44C626.308 253.016 626.379 253.733 626.13 254.37L624.37 260C623.718 261.833 622.041 263.106 620.1 263.24H593.82C593.197 263.273 592.594 263.014 592.19 262.54C591.823 261.96 591.753 261.24 592 260.6L593.73 254.97Z" fill="#EF4C59"/>
<rect x="598.77" y="256.49" width="20.57" height="2" fill="#EF4C59"/>
<path d="M11.6401 142.39C11.6375 157.668 17.7049 172.322 28.5073 183.126C39.3096 193.93 53.9619 200 69.2401 200V84.79C37.4285 84.79 11.6401 110.578 11.6401 142.39Z" fill="#FFC31D"/>
<path d="M69.6401 171C67.6629 171 66.0601 169.397 66.0601 167.42H68.0601C68.0601 168.293 68.7674 169 69.6401 169C70.5127 169 71.2201 168.293 71.2201 167.42H73.2201C73.2201 169.397 71.6172 171 69.6401 171Z" fill="#0E2946"/>
<path fill-rule="evenodd" clip-rule="evenodd" d="M60.5699 157V167.65H78.6999V157C85.1866 152.954 88.2074 145.1 86.1033 137.75C83.9993 130.401 77.2798 125.335 69.6349 125.335C61.99 125.335 55.2705 130.401 53.1664 137.75C51.0624 145.1 54.0831 152.954 60.5699 157ZM76.6999 155.83V165.65H62.5699V155.83L62.0699 155.54C56.1394 152.116 53.248 145.136 55.0204 138.521C56.7928 131.906 62.7869 127.307 69.6349 127.307C76.4828 127.307 82.4769 131.906 84.2493 138.521C86.0217 145.136 83.1303 152.116 77.1999 155.54L76.6999 155.83Z" fill="#0E2946"/>
<rect x="62.54" y="155.65" width="14.19" height="2" fill="#0E2946"/>
<path d="M70.5299 150.65L68.7399 149.75L71.8899 143.46H64.1499L68.7399 134.27L70.5299 135.17L67.3899 141.46H75.1299L70.5299 150.65Z" fill="#EF4C59"/>
<rect x="92.8301" y="141.2" width="9.03" height="2" fill="#0E2946"/>
<rect x="37.3599" y="141.2" width="9.03" height="2" fill="#0E2946"/>
<rect x="68.6099" y="109.95" width="2" height="9.03" fill="#0E2946"/>
<path d="M85.3262 159.33L86.7404 157.916L93.1256 164.301L91.7113 165.715L85.3262 159.33Z" fill="#0E2946"/>
<path d="M46.0962 120.1L47.5104 118.685L53.8956 125.071L52.4814 126.485L46.0962 120.1Z" fill="#0E2946"/>
<path d="M85.3262 125.078L91.7113 118.693L93.1256 120.107L86.7404 126.492L85.3262 125.078Z" fill="#0E2946"/>
<path d="M46.0962 164.308L52.4814 157.922L53.8956 159.337L47.5104 165.722L46.0962 164.308Z" fill="#0E2946"/>
<path d="M216.21 171C218.47 171.49 210.76 171.85 213.05 172.09C218.646 172.675 224.294 172.524 229.85 171.64C231.165 171.449 232.351 170.743 233.144 169.678C233.938 168.612 234.275 167.274 234.08 165.96L231.82 151.23L236.29 147.73L225.22 108.26L179.49 119L178.49 151L186.99 168.61L182.9 183.53C182.9 183.53 180 192.15 192 193C198.742 193.661 205.163 189.981 208 183.83L213.11 172.07" fill="white"/>
<path fill-rule="evenodd" clip-rule="evenodd" d="M191.88 194H193.34C199.993 194.04 206.058 190.194 208.86 184.16L213.69 173.06C219.124 173.564 224.6 173.386 229.99 172.53C231.57 172.303 232.994 171.455 233.947 170.175C234.9 168.896 235.305 167.289 235.07 165.71L232.9 151.55L237.43 148L225.93 107L178.49 118.22L177.49 151.22L185.94 168.72L181.94 183.22C181.257 185.47 181.57 187.906 182.8 189.91C184.41 192.31 187.47 193.69 191.88 194ZM188 168.51L179.48 150.75L180.43 119.8L224.49 109.37L235.12 147.27L230.72 150.72L233.06 166.04C233.211 167.092 232.938 168.161 232.3 169.01C231.662 169.86 230.712 170.421 229.66 170.57C225.671 171.209 221.628 171.46 217.59 171.32C217.596 171.26 217.596 171.2 217.59 171.14C217.61 170.72 217.38 170.16 216.38 169.94L216.1 171.26H215.6V171.14C215.594 170.793 215.783 170.472 216.09 170.31C215.431 170.463 214.763 170.573 214.09 170.64C214.044 170.646 213.998 170.652 213.953 170.658C212.273 170.884 211.59 170.976 211.59 171.95C211.592 172.14 211.644 172.326 211.74 172.49L206.98 183.43C204.335 189.206 198.298 192.647 191.98 191.98C188.23 191.72 185.69 190.64 184.43 188.79C183.538 187.282 183.314 185.47 183.81 183.79L188 168.51Z" fill="#0E2946"/>
<path d="M206.71 146.38C206.71 146.38 204.83 141.71 201.52 140.59C193.13 137.77 194.68 151.36 195.79 154.9C197.64 160.79 192.15 167.28 185.67 168.78C181.99 158.31 179.81 156.92 177.95 152.67C172.95 141.31 165.51 122.29 171.59 112.58C178.36 101.74 196.23 101.66 215.4 99.0802C221.4 98.2702 222.05 99.7802 222.05 99.7802L226.14 106.47L226.65 113.36C226.65 113.36 222.12 113.57 217.65 113.66C207.42 113.86 210.59 126.34 211.49 130.4C213.56 139.82 210.97 145.8 210.97 145.8L206.71 146.38Z" fill="#0E2946"/>
<path d="M199.85 155.38C195.472 155.97 191.444 152.899 190.854 148.521C190.264 144.143 193.334 140.115 197.712 139.524C202.09 138.932 206.118 142.002 206.71 146.38" fill="white"/>
<path d="M198.76 156.45C193.948 156.439 189.996 152.645 189.789 147.838C189.582 143.03 193.193 138.91 197.986 138.485C202.779 138.061 207.058 141.481 207.7 146.25L205.7 146.51C205.424 143.982 203.799 141.802 201.455 140.816C199.11 139.831 196.416 140.194 194.416 141.765C192.416 143.337 191.426 145.869 191.83 148.38C192.348 152.21 195.87 154.895 199.7 154.38L199.96 156.38C199.562 156.428 199.161 156.451 198.76 156.45Z" fill="#0E2946"/>
<ellipse cx="226.709" cy="113.383" rx="30.31" ry="8.59" transform="rotate(-35.12 226.709 113.383)" fill="#EF4C59"/>
<path fill-rule="evenodd" clip-rule="evenodd" d="M201.1 131.41C201.94 132.6 203.45 133.2 205.56 133.2C208.108 133.087 210.621 132.56 213 131.64C219.839 129.034 226.305 125.538 232.23 121.24C238.275 117.118 243.748 112.216 248.51 106.66C252.63 101.59 253.95 97.6902 252.32 95.3802C250.7 93.0702 246.58 92.9902 240.42 95.1502C233.581 97.758 227.116 101.255 221.19 105.55C208.78 114.28 197.52 126.31 201.1 131.41ZM241.08 97.0002C243.243 96.1714 245.526 95.6986 247.84 95.6002C249.39 95.6002 250.3 96.0002 250.73 96.5302C251.51 97.6402 250.94 100.55 247 105.4C242.341 110.802 236.988 115.563 231.08 119.56C225.307 123.754 219.006 127.167 212.34 129.71C206.45 131.77 203.52 131.32 202.74 130.21C200.67 127.28 208.22 117.08 222.35 107.15C228.119 102.957 234.417 99.5442 241.08 97.0002Z" fill="#0E2946"/>
<circle cx="190.3" cy="100.81" r="3" fill="#0E2946"/>
<path d="M231.65 120.42C231.65 120.42 228.65 124.87 203.28 134.42C177.91 143.97 173.12 140.92 173.12 140.92L169.51 128.51C166.845 119.273 171.363 109.479 180.12 105.51L204 94.6902C211.04 92.2738 218.787 95.3855 222.2 102L231.65 120.42Z" fill="#EF4C59"/>
<path fill-rule="evenodd" clip-rule="evenodd" d="M172.57 141.78C172.78 141.92 173.71 142.41 176.26 142.41C180.27 142.41 188.25 141.19 203.63 135.39C228.62 125.97 232.16 121.46 232.49 120.97L232.81 120.49L223.09 101.54C219.432 94.4611 211.123 91.1527 203.6 93.78L179.71 104.58C170.511 108.792 165.768 119.092 168.55 128.82L172.26 141.58L172.57 141.78ZM202.94 133.52C181.94 141.43 175.28 140.54 173.94 140.2L170.47 128.26C167.953 119.485 172.235 110.19 180.54 106.4L204.33 95.64C210.904 93.3767 218.143 96.2808 221.33 102.46L230.46 120.25C229.07 121.52 223.36 125.82 202.94 133.52Z" fill="#0E2946"/>
<path d="M209.71 146C209.71 146 209.86 161.15 216.19 162.4C222.52 163.65 228.53 154.52 232.11 153.1C232.11 153.1 235.11 171.56 235.53 174.81C235.95 178.06 212.53 179.76 205.94 165.48C203.26 159.69 207.55 150.71 206.71 146.41L209.71 146Z" fill="#0E2946"/>
<path fill-rule="evenodd" clip-rule="evenodd" d="M205 165.87C209.34 175.26 220.44 178 228 178C229.878 178.046 231.754 177.845 233.58 177.4C236.14 176.7 236.55 175.52 236.45 174.7C236.087 171.914 233.894 158.314 233.222 154.143C233.115 153.479 233.046 153.054 233.03 152.95L232.83 151.73L231.67 152.18C229.916 153.119 228.326 154.334 226.96 155.78C223.86 158.62 220 162.15 216.32 161.43C211.78 160.53 210.64 150 210.64 146V144.87L205.48 145.57L205.68 146.57C205.998 148.071 205.516 150.49 205.009 153.032L205 153.08C204.989 153.137 204.978 153.194 204.967 153.252C204.175 157.439 203.283 162.151 205 165.87ZM206.98 153.46C207.475 151.423 207.74 149.336 207.77 147.24L208.69 147.11C208.797 149.395 209.081 151.669 209.54 153.91C210.73 159.57 212.88 162.75 215.94 163.35C220.62 164.27 224.89 160.36 228.32 157.21C229.272 156.306 230.274 155.455 231.32 154.66C232.02 158.99 234.09 171.87 234.48 174.79C234 175.3 231.02 176.29 225.93 175.96C222.53 175.74 211.1 174.29 206.81 165.03C205.34 161.85 206.21 157.39 206.98 153.46Z" fill="#0E2946"/>
<path d="M362.94 603.53H380.44L371.44 581.03L351.94 578.37L362.94 603.53Z" fill="white"/>
<path fill-rule="evenodd" clip-rule="evenodd" d="M362.28 604.54H381.91L372.12 580.14L350.28 577.14L362.28 604.54ZM379 602.54H363.59L353.57 579.65L370.72 582L379 602.54Z" fill="#0E2946"/>
<path d="M358.44 597.23C358.44 597.23 362.81 601.23 368.56 601.23C374.31 601.23 379.44 597 379.44 597L395.8 608.09C399.169 610.157 403.047 611.244 407 611.23H409.26C412.21 611.23 414.83 614.14 415.73 616.95L416.22 618.48L355.97 617.48V605.36C355.94 600 358.44 597.23 358.44 597.23Z" fill="#0E2946"/>
<path fill-rule="evenodd" clip-rule="evenodd" d="M354.94 618.5L417.56 619.5L416.67 616.67C415.67 613.57 412.74 610.26 409.25 610.26H406.99C403.244 610.26 399.571 609.221 396.38 607.26L379.38 595.75L378.8 596.23C378.796 596.23 378.753 596.262 378.675 596.319C377.874 596.909 373.362 600.23 368.56 600.23C363.29 600.23 359.11 596.49 359.11 596.49L358.37 595.82L357.7 596.56C357.58 596.68 354.94 599.66 354.94 605.36V618.5ZM414.81 617.5L356.94 616.5L356.97 605.4C356.917 603.06 357.505 600.75 358.67 598.72C361.522 600.915 364.993 602.157 368.59 602.27C373.5 602.27 377.93 599.42 379.5 598.27L395.31 608.98C398.824 611.147 402.872 612.294 407 612.29H409.23C411.68 612.29 413.95 614.82 414.74 617.29L414.81 617.5Z" fill="#0E2946"/>
<path d="M228 356.36C228 356.36 298.5 399 331.5 443C364.5 487 380 583.86 380 583.86C376.505 587.12 372.436 589.703 368 591.48C363.644 593.096 359.123 594.229 354.52 594.86L284.02 452.86L166.33 418.19C148.476 410.417 135.27 394.759 130.62 375.85L130.5 375.36" fill="#0E2946"/>
<path d="M353.92 595.93L283.3 453.69L165.93 419.1C147.826 411.164 134.425 395.281 129.65 376.1L129.53 375.61L131.47 375.13L131.59 375.62C136.209 394.178 149.163 409.551 166.67 417.25L284.7 452L284.9 452.39L355.08 593.75C359.359 593.103 363.561 592.021 367.62 590.52C371.774 588.873 375.603 586.503 378.93 583.52C377.63 575.79 361.93 485.29 330.7 443.65C298.2 400.32 228.19 357.65 227.48 357.24L228.48 355.53C229.18 355.96 299.48 398.8 332.26 442.45C365.04 486.1 380.83 582.73 381 583.7L381.08 584.21L380.71 584.57C377.116 587.937 372.919 590.597 368.34 592.41C363.909 594.064 359.307 595.218 354.62 595.85L353.92 595.93Z" fill="#0E2946"/>
<path d="M241.36 579.94L252.73 590.32L269.64 572.4L257.74 559.73L241.36 579.94Z" fill="white"/>
<path fill-rule="evenodd" clip-rule="evenodd" d="M240 580L252.78 591.72L271 572.41L257.69 558.17L240 580ZM252.73 588.91L242.73 579.84L257.84 561.25L268.32 572.4L252.73 588.91Z" fill="#0E2946"/>
<path d="M227.4 586.32L235.98 577.75C239.78 573.95 243.49 573.75 243.49 573.75C243.49 573.75 243.75 579.68 247.82 583.75C251.89 587.82 258.52 588.44 258.52 588.44L262.25 607.85C262.99 610.66 267.68 610.07 267.68 610.07C270.63 610.07 273.25 612.98 274.15 615.79L274.64 617.03H257.12L227.4 586.32Z" fill="#0E2946"/>
<path fill-rule="evenodd" clip-rule="evenodd" d="M256.69 618H276.11L275.06 615.54C274.06 612.43 271.13 609.13 267.64 609.13H267.52C267.518 609.13 267.511 609.131 267.497 609.132C267.178 609.158 263.651 609.447 263.19 607.71L259.32 587.56L258.57 587.49C258.569 587.49 258.566 587.49 258.561 587.489C258.283 587.457 252.119 586.759 248.49 583.09C244.8 579.36 244.49 573.77 244.49 573.77L244.44 572.77H243.44C243.27 572.78 239.27 573.04 235.27 577.04L226 586.31L256.69 618ZM273.17 616H257.54L228.81 586.23L236.68 578.35C238.3 576.659 240.35 575.442 242.61 574.83C243.076 578.399 244.65 581.732 247.11 584.36C250.6 587.85 255.75 588.94 257.67 589.23L261.28 608C262.03 610.89 265.66 611.24 267.74 611C270.12 611.08 272.34 613.53 273.17 616Z" fill="#0E2946"/>
<path d="M228 356.36L323.39 401.36C334.535 406.62 342.913 416.378 346.427 428.19C349.941 440.003 348.258 452.753 341.8 463.25L272 580.36C272 580.36 266.25 581.6 256 575.6C245.75 569.6 243.5 563.36 243.5 563.36L297 441.36L175.5 420.86C175.5 420.86 133.5 419.86 131.75 397.86" fill="white"/>
<path d="M270.55 581.47C268.07 581.47 262.9 580.8 255.5 576.47C245.05 570.36 242.66 563.97 242.56 563.7L242.42 563.32L295.57 442.13L175.4 421.86C168.169 421.538 160.994 420.435 154 418.57C139.54 414.52 131.49 407.39 130.74 397.94L132.74 397.78C134.4 418.63 175.1 419.85 175.51 419.86H175.66L298.42 440.58L244.59 563.36C245.23 564.71 248.09 569.82 256.51 574.74C264.73 579.55 269.95 579.55 271.39 579.43L340.94 462.74C347.254 452.484 348.9 440.023 345.463 428.48C342.027 416.936 333.835 407.403 322.94 402.27L227.55 357.27L228.41 355.46L323.79 400.46C335.196 405.838 343.771 415.821 347.367 427.908C350.964 439.995 349.241 453.041 342.63 463.78L272.63 581.24L272.2 581.34C271.655 581.434 271.103 581.477 270.55 581.47Z" fill="#0E2946"/>
<path d="M275 574.36C275 574.36 269.25 575.6 259 569.6C248.75 563.6 246.5 557.36 246.5 557.36" fill="white"/>
<path d="M273.55 575.47C271.07 575.47 265.9 574.8 258.5 570.47C248.05 564.36 245.66 557.97 245.56 557.7L247.44 557.02C247.44 557.07 249.75 563.02 259.51 568.74C269.27 574.46 274.74 573.39 274.8 573.38L275.21 575.38C274.661 575.461 274.105 575.491 273.55 575.47Z" fill="#0E2946"/>
<ellipse cx="346.08" cy="219.73" rx="7" ry="6.38" fill="white"/>
<path d="M352 214.79C350.362 213.78 348.464 213.272 346.54 213.33C339.46 213.33 336.15 215.33 334.88 220.15L331.45 232.15L285.54 270L247.54 225.72L227.68 249.72C227.68 249.72 262.68 296.78 284.13 293.07C305.58 289.36 341.85 243.22 341.85 243.22L357 238.36C359.678 236.209 360.815 232.668 359.89 229.36L356.77 219L367.09 204.08C367.305 203.761 367.382 203.37 367.305 202.994C367.228 202.618 367.003 202.288 366.68 202.08C366.107 201.698 365.341 201.787 364.87 202.29L347.11 219.9C345.972 221.065 344.112 221.109 342.92 220C342.344 219.44 342.016 218.673 342.01 217.87" fill="white"/>
<path fill-rule="evenodd" clip-rule="evenodd" d="M247.12 273.5C261.09 287.28 272.67 294.28 281.59 294.28C282.476 294.3 283.362 294.249 284.24 294.13C305.25 290.47 339.21 248.13 342.38 244.13L357.38 239.31L357.52 239.19C360.493 236.798 361.758 232.867 360.74 229.19L357.81 219.19L367.87 204.64C368.231 204.103 368.36 203.444 368.23 202.81C368.108 202.187 367.749 201.635 367.23 201.27C366.261 200.632 364.975 200.775 364.17 201.61L352.01 213.61C350.326 212.703 348.432 212.255 346.52 212.31C339.07 212.31 335.3 214.57 333.89 219.85L330.54 231.57L285.66 268.57L247.5 224.14L226.38 249.68L226.84 250.31C233.079 258.48 239.854 266.227 247.12 273.5ZM283.92 292.08C264.63 295.42 233.15 255.27 228.92 249.74L247.52 227.24L285.41 271.36L332.28 232.75L335.81 220.41C336.78 216.76 338.97 214.34 346.51 214.34C347.884 214.306 349.249 214.572 350.51 215.12L346.37 219.22C346.015 219.601 345.52 219.821 345 219.83C344.482 219.849 343.979 219.654 343.61 219.29C343.227 218.92 343.007 218.413 343 217.88H341C341.046 219.47 342.028 220.881 343.503 221.475C344.978 222.07 346.665 221.734 347.8 220.62L365.59 202.99C365.725 202.838 365.954 202.812 366.12 202.93C366.213 202.99 366.281 203.083 366.31 203.19C366.331 203.297 366.309 203.409 366.25 203.5L355.66 218.81L358.86 229.68C359.646 232.525 358.705 235.566 356.45 237.47L341.22 242.36L341.03 242.6C340.67 243.08 304.76 288.49 283.92 292.08Z" fill="#0E2946"/>
<path d="M176.38 390C176.38 390 203.75 383.63 236.62 360.38L233.5 359C233.5 359 195.12 376.13 189 378C182.88 379.87 153 391.75 131.62 388.88L131.5 395.75C131.5 395.75 151.75 399.13 176.38 390Z" fill="white"/>
<path fill-rule="evenodd" clip-rule="evenodd" d="M131.34 396.72C134.601 397.155 137.89 397.356 141.18 397.32C153.296 397.272 165.309 395.092 176.67 390.88C178.2 390.51 205.31 383.67 237.2 361.11L238.64 360.11L233.5 357.85L233.09 358.03C232.71 358.24 194.71 375.19 188.71 377.03C188.103 377.191 187.277 377.48 186.264 377.835C185.891 377.965 185.492 378.105 185.07 378.25C174.59 381.87 150.07 390.33 131.76 387.87L130.65 387.72L130.48 396.58L131.34 396.72ZM176 389.05C162.135 394.26 147.266 396.246 132.52 394.86L132.57 390.03C151.21 392.08 175.29 383.77 185.69 380.18C186.217 380.002 186.704 379.835 187.148 379.683C188.025 379.383 188.735 379.139 189.26 378.98C195.037 377.213 228.283 362.427 233.293 360.199L233.47 360.12L234.57 360.6C202.89 382.63 176.39 388.99 176.12 389.05H176Z" fill="#0E2946"/>
<path d="M205.37 367.38L213.85 380.55L207.96 384.34L199.48 371.17" fill="white"/>
<path d="M205.37 367.38L213.85 380.55L205.37 367.38Z" fill="white"/>
<path d="M204.514 367.937L206.196 366.854L214.678 380.03L212.996 381.113L204.514 367.937Z" fill="#0E2946"/>
<path d="M207.96 384.34L199.48 371.17L207.96 384.34Z" fill="white"/>
<path d="M198.623 371.741L200.305 370.659L208.786 383.835L207.105 384.917L198.623 371.741Z" fill="#0E2946"/>
<path d="M212.5 240.87L229.5 268.21C229.5 268.21 260.5 235.69 255.9 228.86C246.59 215.03 234.34 197.42 226.65 193.15C209.72 183.77 197.09 187.15 188.09 187.49C179.09 187.83 182.32 182.36 182.32 182.36C182.32 182.36 164 184.36 154.75 198.11C136.75 224.8 119.49 395.23 119.49 395.23C119.49 395.23 151.4 406.91 183.31 385.79C215.22 364.67 238.73 357.59 238.73 357.59C238.73 357.59 238.11 331.29 232.73 311.36C227.65 292.47 222.61 275.75 225.15 261.02" fill="#0E2946"/>
<path fill-rule="evenodd" clip-rule="evenodd" d="M119.14 396.17C126.297 398.392 133.757 399.478 141.25 399.39C156.415 399.436 171.251 394.97 183.87 386.56C215.23 365.8 238.79 358.56 239.02 358.49L239.75 358.27V357.51C239.75 357.24 239.08 330.86 233.75 311.04L232.66 307.04L232.646 306.986C228.272 290.839 224.452 276.736 225.78 264.04L229.36 269.79L230.25 268.86C235.52 263.33 261.56 235.4 256.76 228.26C245.81 212.03 234.65 196.42 227.16 192.26C212.88 184.35 201.39 185.37 192.99 186.12C191.25 186.28 189.6 186.42 188.08 186.48C185.36 186.58 183.55 186.13 182.99 185.2C182.43 184.27 183.21 182.86 183.21 182.86L184.21 181.14L182.21 181.36C181.44 181.44 163.32 183.54 153.92 197.54C146.39 208.75 138.14 245.42 129.39 306.54C122.89 351.98 118.49 394.7 118.49 395.13L118.41 395.9L119.14 396.17ZM182.76 384.96C154.3 403.79 125.49 396.07 120.56 394.53C121.88 381.82 138.59 223.92 155.67 198.69C162.98 187.83 176.33 184.49 180.92 183.63C180.731 184.524 180.877 185.457 181.33 186.25C182.3 187.88 184.62 188.65 188.21 188.51C189.77 188.45 191.44 188.3 193.21 188.14L193.245 188.137C201.809 187.378 212.489 186.43 226.21 194.04C234.236 198.499 248.114 219.06 254.934 229.164L255.12 229.44C256.72 231.79 251.16 243.94 229.72 266.6L213.4 240.37L211.7 241.42L224.14 261.42C221.95 275.16 226.03 290.22 230.75 307.62L231.83 311.62C236.6 329.34 237.61 352.45 237.76 356.87C233.46 358.27 211.22 366.13 182.76 384.96Z" fill="#0E2946"/>
<path d="M211.64 241.433L213.338 240.375L225.004 259.11L223.306 260.167L211.64 241.433Z" fill="#465B72"/>
<path d="M217.55 250.25C214.136 249.422 210.901 247.982 208 246L209.15 244.37C211.826 246.192 214.801 247.529 217.94 248.32L217.55 250.25Z" fill="#465B72"/>
<rect x="171.44" y="422.36" width="2" height="190" fill="#0E2946"/>
<rect x="103.38" y="410.36" width="138.12" height="12" fill="white"/>
<path fill-rule="evenodd" clip-rule="evenodd" d="M102.38 423.36H242.5V409.36H102.38V423.36ZM240.5 421.36H104.38V411.36H240.5V421.36Z" fill="#0E2946"/>
<rect x="177.5" y="410.36" width="2" height="12" fill="#0E2946"/>
<path d="M172.61 311.39H92.0498L82.0498 253.03H162.61L172.61 311.39Z" fill="white"/>
<path fill-rule="evenodd" clip-rule="evenodd" d="M91.1999 312.39H173.8L163.45 252H80.8599L91.1999 312.39ZM171.42 310.39H92.8899L83.2299 254H161.77L171.42 310.39Z" fill="#0E2946"/>
<path d="M164.61 311.39H84.0498L74.0498 253.03H154.61L164.61 311.39Z" fill="white"/>
<path fill-rule="evenodd" clip-rule="evenodd" d="M83.1999 312.39H165.8L155.45 252H72.8599L83.1999 312.39ZM163.42 310.39H84.8899L75.2299 254H153.77L163.42 310.39Z" fill="#0E2946"/>
<path d="M143.39 274.02L167.83 416.69L143.39 274.02Z" fill="white"/>
<path d="M142.39 274.208L144.361 273.87L168.8 416.542L166.829 416.88L142.39 274.208Z" fill="#0E2946"/>
<path d="M148.818 311.727L150.789 311.389L164.453 391.158L162.482 391.495L148.818 311.727Z" fill="white"/>
<path d="M90.0498 274.02L114.5 416.69L90.0498 274.02Z" fill="white"/>
<path d="M89.0542 274.192L91.0255 273.854L115.464 416.526L113.493 416.864L89.0542 274.192Z" fill="#0E2946"/>
<path d="M223.44 612.36H221.44C221.44 590.85 199.44 573.36 172.44 573.36C145.44 573.36 123.44 590.85 123.44 612.36H121.44C121.44 589.75 144.32 571.36 172.44 571.36C200.56 571.36 223.44 589.75 223.44 612.36Z" fill="#0E2946"/>
<circle cx="122.44" cy="612.36" r="6" fill="white"/>
<path fill-rule="evenodd" clip-rule="evenodd" d="M115.44 612.36C115.44 616.226 118.574 619.36 122.44 619.36C126.306 619.36 129.44 616.226 129.44 612.36C129.44 608.494 126.306 605.36 122.44 605.36C118.574 605.36 115.44 608.494 115.44 612.36ZM117.44 612.36C117.44 609.598 119.679 607.36 122.44 607.36C125.201 607.36 127.44 609.598 127.44 612.36C127.44 615.121 125.201 617.36 122.44 617.36C119.679 617.36 117.44 615.121 117.44 612.36Z" fill="#0E2946"/>
<circle cx="172.44" cy="612.36" r="6" fill="white"/>
<path fill-rule="evenodd" clip-rule="evenodd" d="M165.44 612.36C165.44 616.226 168.574 619.36 172.44 619.36C176.306 619.36 179.44 616.226 179.44 612.36C179.44 608.494 176.306 605.36 172.44 605.36C168.574 605.36 165.44 608.494 165.44 612.36ZM167.44 612.36C167.44 609.598 169.679 607.36 172.44 607.36C175.201 607.36 177.44 609.598 177.44 612.36C177.44 615.121 175.201 617.36 172.44 617.36C169.679 617.36 167.44 615.121 167.44 612.36Z" fill="#0E2946"/>
<circle cx="222.44" cy="612.36" r="6" fill="white"/>
<path fill-rule="evenodd" clip-rule="evenodd" d="M215.44 612.36C215.44 616.226 218.574 619.36 222.44 619.36C226.306 619.36 229.44 616.226 229.44 612.36C229.44 608.494 226.306 605.36 222.44 605.36C218.574 605.36 215.44 608.494 215.44 612.36ZM217.44 612.36C217.44 609.598 219.679 607.36 222.44 607.36C225.201 607.36 227.44 609.598 227.44 612.36C227.44 615.121 225.201 617.36 222.44 617.36C219.679 617.36 217.44 615.121 217.44 612.36Z" fill="#0E2946"/>
<path d="M244.64 392.45C242.733 383.781 237.895 376.035 230.94 370.52L232.06 368.87C232.51 369.17 243.06 376.48 246.59 392L244.64 392.45Z" fill="#0E2946"/>
<path d="M300.93 442.79C299.524 442.791 298.122 442.637 296.75 442.33L297.25 440.39C297.31 440.39 303.98 442.04 308.1 438.51L309.4 440.03C306.995 441.929 303.992 442.907 300.93 442.79Z" fill="#0E2946"/>
<path d="M302.63 448C299.205 447.554 296.497 444.879 296.01 441.46L298.01 441.25C298.412 443.786 300.458 445.742 303.01 446.03L302.63 448Z" fill="#0E2946"/>
<path d="M353.61 588.85L353.38 586.85C357.901 586.23 362.341 585.116 366.62 583.53C370.934 581.805 374.893 579.3 378.3 576.14L379.7 577.56C376.106 580.928 371.909 583.587 367.33 585.4C362.899 587.058 358.298 588.215 353.61 588.85Z" fill="#465B72"/>
<path fill-rule="evenodd" clip-rule="evenodd" d="M233.85 1.2602V3.2302C235.18 3.1902 236.51 3.1702 237.85 3.2002V1.2002C237.2 1.2002 236.543 1.21497 235.88 1.22986C235.208 1.24497 234.53 1.2602 233.85 1.2602ZM245.78 3.3802C244.46 3.3202 243.14 3.2702 241.78 3.2402V1.2402C243.003 1.2402 244.218 1.30583 245.409 1.37022L245.78 1.3902V3.3802ZM225.77 1.6202L225.9 3.6202V3.5902C227.23 3.5102 228.56 3.4302 229.87 3.3902L229.77 1.3902C228.45 1.4502 227.11 1.5302 225.77 1.6202ZM253.7 4.0002C252.367 3.8602 251.034 3.7402 249.7 3.6402L249.86 1.6402C251.21 1.7502 252.55 1.8702 253.86 2.0202L253.7 4.0002ZM217.79 2.2802L218 4.2802C219.29 4.1402 220.61 4.0002 221.96 3.9002L221.79 1.9002C220.46 2.0102 219.13 2.1402 217.79 2.2802ZM261.54 5.1102C260.27 4.8802 258.95 4.6602 257.63 4.4702L257.91 2.4702C259.26 2.6702 260.6 2.8802 261.91 3.1202L261.54 5.1102ZM209.75 3.4802L210.18 5.4802C210.924 5.31493 211.685 5.17753 212.451 5.03922C212.983 4.9432 213.518 4.84673 214.05 4.7402L213.75 2.7402C212.4 2.9502 211.06 3.2002 209.75 3.4802ZM266.84 6.21696L266.84 6.21692L266.839 6.21661L266.838 6.21646L266.838 6.2163L266.837 6.21615L266.837 6.21599L266.836 6.21583C266.366 6.09532 265.894 5.97408 265.42 5.8502L265.86 3.9002C267.19 4.2002 268.51 4.5302 269.79 4.9002L269.26 6.8502C268.467 6.63447 267.658 6.4268 266.84 6.21696ZM202 5.8002L202.64 7.6702C203.85 7.2202 205.11 6.81019 206.42 6.4402L205.86 4.5202C204.55 4.9002 203.25 5.3302 202 5.8002ZM276.73 9.3102C275.53 8.8402 274.28 8.3902 273.01 7.9802L273.64 6.0802C274.93 6.5002 276.22 6.9602 277.45 7.4402L276.73 9.3102ZM194.48 9.1902L195.48 10.9402H195.51C196.64 10.3102 197.82 9.7102 199 9.1702L198.12 7.3502C196.88 7.9202 195.65 8.5402 194.48 9.1902ZM283.86 12.6102C282.74 11.9902 281.56 11.4002 280.35 10.8402L281.22 9.0002C282.46 9.5702 283.69 10.1902 284.85 10.8202L283.86 12.6102ZM187.74 13.7502L189 15.3002C190 14.4902 191.09 13.7102 192.18 13.0002L191.03 11.3202C189.9 12.0802 188.74 12.9002 187.74 13.7502ZM290.43 16.8502C289.43 16.0702 288.34 15.3102 287.23 14.5902L288.32 12.9102C289.47 13.6602 290.59 14.4502 291.65 15.2602L290.43 16.8502ZM166.94 18.0902C168.24 18.1002 169.57 18.1502 170.88 18.2402L171 16.2402C169.64 16.1502 168.28 16.0902 166.94 16.0902V18.0902ZM159.09 18.5402L158.84 16.5402C160.17 16.3802 161.53 16.2502 162.9 16.1802L163.01 18.1802C161.72 18.2802 160.4 18.4002 159.12 18.5602L159.09 18.5402ZM183.84 20.3002C184.7 20.5102 185.57 20.7502 186.42 21.0002L186.94 19.0602C186.41 18.9002 185.87 18.7502 185.33 18.6102C185.57 18.3502 185.82 18.1002 186.07 17.8602L184.68 16.4302C184.185 16.8746 183.755 17.3408 183.322 17.8103L183.322 17.8104L183.322 17.8104L183.322 17.8105L183.321 17.8108L183.321 17.8111L183.214 17.9275L183.1 18.0502H183.02V18.2002C182.65 18.6102 182.28 19.0302 181.93 19.4502L183.46 20.7302L183.84 20.3002ZM296.21 22.1402C295.34 21.1902 294.41 20.2602 293.45 19.3802L294.8 17.9002C295.8 18.8302 296.8 19.8002 297.68 20.7902L296.21 22.1402ZM143.29 21.2302L144.21 23.0002C145.363 22.3995 146.549 21.862 147.76 21.3902L147.02 19.5302C145.748 20.0321 144.503 20.5995 143.29 21.2302ZM193.89 23.5902L193.667 23.4999C192.528 23.0381 191.364 22.5663 190.2 22.2002L190.86 20.3102C192.13 20.7502 193.41 21.2402 194.65 21.7402L193.89 23.5902ZM179.1 27.2202L177.34 26.2802C177.98 25.0709 178.687 23.899 179.46 22.7702L181.11 23.8902C180.38 24.9402 179.71 26.0602 179.1 27.1902V27.2202ZM136.49 25.8502L137.79 27.3702V27.3402C138.4 26.8202 139 26.3202 139.67 25.8602L139.67 25.8601C140.07 25.5702 140.47 25.2802 140.88 25.0002L139.77 23.3602C139.33 23.6502 138.91 23.9502 138.49 24.2602C137.8 24.7702 137.13 25.3002 136.49 25.8502ZM300.9 28.3702C300.22 27.2602 299.48 26.1802 298.7 25.1402L300.3 23.9402C301.12 25.0302 301.89 26.1602 302.6 27.3202L300.9 28.3702ZM204.37 29.0302C205.49 29.7502 206.61 30.5002 207.61 31.2602L208.8 29.6602C207.73 28.8702 206.61 28.0902 205.45 27.3502L204.37 29.0302ZM132.48 33.0002L130.88 31.8102C131.7 30.7113 132.582 29.6596 133.52 28.6602L135 30.0002C134.108 30.9555 133.267 31.9568 132.48 33.0002ZM176.236 34.3435L176.26 34.3502L176.22 34.4002L176.236 34.3435ZM177.46 30.7402C176.99 31.9191 176.581 33.1218 176.236 34.3435L174.33 33.8102C174.691 32.5189 175.118 31.2472 175.61 30.0002L177.46 30.7402ZM304.39 35.3502C303.91 34.1302 303.39 32.9302 302.82 31.7802L304.61 30.9002C305.2 32.1002 305.76 33.3602 306.25 34.6302L304.39 35.3502ZM210.7 33.7202C211.7 34.6002 212.65 35.5002 213.53 36.4202L215.02 35.0402C214.02 34.0802 213.02 33.1302 212.02 32.2202L210.7 33.7202ZM128.53 39.6902L128.522 39.6864C129.062 38.4993 129.666 37.3423 130.33 36.2202L128.61 35.2202C127.914 36.3961 127.28 37.6077 126.71 38.8502L128.522 39.6864L128.52 39.6902H128.53ZM173 41.9602L175 42.0602C175.073 40.7633 175.216 39.4714 175.43 38.1902L173.43 37.8802C173.216 39.2317 173.072 40.5936 173 41.9602ZM218.27 42.5502C217.591 41.446 216.85 40.381 216.05 39.3602L217.62 38.1302C218.479 39.2055 219.274 40.3308 220 41.5002L218.27 42.5502ZM305.56 39.0602C305.96 40.2902 306.29 41.5602 306.56 42.8502L308.48 42.4402C308.19 41.1002 307.86 39.7702 307.48 38.4902L305.56 39.0602ZM126 47.0502L124 46.6002C124.32 45.2702 124.69 43.9402 125.13 42.6602L127.02 43.3002C126.66 44.5202 126.3 45.7802 126 47.0502ZM220.09 46.0002C220.629 47.157 221.087 48.3498 221.46 49.5702L223.34 49.0002C222.95 47.6961 222.472 46.4199 221.91 45.1802L220.09 46.0002ZM173.46 50.1402C173.248 48.7883 173.105 47.4266 173.03 46.0602L175.03 45.9502C175.1 47.2302 175.24 48.5302 175.44 49.8302L173.46 50.1402ZM307.26 46.7202C307.44 47.9902 307.58 49.3002 307.68 50.6302L309.7 50.4402C309.59 49.1102 309.45 47.7502 309.26 46.4402L307.26 46.7202ZM123 54.7102C123.044 53.3453 123.157 51.9835 123.34 50.6302L125.34 50.8902C125.162 52.1804 125.049 53.4787 125 54.7802L123 54.7102ZM222.38 57.1902L224.38 57.2502V57.2202C224.385 57.1102 224.388 56.9877 224.39 56.8652C224.393 56.7427 224.395 56.6202 224.4 56.5102C224.402 55.3732 224.328 54.2374 224.18 53.1102L222.18 53.3602C222.312 54.4051 222.379 55.4571 222.38 56.5102V57.1902ZM175.45 58.0802C175 56.7902 174.6 55.4702 174.26 54.1702L176.2 53.6802C176.52 54.9202 176.9 56.1802 177.34 57.4202L175.45 58.0802ZM307.82 58.5402L309.82 58.6002V58.5702C309.85 57.7002 309.86 56.8402 309.82 56.0502V54.5902H307.82V56.0102V58.5402ZM144.71 58.6002C143.496 58.2781 142.254 58.0771 141 58.0002L141.12 56.0002C142.52 56.0811 143.908 56.309 145.26 56.6802L144.71 58.6002ZM132.85 57.1002L133.46 59.0002C134.674 58.6149 135.919 58.3339 137.18 58.1602L136.91 56.1602C135.531 56.3506 134.172 56.6652 132.85 57.1002ZM151.5 61.8902C150.456 61.136 149.352 60.4672 148.2 59.8902L149.08 58.0902C150.325 58.7038 151.519 59.416 152.65 60.2202L151.5 61.8902ZM125.41 60.7102L126.5 62.3802H126.53C127.61 61.67 128.732 61.0255 129.89 60.4502L129 58.6602C127.763 59.2691 126.564 59.9537 125.41 60.7102ZM123.5 62.8802C123.28 61.5502 123.12 60.1802 123.03 58.8002L125.03 58.6802C125.111 59.9768 125.258 61.2685 125.47 62.5502L123.5 62.8802ZM221.17 64.8402L223.11 65.3502L223.06 65.3202C223.169 64.915 223.274 64.5 223.38 64.08C223.539 63.4532 223.701 62.8149 223.88 62.1802C223.94 61.9102 223.99 61.6402 224.04 61.3702L222.04 61.0202C222 61.2702 221.95 61.5302 221.89 61.7802C221.68 62.8402 221.43 63.8402 221.17 64.8402ZM178.81 65.5302C178.16 64.3202 177.55 63.0902 177.01 61.8702L178.84 61.0602C179.36 62.2302 179.94 63.4202 180.57 64.5802L178.81 65.5302ZM154.67 64.4302C155.527 65.2522 156.249 66.2038 156.81 67.2502L158.57 66.3002C157.91 65.0593 157.052 63.9345 156.03 62.9702L155.94 62.8802L154.58 64.3502L154.67 64.4302ZM120.44 67.2502L120.435 67.2452C121.404 66.3271 122.392 65.4688 123.39 64.6702L122.14 63.1102C121.06 63.9402 120.06 64.8002 119.06 65.8002L120.435 67.2452L120.43 67.2502H120.44ZM124.41 66.8902C124.784 68.2146 125.242 69.5139 125.78 70.7802L127.61 70.0002C127.112 68.8074 126.688 67.5851 126.34 66.3402L124.41 66.8902ZM183.24 72.3302C182.4 71.3302 181.6 70.1602 180.85 69.0102L182.53 67.9202C183.236 69.0146 183.997 70.0726 184.81 71.0902L183.24 72.3302ZM218.45 72.1202L220.24 73.0002C220.86 71.773 221.407 70.5109 221.88 69.2202L220 68.5402C219.547 69.7599 219.029 70.9549 218.45 72.1202ZM115.11 73.0002L113.53 71.7702C113.82 71.3902 114.13 71.0202 114.45 70.6402C115.03 69.9702 115.61 69.3102 116.2 68.6402L117.67 70.0002C117.09 70.6202 116.53 71.2602 115.97 71.9102C115.67 72.3102 115.39 72.6602 115.11 73.0002ZM158.42 74.4202L160.42 74.5302L160.46 74.5002C160.47 74.2602 160.48 74.0002 160.42 73.8102C160.418 72.6212 160.277 71.4365 160 70.2802L158.06 70.7302C158.297 71.7398 158.418 72.7732 158.42 73.8102V74.4202ZM130.04 77.8702C129.135 76.8165 128.319 75.6892 127.6 74.5002L129.31 73.5002C129.971 74.5961 130.72 75.6362 131.55 76.6102L130.04 77.8702ZM185.87 75.4502C186.82 76.4386 187.822 77.3766 188.87 78.2602L190.2 76.6602C189.205 75.8265 188.257 74.9384 187.36 74.0002L185.87 75.4502ZM111.3 79.7202L109.48 79.0002C109.971 77.7108 110.56 76.4605 111.24 75.2602L112.98 76.2602C112.352 77.3627 111.804 78.509 111.34 79.6902L111.3 79.7202ZM214.04 78.4002L215.44 79.8202L215.48 79.7902C216.464 78.8204 217.348 77.7551 218.12 76.6102L216.47 75.4802C215.754 76.5276 214.94 77.5052 214.04 78.4002ZM156.86 82.3102L155.55 80.8002C156.446 80.0197 157.156 79.0496 157.63 77.9602L159.46 78.7602C158.882 80.1108 158.007 81.3138 156.9 82.2802L156.86 82.3102ZM192.23 80.7002C193.39 81.4549 194.603 82.1233 195.86 82.7002L196.68 80.8502C195.513 80.3172 194.387 79.6988 193.31 79.0002L192.23 80.7002ZM136.72 82.9502C135.436 82.3626 134.225 81.6276 133.11 80.7602L134.34 79.1802C135.332 79.9511 136.409 80.6053 137.55 81.1302L136.72 82.9502ZM207.7 82.1402L208.22 84.0702V84.0002C209.586 83.6535 210.898 83.1219 212.12 82.4202L211.12 80.7002C210.051 81.3335 208.9 81.818 207.7 82.1402ZM204 84.6002C202.588 84.5834 201.182 84.4056 199.81 84.0702L200.28 82.0702C201.501 82.3735 202.753 82.5346 204.01 82.5502L204 84.6002ZM140.74 84.2502C142.058 84.5748 143.394 84.8252 144.74 85.0002L145 83.0002C143.724 82.8452 142.459 82.6148 141.21 82.3102L140.74 84.2502ZM148.9 85.1402L148.8 83.1402C150.047 83.0957 151.282 82.8804 152.47 82.5002L153.09 84.4002C151.734 84.8379 150.324 85.0869 148.9 85.1402ZM107.32 86.8402L109.32 87.2302C109.53 86.1602 109.82 84.7602 110.14 83.3402L108.2 82.8402C107.833 84.2975 107.545 85.7253 107.326 86.8118L107.326 86.8119L107.326 86.812L107.32 86.8402ZM107.69 95.1002L105.75 94.6202C106.03 93.4802 106.3 92.2502 106.6 90.7602L108.6 91.1502C108.485 91.6548 108.38 92.129 108.281 92.5798L108.281 92.5807L108.281 92.581C108.079 93.4967 107.898 94.3164 107.69 95.1002ZM103.31 102.06L105.16 102.83C105.68 101.59 106.16 100.3 106.58 99.0102L104.67 98.3902C104.31 99.6502 103.82 100.85 103.31 102.06ZM101.44 110.07L99.7302 109.07C100.43 107.94 101.08 106.79 101.66 105.66L103.44 106.57C102.83 107.7 102.16 108.89 101.44 110.07ZM96.7802 116.7L95.2202 115.46C96.0502 114.4 96.8402 113.34 97.5702 112.3L99.2102 113.45C98.4602 114.52 97.6402 115.61 96.7802 116.7ZM197.5 25.1902C198.69 25.7602 199.87 26.3702 201 27.0002L201.97 25.2502C200.8 24.6002 199.59 23.9802 198.36 23.3902L197.5 25.1902ZM151.42 20.1002L150.86 18.1802C152.14 17.8102 153.47 17.4802 154.86 17.1802L155.26 19.1802C154 19.4502 152.68 19.7702 151.45 20.1202L151.42 20.1002ZM174.8 18.6102C176.1 18.7702 177.41 18.9702 178.71 19.2002L179.05 17.2202C177.72 16.9802 176.38 16.7802 175.05 16.6102L174.8 18.6102Z" fill="#707F8F"/>
<path d="M308.72 63.4901L299.53 54.3001L300.94 52.8901L308.72 60.6601L316.5 52.8901L317.91 54.3001L308.72 63.4901Z" fill="#EF4C59"/>
<path fill-rule="evenodd" clip-rule="evenodd" d="M627.23 285.49L615.56 255.49L645.56 267.15L627.23 285.49Z" fill="white"/>
<path fill-rule="evenodd" clip-rule="evenodd" d="M613.85 253.73L626.85 287.28L647.4 266.73L613.85 253.73ZM627.61 283.73L617.32 257.28L643.77 267.57L627.61 283.73Z" fill="#0E2946"/>
<path d="M645.57 285.48L636.4 276.31L645.57 285.48Z" fill="white"/>
<path d="M635.698 277.016L637.112 275.601L646.277 284.766L644.862 286.18L635.698 277.016Z" fill="#0E2946"/>
<path fill-rule="evenodd" clip-rule="evenodd" d="M281.984 113.35C283.191 119.434 288.527 123.818 294.73 123.82C298.176 123.822 301.481 122.455 303.92 120.02C308.309 115.638 308.992 108.765 305.549 103.606C302.107 98.4459 295.499 96.4366 289.768 98.8067C284.036 101.177 280.777 107.266 281.984 113.35ZM283.944 108.678C284.966 103.53 289.482 99.8219 294.73 99.8202V99.8302C297.646 99.8266 300.445 100.981 302.51 103.04C306.222 106.75 306.796 112.565 303.881 116.929C300.967 121.293 295.376 122.991 290.527 120.984C285.678 118.977 282.922 113.825 283.944 108.678Z" fill="white"/>
<path d="M302.62 119.891L304.034 118.476L312.52 126.962L311.105 128.376L302.62 119.891Z" fill="white"/>
<circle cx="557.5" cy="476.36" r="60" fill="#FFC31D"/>
<path fill-rule="evenodd" clip-rule="evenodd" d="M521.5 476.36C521.5 496.242 537.618 512.36 557.5 512.36C577.382 512.36 593.5 496.242 593.5 476.36C593.5 456.478 577.382 440.36 557.5 440.36C537.618 440.36 521.5 456.478 521.5 476.36ZM523.5 476.36C523.5 457.582 538.722 442.36 557.5 442.36C576.278 442.36 591.5 457.582 591.5 476.36C591.5 495.138 576.278 510.36 557.5 510.36C538.722 510.36 523.5 495.138 523.5 476.36Z" fill="#0E2946"/>
<path d="M552.5 468.36H550.5C550.5 464.494 547.366 461.36 543.5 461.36C539.634 461.36 536.5 464.494 536.5 468.36H534.5C534.5 463.389 538.529 459.36 543.5 459.36C548.471 459.36 552.5 463.389 552.5 468.36Z" fill="#0E2946"/>
<path d="M557.5 494.79C552.461 494.802 547.626 492.8 544.07 489.23L545.48 487.82C552.114 494.431 562.846 494.431 569.48 487.82L570.9 489.23C567.344 492.783 562.526 494.782 557.5 494.79Z" fill="#0E2946"/>
<path d="M580.5 468.36H578.5C578.5 464.494 575.366 461.36 571.5 461.36C567.634 461.36 564.5 464.494 564.5 468.36H562.5C562.5 463.389 566.529 459.36 571.5 459.36C576.471 459.36 580.5 463.389 580.5 468.36Z" fill="#0E2946"/>
<path fill-rule="evenodd" clip-rule="evenodd" d="M655.92 112.15C656.031 112.256 657.043 113.217 658.71 114.95L660.15 113.57C658.35 111.68 657.32 110.68 657.27 110.68L655.91 112.14C655.91 112.141 655.914 112.144 655.92 112.15ZM664.09 120.84C663.452 120.145 662.88 119.491 662.337 118.87L662.336 118.87C662.027 118.517 661.727 118.174 661.43 117.84L662.91 116.5C663.73 117.4 664.63 118.4 665.59 119.5L664.09 120.84ZM666.68 123.87C667.49 124.84 668.34 125.87 669.21 126.95L670.77 125.7C670.205 124.987 669.648 124.32 669.105 123.669L669.105 123.669C668.802 123.306 668.503 122.948 668.21 122.59L666.68 123.87ZM674.1 133.25C673.28 132.15 672.48 131.09 671.69 130.08L673.26 128.85C674.06 129.85 674.88 130.94 675.71 132.05L674.1 133.25ZM676.47 136.46C677.23 137.51 678 138.59 678.77 139.71L680.41 138.57C679.63 137.44 678.85 136.35 678.09 135.29L676.47 136.46ZM683.22 146.33C682.48 145.19 681.75 144.08 681.02 143L682.68 141.89C683.42 142.98 684.16 144.1 684.9 145.24L683.22 146.33ZM685.35 149.69C686.05 150.8 686.74 151.94 687.43 153.09L689.15 152.12C688.45 150.95 687.75 149.81 687.05 148.69L685.35 149.69ZM691.43 160C690.78 158.82 690.12 157.67 689.43 156.53L691.16 155.53C691.45 156.036 691.74 156.546 692.033 157.059L692.038 157.068L692.039 157.07C692.409 157.719 692.781 158.373 693.16 159.03L691.43 160ZM693.32 163.46C693.94 164.63 694.55 165.8 695.16 167L696.94 166.09C696.33 164.89 695.71 163.7 695.09 162.53L693.32 163.46ZM698.72 174.16C698.153 172.94 697.583 171.74 697.01 170.56L698.81 169.68C699.39 170.88 699.96 172.09 700.53 173.32L698.72 174.16ZM701.554 180.546C701.678 180.846 701.803 181.147 701.93 181.45L703.77 180.67C703.25 179.43 702.72 178.2 702.19 176.98L700.36 177.79C700.791 178.697 701.17 179.616 701.554 180.545L701.554 180.545L701.554 180.545L701.554 180.546L701.554 180.546L701.554 180.546ZM704.86 188.85C704.4 187.6 703.92 186.36 703.43 185.13L705.29 184.4C705.363 184.585 705.437 184.77 705.512 184.955L705.512 184.956C705.932 186.006 706.357 187.071 706.74 188.15L704.86 188.85ZM706.23 192.59C706.67 193.83 707.09 195.09 707.51 196.36L709.41 195.73C708.99 194.45 708.56 193.18 708.11 191.92L706.23 192.59ZM709.87 203.96C709.496 202.68 709.116 201.41 708.73 200.15L710.64 199.56C711.03 200.83 711.42 202.11 711.79 203.41L709.87 203.96ZM710.87 207.8C711.23 209.07 711.56 210.36 711.87 211.65L713.8 211.18C713.48 209.87 713.14 208.57 712.8 207.28L710.87 207.8ZM713.6 219.42C713.34 218.11 713.06 216.82 712.78 215.53L712.78 215.53L714.78 215.09C715.07 216.39 715.35 217.71 715.61 219.03L713.6 219.42ZM714.34 223.33C714.57 224.63 714.79 225.94 715 227.25L717.01 226.98C716.8 225.61 716.57 224.29 716.34 222.98L714.34 223.33ZM715.58 231.191L715.58 231.19L715.58 231.19L717.58 230.92C717.76 232.24 717.92 233.57 718.08 234.92L716.07 235.14C715.92 233.811 715.75 232.502 715.58 231.193L715.58 231.193L715.58 231.193L715.58 231.193L715.58 231.193L715.58 231.193L715.58 231.192L715.58 231.192L715.58 231.192L715.58 231.192L715.58 231.192L715.58 231.191L715.58 231.191L715.58 231.191L715.58 231.191L715.58 231.191L715.58 231.191ZM716.47 239.06C716.6 240.41 716.7 241.73 716.8 243.06L718.79 242.88C718.7 241.54 718.59 240.21 718.47 238.88L716.47 239.06ZM717.08 248.041L717.08 248.041L717.08 248.04C717.063 247.695 717.045 247.348 717.03 247L719.03 246.9C719.09 248.234 719.14 249.567 719.18 250.9L717.18 251C717.18 250.014 717.13 249.033 717.08 248.041ZM717.18 259H719.18L719.18 258.991C719.19 257.934 719.2 256.887 719.18 255.87V255H717.18V255.88V259ZM718.86 267L716.86 266.88C716.94 265.55 717 264.22 717.06 262.88L719.06 262.96C719.042 263.367 719.03 263.77 719.017 264.17C718.988 265.128 718.959 266.069 718.86 267ZM716.2 274.79L718.2 275C718.34 273.7 718.47 272.37 718.56 270.96L716.56 270.79C716.46 272.15 716.33 273.469 716.2 274.789L716.2 274.79ZM717.74 279.02C717.58 280.36 717.4 281.69 717.2 283L715.2 282.71C715.4 281.39 715.58 280.07 715.74 278.77L717.74 279.02ZM715.871 290.941L715.92 290.95L715.86 291L715.871 290.941ZM716.62 286.99C716.354 288.281 716.117 289.582 715.871 290.941L713.92 290.57C714.17 289.26 714.4 287.96 714.62 286.66L716.62 286.99ZM714.25 298.81L714.193 298.797C714.247 298.568 714.301 298.339 714.354 298.11L714.354 298.11C714.606 297.034 714.858 295.959 715.17 294.89L713.17 294.47C712.9 295.76 712.61 297.06 712.31 298.36L714.193 298.797L714.19 298.81H714.25ZM712.213 306.59L712.25 306.6H712.21L712.213 306.59ZM712.806 304.401C712.611 305.129 712.415 305.859 712.213 306.59L710.32 306.07L710.374 305.871L710.374 305.87L710.374 305.87C710.706 304.647 711.035 303.434 711.32 302.22L713.26 302.72C713.108 303.276 712.957 303.836 712.807 304.399L712.806 304.401ZM709.95 314.3L709.913 314.289C710.322 312.993 710.721 311.736 711.14 310.46L709.22 309.89C708.84 311.15 708.45 312.42 708.05 313.69L709.913 314.289L709.91 314.3H709.95ZM707.324 321.897L707.36 321.91H707.32L707.324 321.897ZM707.853 320.432C707.678 320.919 707.502 321.408 707.324 321.897L705.48 321.23C705.94 319.97 706.38 318.72 706.8 317.47L708.69 318.12C708.409 318.888 708.133 319.656 707.855 320.426L707.854 320.429L707.853 320.432ZM704.49 329.41L704.456 329.396C704.801 328.612 705.106 327.831 705.412 327.049C705.592 326.59 705.772 326.131 705.96 325.67L704.1 324.96C703.64 326.19 703.14 327.43 702.64 328.66L704.456 329.396L704.45 329.41H704.49ZM701.326 336.795L701.36 336.81H701.32L701.32 336.809L701.326 336.795ZM702.96 333.12C702.402 334.345 701.864 335.57 701.326 336.795L699.53 336C700.07 334.77 700.6 333.56 701.12 332.34L702.96 333.12ZM697.96 344.09L697.928 344.074C698.122 343.676 698.314 343.278 698.507 342.88C698.899 342.074 699.29 341.267 699.69 340.46L697.88 339.62C697.32 340.81 696.75 342.01 696.17 343.21L697.928 344.074L697.92 344.09H697.96ZM694.299 351.234L694.33 351.25H694.29L694.299 351.234ZM694.824 350.238C694.649 350.57 694.474 350.902 694.299 351.234L692.56 350.32C693.186 349.14 693.796 347.96 694.39 346.78L696.18 347.69C695.721 348.536 695.273 349.386 694.824 350.238ZM690.47 358.25L690.457 358.243C690.609 357.977 690.761 357.713 690.912 357.451L690.912 357.45L690.912 357.45L690.912 357.45L690.912 357.449L690.912 357.449L690.913 357.449L690.913 357.449L690.913 357.448L690.913 357.448L690.914 357.447L690.915 357.444L690.918 357.439C691.419 356.567 691.916 355.702 692.43 354.78L690.68 353.78L690.432 354.226L690.262 354.532C689.76 355.435 689.256 356.343 688.74 357.25L690.457 358.243L690.43 358.29L690.47 358.25ZM686.388 365.163L686.4 365.17L686.36 365.21L686.388 365.163ZM687.233 363.769C686.952 364.234 686.671 364.699 686.388 365.163L684.69 364.17C685.39 363.03 686.07 361.89 686.74 360.75L688.46 361.75C688.047 362.425 687.641 363.096 687.236 363.765L687.233 363.769ZM682.13 371.97L682.115 371.961C682.548 371.297 682.977 370.63 683.411 369.954L683.413 369.951C683.702 369.501 683.994 369.048 684.29 368.59L682.6 367.52C681.9 368.64 681.18 369.76 680.45 370.88L682.115 371.961L682.09 372L682.13 371.97ZM677.661 378.634L677.67 378.64L677.63 378.68L677.661 378.634ZM679.9 375.36C679.16 376.445 678.411 377.54 677.661 378.634L676 377.55C676.76 376.45 677.51 375.35 678.24 374.25L679.9 375.36ZM673.04 385.19L673.033 385.185C673.811 384.11 674.581 383.045 675.38 381.93L673.74 380.78C672.98 381.85 672.21 382.93 671.42 384.01L673.033 385.185L673 385.23L673.04 385.19ZM668.233 391.615L668.24 391.62L668.2 391.66L668.233 391.615ZM669.67 389.72C669.184 390.357 668.705 390.985 668.233 391.615L666.65 390.4C667.456 389.34 668.256 388.28 669.05 387.22L670.66 388.42C670.327 388.86 669.997 389.292 669.67 389.72ZM663.24 397.93L661.68 396.67C662.408 395.803 663.129 394.876 663.835 393.967C663.944 393.828 664.052 393.689 664.16 393.55L665.74 394.79C665.208 395.49 664.668 396.178 664.125 396.869L664.124 396.871L664.123 396.872C663.829 397.246 663.534 397.621 663.24 398V397.93ZM656.61 402.83L658.14 404.12V404.16L658.142 404.158C659.001 403.129 659.86 402.099 660.71 401.04L659.16 399.77C658.32 400.79 657.47 401.81 656.61 402.83ZM652.91 410.2L651.4 408.87C652.29 407.87 653.16 406.87 654.02 405.87L655.54 407.17L652.91 410.2ZM646.07 414.85L647.54 416.2C648.453 415.214 649.353 414.21 650.24 413.19L648.75 411.85C647.87 412.85 646.97 413.85 646.07 414.85ZM642.06 422.05L640.62 420.67L643.36 417.77L644.82 419.14C643.906 420.113 642.986 421.083 642.06 422.05ZM636.47 427.8L635.05 426.39L637.85 423.54L639.28 424.94L636.47 427.8Z" fill="#707F8F"/>
<path d="M646.5 429.36H633.5V416.36H635.5V427.36H646.5V429.36Z" fill="#476AE3"/>
<circle cx="653.61" cy="108.36" r="6" fill="#F5F6F8"/>
<path fill-rule="evenodd" clip-rule="evenodd" d="M646.61 108.36C646.61 112.226 649.744 115.36 653.61 115.36C655.466 115.36 657.247 114.622 658.56 113.31C659.872 111.997 660.61 110.216 660.61 108.36C660.61 104.494 657.476 101.36 653.61 101.36C649.744 101.36 646.61 104.494 646.61 108.36ZM648.61 108.36C648.61 105.598 650.848 103.36 653.61 103.36C656.371 103.36 658.61 105.598 658.61 108.36C658.61 111.121 656.371 113.36 653.61 113.36C650.848 113.36 648.61 111.121 648.61 108.36Z" fill="#FFC31D"/>
<path d="M415.91 67.3398L405.15 61.1298L415.14 54.7998L415.91 67.3398Z" fill="#EF4C59"/>
<path d="M372.784 48.6338L373.245 46.6876L400.112 53.0486L399.651 54.9948L372.784 48.6338Z" fill="#0E2946"/>
<path d="M383.561 1.60547L385.153 0.394603L416.617 41.7573L415.025 42.9682L383.561 1.60547Z" fill="#0E2946"/>
<path d="M430.035 41.2471L431.801 7.66347L433.798 7.76849L432.032 41.3521L430.035 41.2471Z" fill="#0E2946"/>
<circle cx="427.38" cy="55.5698" r="3" fill="#FFC31D"/>
<path fill-rule="evenodd" clip-rule="evenodd" d="M95.1201 37.5799L102.53 44.9999L110 37.6199L102.53 30.1699L95.1201 37.5799ZM102.58 42.2099L98.0001 37.6199L102.53 32.9999L107.17 37.6199L102.58 42.2099Z" fill="#476AE3"/>
</svg>
