<svg width="720" height="640" viewBox="0 0 720 640" fill="none" xmlns="http://www.w3.org/2000/svg">
<rect x="116" y="597.51" width="604" height="2" fill="#707F8F"/>
<rect y="617.61" width="333" height="2" fill="#707F8F"/>
<rect x="343.57" y="637.61" width="333" height="2" fill="#707F8F"/>
<rect x="367.23" y="617.61" width="64.72" height="2" fill="#707F8F"/>
<rect x="462.03" y="617.61" width="172" height="2" fill="#707F8F"/>
<rect x="112.03" y="637.61" width="172" height="2" fill="#707F8F"/>
<rect x="60" y="31" width="600" height="300" fill="white"/>
<path fill-rule="evenodd" clip-rule="evenodd" d="M299.59 442.8L373 516.16V442.8H299.59ZM371 511.33L304.41 444.8H371V511.33Z" fill="#EF4C59"/>
<path d="M205.256 63.3516L245.256 66.5516L242.056 106.552L202.056 103.352L205.256 63.3516Z" fill="white"/>
<path fill-rule="evenodd" clip-rule="evenodd" d="M199.83 104.71L241.68 108.25L245.21 66.3899L203.36 62.8599L199.83 104.71ZM239.87 106.08L202 102.89L205.19 64.9999L243.06 68.2199L239.87 106.08Z" fill="#0E2946"/>
<rect x="266.49" y="65.5498" width="40" height="40" fill="#FFC31D"/>
<path fill-rule="evenodd" clip-rule="evenodd" d="M265.49 106.55H307.49V64.5498H265.49V106.55ZM305.49 104.55H267.49V66.5498H305.49V104.55Z" fill="#0E2946"/>
<rect x="330.47" y="65.6001" width="40" height="40" fill="white"/>
<path fill-rule="evenodd" clip-rule="evenodd" d="M329.47 106.6H371.47V64.6001H329.47V106.6ZM369.47 104.6H331.47V66.6001H369.47V104.6Z" fill="#0E2946"/>
<path fill-rule="evenodd" clip-rule="evenodd" d="M424.66 63.5499L424.84 65.5499L428.83 65.1899L428.66 63.1899L424.66 63.5499ZM431.62 63.9099L431.98 67.9099L433.98 67.7299L433.62 63.7299L431.62 63.9099ZM392.87 68.4299L392.69 66.4299L396.69 66.0699L396.87 68.0699L392.87 68.4299ZM392.14 71.4899L392.5 75.4899L394.5 75.3099L394.14 71.3099L392.14 71.4899ZM432.7 75.8799L432.34 71.8799L434.34 71.6999L434.7 75.6999L432.7 75.8799ZM392.86 79.4599L393.22 83.4599L395.22 83.2799L394.86 79.2799L392.86 79.4599ZM433.42 83.8399L433.06 79.8399L435.06 79.6599L435.42 83.6599L433.42 83.8399ZM393.58 87.4299L393.94 91.4299L395.94 91.2499L395.58 87.2499L393.58 87.4299ZM434.14 91.8099L433.78 87.8099L435.78 87.6299L436.14 91.6299L434.14 91.8099ZM394.3 95.3899L394.66 99.3899L396.66 99.2099L396.3 95.2099L394.3 95.3899ZM434.86 99.7799L434.5 95.7799L436.5 95.5999L436.86 99.5999L434.86 99.7799ZM432.14 103.03L432.32 105.03L436.32 104.67L436.14 102.67L432.14 103.03ZM394.96 103.36L395.32 107.36L397.32 107.18L396.96 103.18L394.96 103.36ZM400.21 105.91L400.39 107.91L404.39 107.55L404.21 105.55L400.21 105.91ZM408.32 107.19L408.14 105.19L412.14 104.83L412.32 106.83L408.32 107.19ZM416.14 104.47L416.32 106.47L420.32 106.11L420.14 104.11L416.14 104.47ZM424.32 105.75L424.14 103.75L428.14 103.39L428.32 105.39L424.32 105.75ZM400.84 67.7099L400.66 65.7099L404.66 65.3499L404.84 67.3499L400.84 67.7099ZM408.66 64.9899L408.84 66.9899L412.84 66.6299L412.66 64.6299L408.66 64.9899ZM416.84 66.2699L416.66 64.2699L420.66 63.9099L420.84 65.9099L416.84 66.2699Z" fill="#707F8F"/>
<rect x="202.52" y="117.61" width="40" height="40" fill="#EF4C59"/>
<path fill-rule="evenodd" clip-rule="evenodd" d="M201.52 158.61H243.52V116.61H201.52V158.61ZM241.52 156.61H203.52V118.61H241.52V156.61Z" fill="#0E2946"/>
<path d="M267.321 116.824L307.287 118.471L305.64 158.437L265.674 156.79L267.321 116.824Z" fill="#FFC31D"/>
<path fill-rule="evenodd" clip-rule="evenodd" d="M264.61 157.72L306.61 159.45L308.34 117.45L266.34 115.72L264.61 157.72ZM304.73 157.37L266.73 155.81L268.29 117.81L306.29 119.37L304.73 157.37Z" fill="#0E2946"/>
<rect x="330.47" y="117.61" width="40" height="40" fill="#FFC31D"/>
<path fill-rule="evenodd" clip-rule="evenodd" d="M329.47 158.61H371.47V116.61H329.47V158.61ZM369.47 156.61H331.47V118.61H369.47V156.61Z" fill="#0E2946"/>
<rect x="394.44" y="117.61" width="40" height="40" fill="#FFC31D"/>
<path fill-rule="evenodd" clip-rule="evenodd" d="M393.44 158.61H435.44V116.61H393.44V158.61ZM433.44 156.61H395.44V118.61H433.44V156.61Z" fill="#0E2946"/>
<rect x="202.52" y="169.66" width="40" height="40" fill="#EF4C59"/>
<path fill-rule="evenodd" clip-rule="evenodd" d="M201.52 210.66H243.52V168.66H201.52V210.66ZM241.52 208.66H203.52V170.66H241.52V208.66Z" fill="#0E2946"/>
<rect x="210.59" y="180.74" width="21.82" height="2" fill="#0E2946"/>
<rect x="210.59" y="186.74" width="25.82" height="2" fill="#0E2946"/>
<rect x="210.59" y="193.74" width="14.82" height="2" fill="#0E2946"/>
<path fill-rule="evenodd" clip-rule="evenodd" d="M297.49 168.04L297.59 170.04L301.6 169.84L301.49 167.84L297.49 168.04ZM289.59 170.45L289.49 168.45L293.49 168.25L293.6 170.25L289.59 170.45ZM304.69 172.67L304.49 168.67L306.49 168.56L306.69 172.56L304.69 172.67ZM264.75 174.67L264.95 178.67L266.96 178.57L266.75 174.57L264.75 174.67ZM307.1 180.57L305.1 180.67L304.9 176.67L306.9 176.57L307.1 180.57ZM265.15 182.67L265.36 186.67L267.36 186.56L267.15 182.56L265.15 182.67ZM307.52 188.57L305.51 188.67L305.31 184.67L307.31 184.57L307.52 188.57ZM265.56 190.67L265.76 194.67L267.76 194.56L267.56 190.56L265.56 190.67ZM307.91 196.57L305.92 196.67L305.71 192.67L307.71 192.57L307.91 196.57ZM265.97 198.67L266.17 202.67L268.17 202.56L267.97 198.56L265.97 198.67ZM308.32 204.57L306.32 204.67L306.12 200.67L308.12 200.57L308.32 204.57ZM266.58 210.7L266.38 206.7L268.38 206.59L268.59 210.59L266.58 210.7ZM279.48 209.04L279.58 211.04L283.58 210.84L283.48 208.84L279.48 209.04ZM271.48 209.44L271.58 211.44L275.58 211.23L275.48 209.23L271.48 209.44ZM287.48 208.63L287.58 210.63L291.58 210.43L291.48 208.43L287.48 208.63ZM295.58 210.22L295.48 208.22L299.48 208.02L299.58 210.02L295.58 210.22ZM303.48 207.81L303.58 209.81L307.58 209.6L307.48 207.6L303.48 207.81ZM265.49 169.67L265.59 171.67L269.59 171.47L269.49 169.47L265.49 169.67ZM273.59 171.26L273.49 169.26L277.49 169.05L277.6 171.05L273.59 171.26ZM281.49 168.86L281.59 170.86L285.6 170.65L285.49 168.65L281.49 168.86Z" fill="#707F8F"/>
<path d="M328.75 171.541L368.587 167.943L372.185 207.781L332.347 211.378L328.75 171.541Z" fill="#FFC31D"/>
<path fill-rule="evenodd" clip-rule="evenodd" d="M327.66 170.63L331.44 212.46L373.27 208.68L369.49 166.85L327.66 170.63ZM333.25 210.31L329.83 172.46L367.68 169L371.1 206.89L333.25 210.31Z" fill="#0E2946"/>
<path fill-rule="evenodd" clip-rule="evenodd" d="M426.44 170.66H430.44V168.66H426.44V170.66ZM435.44 173.66H433.44V169.66H435.44V173.66ZM393.44 173.66V177.66H395.44V173.66H393.44ZM435.44 181.66H433.44V177.66H435.44V181.66ZM393.44 181.66V185.66H395.44V181.66H393.44ZM435.44 189.66H433.44V185.66H435.44V189.66ZM393.44 189.66V193.66H395.44V189.66H393.44ZM435.44 197.66H433.44V193.66H435.44V197.66ZM393.44 197.66V201.66H395.44V197.66H393.44ZM435.44 205.66H433.44V201.66H435.44V205.66ZM393.44 205.66V209.66H395.44V205.66H393.44ZM402.44 210.66H398.44V208.66H402.44V210.66ZM406.44 210.66H410.44V208.66H406.44V210.66ZM418.44 210.66H414.44V208.66H418.44V210.66ZM422.44 210.66H426.44V208.66H422.44V210.66ZM430.44 210.66H434.44V208.66H430.44V210.66ZM422.44 170.66H418.44V168.66H422.44V170.66ZM410.44 170.66H414.44V168.66H410.44V170.66ZM406.44 170.66H402.44V168.66H406.44V170.66ZM394.44 170.66H398.44V168.66H394.44V170.66Z" fill="#707F8F"/>
<path d="M461 64.7734L500.967 66.4206L499.319 106.387L459.353 104.74L461 64.7734Z" fill="#EF4C59"/>
<path fill-rule="evenodd" clip-rule="evenodd" d="M458.29 105.67L500.29 107.4L502.02 65.3999L460.02 63.6699L458.29 105.67ZM498.4 105.32L460.4 103.76L461.96 65.7599L499.96 67.3199L498.4 105.32Z" fill="#0E2946"/>
<rect x="460.17" y="117.61" width="40" height="40" fill="white"/>
<path fill-rule="evenodd" clip-rule="evenodd" d="M459.17 158.61H501.17V116.61H459.17V158.61ZM499.17 156.61H461.17V118.61H499.17V156.61Z" fill="#0E2946"/>
<rect x="460.17" y="169.66" width="40" height="40" fill="#FFC31D"/>
<path fill-rule="evenodd" clip-rule="evenodd" d="M459.17 210.66H501.17V168.66H459.17V210.66ZM499.17 208.66H461.17V170.66H499.17V208.66Z" fill="#0E2946"/>
<path d="M169.78 296.88C165.033 292.142 157.347 292.142 152.6 296.88L151.19 295.46C156.721 289.958 165.658 289.958 171.19 295.46L169.78 296.88Z" fill="#476AE3"/>
<path d="M179.78 301C176.03 301.009 172.431 299.522 169.78 296.87L171.2 295.45C173.477 297.727 176.565 299.006 179.785 299.006C183.005 299.006 186.093 297.727 188.37 295.45L189.79 296.87C187.136 299.525 183.533 301.011 179.78 301Z" fill="#476AE3"/>
<path d="M189.79 296.88L188.37 295.46C193.902 289.958 202.839 289.958 208.37 295.46L207 296.88C204.719 294.596 201.623 293.312 198.395 293.312C195.167 293.312 192.071 294.596 189.79 296.88Z" fill="#476AE3"/>
<path d="M217 301C213.25 301.009 209.651 299.522 207 296.87L208.41 295.45C213.157 300.187 220.843 300.187 225.59 295.45L227 296.87C224.35 299.524 220.751 301.011 217 301Z" fill="#476AE3"/>
<path d="M244.15 296.88C239.403 292.142 231.717 292.142 226.97 296.88L225.56 295.46C231.092 289.958 240.029 289.958 245.56 295.46L244.15 296.88Z" fill="#476AE3"/>
<path d="M254.16 301C250.41 301.009 246.811 299.522 244.16 296.87L245.58 295.45C250.327 300.187 258.013 300.187 262.76 295.45L264.17 296.87C261.514 299.521 257.913 301.007 254.16 301Z" fill="#476AE3"/>
<path d="M169.78 312.58C167.503 310.299 164.412 309.018 161.19 309.018C157.967 309.018 154.877 310.299 152.6 312.58L151.19 311.16C156.717 305.647 165.663 305.647 171.19 311.16L169.78 312.58Z" fill="#476AE3"/>
<path d="M179.78 316.71C176.031 316.714 172.433 315.229 169.78 312.58L171.2 311.16C173.477 313.437 176.565 314.716 179.785 314.716C183.005 314.716 186.093 313.437 188.37 311.16L189.79 312.58C187.133 315.23 183.532 316.716 179.78 316.71Z" fill="#476AE3"/>
<path d="M189.79 312.58L188.37 311.16C193.897 305.647 202.843 305.647 208.37 311.16L207 312.58C204.723 310.299 201.633 309.018 198.41 309.018C195.188 309.018 192.097 310.299 189.82 312.58H189.79Z" fill="#476AE3"/>
<path d="M217 316.71C213.251 316.714 209.653 315.229 207 312.58L208.41 311.16C213.157 315.897 220.843 315.897 225.59 311.16L227 312.58C224.348 315.23 220.75 316.716 217 316.71Z" fill="#476AE3"/>
<path d="M244.15 312.58C241.873 310.299 238.783 309.018 235.56 309.018C232.338 309.018 229.247 310.299 226.97 312.58L225.56 311.16C231.087 305.647 240.033 305.647 245.56 311.16L244.15 312.58Z" fill="#476AE3"/>
<path d="M254.16 316.71C250.411 316.713 246.814 315.228 244.16 312.58L245.58 311.16C250.327 315.897 258.013 315.897 262.76 311.16L264.17 312.58C261.514 315.231 257.913 316.717 254.16 316.71Z" fill="#476AE3"/>
<path d="M169.78 328.26C167.503 325.98 164.412 324.699 161.19 324.699C157.967 324.699 154.877 325.98 152.6 328.26L151.19 326.85C153.842 324.197 157.439 322.707 161.19 322.707C164.941 322.707 168.538 324.197 171.19 326.85L169.78 328.26Z" fill="#476AE3"/>
<path d="M179.78 332.4C176.028 332.405 172.43 330.915 169.78 328.26L171.2 326.85C175.945 331.581 183.624 331.581 188.37 326.85L189.79 328.26C187.137 330.918 183.535 332.408 179.78 332.4Z" fill="#476AE3"/>
<path d="M189.79 328.26L188.37 326.85C191.022 324.197 194.619 322.707 198.37 322.707C202.121 322.707 205.718 324.197 208.37 326.85L207 328.26C204.723 325.98 201.633 324.699 198.41 324.699C195.188 324.699 192.097 325.98 189.82 328.26H189.79Z" fill="#476AE3"/>
<path d="M217 332.4C213.249 332.405 209.65 330.915 207 328.26L208.41 326.85C213.159 331.582 220.841 331.582 225.59 326.85L227 328.26C224.351 330.917 220.752 332.408 217 332.4Z" fill="#476AE3"/>
<path d="M244.15 328.26C241.873 325.98 238.783 324.699 235.56 324.699C232.338 324.699 229.247 325.98 226.97 328.26L225.56 326.85C228.212 324.197 231.809 322.707 235.56 322.707C239.311 322.707 242.908 324.197 245.56 326.85L244.15 328.26Z" fill="#476AE3"/>
<path d="M254.16 332.4C250.409 332.405 246.81 330.915 244.16 328.26L245.58 326.85C250.329 331.582 258.011 331.582 262.76 326.85L264.17 328.26C261.518 330.918 257.915 332.408 254.16 332.4Z" fill="#476AE3"/>
<path d="M169.78 343.94C165.031 339.208 157.349 339.208 152.6 343.94L151.19 342.53C156.717 337.017 165.663 337.017 171.19 342.53L169.78 343.94Z" fill="#476AE3"/>
<path d="M179.78 348.09C176.025 348.104 172.422 346.608 169.78 343.94L171.2 342.53C173.475 344.809 176.564 346.09 179.785 346.09C183.006 346.09 186.094 344.809 188.37 342.53L189.79 343.94C187.145 346.611 183.538 348.106 179.78 348.09Z" fill="#476AE3"/>
<path d="M189.79 343.94L188.37 342.53C193.897 337.017 202.843 337.017 208.37 342.53L207 343.94C202.248 339.188 194.543 339.188 189.79 343.94Z" fill="#476AE3"/>
<path d="M217 348.09C213.245 348.104 209.642 346.608 207 343.94L208.41 342.53C210.687 344.81 213.777 346.091 217 346.091C220.223 346.091 223.313 344.81 225.59 342.53L227 343.94C224.358 346.608 220.755 348.104 217 348.09Z" fill="#476AE3"/>
<path d="M244.15 343.94C239.401 339.208 231.719 339.208 226.97 343.94L225.56 342.53C231.087 337.017 240.033 337.017 245.56 342.53L244.15 343.94Z" fill="#476AE3"/>
<path d="M254.16 348.09C250.406 348.098 246.805 346.603 244.16 343.94L245.58 342.53C247.857 344.81 250.948 346.091 254.17 346.091C257.393 346.091 260.483 344.81 262.76 342.53L264.17 343.94C261.526 346.611 257.919 348.106 254.16 348.09Z" fill="#476AE3"/>
<path d="M169.78 359.64C167.503 357.36 164.412 356.078 161.19 356.078C157.967 356.078 154.877 357.36 152.6 359.64L151.19 358.23C153.842 355.577 157.439 354.087 161.19 354.087C164.941 354.087 168.538 355.577 171.19 358.23L169.78 359.64Z" fill="#476AE3"/>
<path d="M179.78 363.78C176.028 363.785 172.43 362.295 169.78 359.64L171.2 358.23C175.945 362.961 183.624 362.961 188.37 358.23L189.79 359.64C187.137 362.298 183.535 363.788 179.78 363.78Z" fill="#476AE3"/>
<path d="M189.79 359.64L188.37 358.23C191.022 355.577 194.619 354.087 198.37 354.087C202.121 354.087 205.718 355.577 208.37 358.23L207 359.64C204.723 357.36 201.633 356.078 198.41 356.078C195.188 356.078 192.097 357.36 189.82 359.64H189.79Z" fill="#476AE3"/>
<path d="M217 363.78C213.249 363.785 209.65 362.295 207 359.64L208.41 358.23C213.159 362.962 220.841 362.962 225.59 358.23L227 359.64C224.351 362.297 220.752 363.787 217 363.78Z" fill="#476AE3"/>
<path d="M244.15 359.64C241.873 357.36 238.783 356.078 235.56 356.078C232.338 356.078 229.247 357.36 226.97 359.64L225.56 358.23C228.212 355.577 231.809 354.087 235.56 354.087C239.311 354.087 242.908 355.577 245.56 358.23L244.15 359.64Z" fill="#476AE3"/>
<path d="M254.16 363.78C250.409 363.785 246.81 362.295 244.16 359.64L245.58 358.23C250.329 362.962 258.011 362.962 262.76 358.23L264.17 359.64C261.518 362.298 257.915 363.788 254.16 363.78Z" fill="#476AE3"/>
<path d="M169.78 375.33C165.033 370.592 157.347 370.592 152.6 375.33L151.19 373.91C156.721 368.408 165.658 368.408 171.19 373.91L169.78 375.33Z" fill="#476AE3"/>
<path d="M179.78 379.47C176.028 379.479 172.427 377.989 169.78 375.33L171.2 373.91C173.475 376.189 176.564 377.47 179.785 377.47C183.006 377.47 186.094 376.189 188.37 373.91L189.79 375.33C187.139 377.99 183.535 379.481 179.78 379.47Z" fill="#476AE3"/>
<path d="M189.79 375.33L188.37 373.91C193.902 368.408 202.839 368.408 208.37 373.91L207 375.33C204.719 373.045 201.623 371.762 198.395 371.762C195.167 371.762 192.071 373.045 189.79 375.33Z" fill="#476AE3"/>
<path d="M217 379.47C213.246 379.486 209.644 377.994 207 375.33L208.41 373.91C210.687 376.19 213.777 377.471 217 377.471C220.223 377.471 223.313 376.19 225.59 373.91L227 375.33C224.356 377.994 220.754 379.486 217 379.47Z" fill="#476AE3"/>
<path d="M244.15 375.33C239.403 370.592 231.717 370.592 226.97 375.33L225.56 373.91C231.092 368.408 240.029 368.408 245.56 373.91L244.15 375.33Z" fill="#476AE3"/>
<path d="M254.16 379.47C250.409 379.476 246.809 377.986 244.16 375.33L245.58 373.91C247.857 376.19 250.948 377.471 254.17 377.471C257.393 377.471 260.483 376.19 262.76 373.91L264.17 375.33C261.524 377.997 257.917 379.489 254.16 379.47Z" fill="#476AE3"/>
<path d="M169.78 390.48C167.503 388.2 164.412 386.919 161.19 386.919C157.967 386.919 154.877 388.2 152.6 390.48L151.19 389.06C156.717 383.547 165.663 383.547 171.19 389.06L169.78 390.48Z" fill="#476AE3"/>
<path d="M179.78 394.61C176.03 394.619 172.431 393.133 169.78 390.48L171.2 389.06C173.477 391.337 176.565 392.617 179.785 392.617C183.005 392.617 186.093 391.337 188.37 389.06L189.79 390.48C187.136 393.135 183.533 394.622 179.78 394.61Z" fill="#476AE3"/>
<path d="M189.79 390.48L188.37 389.06C193.897 383.547 202.843 383.547 208.37 389.06L207 390.48C204.723 388.2 201.633 386.919 198.41 386.919C195.188 386.919 192.097 388.2 189.82 390.48H189.79Z" fill="#476AE3"/>
<path d="M217 394.61C213.25 394.619 209.651 393.133 207 390.48L208.41 389.06C213.157 393.798 220.843 393.798 225.59 389.06L227 390.48C224.35 393.135 220.751 394.621 217 394.61Z" fill="#476AE3"/>
<path d="M244.15 390.48C241.873 388.2 238.783 386.919 235.56 386.919C232.338 386.919 229.247 388.2 226.97 390.48L225.56 389.06C231.087 383.547 240.033 383.547 245.56 389.06L244.15 390.48Z" fill="#476AE3"/>
<path d="M254.16 394.61C250.41 394.619 246.811 393.133 244.16 390.48L245.58 389.06C250.327 393.798 258.013 393.798 262.76 389.06L264.17 390.48C261.517 393.135 257.914 394.622 254.16 394.61Z" fill="#476AE3"/>
<path d="M60 102.54C58.0517 102.524 56.4763 100.948 56.46 99H58.46C58.46 99.8616 59.1584 100.56 60.02 100.56C60.8815 100.56 61.58 99.8616 61.58 99H63.58C63.5747 99.9442 63.1945 100.848 62.5231 101.511C61.8518 102.175 60.9441 102.545 60 102.54Z" fill="#0E2946"/>
<path fill-rule="evenodd" clip-rule="evenodd" d="M51 88.66V99.26H69V88.66C75.4357 84.6439 78.4316 76.8496 76.3428 69.5568C74.254 62.264 67.586 57.2378 60 57.2378C52.4139 57.2378 45.7459 62.264 43.6571 69.5568C41.5683 76.8496 44.5642 84.6439 51 88.66ZM67 87.52V97.26H53L53.01 87.52L52.51 87.23C46.6304 83.8355 43.7639 76.9151 45.5211 70.3573C47.2782 63.7996 53.2209 59.2396 60.01 59.2396C66.7991 59.2396 72.7417 63.7996 74.4989 70.3573C76.256 76.9151 73.3895 83.8355 67.51 87.23L67 87.52Z" fill="#0E2946"/>
<rect x="52.98" y="87.3398" width="14.08" height="2" fill="#0E2946"/>
<path d="M60.9201 82.3799L59.1301 81.4899L62.2401 75.2599H54.5601L59.1301 66.1299L60.9201 67.0199L57.8001 73.2599H65.4801L60.9201 82.3799Z" fill="#EF4C59"/>
<rect x="83.04" y="73" width="8.96" height="2" fill="#0E2946"/>
<rect x="28" y="73" width="8.96" height="2" fill="#0E2946"/>
<rect x="59" y="42" width="2" height="8.96" fill="#0E2946"/>
<path d="M75.5879 91.0088L77.0021 89.5946L83.3378 95.9303L81.9236 97.3445L75.5879 91.0088Z" fill="#0E2946"/>
<path d="M36.667 52.0786L38.0812 50.6644L44.4169 57.0001L43.0027 58.4143L36.667 52.0786Z" fill="#0E2946"/>
<path d="M75.5874 56.9995L81.9231 50.6638L83.3373 52.078L77.0016 58.4137L75.5874 56.9995Z" fill="#0E2946"/>
<path d="M36.6675 95.9209L43.0032 89.5852L44.4174 90.9994L38.0817 97.3351L36.6675 95.9209Z" fill="#0E2946"/>
<path d="M348.94 456.79H359.84V511.33H316.21V456.79H327.12" fill="white"/>
<path d="M360.84 512.33H315.21V455.79H327.12V457.79H317.21V510.33H358.84V457.79H348.94V455.79H360.84V512.33Z" fill="#0E2946"/>
<rect x="327.12" y="451.33" width="21.82" height="10.91" fill="white"/>
<path fill-rule="evenodd" clip-rule="evenodd" d="M326.12 463.24H349.93V450.33H326.12V463.24ZM347.93 461.24H328.12V452.33H347.93V461.24Z" fill="#0E2946"/>
<rect x="327.12" y="474.88" width="21.82" height="2" fill="#0E2946"/>
<rect x="327.12" y="485.79" width="21.82" height="2" fill="#0E2946"/>
<rect x="327.12" y="496.7" width="14.54" height="2" fill="#0E2946"/>
<path d="M111 172.22C111 172.22 170 165.44 198 148.53L208.67 180.29C208.67 180.29 172 223.12 117.67 225.54" fill="#0E2946"/>
<path d="M117.71 226.54L117.62 224.54C168 222.3 203.54 184.54 207.53 180.06L197.45 150.06C182.82 158.53 160.53 164.33 144.2 167.74C126.12 171.51 111.26 173.24 111.11 173.25L110.89 171.25C111.47 171.18 169.99 164.3 197.48 147.7L198.55 147.05L209.8 180.53L209.43 180.96C209.06 181.37 171.85 224.13 117.71 226.54Z" fill="#0E2946"/>
<path d="M244.86 117L257.1 101.79C258.969 99.4691 262.037 98.4791 264.91 99.2697L271.01 100.95L286.01 93.9497C286.584 93.5697 287.358 93.7262 287.74 94.2997C288.072 94.8019 287.991 95.4704 287.55 95.8797L270.18 109.39C269.152 110.375 269.111 112.005 270.09 113.04C270.575 113.549 271.247 113.838 271.95 113.84H282.09C282.643 113.838 283.158 114.12 283.454 114.587C283.751 115.054 283.787 115.64 283.55 116.14C283.388 116.482 283.112 116.758 282.77 116.92L269 123H259.5C259.5 123 243.42 141 232.92 152.5C224.74 161.5 207.59 173.04 207.59 173.04L198.53 150.04L244.86 117Z" fill="white"/>
<path fill-rule="evenodd" clip-rule="evenodd" d="M197.31 149.75L207.12 174.61L208.2 173.89C208.218 173.878 208.247 173.858 208.286 173.831C209.758 172.827 225.762 161.908 233.71 153.19C242.619 143.418 255.697 128.823 259.331 124.766C259.613 124.452 259.838 124.201 260 124.02H269.2L283.2 117.76C283.884 117.443 284.399 116.845 284.611 116.121C284.824 115.398 284.714 114.617 284.31 113.98C283.831 113.223 282.996 112.766 282.1 112.77H271.96C271.532 112.767 271.124 112.59 270.83 112.28C270.255 111.671 270.255 110.719 270.83 110.11L288.27 96.54C289.057 95.7969 289.2 94.5974 288.61 93.69C287.945 92.6757 286.597 92.3705 285.56 93L270.92 99.84L265.18 98.27C261.923 97.3697 258.442 98.4894 256.32 101.12L244.17 116.22L197.31 149.75ZM208.06 171.55L199.75 150.47L245.44 117.8L257.88 102.41C259.501 100.4 262.159 99.5404 264.65 100.22L271.1 102L286.53 94.74L286.66 94.66C286.721 94.637 286.789 94.637 286.85 94.66C286.911 94.6735 286.964 94.7092 287 94.76C287.029 94.8374 287.029 94.9227 287 95L269.54 108.62C268.483 109.629 268.145 111.179 268.686 112.536C269.227 113.893 270.539 114.785 272 114.79H282.16C282.37 114.788 282.566 114.893 282.68 115.07C282.785 115.253 282.785 115.477 282.68 115.66C282.622 115.791 282.519 115.897 282.39 115.96L268.79 122.04H259.05L258.75 122.37C258.59 122.55 242.55 140.49 232.18 151.86C225.32 159.38 211.87 168.9 208.06 171.55Z" fill="#0E2946"/>
<path d="M218.2 181.47L206.82 190.82L204.44 183L193.8 148L199.27 145.26C200.89 144.51 203.76 144.14 204.61 145.75L219.88 174.85C220.951 177.176 220.251 179.936 218.2 181.47Z" fill="white"/>
<path fill-rule="evenodd" clip-rule="evenodd" d="M192.6 147.49L206.3 192.55L218.83 182.24C221.239 180.407 222.046 177.144 220.77 174.4L205.49 145.3C204.33 143.07 200.91 143.38 198.83 144.38L192.6 147.49ZM207.34 189.13L195.01 148.55L199.72 146.26C201.15 145.53 203.28 145.4 203.72 146.26L219 175.36C219.833 177.263 219.235 179.49 217.56 180.72L207.34 189.13Z" fill="#0E2946"/>
<path d="M143.4 157.88C145.658 158.371 147.942 158.738 150.24 158.98C155.833 159.562 161.477 159.407 167.03 158.52C168.343 158.329 169.527 157.625 170.32 156.561C171.113 155.498 171.451 154.163 171.26 152.85L169 138.11L173.47 134.61L162.4 95.1499L116.67 106L115.67 138L124.17 155.61L120.09 170.52C120.09 170.52 119.32 175.36 127.69 175.36C136.06 175.36 145.14 170.82 145.14 170.82L150.23 159" fill="white"/>
<path fill-rule="evenodd" clip-rule="evenodd" d="M120.19 173.8C121.6 175.45 124.11 176.29 127.67 176.29C136.17 176.29 145.19 171.83 145.55 171.65L145.87 171.49L150.87 160.05C156.304 160.559 161.78 160.381 167.17 159.52C168.747 159.292 170.17 158.447 171.123 157.169C172.076 155.891 172.481 154.287 172.25 152.71L170.08 138.55L174.61 135L163.11 94L115.63 105.14L114.63 138.14L123.08 155.63L119.08 170.19V170.3C118.952 171.57 119.353 172.836 120.19 173.8ZM121.74 172.54C121.271 172.021 121.023 171.339 121.05 170.64L125.2 155.44L116.64 137.71L117.64 106.77L161.7 96.34L172.33 134.15L167.93 137.6L170.27 152.91C170.424 153.962 170.153 155.032 169.517 155.884C168.881 156.736 167.932 157.299 166.88 157.45C159.151 158.675 151.262 158.462 143.61 156.82L143.19 158.82C145.03 159.26 146.91 159.58 148.79 159.82L144.35 170.01C142.67 170.79 134.83 174.29 127.67 174.29C124.8 174.29 122.74 173.68 121.74 172.54Z" fill="#0E2946"/>
<path d="M153.89 133.31C153.89 133.31 152.01 128.63 148.7 127.52C140.31 124.69 134.42 129.91 137.96 142.37C141.26 153.96 129.33 154.21 122.85 155.71C119.17 145.24 116.99 143.84 115.13 139.6C110.13 128.24 102.69 109.22 108.77 99.4998C115.55 88.6698 133.41 88.5798 152.58 86.0098C158.58 85.1998 159.24 86.7098 159.24 86.7098L163.32 93.3898L163.83 100.28C160.846 99.6876 157.766 99.7937 154.83 100.59C150.27 102.04 157.77 113.26 158.67 117.33C160.74 126.74 158.15 132.73 158.15 132.73L153.89 133.31Z" fill="#0E2946"/>
<path d="M147 142.3C142.622 142.89 138.594 139.819 138.004 135.441C137.413 131.063 140.484 127.035 144.862 126.443C149.24 125.852 153.268 128.922 153.86 133.3" fill="white"/>
<path d="M146 143.38C141.235 143.412 137.271 139.725 136.958 134.971C136.645 130.216 140.092 126.042 144.82 125.45C149.743 124.793 154.267 128.248 154.93 133.17L152.93 133.44C152.553 130.633 150.522 128.331 147.784 127.606C145.047 126.881 142.143 127.877 140.426 130.129C138.709 132.381 138.518 135.445 139.942 137.893C141.366 140.34 144.124 141.689 146.93 141.31L147.19 143.31C146.796 143.362 146.398 143.385 146 143.38Z" fill="#0E2946"/>
<path d="M148.88 86.48C154.13 85.79 157.31 81.17 159.18 78.22L158.09 85.14C159.426 84.5241 160.653 83.6931 161.72 82.68C163.209 81.2201 164.593 79.6561 165.86 78C165.86 78 167.32 84.36 162.54 88.79C165.2 88.73 171.97 86.43 171.72 80.16C171.72 80.16 180.82 90.96 165.13 96.85C165.13 96.85 171.13 97.56 173.39 95.74C173.39 95.74 172.52 99.82 162.82 100.23" fill="#0E2946"/>
<path d="M196.67 600.96H179.17V578.46L198.67 575.79L196.67 600.96Z" fill="white"/>
<path fill-rule="evenodd" clip-rule="evenodd" d="M178.17 602H197.59L199.76 574.58L178.17 577.58V602ZM195.74 600H180.17V579.38L197.57 577L195.74 600Z" fill="#0E2946"/>
<path d="M63.1699 577.79H82.6699L77.7299 596.93L59.1699 592.96L63.1699 577.79Z" fill="white"/>
<path fill-rule="evenodd" clip-rule="evenodd" d="M57.9302 593.71L78.4602 598.11L84.0002 576.79H62.4002L57.9302 593.71ZM77.0002 595.75L60.4002 592.2L63.9402 578.75H81.3802L77.0002 595.75Z" fill="#0E2946"/>
<path d="M129.21 394.88L160.21 448.88L175.71 586.27L203.71 583.79C203.71 583.79 206.96 476.16 203.71 441.04C200.39 405.18 168.88 322.88 168.88 322.88L115.19 320.48L70.3899 336.81L78.9999 458.46L59.1699 579.84C59.1699 579.84 87.2899 583.17 89.1699 582.84C120.09 489.06 124.57 434.21 129.17 394.84L110.39 362.09L99.1299 360.85" fill="white"/>
<path fill-rule="evenodd" clip-rule="evenodd" d="M159.2 449.2L174.78 587.35L204.67 584.71V583.82C204.67 583.736 204.689 583.023 204.723 581.762C205.128 566.667 207.642 473.048 204.67 440.95C201.38 405.36 170.1 323.35 169.78 322.52L169.55 321.91L115 319.47L69.3398 336.13L78.0498 458.39L58.0498 580.69L59.0498 580.81C63.7698 581.38 87.4098 584.15 89.3398 583.81L89.9298 583.71L90.1198 583.14C118.571 496.838 124.636 443.674 129.066 404.847L129.07 404.81C129.33 402.49 129.59 400.22 129.85 398L159.2 449.2ZM161.14 448.56L130.24 394.67L111.04 361.23L99.2798 359.93L99.0598 361.93L109.81 363.12L128.17 395.12C127.81 398.19 127.45 401.35 127.08 404.62L127.076 404.65C122.667 443.297 116.632 496.182 88.4298 581.89C85.1398 581.81 70.3198 580.17 60.3198 579L79.9998 458.62V458.5L71.4598 337.49L115.32 321.49L168.16 323.85C171.04 331.46 199.57 407.44 202.69 441.13C205.69 474.1 202.99 572.45 202.69 582.87L176.55 585.19L161.14 448.56Z" fill="#0E2946"/>
<path d="M158.24 364.54L156.55 363.48C166.78 347.13 163.99 331.48 163.96 331.38L165.96 331.01C166.05 331.67 168.89 347.54 158.24 364.54Z" fill="#0E2946"/>
<path d="M167.38 451.81C164.689 451.727 162.053 451.022 159.68 449.75L160.68 448.01C160.75 448.01 166.85 451.39 171.28 448.86L172.28 450.6C170.781 451.425 169.091 451.843 167.38 451.81Z" fill="#0E2946"/>
<path d="M165.8 455.53C162.377 455.075 159.671 452.406 159.17 448.99L161.17 448.77C161.569 451.308 163.616 453.266 166.17 453.55L165.8 455.53Z" fill="#0E2946"/>
<path d="M58.8301 589.54C66.1001 587.23 68.2901 593.66 74.0401 593.66C79.7901 593.66 80.8301 589.29 80.8301 589.29C80.8301 589.29 85.4201 596.98 97.3601 597.54H99.6301C102.63 597.54 105.19 600.45 106.09 603.26L106.58 604.79C102.873 605.978 99.0467 606.76 95.1701 607.12C87.1701 607.87 80.1701 608.39 75.9601 609.46C60.9601 613.29 56.3301 608.79 56.3301 608.79V597.66C56.3301 592.29 57.4001 590 58.8301 589.54Z" fill="#0E2946"/>
<path fill-rule="evenodd" clip-rule="evenodd" d="M55.6313 609.501C55.7931 609.652 58.3078 612 65.1601 612C68.881 611.935 72.5793 611.407 76.1701 610.43C79.7301 609.53 85.3401 609.02 91.8301 608.43L95.2201 608.12C99.1798 607.756 103.087 606.955 106.87 605.73L107.79 605.41L107 602.95C106.01 599.84 103.07 596.54 99.5901 596.54H97.3701C86.1501 596.01 81.8301 589.07 81.6501 588.78L80.3901 586.66L79.8201 589.06C79.8199 589.06 79.8194 589.062 79.8187 589.065C79.7764 589.216 78.8129 592.66 74.0001 592.66C71.8701 592.66 70.2501 591.63 68.5301 590.53C66.0501 588.93 63.1901 587.1 58.5301 588.59C56.3801 589.27 55.3301 592.24 55.3301 597.66V609.21L55.6301 609.5L55.6313 609.501ZM75.7201 608.5C63.5801 611.58 58.5401 609.08 57.3301 608.29V597.67C57.3301 592.81 58.2601 590.78 59.1401 590.5C62.8994 589.3 65.0294 590.659 67.4888 592.229L67.4901 592.23L67.4963 592.234C69.3844 593.432 71.3331 594.67 74.0401 594.67C76.8143 594.837 79.4725 593.535 81.0401 591.24C83.0601 593.61 88.0801 598.11 97.3601 598.55H99.6601C102.1 598.55 104.38 601.08 105.17 603.55L105.35 604.13C102.004 605.117 98.5721 605.787 95.1001 606.13L91.7201 606.44C91.2403 606.483 90.7655 606.526 90.296 606.568C84.296 607.109 79.1608 607.572 75.7201 608.5Z" fill="#0E2946"/>
<path d="M106.58 604.79C102.873 605.978 99.0467 606.76 95.1701 607.12C87.1701 607.87 80.1701 608.39 75.9601 609.46C60.9601 613.29 56.3301 608.79 56.3301 608.79H55.3301V612.79C55.3301 612.79 59.1701 618.12 75.9601 613.46C80.1601 612.3 87.2801 611.87 95.8301 610.84C100.179 610.296 104.455 609.273 108.58 607.79L107.58 604.79L106.58 604.79Z" fill="white"/>
<path fill-rule="evenodd" clip-rule="evenodd" d="M54.48 613.36C54.6 613.54 56.74 616.36 64 616.36C68.1384 616.261 72.2449 615.608 76.21 614.42C80.3156 613.526 84.4794 612.924 88.67 612.62C90.93 612.39 93.37 612.13 95.93 611.83C100.366 611.276 104.726 610.229 108.93 608.71L109.82 608.37L108.29 603.78H106.4L106.24 603.83C102.607 604.993 98.8583 605.761 95.06 606.12L91.68 606.43C91.2003 606.473 90.7255 606.516 90.256 606.558C84.256 607.099 79.1208 607.562 75.68 608.49C61.54 612.06 56.99 608.06 56.99 608.06L56.7 607.78H54.29V613.1L54.48 613.36ZM75.66 612.47C61.85 616.3 57.22 613.18 56.29 612.36V610C58.17 611.16 63.75 613.56 76.17 610.4C79.73 609.5 85.34 608.99 91.83 608.4L95.22 608.09C99.1217 607.722 102.973 606.941 106.71 605.76H106.82L107.28 607.14C103.509 608.419 99.6199 609.317 95.67 609.82C93.12 610.13 90.7 610.38 88.44 610.61L88.3521 610.619C82.9434 611.185 78.6439 611.634 75.66 612.47Z" fill="#0E2946"/>
<path d="M86.1899 596.89L84.3599 596.09C84.7261 595.2 84.8031 594.217 84.5799 593.28C84.2748 592.396 83.6745 591.644 82.8799 591.15L83.7999 589.37C85.0443 590.099 85.9877 591.248 86.4599 592.61C86.8615 594.026 86.7662 595.536 86.1899 596.89Z" fill="white"/>
<path d="M89.8901 599.44L88.0601 598.63C88.4384 597.75 88.5192 596.77 88.2901 595.84C88.1237 595.378 87.884 594.946 87.5801 594.56L89.1401 593.31C89.5703 593.869 89.9079 594.494 90.1401 595.16C90.5456 596.574 90.4574 598.083 89.8901 599.44Z" fill="white"/>
<path d="M94.4599 600.38L92.6299 599.58C93.0022 598.691 93.0794 597.706 92.8499 596.77C92.7982 596.622 92.7347 596.478 92.6599 596.34L94.4299 595.4C94.5455 595.626 94.6457 595.86 94.7299 596.1C95.1251 597.516 95.0299 599.024 94.4599 600.38Z" fill="white"/>
<path d="M169.24 258.36C169.459 277.13 170.861 295.867 173.44 314.46C174.5 321.61 170.44 325.46 150 323.74L155.67 270.62L169.51 258.29" fill="white"/>
<path fill-rule="evenodd" clip-rule="evenodd" d="M149.91 324.73C153.21 325.02 156.13 325.16 158.69 325.16C166 325.16 170.45 324 172.74 321.6C174.38 319.87 174.92 317.56 174.44 314.35C171.877 295.789 170.477 277.086 170.25 258.35H169.58L168.85 257.54L154.72 270.13L148.91 324.65L149.91 324.73ZM171.28 320.19C168.79 322.83 162.19 323.7 151.1 322.83L156.62 271.11L168.26 260.74C168.583 278.761 169.982 296.746 172.45 314.6C172.83 317.19 172.46 318.94 171.28 320.19Z" fill="#0E2946"/>
<path d="M254.7 237.34C254.7 237.34 266.91 229.66 268.96 229.12H278.29C278.661 229.13 278.979 229.388 279.065 229.748C279.152 230.109 278.986 230.483 278.66 230.66L271.73 233.13C271.079 233.461 270.67 234.13 270.67 234.86C270.67 235.926 271.534 236.79 272.6 236.79H290.06C290.612 236.693 291.138 237.063 291.235 237.615C291.332 238.167 290.962 238.693 290.41 238.79L274.89 244.1L262.67 248.34C262.67 248.34 239.88 259.55 229.54 262.96C223.698 264.951 217.666 266.335 211.54 267.09L204.71 242.84L255.21 237.34" fill="white"/>
<path fill-rule="evenodd" clip-rule="evenodd" d="M203.38 241.92L210.76 268.11L211.59 268C217.808 267.271 223.932 265.886 229.86 263.87C239.98 260.52 261.52 249.97 263.05 249.22L275.21 245L290.78 239.66C291.712 239.338 292.27 238.385 292.096 237.415C291.921 236.445 291.065 235.747 290.08 235.77H272.62C272.197 235.771 271.826 235.487 271.718 235.078C271.61 234.668 271.791 234.238 272.16 234.03L279.01 231.58H279.13C279.884 231.204 280.279 230.358 280.083 229.539C279.887 228.72 279.152 228.144 278.31 228.15H268.98H268.73C266.702 228.684 256.538 235.024 254.444 236.33L254.38 236.37L203.38 241.92ZM212.28 265.95L206 243.65L255.26 238.27V238.16C259.83 235.34 267.47 230.71 269.11 230.16H277.19L271.4 232.23L271.29 232.28C270.075 232.888 269.438 234.251 269.75 235.573C270.062 236.895 271.242 237.829 272.6 237.83H290.14L274.61 243.14L262.39 247.38H262.28C262.271 247.384 262.233 247.403 262.165 247.436C260.403 248.297 239.057 258.723 229.28 261.95C223.749 263.805 218.058 265.144 212.28 265.95Z" fill="#0E2946"/>
<path d="M247.67 237.87C247.67 237.87 250.67 241.18 251.5 243.48C252.067 245.3 252.36 247.194 252.37 249.1" fill="white"/>
<path d="M251.37 249.1C251.36 247.316 251.087 245.544 250.56 243.84C249.77 241.74 246.95 238.57 246.92 238.54L248.41 237.2C248.54 237.34 251.51 240.68 252.41 243.13C253.022 245.071 253.335 247.094 253.34 249.13L251.37 249.1Z" fill="#0E2946"/>
<path d="M254.25 237.87C254.25 237.87 257.25 241.18 258.08 243.48C258.647 245.3 258.94 247.194 258.95 249.1" fill="white"/>
<path d="M258 249.1C257.991 247.317 257.721 245.545 257.2 243.84C256.4 241.74 253.58 238.57 253.55 238.54L255.05 237.2C255.17 237.34 258.14 240.68 259.05 243.13C259.662 245.071 259.975 247.094 259.98 249.13L258 249.1Z" fill="#0E2946"/>
<ellipse cx="255.87" cy="251.143" rx="5.38" ry="3.88" transform="rotate(-25.15 255.87 251.143)" fill="#FFC31D"/>
<path fill-rule="evenodd" clip-rule="evenodd" d="M250.09 253.85C250.985 255.491 252.755 256.46 254.62 256.33C255.77 256.319 256.903 256.056 257.94 255.56C259.363 254.917 260.551 253.847 261.34 252.5C262.098 251.276 262.206 249.759 261.63 248.44C260.49 246 256.97 245.24 253.79 246.73C250.61 248.22 248.95 251.42 250.09 253.85ZM254.64 248.54C255.418 248.168 256.268 247.97 257.13 247.96V248C258.2 247.877 259.246 248.378 259.82 249.29C260.113 250.029 260.027 250.865 259.59 251.53C259.009 252.513 258.135 253.289 257.09 253.75C254.9 254.76 252.56 254.41 251.9 253C251.24 251.59 252.49 249.54 254.64 248.54Z" fill="#0E2946"/>
<path d="M101.11 344.94C123.19 355.37 152.11 357.99 152.11 357.99C152.11 357.99 147 328.11 159 294.28C165.34 276.4 169.69 257.86 169.69 257.86C172.734 263.698 176.424 269.175 180.69 274.19C184.62 278.61 188.78 281.61 192.96 282.03C196.527 282.195 200.093 281.7 203.48 280.57L204.71 242.78C204.71 242.78 186.55 185.78 171.21 177.28C154.29 167.9 134.98 171.71 125.98 172.04C116.98 172.37 120.21 166.92 120.21 166.92C120.21 166.92 97.9399 166.92 89.1199 198.08C84.3999 214.7 81.9499 238.2 73.4399 270.08C64.8099 302.42 53.1499 322.58 49.8799 336.29C44.8199 357.47 70.8799 355.16 70.8799 355.16L69.3999 337C77.3599 336 88.7599 339.11 101.11 344.94Z" fill="#0E2946"/>
<path d="M57.1802 347L55.4902 345.93C59.3002 339.98 64.1302 336.68 70.2502 335.82L70.5202 337.82C65.0002 338.56 60.6502 341.57 57.1802 347Z" fill="white"/>
<path d="M153.37 359.11L152.05 358.99C151.76 358.99 122.67 356.24 100.67 345.85C76.7402 334.55 64.9502 334.85 57.1802 346.99L55.4902 345.92C65.1702 330.82 80.2802 334.01 101.49 344.04C120.55 353.04 145.09 356.22 150.91 356.87C150.07 350.87 147.41 325.18 158.01 293.97C163.95 276.47 168.45 258.23 168.5 258.05L170.44 258.53C170.44 258.71 165.88 277.04 159.91 294.61C148 329.66 153.03 357.54 153.08 357.81L153.37 359.11Z" fill="#0E2946"/>
<path d="M149.52 171.21C140.82 172.85 133.95 177.56 124.29 177.04C115.88 176.59 115.48 171.59 116.76 167.36C117.88 167.106 119.022 166.959 120.17 166.92C120.17 166.92 116.94 172.38 125.94 172.05C131.16 171.85 139.85 170.49 149.52 171.21Z" fill="white"/>
<path d="M68.5801 356.24C64.4401 356.24 55.8501 355.54 51.2201 350.18C48.2201 346.72 47.4401 341.97 48.8601 336.06C50.2801 330.15 53.0001 323.57 56.5101 315.06C61.3601 303.29 67.4001 288.65 72.4301 269.81C77.1501 252.1 79.9601 237.26 82.4301 224.17C84.3501 214 86.0101 205.17 88.1101 197.8C92.7701 181.37 101.19 173.58 107.43 169.93C111.283 167.568 115.659 166.194 120.17 165.93H121.92L121.03 167.44C121.03 167.44 120.25 168.85 120.81 169.78C121.37 170.71 123.17 171.16 125.9 171.06C127.37 171 129.12 170.86 131.15 170.68C141.56 169.8 157.28 168.46 171.65 176.42C187.15 185.02 204.87 240.15 205.65 242.49L203.74 243.1C203.56 242.54 185.52 186.38 170.74 178.17C156.91 170.5 141.54 171.81 131.38 172.68C129.38 172.85 127.55 173 126.03 173.06C122.43 173.19 120.12 172.43 119.14 170.79C118.677 169.952 118.541 168.972 118.76 168.04C113.76 168.63 97.4101 172.56 90.0901 198.37C88.0201 205.69 86.3601 214.44 84.4501 224.57C81.9701 237.69 79.1701 252.57 74.4501 270.35C69.3901 289.35 63.3201 304.02 58.4501 315.84C54.9801 324.26 52.2301 330.91 50.8901 336.53C49.6401 341.78 50.2901 345.94 52.8201 348.88C58.2701 355.19 70.7101 354.18 70.8201 354.17L70.9901 356.17C70.7901 356.17 69.9101 356.24 68.5801 356.24Z" fill="#0E2946"/>
<path d="M125.2 173.07C122.04 173.07 119.99 172.3 119.09 170.79C117.91 168.79 119.25 166.51 119.31 166.41L121.03 167.41C121.03 167.41 120.25 168.82 120.81 169.75C121.37 170.68 123.18 171.13 125.9 171.03C127.36 170.98 129.1 170.83 131.11 170.66C137.247 169.997 143.428 169.84 149.59 170.19L149.44 172.19C143.384 171.848 137.311 172.002 131.28 172.65C129.28 172.82 127.49 172.97 125.98 173.03L125.2 173.07Z" fill="#0E2946"/>
<path d="M125.75 178.08C125.25 178.08 124.75 178.08 124.24 178.08C120.44 177.87 117.79 176.74 116.38 174.73C114.97 172.72 114.85 170.26 115.8 167.11L117.71 167.69C116.95 170.22 117.05 172.2 118.01 173.58C118.97 174.96 121.19 175.91 124.35 176.08C130.16 176.39 134.81 174.75 139.73 173.01C142.776 171.856 145.905 170.933 149.09 170.25L149.47 172.25C146.381 172.905 143.349 173.801 140.4 174.93C135.91 176.44 131.29 178.08 125.75 178.08Z" fill="#0E2946"/>
<path d="M194.45 283.11C193.906 283.115 193.362 283.088 192.82 283.03C173.48 281.03 155.48 228.11 154.72 225.86L156.61 225.22C156.8 225.76 174.96 279.22 193.02 281.04C195.6 281.31 199.02 280.82 203.16 279.61L203.72 281.53C200.718 282.482 197.598 283.014 194.45 283.11Z" fill="#0E2946"/>
<path d="M155.25 233.79C153.148 233.842 151.103 233.104 149.52 231.72L150.94 230.31C151.04 230.4 153.44 232.69 157.94 231.38L158.5 233.3C157.446 233.621 156.351 233.786 155.25 233.79Z" fill="#465B72"/>
<path d="M170.29 261C162.44 247.3 154.8 226.1 154.73 225.89L156.61 225.21C156.68 225.42 164.26 246.46 172.02 260L170.29 261Z" fill="#465B72"/>
<path d="M117.39 320.94L120.75 317.13C122.18 315.51 126.03 310.72 126.75 308.05L128.69 308.53C127.949 310.675 126.858 312.682 125.46 314.47C139.35 305.83 144.19 293.57 144.24 293.47L146.11 294.19C145.86 294.82 139.97 309.82 121.99 318.72L117.39 320.94Z" fill="#0E2946"/>
<path d="M204.59 285.27L189.92 286.79L203.92 235.96L207.21 240.37L209.79 239.57C210.716 239.283 211.724 239.48 212.474 240.093C213.224 240.707 213.617 241.656 213.52 242.62L209.74 280.15C209.458 282.864 207.305 285.004 204.59 285.27Z" fill="white"/>
<path fill-rule="evenodd" clip-rule="evenodd" d="M203.45 233.72L188.57 287.93L204.68 286.25C207.846 285.918 210.348 283.416 210.68 280.25L214.46 242.72C214.591 241.426 214.065 240.153 213.06 239.328C212.054 238.504 210.703 238.238 209.46 238.62L207.55 239.21L203.45 233.72ZM191.3 285.64L204.3 238.19L206.82 241.52L210.08 240.52C210.685 240.33 211.346 240.459 211.836 240.862C212.326 241.266 212.579 241.889 212.51 242.52L208.73 280.05C208.497 282.273 206.743 284.032 204.52 284.27L191.3 285.64Z" fill="#0E2946"/>
<path d="M203.999 259.163L206.164 240.247L208.151 240.474L205.986 259.391L203.999 259.163Z" fill="#0E2946"/>
<path d="M177.67 594.54C177.67 594.54 182.04 598.54 187.79 598.54C193.54 598.54 198.67 594.29 198.67 594.29L215 605.37C218.358 607.442 222.225 608.539 226.17 608.54H228.43C231.38 608.54 234 611.45 234.9 614.26L235.39 615.79L175.14 614.79V602.66C175.17 597.29 177.67 594.54 177.67 594.54Z" fill="#0E2946"/>
<path fill-rule="evenodd" clip-rule="evenodd" d="M174.17 615.81L236.79 616.81L235.9 613.98C234.9 610.87 231.97 607.57 228.48 607.57H226.22C222.474 607.57 218.801 606.531 215.61 604.57L198.61 593.06L198.03 593.54C198.025 593.54 197.983 593.572 197.905 593.629C197.104 594.219 192.592 597.54 187.79 597.54C182.52 597.54 178.34 593.8 178.34 593.8L177.6 593.13L176.93 593.87C176.81 593.99 174.17 596.97 174.17 602.66V615.81ZM234.04 614.81L176.17 613.81V602.64C176.114 600.303 176.702 597.995 177.87 595.97C180.724 598.161 184.194 599.402 187.79 599.52C192.7 599.52 197.13 596.67 198.7 595.52L214.51 606.29C218.026 608.453 222.072 609.599 226.2 609.6H228.46C230.91 609.6 233.18 612.13 233.97 614.6L234.04 614.81Z" fill="#0E2946"/>
<path d="M174.17 614.79L236.42 615.79L237.42 618.79H174.17V614.79Z" fill="white"/>
<path fill-rule="evenodd" clip-rule="evenodd" d="M173.17 619.79H238.8L237.17 614.79L173.17 613.79V619.79ZM236 617.79H175.17L175.14 615.79L235.66 616.79L236 617.79Z" fill="#0E2946"/>
<path d="M199.054 600.495L205.055 595.98L206.258 597.578L200.257 602.093L199.054 600.495Z" fill="white"/>
<path d="M202.807 603.693L208.808 599.178L210.01 600.776L204.009 605.291L202.807 603.693Z" fill="white"/>
<path d="M207.058 606.611L213.059 602.096L214.262 603.694L208.261 608.209L207.058 606.611Z" fill="white"/>
<path d="M539.34 98.8499C530.64 101.29 523.42 105.04 518.34 116.62C513.79 127 527.68 138.96 518.34 150.62C509 162.28 487.34 169.62 484.17 182.12C472.78 227.07 497.17 232.45 516.84 236.04C536.51 239.63 557.66 238.76 564.67 224.86C571.68 210.96 586.52 115.46 586.45 104.69C586.34 87.6299 551.42 95.4699 539.34 98.8499Z" fill="#0E2946"/>
<path fill-rule="evenodd" clip-rule="evenodd" d="M516.65 237C522.772 238.179 528.986 238.808 535.22 238.88C555.21 238.88 562.74 230.89 565.6 225.33C572.79 211.06 587.55 114.33 587.49 104.71C587.591 101.535 586.131 98.5126 583.58 96.6197C573.56 89.0697 547.02 95.6997 539.12 97.9097C529.81 100.52 522.56 104.63 517.47 116.24C515.33 121.12 516.96 126.29 518.55 131.29L518.58 131.387C520.569 137.821 522.446 143.89 517.55 150.02C513.846 154.65 508.013 158.644 502.312 162.547C502.164 162.648 502.017 162.749 501.87 162.85C493.26 168.67 485.12 174.2 483.19 181.85C478.71 199.52 479.32 212.45 485.05 221.37C492.236 232.544 506.335 235.117 516.633 236.997L516.65 237ZM519.25 117.02C524.04 106.1 530.61 102.34 539.61 99.8197C555.42 95.3897 574.95 92.6397 582.32 98.1997C584.376 99.7132 585.545 102.149 585.44 104.7C585.5 114.26 570.89 210.28 563.77 224.41C560.46 230.96 550.01 241.05 517.01 235.05L517.01 235.05C507.07 233.24 493.45 230.76 486.73 220.31C481.32 211.88 480.79 199.47 485.13 182.36C486.88 175.49 494.7 170.12 502.99 164.49L503.009 164.477C508.973 160.421 515.114 156.244 519.11 151.25C524.677 144.289 522.419 137.101 520.425 130.75L520.4 130.67C518.86 125.81 517.41 121.21 519.25 117.02Z" fill="#0E2946"/>
<path d="M559.35 181.4L557.42 170V162C557.42 162 578.25 159.5 578.33 159.75C578.111 163.358 578.141 166.976 578.42 170.58C578.77 173.805 579.44 176.987 580.42 180.08L559.35 181.4Z" fill="white"/>
<path fill-rule="evenodd" clip-rule="evenodd" d="M556.42 170L558.52 182.45L581.82 180.88L581.4 179.64C580.429 176.623 579.759 173.518 579.4 170.37C579.121 167.043 579.087 163.701 579.3 160.37C579.37 159.57 579.37 159.52 579.3 159.32L579.3 159.319C578.94 158.3 578.937 158.29 557.3 160.89L556.42 161V170ZM560.19 180.34L558.42 169.95V162.84C564.91 162.07 574.29 160.99 577.29 160.74C577.091 164.042 577.134 167.354 577.42 170.65C577.741 173.518 578.313 176.352 579.13 179.12L560.19 180.34Z" fill="#0E2946"/>
<path d="M560.18 168.73C557.961 169.377 555.707 169.901 553.43 170.3C550.783 170.706 548.108 170.896 545.43 170.87C541.972 170.856 538.914 168.621 537.85 165.33L533.19 150.82L528.49 147.64L536.74 107.49L583.13 115.05L586.4 146.86C586.4 146.86 579.82 161.3 579.2 165C577.29 176.6 584.8 181.54 584.8 181.54" fill="white"/>
<path d="M584.25 182.4C583.92 182.18 576.25 176.96 578.25 164.86C578.84 161.28 584.54 148.69 585.45 146.69L582.28 115.92L537.59 108.63L529.67 147.19L534.11 150.19L538.85 165C539.757 167.883 542.428 169.846 545.45 169.85C548.057 169.879 550.663 169.695 553.24 169.3C555.479 168.898 557.695 168.381 559.88 167.75L560.44 169.67C558.183 170.324 555.893 170.858 553.58 171.27C550.894 171.686 548.178 171.88 545.46 171.85C541.565 171.851 538.12 169.325 536.95 165.61L532.4 151.43L527.4 148.08L536 106.35L584.09 114.19L587.46 147L587.35 147.25C585.08 152.2 580.66 162.32 580.19 165.16C578.41 175.93 585.07 180.51 585.35 180.7L584.25 182.4Z" fill="#0E2946"/>
<path d="M557.94 144.25C557.94 144.25 559.49 139.45 562.71 138.11C570.88 134.7 574.55 146.04 575.79 149.54C578.02 155.85 578.06 158.69 578.67 167.54C585.57 156.68 592.29 149.07 594.29 137.91C596.48 125.71 597.29 117.3 590.59 108.04C583.06 97.7198 565.24 98.8998 545.93 97.6798C539.86 97.2998 539.34 101.85 539.34 101.85L535.74 105.85L530.17 123.85C530.17 123.85 535.51 114.85 544.35 114.47C554.02 114.03 552.35 124.82 552.09 128.7C551.36 138.32 556.23 144.13 556.23 144.13L557.94 144.25Z" fill="#0E2946"/>
<path d="M565.42 152.74C569.829 153.018 573.629 149.67 573.908 145.26C574.187 140.851 570.838 137.051 566.429 136.772C562.02 136.493 558.219 139.841 557.94 144.25" fill="white"/>
<path d="M565.94 153.75C565.747 153.76 565.553 153.76 565.36 153.75L565.49 151.75C569.347 151.989 572.669 149.057 572.91 145.2C573.149 141.342 570.217 138.021 566.36 137.78C562.506 137.54 559.186 140.467 558.94 144.32L556.94 144.2C557.245 139.314 561.399 135.567 566.29 135.767C571.182 135.967 575.016 140.04 574.921 144.935C574.826 149.83 570.835 153.75 565.94 153.76V153.75Z" fill="#0E2946"/>
<path d="M512.92 603.84H495.42L504.42 581.34L523.92 578.67L512.92 603.84Z" fill="white"/>
<path fill-rule="evenodd" clip-rule="evenodd" d="M493.94 604.84H513.57L525.55 577.43L503.7 580.43L493.94 604.84ZM512.26 602.84H496.89L505.1 582.25L522.26 579.91L512.26 602.84Z" fill="#0E2946"/>
<path d="M517.42 597.54C517.42 597.54 513.04 601.54 507.29 601.54C501.54 601.54 496.42 597.29 496.42 597.29L480.05 608.37C476.696 610.44 472.832 611.538 468.89 611.54H466.62C463.67 611.54 461.06 614.45 460.16 617.26L459.67 618.79L519.92 617.79V605.66C519.92 600.29 517.42 597.54 517.42 597.54Z" fill="#0E2946"/>
<path fill-rule="evenodd" clip-rule="evenodd" d="M459.2 616.95L458.29 619.81L520.97 618.77V605.66C520.97 599.97 518.32 596.99 518.21 596.87L517.53 596.13L516.79 596.8C516.75 596.84 512.65 600.54 507.34 600.54C502.5 600.54 498.017 597.216 497.224 596.628C497.147 596.571 497.104 596.54 497.1 596.54L496.53 596.06L479.53 607.54C476.331 609.509 472.646 610.547 468.89 610.54H466.62C463.14 610.54 460.2 613.84 459.2 616.95ZM461.11 617.54C461.9 615.09 464.18 612.54 466.62 612.54H468.89C473.031 612.538 477.09 611.381 480.61 609.2L496.38 598.54C497.95 599.67 502.36 602.54 507.29 602.54C510.889 602.42 514.361 601.179 517.22 598.99C518.383 601.017 518.97 603.323 518.92 605.66V616.75L461.04 617.75L461.11 617.54Z" fill="#0E2946"/>
<path d="M486.21 278.91L543.9 261.37L571.13 196.26L589.49 206.26C589.49 206.26 563.49 268.26 558.24 273.76C552.99 279.26 547.24 280.93 531.67 284.35C516.1 287.77 490.34 289.1 490.34 289.1L483.68 300.43L472.43 305.53C471.43 306 461.03 300.91 461.82 300.11L476.17 287.76" fill="white"/>
<path d="M472.29 306.59C471.61 306.59 470.18 306.24 466.72 304.59C465.27 303.89 461.81 302.14 461.04 301.04C460.665 300.565 460.699 299.885 461.12 299.45L475.52 287L476.82 288.51L463.17 300.3C464.99 301.63 470.82 304.45 472.17 304.58L482.99 299.68L489.76 288.16H490.3C490.56 288.16 516.17 286.8 531.46 283.43C547.02 280.01 552.46 278.43 557.53 273.13C561.53 268.91 579.15 228.36 588.23 206.76L571.63 197.7L544.63 262.22L486.5 279.86L485.92 277.95L543.16 260.55L570.63 194.85L590.76 205.85L590.41 206.69C589.35 209.22 564.29 268.88 558.97 274.49C553.65 280.1 547.58 281.91 531.88 285.37C517.67 288.5 494.73 289.89 490.93 290.11L484.39 301.25L472.85 306.48C472.675 306.561 472.483 306.598 472.29 306.59Z" fill="#0E2946"/>
<path d="M435.213 290.581L470.427 275.8L485.208 311.014L449.994 325.795L435.213 290.581Z" fill="#FFC31D"/>
<path fill-rule="evenodd" clip-rule="evenodd" d="M433.91 290L449.47 327.06L486.56 311.51L471 274.45L433.91 290ZM450.53 324.43L436.53 291.06L469.9 277.05L483.9 310.43L450.53 324.43Z" fill="#0E2946"/>
<path d="M485.44 286.79C482.918 289.309 478.832 289.309 476.31 286.79L468.62 291.38C468.086 291.701 467.403 291.627 466.95 291.2C466.435 290.716 466.358 289.924 466.77 289.35L471.88 282.35L486.21 278.88" fill="white"/>
<path d="M467.91 292.58C467.005 292.582 466.175 292.074 465.765 291.266C465.355 290.459 465.434 289.49 465.97 288.76L471.29 281.49L486 277.93L486.47 279.88L472.47 283.27L467.58 289.94C467.46 290.103 467.481 290.331 467.63 290.47C467.773 290.573 467.967 290.573 468.11 290.47L476.47 285.47L477.02 286.02C479.152 288.151 482.608 288.151 484.74 286.02L486.15 287.43C483.452 290.159 479.121 290.388 476.15 287.96L469.1 292.18C468.744 292.413 468.334 292.551 467.91 292.58Z" fill="#0E2946"/>
<path d="M606.08 261.13L615.46 277.53C615.46 277.53 602.93 284.12 594.25 286.46C585.57 288.8 576.49 285.69 576.49 285.69L573 268.81L606.08 261.13Z" fill="white"/>
<path fill-rule="evenodd" clip-rule="evenodd" d="M576.2 286.63C579.76 287.747 583.469 288.32 587.2 288.33C589.666 288.348 592.124 288.042 594.51 287.42C603.2 285.1 615.41 278.7 615.92 278.42L616.84 277.94L606.58 260L571.9 268.06L575.65 286.45L576.2 286.63ZM593.99 285.49C586.89 287.4 579.35 285.5 577.35 284.91L574.22 269.56L605.58 262.27L614.07 277.12C610.99 278.67 601.09 283.58 593.99 285.49Z" fill="#0E2946"/>
<path d="M555.43 187.4L584.8 181.56C584.8 181.56 605.28 188.37 605.46 211.67C605.6 230.49 604.9 247.67 606.16 261.92C601.427 265.445 596.033 267.982 590.3 269.38C584.293 270.907 577.966 270.594 572.14 268.48C572.14 268.48 562.85 252.48 558.62 246.11C554.39 239.74 548.26 242.31 544.38 231.4C540.5 220.49 555.43 187.4 555.43 187.4Z" fill="white"/>
<path fill-rule="evenodd" clip-rule="evenodd" d="M571.71 269.4C575.224 270.724 578.955 271.382 582.71 271.34C585.354 271.321 587.984 270.968 590.54 270.29C596.419 268.863 601.948 266.257 606.79 262.63L607.19 262.29L607.14 261.77C606.284 251.931 606.349 240.556 606.419 228.512L606.42 228.36V211.6C606.24 187.91 585.29 180.67 585.07 180.6L584.82 180.52L554.69 186.52L554.48 186.99C553.86 188.36 539.39 220.57 543.39 231.74C545.816 238.543 549.262 240.473 552.243 242.141L552.33 242.19C554.499 243.181 556.368 244.726 557.75 246.67C561.91 252.9 571.14 268.82 571.23 268.98L571.4 269.27L571.71 269.4ZM590.05 268.41C584.359 269.832 578.378 269.575 572.83 267.67C571.52 265.42 563.33 251.36 559.41 245.56C557.858 243.343 555.746 241.577 553.29 240.44C550.29 238.78 547.48 237.22 545.29 231.06C541.83 221.34 554.32 192.33 556.11 188.28L584.7 182.6C596.726 187.194 604.606 198.807 604.43 211.68C604.477 215.52 604.461 219.302 604.445 223.005C604.438 224.827 604.43 226.629 604.43 228.41L604.429 228.552C604.359 240.38 604.293 251.609 605.11 261.41C600.572 264.665 595.464 267.039 590.05 268.41Z" fill="#0E2946"/>
<path d="M582.8 322.5L497.65 590.62H520.6L623.58 352.55" fill="#0E2946"/>
<path d="M521.25 591.62H496.29L581.84 322.2L583.75 322.81L499.02 589.62H519.94L622.67 352.15L624.5 352.95L521.25 591.62Z" fill="#0E2946"/>
<path d="M669.11 580.25L657.74 590.62L640.83 572.71L652.73 560.04L669.11 580.25Z" fill="white"/>
<path fill-rule="evenodd" clip-rule="evenodd" d="M639.45 572.69L657.68 592L670.48 580.33L652.78 558.5L639.45 572.69ZM657.79 589.22L642.2 572.71L652.72 561.56L667.79 580.14L657.79 589.22Z" fill="#0E2946"/>
<path d="M683.06 586.63L674.49 578.06C670.69 574.26 666.98 574.06 666.98 574.06C666.98 574.06 666.71 579.98 662.65 584.06C658.59 588.14 651.95 588.74 651.95 588.74L648.22 608.15C647.48 610.97 642.78 610.38 642.78 610.38C639.83 610.38 637.22 613.28 636.32 616.09L635.83 617.34H653.35L683.06 586.63Z" fill="#0E2946"/>
<path fill-rule="evenodd" clip-rule="evenodd" d="M634.36 618.35H653.78L684.36 586.57L675.09 577.3C671.06 573.27 667.08 573.03 666.91 573.03H665.91V574.03C665.91 574.09 665.66 579.61 661.91 583.36C658.16 587.11 651.89 587.76 651.83 587.76L651.08 587.83L647.22 607.91C646.72 609.81 642.88 609.39 642.88 609.39H642.75C639.27 609.39 636.36 612.74 635.36 615.74L634.36 618.35ZM652.93 616.35H637.29C638.1 613.92 640.33 611.43 642.73 611.35C644.81 611.63 648.43 611.27 649.2 608.35L652.8 589.65C654.72 589.35 659.86 588.26 663.35 584.77C665.813 582.147 667.391 578.817 667.86 575.25C670.117 575.855 672.165 577.07 673.78 578.76L681.66 586.64L652.93 616.35Z" fill="#0E2946"/>
<path d="M583.8 321.5C583.8 321.5 530.28 391 524.17 437.87C521.22 460.46 640.92 579.1 640.92 579.1L658.25 563.8L562.91 439.91C562.91 439.91 642.85 358.68 642 330C641.3 306.38 611.67 268.5 611.67 268.5C611.67 268.5 601.26 276.58 592.16 278.96C586.031 280.371 579.694 280.632 573.47 279.73L583.8 321.5Z" fill="white"/>
<path fill-rule="evenodd" clip-rule="evenodd" d="M640.21 579.81L640.88 580.47L659.66 563.93L564.27 439.99C567.78 436.39 585.83 417.69 603.58 396.34C630.12 364.43 643.4 342.09 643.04 329.93C642.34 306.26 613.71 269.4 612.49 267.84L611.88 267.05L611.09 267.67C611.078 267.676 610.999 267.734 610.859 267.838C609.283 268.999 600.001 275.838 591.95 277.95C583.701 280.113 574.885 278.87 573.784 278.715C573.715 278.705 573.676 278.7 573.67 278.7L572.17 278.45L582.75 321.28C578.46 326.94 529.06 392.92 523.21 437.74C520.21 460.55 635.31 574.95 640.21 579.81ZM584.88 321.73L574.79 280.88C580.681 281.576 586.647 281.234 592.42 279.87C600.24 277.87 608.83 271.82 611.48 269.87C615.66 275.39 640.37 308.83 641 330C641.806 357.177 567.565 433.719 562.505 438.936C562.352 439.093 562.262 439.186 562.24 439.21L561.63 439.83L656.93 563.67L641 577.73C636.38 573.17 609 545.72 582.16 516.28C533.58 462.87 524.34 444.23 525.16 438C531.11 392.357 583.016 324.177 584.559 322.151C584.574 322.13 584.585 322.117 584.59 322.11L584.88 321.73Z" fill="#0E2946"/>
<path d="M576.47 290.69C576.47 290.69 586.72 292.3 596.42 289.92C606.12 287.54 619.42 279.46 619.42 279.46L615.71 274.46C615.71 274.46 603.3 282.54 594.2 284.92C588.071 286.331 581.734 286.592 575.51 285.69L576.47 290.69Z" fill="#0E2946"/>
<path fill-rule="evenodd" clip-rule="evenodd" d="M576.31 291.67C579.053 292.056 581.82 292.244 584.59 292.23C588.652 292.263 592.704 291.813 596.66 290.89C606.213 288.556 618.853 280.941 619.855 280.337C619.874 280.326 619.89 280.316 619.9 280.31L620.83 279.74L615.91 273.1L615.12 273.62C615 273.7 602.68 281.65 593.91 283.95C585.661 286.114 576.846 284.871 575.744 284.715C575.675 284.706 575.636 284.7 575.63 284.7L574.2 284.46L575.63 291.57L576.31 291.67ZM596.18 288.95C588.21 290.91 579.74 290.09 577.31 289.79L576.73 286.89C582.64 287.6 588.628 287.261 594.42 285.89C602.34 283.8 612.51 277.63 615.42 275.8L617.91 279.16C614.73 281.02 604.15 286.99 596.18 288.95Z" fill="#0E2946"/>
<path d="M610.04 272.92L618.52 286.1L612.63 289.89L604.15 276.71" fill="white"/>
<path d="M610.67 274.41L617.33 284.41L610.67 274.41Z" fill="white"/>
<path d="M609.842 274.972L611.506 273.863L618.173 283.864L616.509 284.973L609.842 274.972Z" fill="#0E2946"/>
<path d="M611.33 287.74L605 278.07L611.33 287.74Z" fill="white"/>
<path d="M606.864 278.396L608.544 277.296L614.902 287.006L613.222 288.106L606.864 278.396Z" fill="#0E2946"/>
<path d="M588.1 281.13L590.49 296.61L583.57 297.68L581.18 282.2" fill="white"/>
<path d="M588.67 282.74L590 293.74L588.67 282.74Z" fill="white"/>
<path d="M587.658 282.884L589.644 282.644L590.977 293.643L588.991 293.884L587.658 282.884Z" fill="#0E2946"/>
<path d="M583 294.41L582 283.57L583 294.41Z" fill="white"/>
<path d="M580.986 283.711L582.977 283.527L583.977 294.361L581.985 294.545L580.986 283.711Z" fill="#0E2946"/>
<path d="M562 440.94C559.71 440.94 554 440.5 551 436.33L552.63 435.17C555.63 439.41 562.75 438.92 562.83 438.92L562.98 440.92C562.93 440.91 562.58 440.94 562 440.94Z" fill="#0E2946"/>
<path d="M557.25 444C556.445 443.998 555.644 443.883 554.87 443.66L555.4 441.73C557.884 442.533 560.599 441.59 562.05 439.42L563.77 440.42C562.342 442.639 559.889 443.986 557.25 444Z" fill="#0E2946"/>
<path d="M627.18 313C622.38 313 612.23 311.35 607.27 298.33L606.95 297.47L621.55 290.53L622.4 292.34L609.48 298.48C612.04 304.62 616.11 308.57 621.59 310.22C624.126 311.002 626.803 311.214 629.43 310.84L629.81 312.84C628.94 312.968 628.06 313.022 627.18 313Z" fill="#0E2946"/>
<path d="M550.5 177.3C556.331 178.308 562.233 178.847 568.15 178.91C579.66 178.73 580.88 175.21 580.88 175.21L584.12 180.72C584.12 180.72 581.22 186.07 569.12 186.16C562.089 186.164 555.091 187.126 548.32 189.02L550.5 177.3Z" fill="white"/>
<path fill-rule="evenodd" clip-rule="evenodd" d="M549.69 176.14L547.08 190.48L548.69 190.08C555.367 188.231 562.262 187.286 569.19 187.27C581.69 187.14 584.89 181.51 585.02 181.27L585.29 180.77L580.67 172.91L579.96 174.91C579.96 174.91 579.958 174.912 579.954 174.917C579.843 175.081 578.019 177.755 568.15 177.91C562.297 177.845 556.459 177.313 550.69 176.32L549.69 176.14ZM549.64 187.65L551.31 178.48V178.45C556.878 179.4 562.512 179.905 568.16 179.96C575.85 179.82 579.25 178.2 580.73 176.96L582.93 180.69C581.92 181.88 578.35 185.12 569.15 185.19C562.571 185.218 556.02 186.044 549.64 187.65Z" fill="#0E2946"/>
<path d="M560.62 231.63H560.03C551.82 231.23 545.56 222.33 546.08 211.81C546.233 206.99 547.961 202.354 551 198.61C554 195.08 557.88 193.24 561.91 193.45L561.81 195.45C558.41 195.28 555.12 196.87 552.53 199.91C549.765 203.312 548.195 207.528 548.06 211.91C547.59 221.33 553 229.28 560.06 229.64C567.12 230 573.35 222.64 573.82 213.19L575.82 213.29C575.38 223.54 568.59 231.63 560.62 231.63Z" fill="#0E2946"/>
<path d="M551.93 159.69L551.86 157.69C551.86 157.69 556.06 157.51 557.86 154.83C558.99 153.16 559 150.83 557.86 147.83C554.44 138.46 557.99 135.2 558.14 135.07L559.46 136.57L558.8 135.82L559.48 136.56C559.48 136.56 556.85 139.21 559.74 147.14C561.07 150.78 560.97 153.75 559.47 155.98C557.13 159.48 552.14 159.68 551.93 159.69Z" fill="#0E2946"/>
<path d="M553.64 149.45C552.038 149.452 550.551 148.623 549.71 147.26L551.42 146.26C551.904 147.05 552.773 147.521 553.698 147.496C554.624 147.472 555.467 146.955 555.908 146.141C556.35 145.327 556.324 144.34 555.84 143.55L557.55 142.5C558.417 143.918 558.452 145.693 557.642 147.143C556.831 148.594 555.302 149.495 553.64 149.5V149.45Z" fill="#0E2946"/>
<path d="M566.63 195.79C566.63 195.79 557.27 192.1 543.32 194.97C527.829 198.113 511.885 198.313 496.32 195.56L453 147.4L448.81 132.12L442.22 125.53C441.957 125.258 441.541 125.205 441.218 125.401C440.895 125.598 440.75 125.991 440.87 126.35L444 133C444.243 133.701 444.06 134.48 443.53 135C443.169 135.364 442.678 135.57 442.165 135.57C441.652 135.57 441.16 135.364 440.8 135L426.45 119.65C425.66 118.86 422.45 128.77 422.92 129.79L429.13 143.51L444.13 153.51C453.23 169.6 466.96 201.79 488.3 213.51C496.3 217.9 557.39 219.4 557.39 219.4C561.445 219.717 565.175 221.742 567.65 224.97" fill="white"/>
<path d="M566.8 225.46C564.495 222.49 561.055 220.617 557.31 220.29C554.8 220.23 495.89 218.73 487.76 214.29C469.82 204.47 457.38 180.76 448.3 163.45C446.52 160.07 444.84 156.87 443.3 154.16L428.3 144.16L421.96 130.16C421.31 128.72 424.16 119.8 425.61 118.8C426.069 118.449 426.717 118.496 427.12 118.91L441.49 134.28C441.795 134.564 442.251 134.611 442.607 134.394C442.963 134.178 443.132 133.751 443.02 133.35L439.86 126.65C439.588 125.853 439.914 124.975 440.64 124.55C441.352 124.102 442.28 124.21 442.87 124.81L449.65 131.59L453.84 146.9L496.84 194.63C512.166 197.25 527.844 197.03 543.09 193.98C557.17 191.08 566.57 194.7 566.97 194.85L566.23 196.71C566.14 196.71 556.95 193.17 543.49 195.94C527.867 199.077 511.796 199.274 496.1 196.52L495.79 196.45L452.05 147.9L447.87 132.64L442.23 127L444.92 132.67C445.359 133.963 444.847 135.388 443.685 136.105C442.523 136.822 441.019 136.642 440.06 135.67L426.4 121.07C425.4 123.07 423.78 128.27 423.84 129.43L429.9 142.81L444.83 152.75L444.94 152.96C446.51 155.73 448.24 159.02 450.07 162.51C459.07 179.6 471.31 203 488.72 212.51C494.89 215.88 536.31 217.75 557.36 218.27C561.717 218.602 565.722 220.786 568.36 224.27L566.8 225.46Z" fill="#0E2946"/>
<path d="M575.89 213.27L573.89 213.17C574.36 203.75 568.95 195.8 561.83 195.44L561.93 193.44C570.15 193.86 576.41 202.75 575.89 213.27Z" fill="#0E2946"/>
<path fill-rule="evenodd" clip-rule="evenodd" d="M340.12 217.38L341.98 218.12L342 218.13C342.257 217.46 342.539 216.783 342.825 216.097C343.051 215.555 343.279 215.006 343.5 214.45L341.66 213.66C341.12 214.92 340.61 216.16 340.12 217.38ZM339.22 225.57L337.33 224.93C337.75 223.69 338.19 222.42 338.67 221.14L340.55 221.83C340.08 223.11 339.63 224.36 339.22 225.58V225.57ZM335 232.66L336.94 233.16V233.17C337.26 231.93 337.62 230.65 338.01 229.35L336.1 228.77C335.7 230.08 335.33 231.39 335 232.66ZM335.27 240.89L333.27 240.56C333.48 239.26 333.74 237.93 334.03 236.56L336.03 236.98C335.73 238.33 335.48 239.64 335.27 240.9V240.89ZM332.41 248.63L334.41 248.72V248.73C334.47 247.46 334.57 246.14 334.73 244.85L332.73 244.63C332.58 245.95 332.47 247.31 332.41 248.63ZM332.6 256.72C332.47 255.4 332.38 254.04 332.35 252.66H334.35C334.35 253.98 334.46 255.29 334.59 256.56L332.6 256.72ZM333.17 260.72C333.46 262.1 333.79 263.44 334.17 264.72L336.1 264.12C335.726 262.876 335.415 261.615 335.17 260.34L333.17 260.72ZM337.31 272.26C336.65 271.065 336.059 269.833 335.54 268.57L337.38 267.81C337.881 269.004 338.442 270.172 339.06 271.31L337.31 272.26ZM339.45 275.75C340.21 276.85 341.05 277.95 341.94 279L343.47 277.71C342.628 276.718 341.836 275.683 341.1 274.61L339.45 275.75ZM347.76 284.78L347.425 284.482L347.425 284.482C346.526 283.683 345.596 282.856 344.76 282.03L346.17 280.61C347.07 281.51 348.04 282.4 349.06 283.26L347.76 284.78ZM350.95 287.3C352 288.08 353.12 288.86 354.28 289.62L355.38 287.95C354.25 287.21 353.14 286.45 352.14 285.69L350.95 287.3ZM361.23 293.75C360 293.08 358.82 292.41 357.72 291.75L358.72 290.03C359.8 290.67 360.96 291.33 362.16 291.98L361.23 293.75ZM364.79 295.62C365.99 296.23 367.19 296.82 368.4 297.41L369.27 295.61C368.08 295.03 366.88 294.44 365.7 293.84L364.79 295.62ZM375.67 300.83L372.03 299.13L372.88 297.32L376.51 299.01L375.67 300.83ZM379.3 302.51C380.51 303.08 381.72 303.65 382.9 304.23L383.77 302.43C382.617 301.868 381.446 301.315 380.255 300.754L380.253 300.753L380.251 300.752L380.247 300.75L380.245 300.749L380.14 300.7L379.3 302.51ZM389.97 307.87C388.88 307.26 387.73 306.65 386.47 306L387.38 304.22C388.67 304.88 389.83 305.5 390.94 306.12L389.97 307.87ZM393.37 309.87C394.53 310.6 395.63 311.34 396.63 312.07L397.8 310.45C396.77 309.7 395.63 308.93 394.43 308.18L393.37 309.87ZM402.41 317.24C401.555 316.273 400.64 315.361 399.67 314.51L401 313C402.029 313.909 403.001 314.881 403.91 315.91L402.41 317.24ZM404.79 320.31C405.54 321.38 406.24 322.49 406.88 323.61L408.62 322.62C407.95 321.44 407.21 320.28 406.43 319.16L404.79 320.31ZM410.11 330.71C409.68 329.49 409.19 328.26 408.66 327.09L410.48 326.26C411.04 327.49 411.55 328.77 412 330.06L410.11 330.71ZM411.22 334.46C411.53 335.71 411.79 337 412 338.29L413.97 337.98C413.76 336.63 413.49 335.28 413.16 333.98L411.22 334.46ZM414.59 346.06H412.59V345.76C412.59 344.55 412.59 343.33 412.46 342.14L414.46 342C414.55 343.23 414.6 344.5 414.6 345.76L414.59 346.06ZM384.99 349.83L385.14 351.83L385.08 351.88C386.16 351.8 387.24 351.75 388.35 351.7H389V349.7H388.39C387.26 349.7 386.12 349.74 384.99 349.83ZM396.8 352.55C395.53 352.29 394.23 352.09 392.94 351.95L393.16 349.95C394.51 350.1 395.87 350.31 397.16 350.58L396.8 352.55ZM413.93 354.18L413.879 354.172C414.085 352.841 414.242 351.5 414.39 350.13L412.39 349.97C412.28 351.26 412.13 352.57 411.93 353.87L413.879 354.172L413.87 354.23L413.93 354.18ZM400.58 353.51C401.82 353.89 403.06 354.33 404.25 354.83L405.02 352.98C403.76 352.46 402.47 352 401.17 351.6L400.58 353.51ZM370.08 355.74L369.24 353.93C370.47 353.36 371.74 352.84 373.03 352.38L373.7 354.26C372.41 354.75 371.19 355.25 370 355.79L370.08 355.74ZM412.14 362.11L412.099 362.097C412.481 360.817 412.826 359.508 413.17 358.16L411.58 357.8L412.23 356.8C411.1 356.05 409.92 355.34 408.72 354.7L407.78 356.46C408.89 357.1 409.99 357.76 411.05 358.46C410.81 359.54 410.53 360.54 410.23 361.54L412.099 362.097L412.08 362.16L412.14 362.11ZM414.23 360.82C415.23 361.64 416.21 362.51 417.14 363.43L418.54 362C417.56 361.04 416.54 360.13 415.49 359.27L414.23 360.82ZM358.66 365.75L356.95 364.75C357.672 363.57 358.474 362.44 359.35 361.37L360.9 362.65C360.07 363.645 359.311 364.697 358.63 365.8L358.66 365.75ZM419.8 366.29C420.63 367.27 421.44 368.31 422.21 369.37L423.84 368.21C423.04 367.1 422.19 365.99 421.32 364.99L419.8 366.29ZM409.3 369.74L409.294 369.737C409.835 368.514 410.337 367.261 410.83 365.97L408.95 365.28C408.876 365.469 408.801 365.658 408.727 365.848L408.727 365.849L408.718 365.871L408.717 365.875L408.716 365.875C408.316 366.899 407.914 367.925 407.47 368.93L409.294 369.737L409.27 369.79L409.3 369.74ZM355.595 372.806L355.61 372.81L355.58 372.86L355.595 372.806ZM356.88 369.18C356.367 370.357 355.938 371.568 355.595 372.806L353.68 372.29C354.036 370.953 354.494 369.646 355.05 368.38L356.88 369.18ZM426.27 376.08C425.67 374.9 425.03 373.75 424.37 372.65L426.08 371.65C426.77 372.79 427.43 373.99 428.08 375.21L426.27 376.08ZM403.83 375.94L405.54 376.94L405.51 377C406.21 375.84 406.88 374.65 407.54 373.43L405.76 372.51C405.16 373.67 404.51 374.82 403.83 375.94ZM352.83 380.54C352.83 380.266 352.815 379.99 352.8 379.712C352.785 379.432 352.77 379.151 352.77 378.87C352.769 378.035 352.812 377.2 352.9 376.37L354.9 376.58C354.821 377.34 354.781 378.105 354.78 378.87C354.78 379.38 354.78 379.87 354.83 380.39L352.83 380.54ZM427.93 379.64C428.44 380.82 428.92 382.06 429.37 383.3L431.25 382.63L431.25 382.629L431.25 382.629L431.25 382.628L431.249 382.628L431.249 382.627L431.249 382.627L431.249 382.626L431.249 382.626L431.248 382.626L431.248 382.625L431.248 382.625L431.248 382.624L431.248 382.624L431.248 382.623L431.247 382.623L431.247 382.622L431.247 382.622L431.247 382.621L431.247 382.621L431.246 382.621L431.246 382.62L431.246 382.62L431.246 382.619L431.246 382.619L431.246 382.618L431.245 382.618L431.245 382.617L431.245 382.617L431.245 382.616L431.245 382.616L431.244 382.615L431.244 382.615L431.244 382.615L431.244 382.614L431.244 382.614L431.244 382.613L431.243 382.613L431.243 382.612L431.243 382.612C430.765 381.338 430.288 380.064 429.77 378.85L427.93 379.64ZM400.87 383.6L399.31 382.34C400.13 381.34 400.93 380.28 401.68 379.2L403.32 380.35C402.51 381.51 401.68 382.61 400.84 383.65L400.87 383.6ZM353.58 384.72C353.987 386.074 354.551 387.376 355.26 388.6L357 387.6C356.362 386.515 355.858 385.356 355.5 384.15L353.58 384.72ZM395.26 389.55L395.252 389.54C396.234 388.656 397.217 387.712 398.18 386.7L396.73 385.33C395.82 386.29 394.92 387.21 393.92 388.07L395.252 389.54L395.23 389.56L395.26 389.55ZM430.59 387.1C430.97 388.37 431.33 389.65 431.66 390.91L433.59 390.41C433.26 389.13 432.89 387.82 432.5 386.52L430.59 387.1ZM388.66 394.42L387.66 392.7C388.776 392.036 389.858 391.315 390.9 390.54L392.09 392.14C390.985 392.963 389.836 393.728 388.65 394.43L388.66 394.42ZM357.8 392C358.793 392.988 359.894 393.864 361.08 394.61L362.16 392.97C361.099 392.29 360.117 391.495 359.23 390.6L357.8 392ZM432.54 394.76C432.81 396.06 433.06 397.37 433.28 398.65L435.25 398.35C435.03 397.01 434.78 395.67 434.49 394.35L432.54 394.76ZM434.2 406.49C434.11 405.2 433.99 403.87 433.84 402.56L435.84 402.33C436 403.67 436.13 405.03 436.22 406.33L434.2 406.49ZM434.29 414.4L436.29 414.49V414.47C436.34 413.44 436.36 412.37 436.36 411.35V410.46H434.36V411.33C434.36 411.874 434.342 412.4 434.324 412.917V412.917V412.917V412.918V412.918C434.307 413.417 434.29 413.908 434.29 414.4ZM435.42 422.56L433.42 422.22C433.64 420.95 433.83 419.64 433.97 418.33L435.97 418.54C435.84 419.87 435.65 421.23 435.42 422.54V422.56ZM432.65 426.07C432.34 427.34 431.98 428.62 431.59 429.85L433.49 430.46V430.44C433.804 429.46 434.095 428.456 434.384 427.456C434.473 427.15 434.561 426.844 434.65 426.54L432.65 426.07ZM430.42 438L428.63 437.11C429.21 435.95 429.76 434.75 430.25 433.53L432.1 434.29C431.59 435.53 431 436.78 430.42 438ZM424.58 443.83L426.2 445C427 443.86 427.75 442.71 428.45 441.56L426.74 440.56C426.07 441.68 425.34 442.83 424.58 443.83ZM420.91 451.13L420.895 451.115C421.85 450.169 422.785 449.174 423.7 448.15L422.18 446.85C421.33 447.83 420.43 448.79 419.51 449.7L420.895 451.115L420.88 451.13H420.91ZM414.6 456.306L414.61 456.32H414.58L414.6 456.306ZM414.6 456.306L413.48 454.68C414.54 453.94 415.59 453.14 416.6 452.32L417.87 453.86C416.797 454.714 415.713 455.54 414.6 456.306ZM407.54 460.38L407.535 460.368C408.757 459.791 410.008 459.165 411.17 458.5L410.17 456.76C409.04 457.41 407.88 458.01 406.7 458.57L407.535 460.368L407.51 460.38H407.54ZM399.908 463.222L399.91 463.23H399.88L399.908 463.222ZM403.78 461.96C402.499 462.426 401.208 462.854 399.908 463.222L399.36 461.31C400.62 460.95 401.87 460.54 403.08 460.08L403.78 461.96ZM391.91 464.87L391.65 462.87C392.95 462.71 394.26 462.49 395.52 462.23L395.92 464.23C394.61 464.47 393.26 464.69 391.91 464.87ZM378.73 465.07L379.73 465.15L379.85 463.14L378.92 463.07L378.73 465.07ZM383.79 465.34H384.52C385.64 465.34 386.76 465.31 387.84 465.25L387.72 463.25C386.66 463.34 385.58 463.34 384.49 463.34H383.79V465.34ZM374.64 398.57C374.03 398.57 373.42 398.57 372.82 398.5L372.98 396.5C374.248 396.614 375.523 396.614 376.79 396.5L377 398.5C376.215 398.566 375.428 398.592 374.64 398.58V398.57ZM364.73 396.53C366.032 397.046 367.369 397.47 368.73 397.8L369.15 395.85C367.903 395.55 366.68 395.159 365.49 394.68L364.73 396.53ZM381.08 397.68L380.55 395.75C381.79 395.409 383.003 394.978 384.18 394.46L384.98 396.3C383.714 396.853 382.411 397.317 381.08 397.69V397.68ZM363.588 359.827L363.59 359.83L363.53 359.88L363.588 359.827ZM363.588 359.827L362.25 358.34C363.291 357.409 364.412 356.573 365.6 355.84L366.6 357.55C365.528 358.214 364.519 358.976 363.588 359.827ZM376.93 351.18L377.43 353.11L377.37 353.16C378.63 352.84 379.92 352.56 381.26 352.33L380.93 350.33C379.59 350.55 378.25 350.84 376.93 351.18Z" fill="#707F8F"/>
<circle cx="345" cy="209.71" r="6" fill="white"/>
<path fill-rule="evenodd" clip-rule="evenodd" d="M338 209.71C338 213.576 341.134 216.71 345 216.71C348.866 216.71 352 213.576 352 209.71C352 205.844 348.866 202.71 345 202.71C341.134 202.71 338 205.844 338 209.71ZM340 209.71C340 206.949 342.239 204.71 345 204.71C347.761 204.71 350 206.949 350 209.71C350 212.471 347.761 214.71 345 214.71C342.239 214.71 340 212.471 340 209.71Z" fill="#476AE3"/>
<path d="M386.64 473.26L377.45 464.07L386.64 454.88L388.06 456.29L380.28 464.07L388.06 471.85L386.64 473.26Z" fill="#EF4C59"/>
<path fill-rule="evenodd" clip-rule="evenodd" d="M161.3 2.87988C162.65 2.88988 163.97 2.92988 165.3 2.99988V0.999883C163.98 0.939883 162.64 0.879883 161.3 0.879883V2.87988ZM151.41 3.09988L151.29 1.09988C152.62 1.00988 153.96 0.949883 155.29 0.909883L155.35 2.90988C154.733 2.95262 154.109 2.97506 153.483 2.99756C152.792 3.02243 152.098 3.04737 151.41 3.09988ZM171.24 3.39988C172.54 3.51988 173.86 3.66988 175.18 3.82988L175.42 1.83988C174.09 1.66988 172.75 1.51988 171.42 1.39988L171.24 3.39988ZM141.53 4.06988L141.27 2.06988C142.59 1.88988 143.92 1.72988 145.27 1.58988L145.48 3.58988C144.15 3.73988 142.83 3.89988 141.53 4.06988ZM181.1 4.72988C182.367 4.95655 183.667 5.20655 185 5.47988L185.45 3.49988C184.11 3.21988 182.77 2.95988 181.45 2.72988L181.1 4.72988ZM131.74 5.73988L131.34 3.73988C132.64 3.46988 133.96 3.21988 135.34 2.97988L135.69 4.97988C134.33 5.22988 133 5.47988 131.74 5.73988ZM190.74 6.85988C192.02 7.18988 193.3 7.55988 194.56 7.92988L195.13 6.01988C193.85 5.62988 192.55 5.26988 191.25 4.91988L190.74 6.85988ZM122.08 8.05988L121.55 6.12988C122.82 5.77988 124.12 5.43988 125.45 5.12988L125.93 7.06988C124.62 7.37988 123.34 7.71988 122.08 8.05988ZM111.93 9.10988L112.58 10.9999C113.81 10.5799 115.07 10.1599 116.36 9.74988L115.76 7.84988C114.45 8.25988 113.17 8.67988 111.93 9.10988ZM203.93 11.1699C202.69 10.6899 201.45 10.2199 200.21 9.78988L200.88 7.89988C202.14 8.34988 203.41 8.81988 204.66 9.30988L203.93 11.1699ZM102.52 12.6799L103.29 14.5299C104.342 14.0577 105.433 13.641 106.563 13.2093L106.98 13.0499L106.26 11.1799C105.085 11.632 103.958 12.0923 102.866 12.5386L102.52 12.6799ZM213 15.1699C211.8 14.5899 210.6 14.0199 209.41 13.4799L210.23 11.6599C211.44 12.2099 212.66 12.7799 213.88 13.3799L213 15.1699ZM93.3502 16.8499L94.2402 18.6499C95.3402 18.0999 96.5402 17.5199 97.8302 16.9299L96.9902 15.1099C95.6802 15.7199 94.4702 16.2999 93.3502 16.8499ZM221.73 19.8799C220.581 19.2002 219.431 18.5405 218.282 17.8807L218.28 17.8799L219.28 16.1299C220.45 16.7699 221.62 17.4399 222.78 18.1299L221.73 19.8799ZM84.4702 21.7399L85.5602 23.4199C85.5702 23.4099 86.7702 22.6399 88.9902 21.4199L87.9902 19.6699C85.7302 20.9299 84.4702 21.7399 84.4702 21.7399ZM230.05 25.2299C228.95 24.4699 227.85 23.7299 226.75 23.0199L227.85 21.3399C228.96 22.0699 230.07 22.8199 231.19 23.5899L230.05 25.2299ZM234.87 28.7299C235.91 29.5299 236.95 30.3399 238 31.1799L239.25 29.6199C238.19 28.7699 237.13 27.9499 236.07 27.1399L234.87 28.7299ZM245.56 37.6399C244.56 36.7399 243.56 35.8599 242.56 34.9999L243.87 33.4899C244.87 34.3599 245.87 35.2499 246.87 36.1699L245.56 37.6399ZM250.487 42.3379L250.488 42.3382L250.488 42.3383C251.222 43.0592 251.959 43.7836 252.69 44.5699L254.12 43.1699C253.94 42.9835 253.761 42.7978 253.583 42.6129C252.834 41.8355 252.098 41.0712 251.29 40.3199L249.89 41.7499C250.089 41.9464 250.288 42.142 250.487 42.3379ZM257.652 49.8894L257.655 49.8928C258.243 50.5585 258.831 51.2242 259.41 51.8899L260.92 50.5399L258.25 47.5399L256.77 48.8899C257.063 49.223 257.358 49.5562 257.652 49.8894Z" fill="#707F8F"/>
<path d="M264.25 55.8599H251.25V53.8599H262.25V42.8599H264.25V55.8599Z" fill="#EF4C59"/>
<path fill-rule="evenodd" clip-rule="evenodd" d="M336.26 86.2097C338.006 88.3367 340.663 89.5002 343.41 89.3397L344.24 89.3097C345.643 89.2601 347.002 88.8127 348.16 88.0197C349.876 88.7804 351.834 88.7804 353.55 88.0197C354.881 87.2528 356.02 86.1926 356.88 84.9197L356.884 84.9152C359.282 81.9671 361.353 79.4218 366.88 83.6397L368.09 82.0497C361.01 76.6597 357.73 80.6597 355.34 83.6597C354.657 84.6733 353.772 85.5347 352.74 86.1897C351.799 86.6158 350.739 86.704 349.74 86.4397C350.76 84.8992 351.077 82.9974 350.61 81.2097C350.131 79.5534 348.711 78.3419 347 78.1297C345.544 78.0131 344.186 78.8733 343.67 80.2397C342.87 81.9597 343.53 84.2597 345.35 86.0897C345.613 86.3514 345.89 86.5984 346.18 86.8297C345.527 87.0956 344.834 87.2511 344.13 87.2897C341.34 87.4597 339.11 86.6397 337.85 84.9697C336.809 83.5165 336.572 81.6357 337.22 79.9697L335.34 79.3097C334.447 81.6157 334.794 84.2184 336.26 86.2097ZM345.49 81.1197C345.89 80.2197 346.41 80.1197 346.68 80.1197L346.82 80.1297C347.683 80.2803 348.391 80.8963 348.66 81.7297C349 83.0031 348.759 84.3618 348 85.4397L347.87 85.6097C347.471 85.356 347.102 85.0574 346.77 84.7197C345.57 83.5097 345.09 82.0197 345.49 81.1197Z" fill="#EF4C59"/>
<path fill-rule="evenodd" clip-rule="evenodd" d="M355.21 195.79H355.5C356.852 195.776 358.061 194.946 358.56 193.69C359.35 191.97 358.69 189.67 356.87 187.84C356.61 187.579 356.332 187.335 356.04 187.11C356.691 186.836 357.385 186.68 358.09 186.65C360.89 186.47 363.12 187.29 364.37 188.96C365.42 190.409 365.658 192.295 365 193.96L366.89 194.62C367.778 192.313 367.431 189.713 365.97 187.72C364.3 185.51 361.46 184.4 357.97 184.62C356.565 184.671 355.203 185.118 354.04 185.91C352.324 185.149 350.366 185.149 348.65 185.91C347.319 186.673 346.18 187.73 345.32 189L345.301 189.022C342.899 191.963 340.836 194.489 335.32 190.28L334.1 191.87C341.18 197.26 344.46 193.26 346.86 190.26C347.543 189.246 348.428 188.385 349.46 187.73C350.403 187.311 351.46 187.223 352.46 187.48C351.445 189.022 351.132 190.923 351.6 192.71C352.077 194.368 353.498 195.58 355.21 195.79ZM354.2 188.48L354.33 188.31C354.722 188.566 355.087 188.861 355.42 189.19C356.63 190.41 357.2 191.72 356.71 192.79C356.246 193.803 355.656 193.794 355.417 193.79C355.403 193.79 355.391 193.79 355.38 193.79C354.514 193.642 353.801 193.026 353.53 192.19C353.194 190.915 353.439 189.557 354.2 188.48Z" fill="#0E2946"/>
<rect x="338.59" y="127.14" width="21.82" height="2" fill="#0E2946"/>
<rect x="338.59" y="133.14" width="25.82" height="2" fill="#0E2946"/>
<rect x="338.59" y="140.14" width="14.82" height="2" fill="#0E2946"/>
<circle cx="335.86" cy="175.55" r="4" fill="#476AE3"/>
<circle cx="348" cy="177.01" r="4" fill="#476AE3"/>
<circle cx="367.5" cy="201.42" r="4" fill="#476AE3"/>
<circle cx="280.67" cy="85.4097" r="4" fill="#476AE3"/>
<circle cx="290.67" cy="74.4097" r="4" fill="#476AE3"/>
<circle cx="294.67" cy="89.4097" r="4" fill="#476AE3"/>
<circle cx="356" cy="148.08" r="4" fill="#476AE3"/>
<circle cx="276" cy="148.08" r="4" fill="#476AE3"/>
<circle cx="286" cy="138.08" r="4" fill="#476AE3"/>
<circle cx="344" cy="95.0801" r="4" fill="#476AE3"/>
<path fill-rule="evenodd" clip-rule="evenodd" d="M533.84 137.74C533.84 142.74 536.61 146.74 540.14 146.74C543.67 146.74 546.43 142.74 546.43 137.74C546.43 132.74 543.67 128.74 540.14 128.74C536.61 128.74 533.84 132.74 533.84 137.74ZM535.84 137.74C535.84 133.95 537.81 130.74 540.14 130.74C542.46 130.74 544.43 133.94 544.43 137.74C544.43 141.54 542.44 144.74 540.14 144.74C537.84 144.74 535.84 141.53 535.84 137.74Z" fill="#476AE3"/>
<path fill-rule="evenodd" clip-rule="evenodd" d="M520.58 137.74C520.58 141.67 522.8 144.74 525.58 144.74C528.37 144.74 530.58 141.66 530.58 137.74C530.58 133.82 528.39 130.74 525.58 130.74C522.77 130.74 520.58 133.81 520.58 137.74ZM522.58 137.74C522.58 135.03 523.97 132.74 525.58 132.74C527.19 132.74 528.58 135.03 528.58 137.74C528.58 140.45 527.22 142.74 525.58 142.74C523.94 142.74 522.58 140.45 522.58 137.74Z" fill="#476AE3"/>
<path d="M535.84 137.74H533.84C533.84 136.03 532.98 134.74 532.2 134.74C531.42 134.74 530.55 136.03 530.55 137.74H528.55C528.55 134.94 530.15 132.74 532.2 132.74C534.25 132.74 535.84 134.94 535.84 137.74Z" fill="#476AE3"/>
<path d="M577.39 142.26H575.39C575.39 138.394 572.256 135.26 568.39 135.26H545.64V133.26H568.39C573.361 133.26 577.39 137.289 577.39 142.26Z" fill="#476AE3"/>
<path d="M185.16 202.31C179.73 191.93 174.86 185.49 170.68 183.17C166.359 180.799 161.697 179.113 156.86 178.17L157.25 176.17C162.29 177.134 167.148 178.878 171.65 181.34C176.18 183.85 181.32 190.57 186.93 201.34L185.16 202.31Z" fill="#465B72"/>
<path fill-rule="evenodd" clip-rule="evenodd" d="M584.76 83.71V115.12L616.21 83.71H683.21V6.70996H561.21V83.71H584.76ZM586.76 81.71H563.21V8.70996H681.21V81.71H615.34L586.76 110.29V81.71Z" fill="#FFC31D"/>
<rect x="577" y="22.46" width="60" height="2" fill="#0E2946"/>
<rect x="577" y="36.7397" width="60" height="2" fill="#0E2946"/>
<rect x="577" y="51.0298" width="60" height="2" fill="#0E2946"/>
<rect x="577" y="65.3198" width="42.86" height="2" fill="#0E2946"/>
</svg>
