<svg width="287" height="72" viewBox="0 0 287 72" fill="none" xmlns="http://www.w3.org/2000/svg">
<path fill-rule="evenodd" clip-rule="evenodd" d="M32 12H12V44H20V20H32V12Z" fill="#476AE3"/>
<path fill-rule="evenodd" clip-rule="evenodd" d="M52 52H28V60H60V40H52V52Z" fill="#476AE3"/>
<path fill-rule="evenodd" clip-rule="evenodd" d="M0 52.0002V60.0002H12V72.0002H20V52.0002H0Z" fill="#EF4C59"/>
<path fill-rule="evenodd" clip-rule="evenodd" d="M52.0002 0V12H39.9992V20H52.0002V32H60.0002V20H72.0002V12H60.0002V0H52.0002Z" fill="#FFC31D"/>
<path fill-rule="evenodd" clip-rule="evenodd" d="M110.856 29.9922V36.0002H91.9994V12.0042H99.6724V29.9922H110.856Z" fill="#0E2946"/>
<path fill-rule="evenodd" clip-rule="evenodd" d="M124.251 26.4814H129.064L126.676 19.0614L124.251 26.4814ZM130.621 32.2004H122.658L121.175 36.0004H112.994L122.079 12.0034H131.272L140.321 36.0004H132.142L130.621 32.2004Z" fill="#0E2946"/>
<path fill-rule="evenodd" clip-rule="evenodd" d="M150.714 26.5537V30.8247H155.202C156.397 30.8247 157.193 29.9557 157.193 28.7617C157.193 27.4577 156.397 26.5537 155.202 26.5537H150.714ZM150.714 17.5407V21.1977H154.912C155.89 21.1977 156.505 20.4367 156.505 19.2787C156.505 18.2297 155.854 17.5407 154.804 17.5407H150.714ZM143.402 35.9997V12.0037H156.541C160.378 12.0037 163.817 14.2837 163.817 18.2657C163.817 20.7267 162.803 22.5357 160.812 23.6947C163.599 24.5997 165.011 26.7347 165.011 29.4497C165.011 31.4397 164.322 33.0327 162.911 34.2267C161.536 35.4207 159.799 35.9997 157.699 35.9997H143.402Z" fill="#0E2946"/>
<path fill-rule="evenodd" clip-rule="evenodd" d="M187.057 13.1982L186.442 19.7132C184.234 18.4462 181.809 17.8312 179.094 17.8312C177.032 17.8312 175.837 18.1562 175.837 19.2782C175.837 19.6042 176.018 19.8212 176.489 20.0752L177.9 20.5822L181.917 21.7402C186.225 23.0072 188.541 25.1052 188.541 28.6892C188.541 31.0062 187.6 32.8872 185.754 34.2992C183.909 35.7112 181.374 36.3982 178.226 36.3982C174.498 36.3982 171.096 35.7112 168.055 34.3352L168.888 27.8562C169.72 28.2912 170.445 28.6532 171.096 28.9422C172.435 29.4852 174.932 30.0642 177.647 30.0642C179.42 30.0642 180.326 29.6302 180.326 28.7982C180.326 28.2192 179.746 27.7842 178.588 27.4582L174.932 26.4452C171.784 25.5762 168.019 23.8022 168.019 19.0972C168.019 16.8172 168.996 15.0082 170.951 13.6692C172.906 12.3292 175.475 11.6412 178.661 11.6412C182.027 11.6412 184.813 12.1482 187.057 13.1982Z" fill="#0E2946"/>
<path fill-rule="evenodd" clip-rule="evenodd" d="M197.339 36V18.156H190.644V12.004H211.998V18.156H205.012V36H197.339Z" fill="#0E2946"/>
<path fill-rule="evenodd" clip-rule="evenodd" d="M234.116 29.9922V36.0002H215.186V12.0042H234.08V18.0482H222.86V20.8712H233.03V26.8792H222.86V29.9922H234.116Z" fill="#0E2946"/>
<path fill-rule="evenodd" clip-rule="evenodd" d="M245.303 18.3379V23.4779H248.633C250.841 23.4779 251.927 22.6089 251.927 20.9069C251.927 19.0249 250.841 18.3379 248.633 18.3379H245.303ZM245.303 29.6299V35.9999H237.702V12.0039H250.226C256.632 12.0039 259.708 15.9489 259.708 20.6909C259.708 22.4279 259.275 23.9839 258.406 25.3229C257.537 26.6619 256.524 27.5309 255.329 27.9649L261.157 35.9999H252.108L247.657 29.6299H245.303Z" fill="#0E2946"/>
<path fill-rule="evenodd" clip-rule="evenodd" d="M264.432 32.8516C265.207 32.0996 266.523 32.0996 267.298 32.8516C268.074 33.6036 268.074 34.8956 267.298 35.6706C266.523 36.4226 265.207 36.4226 264.455 35.6706C263.68 34.8956 263.68 33.6036 264.432 32.8516Z" fill="#0E2946"/>
<mask id="mask0_0_7197" style="mask-type:luminance" maskUnits="userSpaceOnUse" x="0" y="0" width="287" height="72">
<path fill-rule="evenodd" clip-rule="evenodd" d="M0 72H286.993V0H0V72Z" fill="white"/>
</mask>
<g mask="url(#mask0_0_7197)">
<path fill-rule="evenodd" clip-rule="evenodd" d="M269.695 36H273.314V24.979H269.695V36ZM269.53 21.596C269.53 20.444 270.307 19.622 271.505 19.622C272.656 19.622 273.502 20.444 273.502 21.596C273.502 22.747 272.656 23.569 271.505 23.569C270.307 23.569 269.53 22.747 269.53 21.596Z" fill="#0E2946"/>
<path fill-rule="evenodd" clip-rule="evenodd" d="M281.071 27.9639C280.39 27.9639 279.826 28.1979 279.38 28.6689C278.957 29.1389 278.745 29.7499 278.745 30.5019C278.745 31.2309 278.957 31.8409 279.38 32.3339C279.826 32.8049 280.39 33.0389 281.071 33.0389C281.753 33.0389 282.317 32.8049 282.763 32.3339C283.21 31.8409 283.422 31.2309 283.422 30.5019C283.422 29.7499 283.21 29.1389 282.763 28.6689C282.317 28.1979 281.753 27.9639 281.071 27.9639ZM281.071 24.7439C282.787 24.7439 284.197 25.2849 285.301 26.3899C286.429 27.4939 286.993 28.8569 286.993 30.5019C286.993 32.1469 286.429 33.5099 285.301 34.6139C284.197 35.6939 282.787 36.2349 281.071 36.2349C279.38 36.2349 277.969 35.6939 276.842 34.6139C275.714 33.5099 275.15 32.1469 275.15 30.5019C275.15 28.8569 275.714 27.4939 276.842 26.3899C277.969 25.2849 279.38 24.7439 281.071 24.7439Z" fill="#0E2946"/>
<path fill-rule="evenodd" clip-rule="evenodd" d="M98.6973 56.0557H98.2833L93.8363 51.1407V59.9987H92.0003V48.0617H93.6563L98.4813 53.7337L103.289 48.0617H104.945V59.9987H103.091V51.1217L98.6973 56.0557Z" fill="#707F8F"/>
<path fill-rule="evenodd" clip-rule="evenodd" d="M113.367 53.751C112.845 53.211 112.179 52.94 111.387 52.94C110.576 52.94 109.929 53.211 109.424 53.751C108.92 54.273 108.668 54.939 108.668 55.731C108.668 56.542 108.92 57.226 109.424 57.784C109.929 58.343 110.576 58.612 111.369 58.612C112.179 58.612 112.845 58.324 113.367 57.767C113.889 57.208 114.159 56.523 114.159 55.731C114.159 54.957 113.889 54.291 113.367 53.751ZM108.145 58.937C107.336 58.09 106.939 57.028 106.939 55.731C106.939 54.453 107.336 53.409 108.145 52.599C108.956 51.788 109.964 51.374 111.171 51.374C112.485 51.374 113.475 51.824 114.178 52.707V51.555H115.924V59.999H114.178V58.847C113.475 59.729 112.485 60.179 111.171 60.179C109.964 60.179 108.956 59.765 108.145 58.937Z" fill="#707F8F"/>
<path fill-rule="evenodd" clip-rule="evenodd" d="M120.225 47.6289V54.8859H121.791L123.934 51.5549H125.842L123.16 55.6419L126.31 59.9989H124.329L121.737 56.3609H120.225V59.9989H118.496V47.6289H120.225Z" fill="#707F8F"/>
<path fill-rule="evenodd" clip-rule="evenodd" d="M127.693 59.999H129.422V51.555H127.693V59.999ZM127.783 49.502C127.404 49.088 127.404 48.367 127.783 47.953C128.197 47.539 128.917 47.539 129.331 47.953C129.745 48.367 129.745 49.088 129.331 49.502C128.917 49.916 128.197 49.916 127.783 49.502Z" fill="#707F8F"/>
<path fill-rule="evenodd" clip-rule="evenodd" d="M139.899 54.8672V59.9992H138.153V55.2452C138.153 53.8592 137.396 53.0302 136.082 53.0302C134.732 53.0302 133.742 53.8772 133.742 55.2452V59.9992H132.013V51.5542H133.759V52.6162C134.047 52.2022 134.839 51.3742 136.352 51.3742C138.603 51.3742 139.899 52.7612 139.899 54.8672Z" fill="#707F8F"/>
<path fill-rule="evenodd" clip-rule="evenodd" d="M148.25 53.751C147.728 53.211 147.062 52.94 146.27 52.94C145.459 52.94 144.812 53.211 144.307 53.751C143.803 54.273 143.551 54.939 143.551 55.731C143.551 56.542 143.803 57.226 144.307 57.784C144.812 58.343 145.459 58.612 146.252 58.612C147.062 58.612 147.728 58.324 148.25 57.767C148.772 57.208 149.042 56.523 149.042 55.731C149.042 54.957 148.772 54.291 148.25 53.751ZM143.028 58.937C142.219 58.09 141.822 57.028 141.822 55.731C141.822 54.453 142.219 53.409 143.028 52.599C143.839 51.788 144.847 51.374 146.054 51.374C147.368 51.374 148.358 51.824 149.061 52.707V51.555H150.807V59.513C150.807 60.791 150.375 61.817 149.511 62.556C148.664 63.312 147.512 63.689 146.071 63.689C144.829 63.689 143.461 63.42 142.65 62.987L142.921 61.403C143.803 61.835 144.991 62.105 146.018 62.105C147.89 62.105 149.061 61.133 149.061 59.566V58.847C148.376 59.729 147.368 60.179 146.054 60.179C144.847 60.179 143.839 59.765 143.028 58.937Z" fill="#707F8F"/>
<path fill-rule="evenodd" clip-rule="evenodd" d="M157.626 59.999H159.355V51.555H157.626V59.999ZM157.717 49.502C157.338 49.088 157.338 48.367 157.717 47.953C158.131 47.539 158.851 47.539 159.265 47.953C159.679 48.367 159.679 49.088 159.265 49.502C158.851 49.916 158.131 49.916 157.717 49.502Z" fill="#707F8F"/>
<path fill-rule="evenodd" clip-rule="evenodd" d="M167.816 53.751C167.294 53.211 166.628 52.94 165.836 52.94C165.025 52.94 164.378 53.211 163.873 53.751C163.369 54.273 163.117 54.939 163.117 55.731C163.117 56.542 163.369 57.226 163.873 57.784C164.378 58.343 165.025 58.612 165.818 58.612C166.628 58.612 167.294 58.324 167.816 57.767C168.338 57.208 168.608 56.523 168.608 55.731C168.608 54.957 168.338 54.291 167.816 53.751ZM162.594 58.937C161.785 58.09 161.388 57.028 161.388 55.731C161.388 54.453 161.785 53.409 162.594 52.599C163.405 51.788 164.413 51.374 165.62 51.374C166.934 51.374 167.924 51.824 168.627 52.707V47.629H170.373V59.999H168.627V58.847C167.924 59.729 166.934 60.179 165.62 60.179C164.413 60.179 163.405 59.765 162.594 58.937Z" fill="#707F8F"/>
<path fill-rule="evenodd" clip-rule="evenodd" d="M179.155 55.0293C179.029 53.7873 178.129 52.9763 176.76 52.9763C175.375 52.9763 174.33 53.8043 174.204 55.0293H179.155ZM180.38 59.3503C179.408 59.9093 178.345 60.1783 177.175 60.1783C175.753 60.1783 174.582 59.7643 173.7 58.9543C172.817 58.1443 172.367 57.0823 172.367 55.7853C172.367 54.5253 172.782 53.4803 173.592 52.6343C174.42 51.7883 175.465 51.3743 176.707 51.3743C179.389 51.3203 181.28 53.7333 180.722 56.4163H174.15C174.456 57.7843 175.537 58.5583 177.175 58.5583C178.129 58.5583 178.958 58.3243 180.128 57.7663L180.38 59.3503Z" fill="#707F8F"/>
<path fill-rule="evenodd" clip-rule="evenodd" d="M188.695 53.751C188.173 53.211 187.507 52.94 186.715 52.94C185.904 52.94 185.257 53.211 184.752 53.751C184.248 54.273 183.996 54.939 183.996 55.731C183.996 56.542 184.248 57.226 184.752 57.784C185.257 58.343 185.904 58.612 186.697 58.612C187.507 58.612 188.173 58.324 188.695 57.767C189.217 57.208 189.487 56.523 189.487 55.731C189.487 54.957 189.217 54.291 188.695 53.751ZM183.473 58.937C182.664 58.09 182.267 57.028 182.267 55.731C182.267 54.453 182.664 53.409 183.473 52.599C184.284 51.788 185.292 51.374 186.499 51.374C187.813 51.374 188.803 51.824 189.506 52.707V51.555H191.252V59.999H189.506V58.847C188.803 59.729 187.813 60.179 186.499 60.179C185.292 60.179 184.284 59.765 183.473 58.937Z" fill="#707F8F"/>
<path fill-rule="evenodd" clip-rule="evenodd" d="M197.407 55.1191C199.153 55.4791 200.035 56.2181 200.035 57.6581C200.035 59.2971 198.703 60.1791 196.596 60.1791C195.228 60.1791 194.147 59.9631 193.374 59.5491L193.59 58.0361C194.508 58.4501 195.48 58.6481 196.47 58.6481C197.713 58.6481 198.325 58.3241 198.325 57.6761C198.325 57.1181 197.875 56.7941 196.776 56.5781L195.534 56.3261C194.04 56.0381 193.265 55.1741 193.265 53.8771C193.265 53.1571 193.59 52.5621 194.238 52.0951C194.886 51.6081 195.732 51.3741 196.776 51.3741C197.892 51.3741 198.847 51.5551 199.621 51.8961L199.424 53.4091C198.685 53.0661 197.821 52.9041 196.866 52.9041C195.588 52.9041 194.958 53.2651 194.958 53.8941C194.958 54.4171 195.336 54.6871 196.416 54.9031L197.407 55.1191Z" fill="#707F8F"/>
<path fill-rule="evenodd" clip-rule="evenodd" d="M214.059 54.8672V59.9992H212.33V55.2452C212.33 53.8592 211.574 53.0302 210.295 53.0302C208.946 53.0302 207.955 53.8772 207.955 55.2452V59.9992H206.227V47.6292H207.973V52.6162C208.261 52.2022 209.053 51.3742 210.566 51.3742C212.798 51.3742 214.059 52.7782 214.059 54.8672Z" fill="#707F8F"/>
<path fill-rule="evenodd" clip-rule="evenodd" d="M222.427 53.751C221.905 53.211 221.239 52.94 220.447 52.94C219.636 52.94 218.989 53.211 218.484 53.751C217.98 54.273 217.728 54.939 217.728 55.731C217.728 56.542 217.98 57.226 218.484 57.784C218.989 58.343 219.636 58.612 220.429 58.612C221.239 58.612 221.905 58.324 222.427 57.767C222.949 57.208 223.219 56.523 223.219 55.731C223.219 54.957 222.949 54.291 222.427 53.751ZM217.205 58.937C216.396 58.09 215.999 57.028 215.999 55.731C215.999 54.453 216.396 53.409 217.205 52.599C218.016 51.788 219.024 51.374 220.231 51.374C221.545 51.374 222.535 51.824 223.238 52.707V51.555H224.984V59.999H223.238V58.847C222.535 59.729 221.545 60.179 220.231 60.179C219.024 60.179 218.016 59.765 217.205 58.937Z" fill="#707F8F"/>
<path fill-rule="evenodd" clip-rule="evenodd" d="M230.094 57.8018C230.616 58.3428 231.282 58.6128 232.093 58.6128C232.885 58.6128 233.533 58.3428 234.037 57.8208C234.541 57.2808 234.793 56.6148 234.793 55.8218C234.793 55.0298 234.541 54.3448 234.037 53.7868C233.533 53.2288 232.885 52.9408 232.074 52.9408C231.282 52.9408 230.616 53.2288 230.094 53.7868C229.573 54.3448 229.302 55.0298 229.302 55.8218C229.302 56.5958 229.573 57.2618 230.094 57.8018ZM235.316 52.6348C236.126 53.4808 236.54 54.5428 236.54 55.8218C236.54 57.0998 236.144 58.1618 235.334 58.9728C234.524 59.7828 233.515 60.1788 232.291 60.1788C230.977 60.1788 229.987 59.7288 229.283 58.8468V63.5098H227.555V51.5548H229.283V52.7068C229.987 51.8238 230.977 51.3738 232.291 51.3738C233.497 51.3738 234.505 51.7878 235.316 52.6348Z" fill="#707F8F"/>
<path fill-rule="evenodd" clip-rule="evenodd" d="M241.092 57.8018C241.614 58.3428 242.28 58.6128 243.091 58.6128C243.883 58.6128 244.531 58.3428 245.035 57.8208C245.539 57.2808 245.791 56.6148 245.791 55.8218C245.791 55.0298 245.539 54.3448 245.035 53.7868C244.531 53.2288 243.883 52.9408 243.072 52.9408C242.28 52.9408 241.614 53.2288 241.092 53.7868C240.571 54.3448 240.3 55.0298 240.3 55.8218C240.3 56.5958 240.571 57.2618 241.092 57.8018ZM246.314 52.6348C247.124 53.4808 247.538 54.5428 247.538 55.8218C247.538 57.0998 247.142 58.1618 246.332 58.9728C245.522 59.7828 244.513 60.1788 243.289 60.1788C241.975 60.1788 240.985 59.7288 240.281 58.8468V63.5098H238.553V51.5548H240.281V52.7068C240.985 51.8238 241.975 51.3738 243.289 51.3738C244.495 51.3738 245.503 51.7878 246.314 52.6348Z" fill="#707F8F"/>
<path fill-rule="evenodd" clip-rule="evenodd" d="M255.763 55.0293C255.637 53.7873 254.737 52.9763 253.368 52.9763C251.983 52.9763 250.938 53.8043 250.812 55.0293H255.763ZM256.988 59.3503C256.016 59.9093 254.953 60.1783 253.783 60.1783C252.361 60.1783 251.19 59.7643 250.308 58.9543C249.425 58.1443 248.975 57.0823 248.975 55.7853C248.975 54.5253 249.39 53.4803 250.2 52.6343C251.028 51.7883 252.073 51.3743 253.315 51.3743C255.997 51.3203 257.888 53.7333 257.33 56.4163H250.758C251.064 57.7843 252.145 58.5583 253.783 58.5583C254.737 58.5583 255.566 58.3243 256.736 57.7663L256.988 59.3503Z" fill="#707F8F"/>
<path fill-rule="evenodd" clip-rule="evenodd" d="M267.319 54.8672V59.9992H265.573V55.2452C265.573 53.8592 264.816 53.0302 263.502 53.0302C262.152 53.0302 261.162 53.8772 261.162 55.2452V59.9992H259.433V51.5542H261.179V52.6162C261.467 52.2022 262.259 51.3742 263.772 51.3742C266.023 51.3742 267.319 52.7612 267.319 54.8672Z" fill="#707F8F"/>
</g>
</svg>
