<svg width="288" height="72" viewBox="0 0 288 72" fill="none" xmlns="http://www.w3.org/2000/svg">
<path fill-rule="evenodd" clip-rule="evenodd" d="M31.9997 12H11.9997V44H19.9997V20H31.9997V12Z" fill="white"/>
<path fill-rule="evenodd" clip-rule="evenodd" d="M51.9997 52H27.9997V60H59.9997V40H51.9997V52Z" fill="white"/>
<path fill-rule="evenodd" clip-rule="evenodd" d="M0 51.9996V59.9996H12V71.9996H19.9987V51.9996H0Z" fill="white"/>
<path fill-rule="evenodd" clip-rule="evenodd" d="M51.9996 0V12H39.9996V20H51.9996V32H59.9996V20H71.9996V12H59.9996V0H51.9996Z" fill="white"/>
<path fill-rule="evenodd" clip-rule="evenodd" d="M110.858 45.9909V52.0003H91.9992V28.0029H99.6739V45.9909H110.858Z" fill="white"/>
<path fill-rule="evenodd" clip-rule="evenodd" d="M124.252 42.4805H129.064L126.676 35.0618L124.252 42.4805ZM130.622 48.1992H122.659L121.175 52.0005H112.995L122.08 28.0032H131.274L140.323 52.0005H132.143L130.622 48.1992Z" fill="white"/>
<path fill-rule="evenodd" clip-rule="evenodd" d="M150.715 42.5533V46.824H155.203C156.397 46.824 157.193 45.956 157.193 44.76C157.193 43.4573 156.397 42.5533 155.203 42.5533H150.715ZM150.715 33.54V37.196H154.912C155.891 37.196 156.507 36.436 156.507 35.2774C156.507 34.2294 155.853 33.54 154.804 33.54H150.715ZM143.404 52V28.0027H156.541C160.379 28.0027 163.817 30.284 163.817 34.264C163.817 36.7254 162.803 38.5347 160.812 39.6934C163.6 40.5987 165.012 42.7347 165.012 45.448C165.012 47.4387 164.323 49.0307 162.912 50.2267C161.537 51.42 159.799 52 157.7 52H143.404Z" fill="white"/>
<path fill-rule="evenodd" clip-rule="evenodd" d="M187.057 29.1978L186.442 35.7125C184.234 34.4458 181.809 33.8312 179.094 33.8312C177.032 33.8312 175.838 34.1565 175.838 35.2778C175.838 35.6045 176.018 35.8205 176.489 36.0738L177.901 36.5805L181.918 37.7392C186.225 39.0058 188.541 41.1058 188.541 44.6885C188.541 47.0045 187.6 48.8872 185.754 50.2978C183.909 51.7098 181.374 52.3965 178.226 52.3965C174.498 52.3965 171.096 51.7098 168.056 50.3352L168.889 43.8552C169.721 44.2898 170.445 44.6525 171.096 44.9418C172.436 45.4845 174.932 46.0632 177.646 46.0632C179.42 46.0632 180.326 45.6285 180.326 44.7965C180.326 44.2178 179.748 43.7832 178.588 43.4565L174.932 42.4445C171.784 41.5752 168.02 39.8018 168.02 35.0978C168.02 32.8165 168.997 31.0072 170.952 29.6685C172.906 28.3285 175.474 27.6405 178.661 27.6405C182.028 27.6405 184.813 28.1485 187.057 29.1978Z" fill="white"/>
<path fill-rule="evenodd" clip-rule="evenodd" d="M197.34 52V34.156H190.645V28.0027H211.998V34.156H205.013V52H197.34Z" fill="white"/>
<path fill-rule="evenodd" clip-rule="evenodd" d="M234.117 45.9909V52.0003H215.188V28.0029H234.081V34.0469H222.862V36.8709H233.032V42.8789H222.862V45.9909H234.117Z" fill="white"/>
<path fill-rule="evenodd" clip-rule="evenodd" d="M245.303 34.3372V39.4759H248.634C250.842 39.4759 251.928 38.6079 251.928 36.9066C251.928 35.0252 250.842 34.3372 248.634 34.3372H245.303ZM245.303 45.6292V51.9999H237.703V28.0026H250.226C256.632 28.0026 259.71 31.9479 259.71 36.6906C259.71 38.4266 259.275 39.9826 258.406 41.3226C257.538 42.6612 256.524 43.5306 255.331 43.9652L261.158 51.9999H252.108L247.658 45.6292H245.303Z" fill="white"/>
<path fill-rule="evenodd" clip-rule="evenodd" d="M264.432 48.8503C265.208 48.0996 266.523 48.0996 267.299 48.8503C268.073 49.6023 268.073 50.8943 267.299 51.6703C266.523 52.4223 265.208 52.4223 264.456 51.6703C263.681 50.8943 263.681 49.6023 264.432 48.8503Z" fill="white"/>
<mask id="mask0_304_2989" style="mask-type:luminance" maskUnits="userSpaceOnUse" x="0" y="0" width="287" height="72">
<path fill-rule="evenodd" clip-rule="evenodd" d="M0 72H286.849V0H0V72Z" fill="white"/>
</mask>
<g mask="url(#mask0_304_2989)">
<path fill-rule="evenodd" clip-rule="evenodd" d="M269.696 52H273.315V40.9787H269.696V52ZM269.531 37.5947C269.531 36.444 270.307 35.6213 271.507 35.6213C272.657 35.6213 273.503 36.444 273.503 37.5947C273.503 38.7467 272.657 39.5693 271.507 39.5693C270.307 39.5693 269.531 38.7467 269.531 37.5947Z" fill="white"/>
<path fill-rule="evenodd" clip-rule="evenodd" d="M280.928 43.9636C280.247 43.9636 279.682 44.1982 279.236 44.6676C278.814 45.1382 278.602 45.7489 278.602 46.5009C278.602 47.2289 278.814 47.8396 279.236 48.3329C279.682 48.8036 280.247 49.0396 280.928 49.0396C281.61 49.0396 282.175 48.8036 282.62 48.3329C283.067 47.8396 283.279 47.2289 283.279 46.5009C283.279 45.7489 283.067 45.1382 282.62 44.6676C282.175 44.1982 281.61 43.9636 280.928 43.9636ZM280.928 40.7436C282.643 40.7436 284.054 41.2836 285.159 42.3889C286.287 43.4929 286.85 44.8556 286.85 46.5009C286.85 48.1463 286.287 49.5089 285.159 50.6129C284.054 51.6943 282.643 52.2343 280.928 52.2343C279.236 52.2343 277.827 51.6943 276.698 50.6129C275.57 49.5089 275.007 48.1463 275.007 46.5009C275.007 44.8556 275.57 43.4929 276.698 42.3889C277.827 41.2836 279.236 40.7436 280.928 40.7436Z" fill="white"/>
</g>
</svg>
